<?xml version="1.0" encoding="utf-8"?>
<!-- Generator: Adobe Illustrator 27.9.0, SVG Export Plug-In . SVG Version: 6.00 Build 0)  -->
<svg version="1.1" id="Capa_1" xmlns="http://www.w3.org/2000/svg" xmlns:xlink="http://www.w3.org/1999/xlink" x="0px" y="0px"
	 viewBox="0 0 320 256" style="enable-background:new 0 0 320 256;" xml:space="preserve">
<style type="text/css">
	.st0{fill:#1B4789;}
	.st1{fill:#4C6FB5;}
	.st2{fill:#4C6EB3;}
	.st3{fill:#18253F;}
	.st4{fill:#EA5C63;}
	.st5{fill:#B63945;}
	.st6{opacity:0.5;fill:#FFFFFF;}
	.st7{fill:#FFFFFF;}
	.st8{fill:none;stroke:#1B4789;stroke-width:0.5343;stroke-linecap:round;stroke-miterlimit:10;}
	.st9{fill:none;stroke:#1B4789;stroke-width:0.5343;stroke-linecap:round;stroke-miterlimit:10;stroke-dasharray:3.0835,3.0835;}
	.st10{fill:none;stroke:#1B4789;stroke-width:0.529;stroke-linecap:round;stroke-miterlimit:10;}
	.st11{fill:none;stroke:#1B4789;stroke-width:0.529;stroke-linecap:round;stroke-miterlimit:10;stroke-dasharray:3.0532,3.0532;}
	.st12{fill:#FDC92A;stroke:#FFFFFF;stroke-width:0.943;stroke-miterlimit:10;}
	.st13{fill:#E84B58;}
	.st14{fill:#FAD1C4;}
	.st15{fill:#F7B8B5;}
	.st16{fill:#FDD912;}
	.st17{fill:#F6B0AF;}
	.st18{fill:#2E4874;}
	.st19{fill:none;stroke:#2E4874;stroke-width:0.1243;stroke-miterlimit:10;}
	.st20{opacity:0.3;fill:#2E4874;}
	.st21{opacity:0.3;}
	.st22{opacity:0.3;fill:#FFFFFF;}
	.st23{fill:#6A6FB2;}
	.st24{fill:#FDC92A;}
	.st25{fill:#F5A53F;}
	.st26{fill:#164076;}
	.st27{opacity:0.2;fill:url(#SVGID_1_);}
	.st28{fill:url(#SVGID_00000047047523361466816450000011693501530279124874_);}
	.st29{clip-path:url(#SVGID_00000075133290192016880800000006176288259901399221_);}
	.st30{opacity:0.4;fill:#F5A53F;}
	.st31{fill:#AABFE4;}
	.st32{fill:#FFF6E0;}
	.st33{fill:#C7384A;}
	.st34{fill:#EC6689;}
	.st35{fill:#F7B34E;}
	.st36{fill:#ED9720;}
	.st37{fill:#FDD258;}
	.st38{fill:#DBDCEF;}
	.st39{fill:#E2DCEF;}
	.st40{fill:#F0F4F9;}
	.st41{font-family:'Montserrat-Bold';}
	.st42{font-size:8.1223px;}
</style>
<g>
	<g>
		<path class="st0" d="M108.9,85c0.6-1.8,105.7-3.9,106.4-3c0.7,1-1.9,71.1-2.8,71.9c-0.9,0.7-102.2,0.5-103.6-1
			C107.5,151.5,108.2,87.3,108.9,85z"/>
		<path class="st1" d="M208.9,96.3c0,1.1,0,2.2-0.1,3.3c-0.2,5.7-0.4,12.8-0.7,19.8c-0.1,2.7-0.2,5.3-0.3,7.9
			c-0.2,3.7-0.3,7.3-0.5,10.3c0,0.4,0,0.7-0.1,1c-0.3,5.9-0.6,9.9-0.8,10.1c-0.2,0.2-6.8,0.3-16.4,0.3c-1.1,0-2.2,0-3.4,0
			c-0.4,0-0.7,0-1.1,0c-2.1,0-4.2,0-6.4,0c-1.8,0-3.6,0-5.5,0c-0.4,0-0.8,0-1.2,0h-0.2c-1.6,0-3.3,0-4.9,0c-3,0-6,0-8.9,0
			c-0.5,0-0.9,0-1.4,0c-1.6,0-3.1,0-4.7,0c-3.1,0-6.2-0.1-9.1-0.1c-1.1,0-2.2,0-3.3,0c-1.5,0-3.1,0-4.5-0.1
			c-11.5-0.2-19.8-0.5-20.2-0.9c-0.2-0.2-0.3-1.3-0.4-3.2c-0.1-2.4-0.2-5.9-0.3-10.1c0-1,0-2.1,0-3.2c0-5.3,0-11.3,0-17.1
			c0-2,0-3.9,0.1-5.7c0.1-8.5,0.3-15.7,0.5-18.1c0-0.4,0.1-0.7,0.1-0.8c0.2-0.5,8.9-1,21-1.4c1.5-0.1,3-0.1,4.6-0.2
			c1.4,0,2.7-0.1,4.1-0.1c3.1-0.1,6.3-0.2,9.6-0.3h0c7-0.2,14.2-0.3,21-0.5h0c1.2,0,2.5,0,3.7-0.1c1.8,0,3.6-0.1,5.4-0.1
			c0.1,0,0.2,0,0.3,0c0.8,0,1.6,0,2.3,0c0.6,0,1.3,0,1.9,0c11.5-0.1,19.7-0.1,19.9,0.1C209.1,87.4,209.1,91,208.9,96.3z"/>
		<g>
			<path class="st2" d="M196.5,143.4c-0.3,0-0.7,0.1-0.9,0.4c-0.2,0.2-0.3,0.6-0.2,0.9c0.1,0.2,0.4,0.4,0.7,0.4
				c0.3,0.1,0.7,0.2,1,0.2c0.3,0,0.7-0.1,0.9-0.4c0.2-0.2,0.4-0.6,0.2-1C198,143.3,197,143.4,196.5,143.4z"/>
			<path class="st2" d="M199.4,142.7c0.1-0.1,0.2-0.2,0.2-0.4c0-0.2-0.1-0.4-0.2-0.5c-0.2-0.1-0.4-0.2-0.6-0.2c-0.1,0-0.2,0-0.3,0.1
				c-0.2,0.2-0.2,0.6,0,0.8C198.6,142.8,199.1,142.9,199.4,142.7z"/>
			<path class="st2" d="M200.9,144.9c0.1,0,0.2,0,0.3-0.1c0.1-0.1,0.1-0.3,0.1-0.4c0-0.1-0.2-0.2-0.3-0.3c-0.1-0.1-0.3-0.1-0.4-0.1
				c-0.1,0-0.3,0-0.4,0.1C199.7,144.5,200.7,144.9,200.9,144.9z"/>
			<path class="st2" d="M128.3,95.3c0.1,0.1,0.3,0.2,0.5,0.2c0.2,0,0.5,0,0.7,0.1c0.1,0,0.3,0,0.4,0c0.8-0.4,0-1.5-0.6-1.6
				C128.7,93.7,127.6,94.6,128.3,95.3z"/>
			<path class="st2" d="M125.5,96.4c0,0.1,0.1,0.2,0.2,0.3c0.1,0.1,0.2,0.1,0.3,0.2c0.2,0.1,0.4,0.1,0.6,0.1c0.2,0,0.4-0.1,0.5-0.2
				c0.1-0.2,0.2-0.4,0-0.6c-0.1-0.1-0.2-0.2-0.3-0.2c-0.3-0.1-0.6-0.1-0.9,0C125.9,96,125.5,96.1,125.5,96.4z"/>
			<path class="st2" d="M128.7,96.9c0.1,0,0.1,0,0.2,0c0.1,0,0.1-0.1,0.1-0.2c0-0.1,0-0.2,0-0.3c-0.1-0.2-0.2-0.3-0.4-0.2
				c-0.2,0-0.4,0.2-0.3,0.4C128.2,96.7,128.5,96.8,128.7,96.9z"/>
			<path class="st2" d="M130.5,138.2c0,0.2,0,0.5,0.1,0.7c0.1,0.2,0.3,0.4,0.5,0.4c0.2,0,0.5,0,0.7-0.2c0.2-0.2,0.3-0.4,0.4-0.6
				c0.1-0.2,0.2-0.5,0.1-0.8c0-0.3-0.2-0.5-0.4-0.6C131.2,136.8,130.6,137.6,130.5,138.2z"/>
			<path class="st2" d="M127.6,140c0.1,0.3,0.4,0.5,0.7,0.6c0.2,0.1,0.3,0.1,0.5,0c0.2-0.1,0.2-0.4,0.2-0.6c0-0.3-0.2-0.6-0.4-0.9
				c-0.1-0.2-0.3-0.3-0.5-0.3C127.4,138.7,127.4,139.6,127.6,140z"/>
			<path class="st2" d="M130.2,141.9c0.1,0.1,0.2,0.1,0.3,0.1c0.1,0,0.2-0.1,0.2-0.3c0.1-0.2,0-0.5-0.1-0.7
				c-0.1-0.2-0.4-0.4-0.7-0.4c-0.1,0-0.2,0-0.3,0.1c-0.1,0.2,0,0.5,0.1,0.6C129.8,141.6,130,141.8,130.2,141.9z"/>
			<path class="st2" d="M197.1,99.6c0.3,0.1,0.6,0.1,0.8,0c0,0,0,0,0.1,0c0.6-0.4,0.2-1.2-0.4-0.9C197.2,98.8,196.6,99.3,197.1,99.6
				z"/>
			<path class="st2" d="M195.5,101.9c0.4,0.1,0.9,0,1.1-0.4c0.1-0.2,0.1-0.6-0.1-0.8c-0.1-0.3-0.4-0.5-0.7-0.6
				c-0.3-0.1-0.7,0-0.9,0.2C194.2,100.9,194.8,101.7,195.5,101.9z"/>
			<path class="st2" d="M197.9,101.3c0.1,0.1,0.3,0.2,0.4,0.1c0.1,0,0.2-0.1,0.2-0.2c0.1-0.2,0-0.6-0.2-0.7
				c-0.2-0.1-0.6-0.1-0.8,0.1C197.5,100.8,197.8,101.2,197.9,101.3z"/>
		</g>
		<path class="st2" d="M103.6,152.6c-1.6,0.4-0.4,4.8,0.3,4.8c1.8,0.1,111.9,0.9,112.6,0.5c0.6-0.3,1-3.8,0.3-4.3
			C216.2,153.3,105.4,152.2,103.6,152.6z"/>
	</g>
	<g>
		<g>
			<path class="st3" d="M105.8,143.2l-2.8,3.3c0.2,0.7,1.9,0.9,1.9,0.9l1.8-3.9L105.8,143.2z"/>
			<path class="st3" d="M119.9,121.6l2.8-3.3c-0.2-0.7-1.9-0.9-1.9-0.9l-1.8,3.9L119.9,121.6z"/>
			<path class="st3" d="M113.3,148.3c-3.1,0-6.3-0.9-9.1-2.5l0.8-1.4c3.7,2.2,8,2.9,11.9,1.8c3.4-0.9,6.1-3,7.8-6
				c2.2-3.9,2.9-8.3,1.8-12.3c-0.9-3.3-2.9-5.9-5.9-7.5l0.8-1.4c3.3,1.8,5.6,4.8,6.6,8.5c1.2,4.3,0.5,9.3-1.9,13.5
				c-1.9,3.4-5,5.7-8.8,6.7C116,148.1,114.6,148.3,113.3,148.3z"/>
		</g>
		<path class="st3" d="M114.1,147.4h-3.3c0,1-1.2,2.7-1.2,2.7h5.7C115.3,150.1,114.2,148.2,114.1,147.4z"/>
		<path class="st3" d="M103.1,153h18.7c0,0-0.5-2.1-1.3-2.7c-0.8-0.6-14.9-0.7-15.9-0.2C103.5,150.6,103.1,153,103.1,153z"/>
		<g>
			<path class="st4" d="M124.6,138.1C124.6,138.2,124.6,138.2,124.6,138.1c-0.7,1.4-1.6,2.6-2.7,3.6c0,0,0,0,0,0c0,0,0,0,0,0
				c0,0,0,0,0,0c-1.5,1.4-3.4,2.4-5.5,3c0,0-0.1,0-0.1,0c-1.1,0.3-2.2,0.5-3.4,0.5c-0.7,0-1.4,0-2.1-0.1c0,0,0,0-0.1,0
				c-1.7-0.2-3.3-0.8-4.8-1.7c0,0,0,0,0,0c-0.5-0.3-1-0.7-1.5-1.1c-0.6-0.5-1.2-1.2-1.7-1.8c0,0,0,0,0-0.1c-0.9-1.1-1.5-2.4-2-3.8
				c0,0,0-0.1,0-0.1c-0.4-1.3-0.7-2.7-0.7-4.2c0-1,0.1-2.1,0.4-3c0,0,0,0,0-0.1c0.4-1.8,1.3-3.4,2.4-4.8c0,0,0,0,0,0
				c1.3-1.5,2.9-2.8,4.7-3.7c0,0,0.1,0,0.1,0c0.5-0.2,0.9-0.4,1.4-0.6c1.2-0.4,2.6-0.7,3.9-0.8c0.9-0.1,1.8,0,2.6,0.1
				c0.1,0,0.1,0,0.2,0c0.5,0.1,0.9,0.2,1.3,0.3c0,0,0.1,0,0.1,0c0.7,0.2,1.4,0.5,2,0.9c0.2,0.1,0.5,0.3,0.7,0.4c0,0,0,0,0,0
				c1,0.7,1.8,1.4,2.6,2.4c0,0,0,0,0,0.1c0.5,0.5,0.9,1.1,1.2,1.8c0,0.1,0.1,0.1,0.1,0.2c0.8,1.4,1.4,2.9,1.7,4.6c0,0,0,0.1,0,0.1
				c0.1,0.7,0.2,1.4,0.3,2C125.9,134.5,125.5,136.4,124.6,138.1z"/>
			<g>
				<path class="st5" d="M116.1,130.5c-0.3,0.7-1.3,0.9-2,1.3c-1.3,0.7-1.7,2.5-1,3.7c0.4,0.6,0.9,1,1.3,1.6
					c0.4,0.6,0.6,1.4,0.1,1.9c-0.3,0.3-0.7,0.4-1.1,0.4c-1.4,0-3.2-1.4-2.9-2.9c0.1-0.5,0.4-1,0.5-1.5c0.1-0.5,0.1-1.1-0.4-1.4
					c-0.5-0.3-1.1-0.1-1.6,0.1c-0.5,0.2-1.2,0.7-1.8,0.7c-0.5,0-1.2-0.2-1.5-0.6c-0.4-0.5-0.2-1.2,0.1-1.6c0.4-0.5,0.9-0.8,1.3-1.1
					c0.5-0.4,0.9-0.8,1-1.4c0.1-1-0.9-1.9-2-2c-0.6-0.1-1.4,0.1-1.6,0.7c-0.1,0.3,0,0.7,0,1.1c0,1-0.8,1.9-1.4,2.7
					c-0.6,0.8-1.2,2-0.6,2.9c0.4,0.7,1.4,0.8,2.1,0.8c1.4,0,3-0.2,4,1c0.2,0.2,0.3,0.6,0.2,0.8c-0.1,0.3-0.6,0.5-0.9,0.4
					c-0.5,0-1-0.2-1.5-0.1c-0.5,0.1-1,0.5-0.9,1c0.1,0.7,1.2,0.7,1.4,1.4c0.2,0.5-0.2,1-0.6,1.3c-0.6,0.5-1.4,0.7-2.1,0.8
					c-2.8-2.4-4.4-6-4.4-10c0-5.8,3.8-10.4,9-12.2c0.2,0.2,0.5,0.4,0.8,0.6c1,0.5,2.2,0.3,3.3,0.6c0.4,0.1,0.8,0.3,1,0.6
					c0.2,0.5-0.1,1.1-0.6,1.4c-0.5,0.3-1.1,0.3-1.6,0.4c-0.5,0.1-1,0.3-1.3,0.7c-0.3,0.4-0.2,1.1,0.2,1.3c0.6,0.3,1.5-0.1,1.8,0.4
					c0.2,0.5-0.5,1-0.4,1.5c0,0.3,0.3,0.5,0.6,0.6c0.3,0.1,0.6,0.1,0.9,0.1c0.7,0,1.3,0,1.9,0.4C116,129.1,116.4,129.9,116.1,130.5z
					"/>
				<path class="st5" d="M121.9,141.8C121.9,141.8,121.9,141.8,121.9,141.8c-0.6,0-1.2,0-1.8,0c-0.4,0-0.9,0-1.3-0.1
					c-0.4-0.1-0.8-0.4-0.9-0.8c-0.3-1.1,1.1-2.1,0.8-3.1c-0.2-0.6-1-1.1-0.9-1.7c0-0.3,0.3-0.6,0.6-0.8c0.3-0.2,0.6-0.2,1-0.3
					c1.2-0.2,2.4-0.5,3.6-0.7c0.5-0.1,1.2-0.3,1.2-0.9c0-0.5-0.6-0.8-1.1-0.8c-1,0.1-1.8,1.1-2.8,0.9c-0.7-0.1-1.3-0.9-1.1-1.6
					c0.2-0.7,0.9-1.3,0.6-2c-0.3-0.7-1.3-0.7-1.7-1.3c-0.3-0.5-0.1-1.2,0.4-1.6c0.5-0.4,1.1-0.5,1.6-0.6c0.6-0.1,1.2-0.3,1.6-0.6
					c0.4-0.4,0.7-1.1,0.3-1.6c-0.5-0.7-1.6-0.3-2.4-0.6c-0.7-0.3-1-1.2-0.8-1.9c0.1-0.3,0.3-0.6,0.5-0.8c3.9,2.2,6.4,6.7,6.7,11.6
					C126,136.2,124.4,139.5,121.9,141.8z"/>
			</g>
			<path class="st6" d="M115.5,122c1,1.7-0.9,4.6-4.2,6.5c-3.3,1.9-6.8,2.1-7.7,0.4c-1-1.7,0.9-4.6,4.2-6.5
				C111.1,120.5,114.6,120.3,115.5,122z"/>
		</g>
		<path class="st6" d="M122,127.3c1.2,1,2.4,2,3.5,3.1c0,0,0-0.1,0-0.1C124.4,129.2,123.3,128.2,122,127.3c0.2-1,0.3-2,0.4-3
			c0.5,0.5,0.9,0.9,1.4,1.4c0-0.1-0.1-0.1-0.1-0.2c-0.4-0.4-0.8-0.9-1.3-1.3c0-0.2,0-0.3,0-0.5c0,0,0,0,0-0.1c0,0.2,0,0.3,0,0.5
			c-0.9-0.9-1.9-1.7-3-2.4c0.1-0.1,0.3-0.3,0.4-0.4c0,0,0,0,0,0c-0.1,0.1-0.3,0.3-0.4,0.4c-0.9-0.6-1.8-1.2-2.8-1.6
			c0.1,0,0.3-0.1,0.4-0.1c0,0-0.1,0-0.1,0c-0.1,0-0.3,0.1-0.4,0.1c-0.3-0.2-0.6-0.3-0.9-0.5c-0.1,0-0.1,0-0.2,0
			c0.4,0.2,0.7,0.3,1.1,0.5c-1.4,0.5-2.7,1.1-4,1.9c-1.7-0.5-3.3-0.9-5-1.2c0,0-0.1,0-0.1,0c1.7,0.3,3.4,0.7,5.1,1.2
			c-0.4,0.3-0.8,0.6-1.2,0.9c-1.4,1.1-2.8,2.5-3.9,4c-1.5-0.8-3.1-1.7-4.7-2.4c0,0,0,0,0,0c1.6,0.8,3.1,1.6,4.7,2.4
			c-0.4,0.6-0.8,1.2-1.2,1.9c-0.7,1.2-1.3,2.6-1.9,4c-1.4-1.1-2.8-2.3-4-3.5c0,0,0,0,0,0.1c1.3,1.2,2.6,2.4,4,3.5
			c-0.6,1.8-1.1,3.7-1.4,5.8c-0.8-0.7-1.6-1.3-2.3-2.1c0,0,0,0.1,0,0.1c0.7,0.7,1.4,1.4,2.2,2c-0.1,0.6-0.2,1.2-0.2,1.8
			c0,0,0,0,0,0.1c0.1-0.6,0.1-1.2,0.2-1.8c1.2,1,2.5,1.9,3.9,2.6c-0.3,0.7-0.6,1.4-0.9,2.1c0,0.1-0.1,0.2-0.1,0.3l0,0
			c0-0.1,0.1-0.2,0.1-0.3c0.3-0.7,0.6-1.4,0.9-2.1c0.2,0.1,0.5,0.3,0.8,0.4c1.5,0.8,3.1,1.5,4.7,2c-0.5,0.5-1.1,0.9-1.6,1.4
			c0,0,0,0,0.1,0c0.5-0.5,1.1-0.9,1.6-1.4c1.3,0.4,2.6,0.7,4,0.9c0,0,0.1,0,0.1,0c-1.4-0.2-2.7-0.5-4-1c1.4-1.3,2.6-2.6,3.7-4
			c1.9,0.8,3.8,1.4,5.8,2c0,0,0,0,0,0c0,0,0,0,0,0c0,0,0,0,0,0c-2-0.5-3.9-1.2-5.8-2c0.9-1.2,1.8-2.4,2.5-3.7
			c0.3-0.5,0.6-1.1,0.9-1.6c1.7,1.2,3.4,2.4,5.1,3.7c0,0,0,0,0,0c-1.7-1.3-3.4-2.5-5.1-3.7C120.7,132.1,121.5,129.7,122,127.3z
			 M119.4,121.8c1.1,0.7,2.1,1.5,3,2.4c-0.1,1-0.2,2-0.4,3c-1.4-1.1-3-2.2-4.6-3.1C118.1,123.3,118.7,122.6,119.4,121.8z
			 M116.6,120.1c1,0.5,1.9,1,2.8,1.7c-0.7,0.7-1.4,1.5-2,2.3c-0.8-0.5-1.7-0.9-2.6-1.3c-0.7-0.3-1.4-0.6-2.2-0.8
			C113.9,121.2,115.2,120.6,116.6,120.1z M112.5,122.1c0.7,0.2,1.5,0.5,2.2,0.8c0.9,0.4,1.7,0.8,2.6,1.2c-1.6,1.9-3.1,3.9-4.5,6
			c-1.8-1.1-3.6-2.1-5.4-3.1C108.9,125,110.6,123.3,112.5,122.1z M106.2,128.9c0.4-0.6,0.8-1.3,1.2-1.9c1.8,1,3.7,2,5.4,3.1
			c-0.3,0.4-0.5,0.8-0.8,1.2c-1,1.6-2,3.2-2.8,4.9c-1.7-1-3.3-2.1-4.9-3.4C104.8,131.5,105.4,130.1,106.2,128.9z M106.7,141.4
			c-1.4-0.8-2.7-1.7-3.9-2.7c0.3-2.1,0.8-4,1.4-5.8c1.5,1.2,3.2,2.3,4.9,3.4C108.3,138,107.5,139.7,106.7,141.4z M112.3,143.8
			c-1.9-0.6-3.8-1.4-5.5-2.4c0.7-1.7,1.6-3.4,2.4-5.1c0.3,0.2,0.6,0.4,0.9,0.5c1.9,1.1,3.9,2.1,5.9,2.9
			C114.9,141.2,113.7,142.6,112.3,143.8z M118.6,136.1c-0.7,1.3-1.6,2.5-2.5,3.7c-2.4-1-4.6-2.1-6.8-3.5c1.1-2.1,2.3-4.1,3.7-6.1
			c2.2,1.4,4.4,2.8,6.6,4.3C119.2,135,118.9,135.5,118.6,136.1z M119.5,134.4c-2.2-1.5-4.4-2.9-6.6-4.3c1.4-2.1,2.9-4.1,4.5-6
			c1.6,0.9,3.2,2,4.6,3.1C121.5,129.7,120.7,132.1,119.5,134.4z"/>
	</g>
	<g>
		<g>
			<g>
				<g>
					<polygon class="st0" points="185.3,126.1 184.5,126.1 182.5,126 180.4,126 166,125.7 164.9,125.6 163.8,125.6 158.1,125.5 
						157.1,125.5 156,125.4 153.9,125.4 144.9,125.2 142.9,125.2 139.1,125.1 138,125 137.3,125 136.6,125 136.6,125 136.6,93.3 
						184,93.3 184.1,94 184.1,94.2 184.1,95.8 184.2,97 184.2,98.3 184.5,104.7 184.6,106.9 184.8,112.6 184.9,114.7 185.2,122.3 
						185.2,123.7 185.3,125 					"/>
					<g>
						<path class="st7" d="M184.1,94l0-0.7h-2.5L166,103.4l-1.1,0.7l-1.1,0.7l-2.8,1.8l-0.9-0.6l-2-1.3l-0.5-0.3l-0.6-0.4l-1.1-0.7
							l-4.6-3l-10.9-7.1h-3.8v0.1l0.7,0.5l12.8,8.3l3.9,2.6l1.6,1.1l0.5,0.3l1.2,0.8l1.3,0.9l2.2,1.5l3.6-2.3l3.3-2.1l15.8-10.3
							l0.4-0.2L184.1,94z M154.6,107.9l2.6,1.7c0.2-0.3,0.4-0.6,0.7-0.8l-2.6-1.7C155.1,107.4,154.8,107.7,154.6,107.9z
							 M153.2,105.8l-1.6-1.1l-2.2-1.4l-12.1-7.9v1.3l11.5,7.5l0.8,0.5l1.6,1.1l1.6,1.1h2L153.2,105.8z M167,114.7l-1.3-0.9
							l-0.3-0.2l-1.5-1l-2.8-1.8l-2.9,1.9l-1.4,0.9l-1.6,1.1l-3.8,2.5l-12.2,7.9l3.8,0.1l4.2-2.7l8.9-5.8l1.1-0.7l1.1-0.7l2.9-1.9
							l2.8,1.8l0.2,0.2l0.8,0.5l1.1,0.7l14.5,9.4l2,0l2,0L167,114.7z M185.2,123.7l-0.1-1.3l-11.8-7.6l-3.3-2.1l-2-1.3l-1.9-1.2
							l4.8-3.1l1.6-1.1l1.6-1.1c0,0,0,0,0,0h0l9.9-6.4l0-1.2l0-1.2l-4,2.6l-9.8,6.3l-1.6,1.1l-1.6,1.1l-4.8,3.1l3.9,2.5l0.4,0.3
							l1.2,0.8l1.6,1.1l15.8,10.3L185.2,123.7z M157.9,108.8l-2.6-1.7l-0.4-0.3l-1.6-1.1l-1.6-1.1l-2.2-1.4l-12.1-7.9l-0.7-0.5v2.6
							l0.7,0.5l10.3,6.7l0.6,0.4l1.1,0.7l1.6,1.1l2.9,1.9l1.9,1.3l-3.9,2.5l-1.6,1.1l-1.6,1.1l-0.7,0.5l-10.5,6.8l-0.7,0.5v2.5h0
							l0.7-0.5l3.6-2.3l11.6-7.5l1.4-0.9l0.2-0.1l1.6-1.1l3.9-2.5L157.9,108.8z"/>
						<g>
							<polygon class="st4" points="185.3,126.1 184.5,126.1 182.5,126 166,115.3 164.9,114.6 164.8,114.6 163.8,113.9 161,112.1 
								158.1,114 157.1,114.7 156,115.4 149.1,119.8 141,125.1 139.1,125.1 138,125 137.3,125 136.6,125 136.6,125 136.6,123.7 
								137.3,123.3 144.6,118.6 150.6,114.7 153.9,112.6 156,111.1 157.8,110 157.2,109.6 154.6,107.9 152.9,106.9 151.3,105.8 
								149.6,104.7 148.8,104.2 137.3,96.7 136.6,96.3 136.6,93.3 138.5,93.3 150.8,101.3 156,104.7 157,105.3 157.1,105.3 
								158.1,106 159.4,106.9 161,107.9 163.8,106.1 164.9,105.4 166,104.7 183.5,93.3 184,93.3 184.1,94 184.1,94.2 184.1,95.8 
								184.2,97 177.3,101.5 172.4,104.7 170.7,105.8 169.1,106.9 164.2,110 167.3,112 168.1,112.6 171.4,114.7 185.2,123.7 
								185.3,125 							"/>
						</g>
					</g>
					<path class="st7" d="M136.6,112.6v2.1H156v10.8l1.1,0l1.1,0v-12.9H136.6z M184.5,104.7H166V93.3h-2.1v13.6h20.7L184.5,104.7z
						 M156,93.3v11.4h-19.4v2.1h21.5V93.3H156z M184.8,112.6h-21v13.1l1.1,0l1.1,0v-11h18.9L184.8,112.6z"/>
					<g>
						<polygon class="st4" points="184.8,113.6 164.9,113.6 164.9,125.6 163.8,125.6 158.1,125.5 157.1,125.5 157.1,113.6 
							136.6,113.6 136.6,105.8 157.1,105.8 157.1,93.3 164.9,93.3 164.9,105.8 184.5,105.8 184.6,106.9 184.8,112.6 						"/>
					</g>
				</g>
			</g>
		</g>
	</g>
</g>
<g>
	<g>
		<g>
			<path class="st8" d="M148.8,64.6c0.1-0.5,0.2-1,0.4-1.5"/>
			<path class="st9" d="M150.1,60.2c2-5.4,5.4-10.3,9.9-13.9c5.6-4.6,12.9-7.2,20.2-7.3c7.9-0.1,16.4,3.4,20,10.4
				c3,5.7,2.2,13.1-1.9,18c-1.4,1.7-3.3,3.2-5.6,3.7c-2.2,0.5-4.8-0.2-6.1-2c-2-2.7-0.5-6.9,2.5-8.4c3-1.4,6.8-0.4,9.2,1.9
				c2.4,2.3,3.7,5.6,4.2,8.9c1.2,7-0.3,14.5-4.2,20.4c-3.3,5.1-8.4,9.1-14.1,11.2"/>
			<path class="st8" d="M182.9,103.6c-0.5,0.1-1,0.3-1.5,0.4"/>
		</g>
	</g>
	<g>
		<g>
			<path class="st10" d="M157.9,145.3c-0.5-0.2-0.9-0.4-1.4-0.6"/>
			<path class="st11" d="M153.6,143.7c-5.5-1.6-11.4-1.7-16.9-0.2c-7,1.8-13.3,6.1-17.6,11.9c-4.7,6.3-6.8,15.1-3.3,22.1
				c2.8,5.7,9.2,9.4,15.5,9c2.2-0.1,4.5-0.8,6.2-2.3c1.7-1.5,2.6-3.9,2-6.1c-1-3.2-5.3-4.4-8.2-2.9c-2.9,1.6-4.3,5.2-3.8,8.5
				c0.4,3.3,2.3,6.2,4.6,8.6c4.9,5.1,11.7,8.2,18.8,8.6c6,0.3,12.1-1.4,17.1-4.8"/>
			<path class="st10" d="M169.2,195.3c0.4-0.3,0.8-0.6,1.2-0.9"/>
		</g>
	</g>
	<g>
		<path class="st12" d="M166.4,69.3l-3.2-5.4c2.1-1.6,3.8-3.9,4.8-6.7c2.4-7.3-1.5-15.2-8.7-17.6c-0.2-0.1-0.4-0.1-0.6-0.2
			c-0.1,0-0.1,0-0.2,0c-0.2-0.1-0.4-0.1-0.6-0.2c0,0,0,0,0,0c-0.2,0-0.4-0.1-0.6-0.1c-0.1,0-0.1,0-0.2,0c-0.2,0-0.4-0.1-0.6-0.1
			c0,0,0,0,0,0c-0.2,0-0.4,0-0.6-0.1c-0.1,0-0.1,0-0.2,0c-0.2,0-0.4,0-0.6,0c0,0,0,0,0,0c-0.2,0-0.4,0-0.6,0c0,0-0.1,0-0.1,0
			c-0.2,0-0.4,0-0.6,0c0,0,0,0-0.1,0c-0.2,0-0.4,0-0.5,0.1c0,0-0.1,0-0.1,0c-0.2,0-0.4,0.1-0.6,0.1c0,0,0,0-0.1,0
			c-0.1,0-0.2,0-0.4,0.1l0,0c-4.7,1-8.7,4.3-10.4,9.2c-2.4,7.3,1.5,15.2,8.7,17.6L165,71C166,71.3,166.9,70.2,166.4,69.3z"/>
		<g>
			<path class="st7" d="M159.5,50.7c0.4,0,0.6-0.3,0.6-0.6c0-0.4-0.3-0.6-0.6-0.6h-9.4c-0.4,0-0.6,0.3-0.6,0.6
				c0,0.4,0.3,0.6,0.6,0.6H159.5z"/>
			<path class="st7" d="M157.6,55.9c0.4,0,0.6-0.3,0.6-0.6c0-0.4-0.3-0.6-0.6-0.6h-6.2c-0.4,0-0.6,0.3-0.6,0.6
				c0,0.4,0.3,0.6,0.6,0.6H157.6z"/>
		</g>
	</g>
</g>
<g>
	<g>
		<path class="st7" d="M262,123.5c-2.8-1.4-5.5,1.2-5.5,1.2c0.7-2.9-1.6-6.7-6.3-6.3c-1.6,0.1-2.6,0.9-3.3,2c-0.8-2.4-4.6-5.2-8.5-4
			c-5.4,1.6-4.1,8.3-4.1,8.3c-6.8-6.9-11.8,3.4-7.7,4.6c5.3,1.6,10.8,2.6,16.8,2.7c9.5-0.2,19.3-2.8,19.3-2.8
			C264.6,129,264.8,124.8,262,123.5z"/>
		<path class="st7" d="M77.9,90.9c1.2-0.1,1.4-2.7-0.4-3.6c-1.8-0.9-3.5,0.8-3.5,0.8c0.5-1.8-1-4.2-4-4c-1,0.1-1.6,0.6-2.1,1.2
			c0,0,0-0.1-0.1-0.1c-0.7,1.5-0.4,3.3-0.4,3.3c-4.4-3.9-7.3,2.2-5.7,3.8c1.3,0.2,2.5,0.3,3.9,0.3C71.7,92.6,77.9,90.9,77.9,90.9z"
			/>
	</g>
	<g>
		<path class="st4" d="M258.4,155.4l0.3,0.8c0.1,0.3,0.3,0.5,0.6,0.6l0.8,0.3l-0.8,0.3c-0.3,0.1-0.5,0.3-0.6,0.6l-0.3,0.8l-0.3-0.8
			c-0.1-0.3-0.3-0.5-0.6-0.6l-0.8-0.3l0.8-0.3c0.3-0.1,0.5-0.3,0.6-0.6L258.4,155.4z"/>
		<g>
			<g>
				<polygon class="st13" points="250.4,80 247.6,80 249.6,78.1 249,77.5 247.1,79.4 247.1,76.7 246.2,76.7 246.2,79.4 244.3,77.5 
					243.7,78.1 245.7,80 242.9,80 242.9,80.8 245.7,80.8 243.7,82.8 244.3,83.3 246.2,81.4 246.2,84.1 247.1,84.1 247.1,81.4 
					249,83.3 249.6,82.8 247.6,80.8 250.4,80.8 				"/>
				<polygon class="st2" points="61.4,130.7 59.1,130.7 60.7,129.1 60.3,128.6 58.6,130.2 58.6,127.9 57.9,127.9 57.9,130.2 
					56.3,128.6 55.8,129.1 57.5,130.7 55.2,130.7 55.2,131.4 57.5,131.4 55.8,133 56.3,133.5 57.9,131.8 57.9,134.2 58.6,134.2 
					58.6,131.8 60.3,133.5 60.7,133 59.1,131.4 61.4,131.4 				"/>
				<polygon class="st13" points="128.3,89.7 126.2,89.7 127.7,88.3 127.3,87.8 125.8,89.3 125.8,87.2 125.2,87.2 125.2,89.3 
					123.7,87.8 123.2,88.3 124.7,89.7 122.6,89.7 122.6,90.4 124.7,90.4 123.2,91.8 123.7,92.3 125.2,90.8 125.2,92.9 125.8,92.9 
					125.8,90.8 127.3,92.3 127.7,91.8 126.2,90.4 128.3,90.4 				"/>
				<path class="st2" d="M104.3,72.5l0.5,1.3c0.2,0.5,0.6,0.9,1.1,1.1l1.3,0.5l-1.3,0.5c-0.5,0.2-0.9,0.6-1.1,1.1l-0.5,1.3l-0.5-1.3
					c-0.2-0.5-0.6-0.9-1.1-1.1l-1.3-0.5l1.3-0.5c0.5-0.2,0.9-0.6,1.1-1.1L104.3,72.5z"/>
				<path class="st13" d="M55,105.4l0.4,0.9c0.1,0.3,0.4,0.6,0.7,0.7l0.9,0.4l-0.9,0.4c-0.3,0.1-0.6,0.4-0.7,0.7l-0.4,0.9l-0.4-0.9
					c-0.1-0.3-0.4-0.6-0.7-0.7l-0.9-0.4l0.9-0.4c0.3-0.1,0.6-0.4,0.7-0.7L55,105.4z"/>
				<path class="st0" d="M221,85.8l0.3,0.9c0.1,0.3,0.4,0.6,0.7,0.7l0.9,0.3l-0.9,0.3c-0.3,0.1-0.6,0.4-0.7,0.7l-0.3,0.9l-0.3-0.9
					c-0.1-0.3-0.4-0.6-0.7-0.7l-0.9-0.3l0.9-0.3c0.3-0.1,0.6-0.4,0.7-0.7L221,85.8z"/>
				<circle class="st13" cx="90.8" cy="94.1" r="1.2"/>
				<path class="st0" d="M247,168.5c0,0.4-0.4,0.7-0.8,0.7c-0.4,0-0.7-0.4-0.7-0.8c0-0.4,0.4-0.7,0.8-0.7
					C246.7,167.7,247,168.1,247,168.5z"/>
				<path class="st13" d="M251.8,103.9c0,0.5-0.4,1-1,1c-0.5,0-1-0.4-1-1c0-0.5,0.4-1,1-1C251.3,103,251.8,103.4,251.8,103.9z"/>
				<path class="st13" d="M161.6,70.7l0.4,0.9c0.1,0.3,0.4,0.6,0.7,0.7l0.9,0.4l-0.9,0.4c-0.3,0.1-0.6,0.4-0.7,0.7l-0.4,0.9
					l-0.4-0.9c-0.1-0.3-0.4-0.6-0.7-0.7l-0.9-0.4l0.9-0.4c0.3-0.1,0.6-0.4,0.7-0.7L161.6,70.7z"/>
			</g>
		</g>
	</g>
</g>
<g>
	<g>
		<g>
			<g>
				<path class="st3" d="M150.5,58.3c-0.1,4.6,2.8,9.3,8.4,9.2l4,6.6l2.6-14.4c0.1-1-1.6-3.3-2.5-3.8c-2.3-1.3-3.6-2.5-6.3-1.9
					C156.8,53.9,150.6,52.4,150.5,58.3z"/>
				<g>
					<path class="st3" d="M152.7,56.7c0.7-1.8,0.4-3.9-0.8-5.4c-0.4-0.6-1-1.1-1.7-1.2c-1-0.2-2,0.3-2.7,0.9
						c-0.8,0.7-1.4,1.7-1.6,2.7c-0.2,1.1,0.1,2.2,0.8,3c0.4,0.4,0.8,0.7,1.3,1c0.7,0.4,1.6,0.6,2.4,0.5c0.8-0.1,1.6-0.6,1.9-1.4
						L152.7,56.7z"/>
				</g>
				<path class="st4" d="M163.2,66.4c0-1,0.8-1.8,1.8-1.8s1.8,0.8,1.8,1.8c0,1-0.8,1.8-1.8,1.8S163.2,67.4,163.2,66.4z"/>
				<path class="st14" d="M157.4,63c-0.1,0.1-1.2,0.1-1.4,0.1c-0.5,0-1.8-0.1-2,1.3c-0.2,1.4,1.2,2.2,2,2.3c0.2,0,0.8,0.1,0.9,0.2
					c0.5,0.5,0,4.7,0.4,6.2c0.8,3.2-0.9,1.7-0.9,1.7s11.6,12.4,8.4,0c0,0-0.7-7.7-0.6-7.7c0.7-0.7,3.2-0.9,1.6-6.4
					c-1.5-5.1-5.2-4.7-6.2-4.5C158.8,56.2,161.4,58,157.4,63z"/>
				<path class="st3" d="M164.5,56.8c0.4,1.6-4.4,2.8-6-0.2c0,0-0.2-3,2.2-3.3C161.9,53.2,163.6,53.6,164.5,56.8z"/>
				<g>
					<path class="st15" d="M154.7,64.8c0,0,0.9-1.8,1.9,0.6"/>
					<path class="st7" d="M165.2,63.5l-2.3,1.2c0,0,1.1,0.8,1.7,0.4C165.2,64.5,165.2,63.5,165.2,63.5z"/>
					<path class="st16" d="M160.7,61.4c-0.2,0.3-0.1-0.7,0.2-0.9c0.3-0.2,0.8-0.2,1,0.1C161.9,60.6,161.2,60.7,160.7,61.4z"/>
					<path class="st16" d="M164.6,59.2c0.3,0.1-0.4-0.6-0.8-0.6c-0.4,0-0.7,0.3-0.7,0.7C163.1,59.3,163.8,59,164.6,59.2z"/>
					<path class="st3" d="M160.7,61.4c-0.2,0.3-0.1-0.7,0.2-0.9c0.3-0.2,0.8-0.2,1,0.1C161.9,60.6,161.2,60.7,160.7,61.4z"/>
					<path class="st3" d="M164.6,59.2c0.3,0.1-0.4-0.6-0.8-0.6c-0.4,0-0.7,0.3-0.7,0.7C163.1,59.3,163.8,59,164.6,59.2z"/>
					<path class="st3" d="M161.8,62.4c0.1,0.3,0.3,0.5,0.4,0.4c0.1-0.1,0.2-0.3,0-0.6c-0.1-0.3-0.3-0.5-0.4-0.4
						C161.7,61.8,161.7,62.1,161.8,62.4z"/>
					<path class="st3" d="M163.9,61.3c0.1,0.3,0.3,0.4,0.4,0.4c0.1-0.1,0.1-0.3,0-0.6c-0.1-0.3-0.3-0.4-0.4-0.4
						C163.8,60.8,163.8,61.1,163.9,61.3z"/>
					<path class="st15" d="M164.2,67.1c0,0-2.4,0.5-3.6,0.4C159.3,67.4,164.5,70.7,164.2,67.1z"/>
					<path class="st3" d="M163.1,61c0.2,0.3,0.5,0.7,0.8,0.9c0.3,0.2,0.7,0.4,0.9,0.6c0.3,0.3,0.1,0.8-0.4,0.8
						c-0.1,0-0.2-0.1-0.1-0.2c0.1-0.1,0.3-0.2,0.1-0.4c0-0.1-0.2-0.1-0.2-0.1c-0.2-0.1-0.4-0.2-0.5-0.4c-0.3-0.3-0.6-0.7-0.8-1.1
						C162.8,61,163,60.9,163.1,61z"/>
				</g>
				<path class="st4" d="M155.2,67.2c0-1,0.8-1.8,1.8-1.8c1,0,1.8,0.8,1.8,1.8c0,1-0.8,1.8-1.8,1.8C156,69,155.2,68.2,155.2,67.2z"
					/>
			</g>
			<g>
				<path class="st17" d="M162.8,178.8l0.9,6.2c0,0,1.4,4.1,2.7,2.5c1.3-1.6,2.6-2.5,2.6-2.5l0.4-6.5L162.8,178.8z"/>
				<path class="st15" d="M166.3,179l0.5,10.3c0,0-4.1,0.6-2.6-2.2l-1.2-7.7L166.3,179z"/>
				<path class="st18" d="M169.5,185.1l5.2,4.2c0.3,0.2,0.1,0.5-0.3,0.5c0,0-11.3-0.1-11.3-0.2c-0.1-1,0.4-4.6,0.6-5.5
					c0-0.1,1.2,4.4,1.4,4c0.3-0.6,3.5-2.8,3.8-3C169,184.9,169.3,184.9,169.5,185.1z"/>
			</g>
			<g>
				<path class="st17" d="M141.4,178.8L139,185c0,0-1.4,4.1-2.7,2.5c-1.3-1.6-2.6-2.5-2.6-2.5l1.1-6.5L141.4,178.8z"/>
				<path class="st15" d="M137.9,179l-2,10.3c0,0,4.1,0.6,2.6-2.2l2.7-7.7L137.9,179z"/>
				<path class="st18" d="M133.2,185.1l-5.2,4.2c-0.3,0.2-0.1,0.5,0.3,0.5c0,0,11.3-0.1,11.3-0.2c0.1-1,0-5.4-0.1-5.4
					c-0.4,0-1,4.2-1.9,3.9c-0.6-0.2-3.5-2.8-3.8-3C133.7,184.9,133.4,184.9,133.2,185.1z"/>
			</g>
			<g>
				<path class="st4" d="M152.2,96.2c-2.4,4.2-3.7,7.3-5,12.7c-1.6,6.2-15,62.1-15.8,73.5c2,0.5,10.2,1.2,11.4,1.1
					c4-11.3,15-51.9,16.7-59.1c0.3-1.1,2-0.9,1.8,0.3c-1,8.2-1.2,43.9-1.6,57.9c1,0.5,11,0.1,12.2,0c1.3-14,5.3-69.4-5.1-86.6
					C162,95.4,157,96.1,152.2,96.2z"/>
				<path class="st19" d="M165.2,96.2c0,0,4.9,12.1,4.9,26.9c0,14.8-0.9,53.2-0.9,53.2"/>
				<line class="st19" x1="137.7" y1="175.3" x2="154.7" y2="96.7"/>
				<path class="st20" d="M167,96.4l-21.1,17.4c0,0,3.1-11.3,6.5-17.8L167,96.4z"/>
			</g>
			<line class="st19" x1="159.7" y1="176.3" x2="172.2" y2="176.4"/>
			<line class="st19" x1="132.5" y1="175.4" x2="145.5" y2="175.3"/>
			<g>
				<path class="st14" d="M186.3,84.5c0,0-12.8,17.7-15.8,15.6c0,0-3.4-2.4-1.7-12.3c0-1,0-1.6,0-1.8c0,0-0.7-9.8-2.4-11.8
					c-0.2-0.2-0.7-0.6-0.6-0.7c4.9-1.2,6.8,11.1,8.1,16.8c0.1,0.2,9.4-8.9,9.4-8.9s4.9-6.5,5.3-6.1c0.5,0.5-1.4,3.4-1.4,3.4
					s0.1,0.3,0.5,0.5c0.4,0.2,0.6,0.4,0.7,0.9c0.1,0.5,0.6,0.8,0.7,1.1C189.2,81.6,187.4,83.8,186.3,84.5z"/>
				<path class="st14" d="M183.6,81.5c0,0,1-2.8,1.4-2.7c0.4,0.1,2.2,0.9,2.2,1.6c0,0.7-1.6,0.1-1.6,0.1s0.3,1.6-0.5,1.8
					C184.3,82.4,183.6,81.5,183.6,81.5z"/>
				<g>
					<path class="st15" d="M186,80.3c0,0,0,0.7,0.5,0.8c0,0,0.1,0.7,0.9,0.6c0,0-0.2,0.3,0.2,0.4C187.7,82.1,185.7,84.3,186,80.3z"
						/>
					<g>
						<path class="st18" d="M185.6,79c0.6,0.3,1.6,0.5,1.9,1.1c0.1,0.7-0.9,0.7-1.4,0.7c-0.3,0-0.3,0-0.2,0.3c0,0,0.1,0.6,0.1,0.6
							c0,0-0.1-0.6-0.1-0.6c0-0.1-0.1-0.2,0-0.3c0.1-0.1,0.2,0,0.3,0c0.4,0,1.7-0.2,1.1-0.8C187,79.6,186,79.2,185.6,79L185.6,79z"
							/>
					</g>
					<g>
						<path class="st18" d="M187.3,78.8c-0.1,0.3-0.3,0.5-0.6,0.6C186.8,79.2,187.1,78.9,187.3,78.8L187.3,78.8z"/>
					</g>
					<g>
						<path class="st18" d="M188.1,79.8c-0.3,0.6-0.9,1-1.4,1.3c-0.2,0.1-0.5,0.1-0.6-0.1c0.1,0.1,0.4,0.2,0.6,0
							C187.2,80.7,187.7,80.2,188.1,79.8L188.1,79.8z"/>
					</g>
					<g>
						<path class="st18" d="M186.5,81.2c0.4,1.5,1.4-0.2,2-0.6c0,0-0.5,0.6-0.5,0.6C187.6,81.8,186.7,82.4,186.5,81.2L186.5,81.2z"
							/>
					</g>
					<g>
						<path class="st18" d="M187.4,81.6c0.1,0.2,0.2,0.6,0.4,0.6c0.3,0,0.6,0,0.8-0.2c0,0,0,0,0,0c-0.2,0.2-0.6,0.3-0.8,0.3
							C187.5,82.3,187.4,81.8,187.4,81.6L187.4,81.6z"/>
					</g>
				</g>
			</g>
			<path class="st18" d="M164.7,73.4c0,0,4.4-0.3,5.6,2.3c1.3,2.6,4.1,14.2,4.1,14.2l2.4-2.1l3,5.5c0,0-5.7,8.7-8.9,7.7
				C167.7,100,164.6,76.9,164.7,73.4z"/>
			<path class="st20" d="M174.9,92.5c0.8,1.4,1.6,2.8,2.4,4.1c-1.9,2.3-4.6,4.9-6.4,4.3c-2.9-0.9-5.7-19.8-6.2-26
				C168,80.9,171.7,86.6,174.9,92.5z"/>
			<g>
				<path class="st18" d="M164.7,73.5c-0.1,0.3,5.6,10.7,5.4,14c-0.2,3.3-2.3,8.4-2.2,8.9c0,0-9.8,0.1-16,0.1
					c-4.4-3.8-2.4-18.4-0.9-22.5c0,0,4.8-2.2,6-2.3C157.1,71.7,166.3,86.7,164.7,73.5z"/>
			</g>
			<g class="st21">
				<path class="st18" d="M150.8,76.2c0,0,1.1-1,2.4-2c0.1,0.2,0.2,0.3,0.3,0.5c-0.6,0.8-0.4,1.7-0.1,3c1.8,6.9,2.6,10.9,5.5,18.9
					c-3.5,0.1-2.6-0.1-6.9-0.1C147.6,92.7,149.4,80.3,150.8,76.2z"/>
			</g>
			<g>
				<g>
					<polygon class="st7" points="153,117.9 140.2,111.7 148.6,94.3 161.4,100.6 					"/>
					<polygon class="st22" points="153,117.9 140.2,111.7 148.6,94.3 161.4,100.6 					"/>
					<g>
						<path class="st13" d="M158.6,99.7l-7.2-3.5l0.3-0.7c0.1-0.3,0.5-0.4,0.8-0.3l6.2,3c0.3,0.1,0.4,0.5,0.3,0.8L158.6,99.7z"/>
						<path class="st13" d="M156.4,95.1c-0.6-0.3-1.3-0.1-1.6,0.5c-0.3,0.6,0,1.3,0.6,1.5c0.6,0.3,1.3,0.1,1.6-0.5
							C157.2,96.1,157,95.4,156.4,95.1z M155.6,96.6c-0.3-0.1-0.4-0.5-0.3-0.7c0.1-0.3,0.5-0.4,0.8-0.2c0.3,0.1,0.4,0.5,0.3,0.7
							C156.3,96.6,155.9,96.7,155.6,96.6z"/>
					</g>
				</g>
				<g>
					<path class="st14" d="M136,90.2c1.7,3,4.7,6.9,6.9,9.8c0,0,0,0,0,0c0.1,0.2,0.5,0.7,0.5,0.7c1,1.4,2.3,3,3.4,4.5
						c0.6,0.7,1.1,1.4,1.6,2c0,0,0,0,0,0c1,1.2,1.7,2,1.8,1.9c0.2-0.2-0.6-1.6-1.1-2.3c0.4,0.5,0.9,1.2,1.3,1.7
						c0.5,0.5,0.8,0.9,1,0.8c0.2-0.1-0.5-1.5-1.1-2.5c-0.1-0.1-0.1-0.2-0.2-0.3c0.1,0.1,0.1,0.2,0.2,0.3c0.8,0.9,2.1,2.8,2.3,2.7
						c0.3-0.2-1.1-2.7-1.3-3.1c0.2,0.4,1.7,2.5,2,2.1c0.1-0.1-0.4-1-0.9-1.8c-0.5-0.8-1-1.6-1-1.7c0-0.2,0.5,0.3,0.8,0.6
						c0.2,0.1,0.3,0.2,0.3,0.1c0-0.1-0.3-0.7-0.8-1.5c-1.3-2.2-3.7-5.9-3.8-6.1c0,0,0,0,0,0c-1.5-2.7-3.3-6.7-4.4-8.8
						c1.1-1.1,13.9-14.7,13.9-14.7s-4.1-3.4-10.2,1.5c-5.6,4.5-9.3,7.9-11.1,10.3C135.1,87.7,135.1,88.6,136,90.2z"/>
				</g>
				<path class="st18" d="M143.6,89.2c0.3,0.5,2,3.5,2.3,4.2c-1.9,1.1-5.4,3.5-7.3,4.6c-1.1-1.5-2.5-6.5-3.3-7.8
					c-0.9-1.5-0.3-2.5,0.8-3.9c1.8-2.4,5.5-5.8,11.1-10.3c6.1-4.9,10.2-1.6,10.2-1.6S162.9,77.9,143.6,89.2z"/>
			</g>
			<g>
				<g class="st21">
					<g>
						<path class="st23" d="M167.7,81.8c-2.5,1.6-5.1,3.6-6.8,6.1c-0.9,1.4-2.2,4.7,0,5.7c0.8,0.4,1.7-0.1,2.2-0.8
							c0.7-1,0.6-2.5,0.5-3.7c-0.4-2.8-1.9-5.3-3.5-7.5c-2.3-3-5.1-5.6-8-8c-0.1-0.1-0.3,0.1-0.2,0.2c2.5,2,4.8,4.1,6.8,6.5
							c2,2.3,3.9,5,4.5,8.1c0.3,1.4,0.6,4.3-1.3,4.9c-1.3,0.4-1.9-1-1.9-2.1c0-0.9,0.3-1.8,0.7-2.6c1.5-2.8,4.5-5,7.1-6.7
							C167.9,82,167.8,81.7,167.7,81.8L167.7,81.8z"/>
					</g>
				</g>
				<g class="st21">
					<g>
						<path class="st23" d="M148.6,75.5c-0.4,7.3-6.2,13.2-13.4,13.7c-0.2,0-0.2,0.3,0,0.3c3.6-0.3,7-1.8,9.5-4.4
							c2.5-2.6,4-6,4.2-9.6C148.9,75.3,148.6,75.3,148.6,75.5L148.6,75.5z"/>
					</g>
				</g>
				<g class="st21">
					<g>
						<path class="st23" d="M139.4,83c1.3,3.9,0.8,8.3-1.4,11.7c-0.1,0.1,0.1,0.3,0.2,0.1c2.3-3.5,2.8-8,1.4-11.9
							C139.6,82.8,139.4,82.8,139.4,83L139.4,83z"/>
					</g>
				</g>
				<g class="st21">
					<g>
						<path class="st23" d="M168.7,74.6c-0.4,1.6,0.1,3.5,0.4,5.1c0.4,2,0.9,3.9,1.5,5.8c0.7,2,1.3,4,2.1,5.9c0.9,2,2.4,3.7,4,5.2
							c0.1,0.1,0.3-0.1,0.2-0.2c-1.6-1.5-3-3-3.9-5c-0.9-1.9-1.5-4-2.2-5.9c-0.6-1.7-1-3.4-1.4-5.1c-0.4-1.7-1-3.8-0.5-5.6
							C169,74.5,168.7,74.4,168.7,74.6L168.7,74.6z"/>
					</g>
				</g>
				<g class="st21">
					<g>
						<path class="st23" d="M178.7,93.1c-1.6-0.9-3.6-0.5-5.1,0.5c-1.7,1.2-2.7,3.1-3.6,4.8c-0.1,0.2,0.2,0.3,0.2,0.1
							c0.9-1.6,1.8-3.4,3.2-4.5c1.4-1.1,3.5-1.7,5.1-0.7C178.8,93.4,178.9,93.2,178.7,93.1L178.7,93.1z"/>
					</g>
				</g>
			</g>
		</g>
	</g>
</g>
<g>
	<g>
		<g>
			<path class="st24" d="M216.8,83.8l-1-0.1l0.1-1.3c0-0.3-0.2-0.6-0.5-0.6c-0.3,0-0.6,0.2-0.6,0.5l-0.1,1.3l-1-0.1
				c-0.2,0-0.5,0.2-0.5,0.4c0,0.2,0.2,0.5,0.4,0.5l1,0.1l-0.2,3.8c0,0.3,0.2,0.6,0.5,0.6c0.3,0,0.6-0.2,0.6-0.5l0.2-3.8l1,0.1
				c0.2,0,0.5-0.2,0.5-0.4C217.2,84,217,83.8,216.8,83.8z"/>
			<path class="st24" d="M252.2,84.5l-1-0.1l0.1-1.3c0-0.3-0.2-0.6-0.5-0.6c-0.3,0-0.6,0.2-0.6,0.5l-0.1,1.3l-1-0.1
				c-0.2,0-0.5,0.2-0.5,0.4c0,0.2,0.2,0.5,0.4,0.5l1,0.1l-0.2,3.8c0,0.3,0.2,0.6,0.5,0.6c0.3,0,0.6-0.2,0.6-0.5l0.2-3.8l1,0.1
				c0.2,0,0.5-0.2,0.5-0.4C252.6,84.7,252.5,84.5,252.2,84.5z"/>
			<path class="st24" d="M247.9,72.3l-1-0.1l0.1-1.3c0-0.3-0.2-0.6-0.5-0.6c-0.3,0-0.6,0.2-0.6,0.5l-0.1,1.3l-1-0.1
				c-0.2,0-0.5,0.2-0.5,0.4c0,0.2,0.2,0.5,0.4,0.5l1,0.1l-0.2,3.8c0,0.3,0.2,0.6,0.5,0.6c0.3,0,0.6-0.2,0.6-0.5l0.2-3.8l1,0.1
				c0.2,0,0.5-0.2,0.5-0.4C248.3,72.5,248.1,72.3,247.9,72.3z"/>
			<path class="st24" d="M222.1,71l-1-0.1l0.1-1.3c0-0.3-0.2-0.6-0.5-0.6c-0.3,0-0.6,0.2-0.6,0.5l-0.1,1.3l-1-0.1
				c-0.2,0-0.5,0.2-0.5,0.4c0,0.2,0.2,0.5,0.4,0.5l1,0.1l-0.2,3.8c0,0.3,0.2,0.6,0.5,0.6c0.3,0,0.6-0.2,0.6-0.5l0.2-3.8l1,0.1
				c0.2,0,0.5-0.2,0.5-0.4C222.5,71.2,222.4,71,222.1,71z"/>
			<path class="st0" d="M224.5,66.4c0,0,7.6-23.3,9.3-22.2c1.8,1.2,8.6,22.6,8.6,22.6l-7.7,1.8L224.5,66.4z"/>
			<path class="st25" d="M224.3,70.7c0.2-0.4,0.2-4.3,0.2-4.3s10.9-1.2,17.9,0.3l0,4.4c0,0-4.8,3-5.4,3
				C236.3,74.1,224.3,70.7,224.3,70.7z"/>
			<path class="st26" d="M227.4,75.8c0,0.3-0.3,0.5-0.6,0.5l-0.7,0c-0.3,0-0.6-0.3-0.5-0.6l0.3-7.4c0-0.3,0.3-0.5,0.6-0.5l0.7,0
				c0.3,0,0.6,0.3,0.5,0.6L227.4,75.8z"/>
			<path class="st26" d="M231.7,75.9c0,0.3-0.3,0.5-0.6,0.5l-0.7,0c-0.3,0-0.6-0.3-0.5-0.6l0.3-7.4c0-0.3,0.3-0.5,0.6-0.5l0.7,0
				c0.3,0,0.6,0.3,0.5,0.6L231.7,75.9z"/>
			<path class="st26" d="M236.2,76c0,0.3-0.3,0.5-0.6,0.5l-0.7,0c-0.3,0-0.6-0.3-0.5-0.6l0.3-7.4c0-0.3,0.3-0.5,0.6-0.5l0.7,0
				c0.3,0,0.6,0.3,0.5,0.6L236.2,76z"/>
			<path class="st26" d="M240.6,76.2c0,0.3-0.3,0.5-0.6,0.5l-0.7,0c-0.3,0-0.6-0.3-0.5-0.6l0.3-7.4c0-0.3,0.3-0.5,0.6-0.5l0.7,0
				c0.3,0,0.6,0.3,0.5,0.6L240.6,76.2z"/>
			<path class="st0" d="M242.3,71.2c0,0-10.6-2.5-18-0.5l-4.5,4.7l0.4,4.6l25.7,0.6l0.7-3.6L242.3,71.2z"/>
			<path class="st24" d="M223,86.1l-3.1-1.7l0.2-4.4c0,0,11.1-1.7,25.7,0.6l-0.1,3.8l-8.1,3.2L223,86.1z"/>
			<path class="st26" d="M224.5,89.4c0,0.3-0.3,0.6-0.6,0.6l-0.7,0c-0.3,0-0.6-0.3-0.6-0.6l0.1-7.8c0-0.3,0.3-0.6,0.6-0.6l0.7,0
				c0.3,0,0.6,0.3,0.6,0.6L224.5,89.4z"/>
			<path class="st26" d="M229.1,89.4c0,0.3-0.3,0.6-0.6,0.6l-0.7,0c-0.3,0-0.6-0.3-0.6-0.6l0.1-7.8c0-0.3,0.3-0.6,0.6-0.6l0.7,0
				c0.3,0,0.6,0.3,0.6,0.6L229.1,89.4z"/>
			<path class="st26" d="M233.8,89.3c0,0.3-0.3,0.6-0.6,0.6l-0.7,0c-0.3,0-0.6-0.3-0.6-0.6l0.1-7.8c0-0.3,0.3-0.6,0.6-0.6l0.7,0
				c0.3,0,0.6,0.3,0.6,0.6L233.8,89.3z"/>
			<path class="st26" d="M238.4,89.4c0,0.3-0.3,0.6-0.6,0.6l-0.7,0c-0.3,0-0.6-0.3-0.6-0.6l0.1-7.8c0-0.3,0.3-0.6,0.6-0.6l0.7,0
				c0.3,0,0.6,0.3,0.6,0.6L238.4,89.4z"/>
			<path class="st26" d="M242.8,89.6c0,0.3-0.3,0.6-0.6,0.6l-0.7,0c-0.3,0-0.6-0.3-0.6-0.6l0.1-7.8c0-0.3,0.3-0.6,0.6-0.6l0.7,0
				c0.3,0,0.6,0.3,0.6,0.6L242.8,89.6z"/>
			<path class="st25" d="M214.3,88.4c0,0,4.9-3.8,5.7-4c0.8-0.2,6.4-1.7,25.8,0l5.2,4.6l-13.3,5.3L214.3,88.4z"/>
			<polygon class="st24" points="217.8,195.4 216.2,118.8 248.3,119.1 243.8,195.9 			"/>
			<polygon class="st25" points="216.2,118.8 213.8,112.8 250.7,113.8 248.3,119.1 			"/>
			<path class="st24" d="M213.8,112.8c0,0-1.7-15.6,0.5-24.4c0,0,14.3-2.7,36.6,0.6c0,0,2.3,14.8-0.2,24.7L213.8,112.8z"/>
			<path class="st24" d="M216.3,111.1c0,0-1.4-13.9,0.5-21.8c0,0,12.7-2.4,32.4,0.7c0,0,1.9,13.2-0.3,22L216.3,111.1z"/>
			
				<linearGradient id="SVGID_1_" gradientUnits="userSpaceOnUse" x1="241.8331" y1="170.8302" x2="277.425" y2="170.8302" gradientTransform="matrix(0.9863 0.165 -0.165 0.9863 4.9835 -110.7447)">
				<stop  offset="0" style="stop-color:#F7A935"/>
				<stop  offset="1" style="stop-color:#EA5B2C"/>
			</linearGradient>
			<path class="st27" d="M249.2,90c-19.7-3.1-32.4-0.7-32.4-0.7c-2,7.8-0.5,21.8-0.5,21.8l32.6,1C251.1,103.2,249.2,90,249.2,90z
				 M247.6,111.1l-29.9-0.9c0,0-1.3-12.8,0.5-20c0,0,11.6-2.2,29.7,0.6C247.8,90.9,249.6,103,247.6,111.1z"/>
			
				<radialGradient id="SVGID_00000171677575165398431150000005761738380236359080_" cx="258.7825" cy="159.7683" r="18.9696" gradientTransform="matrix(0.9873 0.1588 -0.1588 0.9873 1.9426 -98.4565)" gradientUnits="userSpaceOnUse">
				<stop  offset="0.3731" style="stop-color:#FEFEFE"/>
				<stop  offset="0.4919" style="stop-color:#FAFAFB"/>
				<stop  offset="0.637" style="stop-color:#EDEFF1"/>
				<stop  offset="0.7958" style="stop-color:#D7DCE1"/>
				<stop  offset="0.9632" style="stop-color:#B9C3CC"/>
				<stop  offset="1" style="stop-color:#B1BDC6"/>
			</radialGradient>
			<path style="fill:url(#SVGID_00000171677575165398431150000005761738380236359080_);" d="M243.4,100.9c-0.5,6.1-6,10.6-12.3,10.1
				c-6.3-0.5-11.1-5.8-10.6-11.9c0.5-6.1,6-10.6,12.3-10.1C239.2,89.5,243.9,94.8,243.4,100.9z"/>
			<path class="st26" d="M242.4,100.8c0.4-5.5-3.9-10.3-9.6-10.8c-5.7-0.4-10.7,3.6-11.2,9.1c-0.4,5.5,3.9,10.3,9.6,10.8
				C237,110.4,242,106.3,242.4,100.8z M231.3,109.3c-5.3-0.4-9.4-4.9-9-10c0.4-5.1,5.1-8.9,10.4-8.5c5.3,0.4,9.4,4.9,9,10
				C241.3,105.9,236.6,109.7,231.3,109.3z"/>
			<path class="st26" d="M240.6,100.7c0.4-4.6-3.2-8.6-8-8.9c-4.8-0.4-8.9,3-9.3,7.6c-0.4,4.6,3.2,8.6,8,8.9
				C236.1,108.6,240.3,105.2,240.6,100.7z M231.4,108.1c-4.6-0.4-8.1-4.3-7.8-8.7c0.3-4.5,4.4-7.8,9-7.4c4.6,0.4,8.1,4.3,7.8,8.7
				C240.1,105.1,236,108.4,231.4,108.1z"/>
			<path class="st24" d="M234.4,42.3l0-6c0-0.3-0.2-0.5-0.5-0.5c-0.3,0-0.5,0.2-0.5,0.5l0,6c-0.7,0.2-1.2,0.9-1.2,1.7
				c0,1,0.8,1.8,1.8,1.8c1,0,1.8-0.8,1.8-1.8C235.6,43.2,235.1,42.5,234.4,42.3z"/>
			<g>
				<defs>
					<polygon id="SVGID_00000112634277480860475370000002389380632348928138_" points="216.2,118.8 213.8,112.8 250.7,113.8 
						248.3,119.1 					"/>
				</defs>
				<clipPath id="SVGID_00000155860077396376194940000001691823773755297964_">
					<use xlink:href="#SVGID_00000112634277480860475370000002389380632348928138_"  style="overflow:visible;"/>
				</clipPath>
				<g style="clip-path:url(#SVGID_00000155860077396376194940000001691823773755297964_);">
					<g>
						<path class="st0" d="M220.8,124.1c0,0.3-0.3,0.6-0.6,0.6l-0.6,0c-0.3,0-0.6-0.2-0.6-0.6l-0.3-8.8c0-0.3,0.3-0.6,0.6-0.6l0.6,0
							c0.3,0,0.6,0.2,0.6,0.6L220.8,124.1z"/>
						<path class="st0" d="M225.3,124.2c0,0.3-0.3,0.6-0.6,0.6l-0.6,0c-0.3,0-0.6-0.3-0.6-0.6l0-8.8c0-0.3,0.3-0.6,0.6-0.6l0.6,0
							c0.3,0,0.6,0.3,0.6,0.6L225.3,124.2z"/>
						<path class="st0" d="M230.1,124.2c0,0.3-0.3,0.6-0.6,0.6l-0.6,0c-0.3,0-0.6-0.3-0.6-0.6l0.2-8.8c0-0.3,0.3-0.6,0.6-0.6l0.6,0
							c0.3,0,0.6,0.3,0.6,0.6L230.1,124.2z"/>
						<path class="st0" d="M235.2,124.3c0,0.3-0.3,0.6-0.7,0.6l-0.6,0c-0.3,0-0.6-0.3-0.6-0.6l0.5-8.8c0-0.3,0.3-0.6,0.7-0.6l0.6,0
							c0.3,0,0.6,0.3,0.6,0.6L235.2,124.3z"/>
						<path class="st0" d="M240.1,124.5c0,0.3-0.3,0.6-0.7,0.6l-0.6,0c-0.3,0-0.6-0.3-0.6-0.6l0.5-8.8c0-0.3,0.3-0.6,0.7-0.6l0.6,0
							c0.3,0,0.6,0.3,0.6,0.6L240.1,124.5z"/>
						<path class="st0" d="M244.9,125c0,0.3-0.3,0.6-0.7,0.5l-0.6-0.1c-0.3,0-0.6-0.3-0.6-0.6l0.8-8.8c0-0.3,0.3-0.6,0.7-0.5
							l0.6,0.1c0.3,0,0.6,0.3,0.6,0.6L244.9,125z"/>
					</g>
				</g>
			</g>
			<g>
				<path class="st30" d="M221.7,157.5c0,0.3-0.2,0.6-0.6,0.6l-0.9,0c-0.3,0-0.6-0.2-0.6-0.6l-0.5-14.7c0-0.3,0.2-0.6,0.6-0.6l0.9,0
					c0.3,0,0.6,0.2,0.6,0.6L221.7,157.5z"/>
				<path class="st30" d="M225.8,157.4c0,0.3-0.3,0.6-0.6,0.6l-0.9,0c-0.3,0-0.6-0.3-0.6-0.6l-0.3-15c0-0.3,0.3-0.6,0.6-0.6l0.9,0
					c0.3,0,0.6,0.3,0.6,0.6L225.8,157.4z"/>
				<path class="st30" d="M239.7,158.3c0,0.3,0.2,0.6,0.5,0.6l0.9,0.1c0.3,0,0.6-0.2,0.7-0.5l1.5-14.6c0-0.3-0.2-0.6-0.5-0.6
					l-0.9-0.1c-0.3,0-0.6,0.2-0.7,0.5L239.7,158.3z"/>
				<path class="st30" d="M235.7,157.8c0,0.3,0.2,0.6,0.5,0.6l0.9,0.1c0.3,0,0.6-0.2,0.6-0.5l1.2-14.7c0-0.3-0.2-0.6-0.5-0.6
					l-0.9-0.1c-0.3,0-0.6,0.2-0.6,0.5L235.7,157.8z"/>
				<path class="st30" d="M231.7,157.5c0,0.3,0.2,0.6,0.6,0.6l0.9,0.1c0.3,0,0.6-0.2,0.6-0.6l0.8-14.8c0-0.3-0.2-0.6-0.6-0.6
					l-0.9-0.1c-0.3,0-0.6,0.2-0.6,0.6L231.7,157.5z"/>
				<path class="st30" d="M227.6,157.2c0,0.3,0.2,0.6,0.6,0.6l0.9,0c0.3,0,0.6-0.2,0.6-0.6l0.5-14.7c0-0.3-0.2-0.6-0.6-0.6l-0.9,0
					c-0.3,0-0.6,0.2-0.6,0.6L227.6,157.2z"/>
			</g>
			<g>
				<path class="st30" d="M221.6,138.3c0,0.4-0.3,0.7-0.6,0.7l-1,0c-0.4,0-0.7-0.3-0.7-0.6l-0.5-16.1c0-0.4,0.3-0.7,0.6-0.7l1,0
					c0.4,0,0.7,0.3,0.7,0.6L221.6,138.3z"/>
				<path class="st30" d="M226.1,138.2c0,0.4-0.3,0.7-0.6,0.7l-1,0c-0.4,0-0.7-0.3-0.7-0.6l-0.4-16.4c0-0.4,0.3-0.7,0.6-0.7l1,0
					c0.4,0,0.7,0.3,0.7,0.6L226.1,138.2z"/>
				<path class="st30" d="M241.4,139.2c0,0.4,0.2,0.7,0.6,0.7l1,0.1c0.4,0,0.7-0.2,0.7-0.6l1.6-16c0-0.4-0.2-0.7-0.6-0.7l-1-0.1
					c-0.4,0-0.7,0.2-0.7,0.6L241.4,139.2z"/>
				<path class="st30" d="M237,138.6c0,0.4,0.2,0.7,0.6,0.7l1,0.1c0.4,0,0.7-0.2,0.7-0.6l1.3-16.1c0-0.4-0.2-0.7-0.6-0.7l-1-0.1
					c-0.4,0-0.7,0.2-0.7,0.6L237,138.6z"/>
				<path class="st30" d="M232.6,138.3c0,0.4,0.3,0.7,0.6,0.7l1,0.1c0.4,0,0.7-0.3,0.7-0.6l0.9-16.2c0-0.4-0.3-0.7-0.6-0.7l-1-0.1
					c-0.4,0-0.7,0.3-0.7,0.6L232.6,138.3z"/>
				<path class="st30" d="M228.1,137.9c0,0.4,0.3,0.7,0.6,0.7l1,0c0.4,0,0.7-0.3,0.7-0.6l0.6-16.1c0-0.4-0.3-0.7-0.6-0.7l-1,0
					c-0.4,0-0.7,0.3-0.7,0.6L228.1,137.9z"/>
			</g>
			<g>
				<g>
					<g>
						<path class="st26" d="M231.9,93c0,0.1-0.1,0.2-0.2,0.2l0,0c-0.1,0-0.2-0.1-0.2-0.2l-0.1-2.5c0-0.1,0.1-0.2,0.2-0.2l0,0
							c0.1,0,0.2,0.1,0.2,0.2L231.9,93z"/>
						<path class="st26" d="M232.2,109.4c0,0.1-0.1,0.2-0.2,0.2l0,0c-0.1,0-0.2-0.1-0.2-0.2l-0.1-2.5c0-0.1,0.1-0.2,0.2-0.2l0,0
							c0.1,0,0.2,0.1,0.2,0.2L232.2,109.4z"/>
					</g>
					<g>
						<path class="st26" d="M238.9,100c-0.1,0-0.2-0.1-0.2-0.2l0,0c0-0.1,0.1-0.2,0.2-0.2l2.6,0c0.1,0,0.2,0.1,0.2,0.2l0,0
							c0,0.1-0.1,0.2-0.2,0.2L238.9,100z"/>
						<path class="st26" d="M222.2,100.3c-0.1,0-0.2-0.1-0.2-0.2l0,0c0-0.1,0.1-0.2,0.2-0.2l2.6,0c0.1,0,0.2,0.1,0.2,0.2l0,0
							c0,0.1-0.1,0.2-0.2,0.2L222.2,100.3z"/>
					</g>
				</g>
				<g>
					<g>
						<path class="st26" d="M236.9,95.1c-0.1,0.1-0.2,0.1-0.3,0l0,0c-0.1-0.1-0.1-0.2,0-0.3l1.8-1.8c0.1-0.1,0.2-0.1,0.3,0l0,0
							c0.1,0.1,0.1,0.2,0,0.3L236.9,95.1z"/>
						<path class="st26" d="M225.3,106.8c-0.1,0.1-0.2,0.1-0.3,0l0,0c-0.1-0.1-0.1-0.2,0-0.3l1.8-1.8c0.1-0.1,0.2-0.1,0.3,0l0,0
							c0.1,0.1,0.1,0.2,0,0.3L225.3,106.8z"/>
					</g>
					<g>
						<path class="st26" d="M236.8,104.9c-0.1-0.1-0.1-0.2,0-0.3l0,0c0.1-0.1,0.2-0.1,0.3,0l1.9,1.8c0.1,0.1,0.1,0.2,0,0.3l0,0
							c-0.1,0.1-0.2,0.1-0.3,0L236.8,104.9z"/>
						<path class="st26" d="M224.7,93.4c-0.1-0.1-0.1-0.2,0-0.3l0,0c0.1-0.1,0.2-0.1,0.3,0l1.9,1.8c0.1,0.1,0.1,0.2,0,0.3l0,0
							c-0.1,0.1-0.2,0.1-0.3,0L224.7,93.4z"/>
					</g>
				</g>
			</g>
			<g>
				<path class="st30" d="M222,197.2c0,0.3-0.2,0.6-0.5,0.6l-0.8,0c-0.3,0-0.5-0.2-0.5-0.6l-0.4-14.7c0-0.3,0.2-0.6,0.5-0.6l0.8,0
					c0.3,0,0.5,0.2,0.5,0.6L222,197.2z"/>
				<path class="st30" d="M225.7,197.1c0,0.3-0.2,0.6-0.5,0.6l-0.8,0c-0.3,0-0.5-0.3-0.5-0.6l-0.3-15c0-0.3,0.2-0.6,0.5-0.6l0.8,0
					c0.3,0,0.5,0.3,0.5,0.6L225.7,197.1z"/>
				<path class="st30" d="M238,198c0,0.3,0.2,0.6,0.5,0.6l0.8,0.1c0.3,0,0.5-0.2,0.6-0.5l1.3-14.6c0-0.3-0.2-0.6-0.5-0.6l-0.8-0.1
					c-0.3,0-0.5,0.2-0.6,0.5L238,198z"/>
				<path class="st30" d="M234.4,197.4c0,0.3,0.2,0.6,0.5,0.6l0.8,0.1c0.3,0,0.5-0.2,0.6-0.5l1.1-14.7c0-0.3-0.2-0.6-0.5-0.6
					l-0.8-0.1c-0.3,0-0.5,0.2-0.6,0.5L234.4,197.4z"/>
				<path class="st30" d="M230.9,197.2c0,0.3,0.2,0.6,0.5,0.6l0.8,0.1c0.3,0,0.5-0.2,0.6-0.6l0.7-14.8c0-0.3-0.2-0.6-0.5-0.6
					l-0.8-0.1c-0.3,0-0.5,0.2-0.6,0.6L230.9,197.2z"/>
				<path class="st30" d="M227.3,196.8c0,0.3,0.2,0.6,0.5,0.6l0.8,0c0.3,0,0.5-0.2,0.5-0.6l0.5-14.7c0-0.3-0.2-0.6-0.5-0.6l-0.8,0
					c-0.3,0-0.5,0.2-0.5,0.6L227.3,196.8z"/>
			</g>
			<g>
				<path class="st30" d="M222,177.9c0,0.4-0.2,0.7-0.6,0.7l-0.9,0c-0.3,0-0.6-0.3-0.6-0.6l-0.4-16.1c0-0.4,0.2-0.7,0.6-0.7l0.9,0
					c0.3,0,0.6,0.3,0.6,0.6L222,177.9z"/>
				<path class="st30" d="M226,177.8c0,0.4-0.2,0.7-0.6,0.7l-0.9,0c-0.3,0-0.6-0.3-0.6-0.6l-0.3-16.4c0-0.4,0.2-0.7,0.6-0.7l0.9,0
					c0.3,0,0.6,0.3,0.6,0.6L226,177.8z"/>
				<path class="st30" d="M239.4,178.8c0,0.4,0.2,0.7,0.5,0.7l0.9,0.1c0.3,0,0.6-0.2,0.6-0.6l1.5-16c0-0.4-0.2-0.7-0.5-0.7l-0.9-0.1
					c-0.3,0-0.6,0.2-0.6,0.6L239.4,178.8z"/>
				<path class="st30" d="M235.6,178.2c0,0.4,0.2,0.7,0.5,0.7l0.9,0.1c0.3,0,0.6-0.2,0.6-0.6l1.2-16.1c0-0.4-0.2-0.7-0.5-0.7
					l-0.9-0.1c-0.3,0-0.6,0.2-0.6,0.6L235.6,178.2z"/>
				<path class="st30" d="M231.7,177.9c0,0.4,0.2,0.7,0.5,0.7l0.9,0.1c0.3,0,0.6-0.3,0.6-0.6l0.8-16.2c0-0.4-0.2-0.7-0.5-0.7
					l-0.9-0.1c-0.3,0-0.6,0.3-0.6,0.6L231.7,177.9z"/>
				<path class="st30" d="M227.7,177.5c0,0.4,0.2,0.7,0.6,0.7l0.9,0c0.3,0,0.6-0.3,0.6-0.6l0.5-16.1c0-0.4-0.2-0.7-0.6-0.7l-0.9,0
					c-0.3,0-0.6,0.3-0.6,0.6L227.7,177.5z"/>
			</g>
		</g>
		<path class="st26" d="M213.1,200.1c0,0,2-4.9,3.5-5.4c0.9-0.3,27.8-0.1,29.6,0.4c1.8,0.6,3.3,5.4,3.3,5.4L213.1,200.1z"/>
		<path class="st25" d="M208.6,203.2c0,0,2.5-4.1,3.7-4.9c1.2-0.8,37.4,0,39,0.8c1.6,0.8,2,2.5,2.8,4.8L208.6,203.2z"/>
		<g>
			<path class="st26" d="M233.2,96.6l-1.4-2.8l-1.3,2.9l1,0l0.1,4.3c0,0.2,0.1,0.3,0.3,0.3c0.2,0,0.3-0.1,0.3-0.3l-0.1-4.3
				L233.2,96.6z"/>
			<path class="st26" d="M228.5,100.7l-2.5,1.9l3,0.7l-0.2-1l3-0.7c0.2,0,0.3-0.2,0.2-0.4c0-0.2-0.2-0.3-0.4-0.2l-2.9,0.7
				L228.5,100.7z"/>
			<path class="st26" d="M232.8,101.1c0,0.4-0.3,0.7-0.7,0.7c-0.4,0-0.7-0.3-0.7-0.7c0-0.4,0.3-0.7,0.7-0.7
				C232.4,100.4,232.8,100.7,232.8,101.1z"/>
		</g>
	</g>
	<g>
		<g>
			<g>
				<g>
					<rect x="57.6" y="190.5" class="st1" width="69" height="12.7"/>
					<polygon class="st0" points="126.6,190.5 57.6,190.5 65.4,185.9 132.1,185.9 					"/>
					<g>
						<polygon class="st31" points="126.6,190.5 126.6,203.2 132.1,198.7 132.1,197.3 127.8,200.9 127.8,191 132.1,187.4 
							132.1,185.9 						"/>
						<polygon class="st32" points="127.8,200.9 132.1,197.3 132.1,187.4 127.8,191 						"/>
					</g>
					<rect x="68.1" y="193.2" class="st31" width="50.3" height="8.5"/>
				</g>
			</g>
			<g>
				<g>
					<rect x="62" y="174.1" class="st13" width="56.7" height="14.8"/>
					<polygon class="st33" points="118.7,174.1 62,174.1 68.4,168.7 123.2,168.7 					"/>
					<g>
						<polygon class="st34" points="118.7,174.1 118.7,188.9 123.2,183.6 123.2,182.1 119.7,186.2 119.7,174.7 123.2,170.5 
							123.2,168.7 						"/>
						<polygon class="st32" points="119.7,186.2 123.2,182.1 123.2,170.5 119.7,174.7 						"/>
					</g>
				</g>
				<g>
					<g>
						<rect x="66" y="174.6" class="st35" width="2.3" height="14.4"/>
						<rect x="70.3" y="174.6" class="st35" width="1.3" height="14.4"/>
					</g>
					<g>
						<rect x="111.2" y="174.6" class="st35" width="2.3" height="14.4"/>
						<rect x="108" y="174.6" class="st35" width="1.3" height="14.4"/>
					</g>
				</g>
				<g>
					<g>
						<path class="st7" d="M75.6,183.7l-1.4-4.3h0.6l0.7,2.1c0.2,0.6,0.3,1.1,0.5,1.6h0c0.1-0.5,0.3-1,0.5-1.6l0.7-2.1h0.6l-1.5,4.3
							H75.6z"/>
						<path class="st7" d="M80.7,182.1c0,1.1-0.8,1.6-1.5,1.6c-0.8,0-1.5-0.6-1.5-1.6c0-1,0.7-1.6,1.5-1.6
							C80.1,180.6,80.7,181.2,80.7,182.1z M78.3,182.2c0,0.7,0.4,1.2,0.9,1.2c0.5,0,0.9-0.5,0.9-1.2c0-0.5-0.3-1.2-0.9-1.2
							C78.6,181,78.3,181.6,78.3,182.2z"/>
						<path class="st7" d="M83.6,183.6c-0.1,0.1-0.5,0.2-0.9,0.2c-0.9,0-1.5-0.6-1.5-1.6c0-0.9,0.6-1.6,1.7-1.6
							c0.3,0,0.6,0.1,0.8,0.2l-0.1,0.4c-0.1-0.1-0.3-0.1-0.6-0.1c-0.7,0-1.1,0.5-1.1,1.2c0,0.7,0.5,1.1,1.1,1.1
							c0.3,0,0.5-0.1,0.7-0.2L83.6,183.6z"/>
						<path class="st7" d="M86,183.7l0-0.4h0c-0.2,0.2-0.5,0.5-0.9,0.5c-0.6,0-0.9-0.4-0.9-0.9c0-0.7,0.7-1.1,1.8-1.1v-0.1
							c0-0.3-0.1-0.7-0.7-0.7c-0.3,0-0.6,0.1-0.8,0.2l-0.1-0.4c0.3-0.2,0.6-0.3,1-0.3c0.9,0,1.2,0.6,1.2,1.3v1.1
							c0,0.3,0,0.5,0.1,0.7H86z M85.9,182.1c-0.6,0-1.3,0.1-1.3,0.7c0,0.4,0.2,0.5,0.5,0.5c0.4,0,0.7-0.3,0.7-0.5c0-0.1,0-0.1,0-0.2
							V182.1z"/>
						<path class="st7" d="M87.3,183.7c0-0.2,0-0.5,0-0.8v-3.7h0.6v1.9h0c0.2-0.3,0.6-0.6,1-0.6c0.8,0,1.3,0.6,1.3,1.6
							c0,1.1-0.7,1.6-1.4,1.6c-0.4,0-0.8-0.2-1-0.6h0l0,0.5H87.3z M87.9,182.5c0,0.1,0,0.1,0,0.2c0.1,0.4,0.4,0.7,0.8,0.7
							c0.6,0,0.9-0.5,0.9-1.2c0-0.6-0.3-1.1-0.9-1.1c-0.4,0-0.7,0.3-0.9,0.7c0,0.1,0,0.1,0,0.2V182.5z"/>
						<path class="st7" d="M93.5,182.9c0,0.3,0,0.6,0,0.8H93l0-0.5h0c-0.1,0.2-0.5,0.6-1,0.6c-0.5,0-1.1-0.3-1.1-1.3v-1.8h0.6v1.7
							c0,0.6,0.2,1,0.7,1c0.4,0,0.6-0.3,0.7-0.5c0-0.1,0.1-0.2,0.1-0.3v-1.9h0.6V182.9z"/>
						<path class="st7" d="M94.4,179.2H95v4.5h-0.6V179.2z"/>
						<path class="st7" d="M97.6,183.7l0-0.4h0c-0.2,0.2-0.5,0.5-0.9,0.5c-0.6,0-0.9-0.4-0.9-0.9c0-0.7,0.7-1.1,1.8-1.1v-0.1
							c0-0.3-0.1-0.7-0.7-0.7c-0.3,0-0.6,0.1-0.8,0.2l-0.1-0.4c0.3-0.2,0.6-0.3,1-0.3c0.9,0,1.2,0.6,1.2,1.3v1.1
							c0,0.3,0,0.5,0.1,0.7H97.6z M97.6,182.1c-0.6,0-1.3,0.1-1.3,0.7c0,0.4,0.2,0.5,0.5,0.5c0.4,0,0.7-0.3,0.7-0.5
							c0-0.1,0-0.1,0-0.2V182.1z"/>
						<path class="st7" d="M99,181.6c0-0.4,0-0.7,0-1h0.5l0,0.6h0c0.1-0.4,0.5-0.7,0.9-0.7c0.1,0,0.1,0,0.2,0v0.5
							c-0.1,0-0.1,0-0.2,0c-0.4,0-0.7,0.3-0.7,0.7c0,0.1,0,0.2,0,0.3v1.6H99V181.6z"/>
						<path class="st7" d="M101.4,180.6l0.7,1.8c0.1,0.2,0.1,0.4,0.2,0.6h0c0.1-0.2,0.1-0.4,0.2-0.6l0.6-1.8h0.6l-0.8,2.2
							c-0.4,1.1-0.7,1.6-1.1,1.9c-0.3,0.2-0.5,0.3-0.7,0.4l-0.1-0.5c0.1,0,0.3-0.1,0.5-0.3c0.2-0.1,0.3-0.3,0.5-0.6
							c0-0.1,0-0.1,0-0.1c0,0,0-0.1,0-0.1l-1.1-2.8H101.4z"/>
					</g>
				</g>
			</g>
			<g>
				<g>
					<rect x="66.4" y="160.2" class="st35" width="48.5" height="12.7"/>
					<polygon class="st36" points="114.9,160.2 66.4,160.2 71.9,155.5 118.8,155.5 					"/>
					<g>
						<polygon class="st37" points="114.9,160.2 114.9,172.9 118.8,168.3 118.8,167 115.8,170.5 115.8,160.7 118.8,157 118.8,155.5 
													"/>
						<polygon class="st32" points="115.8,170.5 118.8,167 118.8,157 115.8,160.7 						"/>
					</g>
					<rect x="73.8" y="162.8" class="st13" width="35.4" height="8.5"/>
					<g>
						<path class="st7" d="M78.6,165.3c0.3,0,0.7-0.1,1.1-0.1c0.7,0,1.3,0.2,1.6,0.5c0.4,0.3,0.6,0.8,0.6,1.4c0,0.7-0.2,1.2-0.6,1.6
							c-0.4,0.4-1,0.6-1.8,0.6c-0.4,0-0.7,0-0.9,0V165.3z M79.1,168.9c0.1,0,0.3,0,0.5,0c1.1,0,1.7-0.6,1.7-1.7
							c0-0.9-0.5-1.6-1.6-1.6c-0.3,0-0.5,0-0.6,0.1V168.9z"/>
						<path class="st7" d="M83.2,165.6c0,0.2-0.1,0.3-0.3,0.3c-0.2,0-0.3-0.1-0.3-0.3c0-0.2,0.1-0.3,0.3-0.3
							C83,165.2,83.2,165.4,83.2,165.6z M82.6,169.3v-2.9h0.5v2.9H82.6z"/>
						<path class="st7" d="M86,169.2c-0.1,0.1-0.4,0.2-0.8,0.2c-0.9,0-1.4-0.6-1.4-1.5c0-0.9,0.6-1.5,1.6-1.5c0.3,0,0.6,0.1,0.7,0.1
							l-0.1,0.4c-0.1-0.1-0.3-0.1-0.6-0.1c-0.7,0-1,0.5-1,1.1c0,0.7,0.4,1.1,1,1.1c0.3,0,0.5-0.1,0.6-0.1L86,169.2z"/>
						<path class="st7" d="M87.4,165.5v0.8h0.8v0.4h-0.8v1.6c0,0.4,0.1,0.6,0.4,0.6c0.1,0,0.2,0,0.3,0l0,0.4c-0.1,0-0.3,0.1-0.5,0.1
							c-0.2,0-0.4-0.1-0.6-0.2c-0.1-0.2-0.2-0.4-0.2-0.8v-1.6h-0.4v-0.4h0.4v-0.7L87.4,165.5z"/>
						<path class="st7" d="M89.3,165.6c0,0.2-0.1,0.3-0.3,0.3c-0.2,0-0.3-0.1-0.3-0.3c0-0.2,0.1-0.3,0.3-0.3
							C89.2,165.2,89.3,165.4,89.3,165.6z M88.7,169.3v-2.9h0.5v2.9H88.7z"/>
						<path class="st7" d="M92.7,167.8c0,1.1-0.7,1.5-1.4,1.5c-0.8,0-1.4-0.6-1.4-1.5c0-1,0.6-1.5,1.4-1.5
							C92.1,166.3,92.7,166.9,92.7,167.8z M90.4,167.8c0,0.6,0.4,1.1,0.9,1.1c0.5,0,0.9-0.5,0.9-1.1c0-0.5-0.2-1.1-0.9-1.1
							C90.7,166.7,90.4,167.3,90.4,167.8z"/>
						<path class="st7" d="M93.4,167.2c0-0.3,0-0.5,0-0.8h0.5l0,0.5h0c0.1-0.3,0.5-0.5,1-0.5c0.4,0,1,0.2,1,1.2v1.7h-0.5v-1.7
							c0-0.5-0.2-0.9-0.7-0.9c-0.3,0-0.6,0.2-0.7,0.5c0,0.1,0,0.2,0,0.2v1.7h-0.5V167.2z"/>
						<path class="st7" d="M98.3,169.3l0-0.4h0c-0.2,0.2-0.5,0.4-0.9,0.4c-0.6,0-0.9-0.4-0.9-0.8c0-0.7,0.6-1.1,1.7-1.1v-0.1
							c0-0.2-0.1-0.7-0.7-0.7c-0.3,0-0.5,0.1-0.8,0.2l-0.1-0.3c0.2-0.2,0.6-0.3,0.9-0.3c0.9,0,1.1,0.6,1.1,1.2v1.1
							c0,0.3,0,0.5,0,0.7H98.3z M98.2,167.8c-0.6,0-1.2,0.1-1.2,0.6c0,0.3,0.2,0.5,0.5,0.5c0.4,0,0.6-0.2,0.7-0.5c0-0.1,0-0.1,0-0.2
							V167.8z"/>
						<path class="st7" d="M99.6,167.3c0-0.3,0-0.6,0-0.9h0.5l0,0.6h0c0.1-0.4,0.4-0.6,0.8-0.6c0.1,0,0.1,0,0.1,0v0.5
							c-0.1,0-0.1,0-0.2,0c-0.4,0-0.6,0.3-0.7,0.7c0,0.1,0,0.2,0,0.2v1.5h-0.5V167.3z"/>
						<path class="st7" d="M101.8,166.4l0.6,1.7c0.1,0.2,0.1,0.4,0.2,0.6h0c0.1-0.2,0.1-0.4,0.2-0.6l0.6-1.7h0.6l-0.8,2.1
							c-0.4,1-0.6,1.5-1,1.8c-0.3,0.2-0.5,0.3-0.6,0.3l-0.1-0.4c0.1,0,0.3-0.1,0.5-0.3c0.1-0.1,0.3-0.3,0.4-0.6c0-0.1,0-0.1,0-0.1
							c0,0,0-0.1,0-0.1l-1.1-2.7H101.8z"/>
					</g>
				</g>
			</g>
		</g>
		<g>
			<path class="st38" d="M113.8,156.3l-19.3,0l0,1.2l20.3,0l0,0C114.9,156.9,114.4,156.3,113.8,156.3z"/>
			<path class="st39" d="M71.1,157.6l27-0.1l-5.2-18.1c-0.3-0.9-1.1-1.6-2-1.6l-24.5,0.1c-0.5,0-0.9,0.6-0.8,1.1L71.1,157.6z"/>
			<path class="st40" d="M69.9,157.6l27-0.1l-5.2-18.1c-0.3-0.9-1.1-1.6-2-1.6l-24.5,0.1c-0.5,0-0.9,0.6-0.8,1.1L69.9,157.6z"/>
			<path class="st39" d="M77.9,146.9c0.2,0.8,1.1,1.5,2.1,1.5c1,0,1.7-0.7,1.5-1.5c-0.2-0.8-1.1-1.5-2.1-1.5
				C78.4,145.4,77.7,146.1,77.9,146.9z"/>
		</g>
	</g>
	<rect x="54" y="203" class="st3" width="209" height="1.1"/>
</g>
<g>
	<g>
		<g>
			<text transform="matrix(1 0 0 1 132.827 119.2734)" class="st7 st41 st42">E N G L I S H</text>
		</g>
	</g>
	<g>
		<g>
			<path class="st7" d="M141,125.7h0.7v0.4H141V125.7z"/>
			<path class="st7" d="M144.7,124h0.4v2.3h1.3v0.4h-1.8V124z"/>
			<path class="st7" d="M148.3,124h1.8v0.4h-1.4v0.7h1.2v0.4h-1.2v0.7h1.4v0.4h-1.9V124z"/>
			<path class="st7" d="M151.7,126.7l1.2-2.8h0l1.2,2.8h-0.5l-0.9-2.2l0.3-0.2l-1,2.4H151.7z M152.4,125.7h0.9l0.2,0.4h-1.2
				L152.4,125.7z"/>
			<path class="st7" d="M156.6,124c0.1,0,0.3,0,0.4,0.1s0.2,0.1,0.3,0.2c0.1,0.1,0.2,0.2,0.2,0.3c0,0.1,0.1,0.2,0.1,0.4
				c0,0.1,0,0.2,0,0.3c0,0.1-0.1,0.2-0.2,0.3c-0.1,0.1-0.2,0.2-0.3,0.2c-0.1,0.1-0.3,0.1-0.4,0.1h-0.4v1h-0.4V124H156.6z
				 M156.6,125.3c0.1,0,0.2,0,0.2,0c0.1,0,0.1-0.1,0.2-0.1c0,0,0.1-0.1,0.1-0.2c0-0.1,0-0.1,0-0.2c0,0,0-0.1,0-0.1s0-0.1-0.1-0.2
				c0,0-0.1-0.1-0.1-0.1c-0.1,0-0.1,0-0.2,0h-0.4v0.9H156.6z M157.1,125.6l0.7,1.1h-0.5l-0.7-1.1L157.1,125.6z"/>
			<path class="st7" d="M161.9,126.8l-2.1-2l0.1,0.1l0,1.9h-0.4v-2.8h0l2.1,2l-0.1,0l0-1.9h0.4L161.9,126.8L161.9,126.8z"/>
			<path class="st7" d="M163.9,124h0.4v2.7h-0.4V124z"/>
			<path class="st7" d="M168.7,126.8l-2.1-2l0.1,0.1l0,1.9h-0.4v-2.8h0l2.1,2l-0.1,0l0-1.9h0.4L168.7,126.8L168.7,126.8z"/>
			<path class="st7" d="M172.8,126.4c0,0-0.1,0.1-0.2,0.1c-0.1,0-0.1,0.1-0.2,0.1c-0.1,0-0.2,0-0.3,0.1c-0.1,0-0.2,0-0.3,0
				c-0.2,0-0.4,0-0.6-0.1c-0.2-0.1-0.3-0.2-0.5-0.3c-0.1-0.1-0.2-0.3-0.3-0.4c-0.1-0.2-0.1-0.3-0.1-0.5c0-0.2,0-0.4,0.1-0.6
				c0.1-0.2,0.2-0.3,0.3-0.5s0.3-0.2,0.4-0.3c0.2-0.1,0.3-0.1,0.5-0.1c0.2,0,0.3,0,0.5,0.1c0.1,0,0.3,0.1,0.4,0.1l-0.1,0.4
				c0,0-0.1-0.1-0.2-0.1c-0.1,0-0.1,0-0.2-0.1c-0.1,0-0.1,0-0.2,0c-0.2,0-0.3,0-0.4,0.1c-0.1,0-0.2,0.1-0.3,0.2s-0.2,0.2-0.2,0.3
				c0,0.1-0.1,0.3-0.1,0.4c0,0.1,0,0.3,0.1,0.4s0.1,0.2,0.2,0.3c0.1,0.1,0.2,0.1,0.3,0.2c0.1,0,0.3,0.1,0.4,0.1c0.1,0,0.2,0,0.2,0
				c0.1,0,0.1,0,0.2-0.1v-0.5h-0.5v-0.4h1V126.4z"/>
			<path class="st7" d="M175.7,125.7h0.7v0.4h-0.7V125.7z"/>
		</g>
	</g>
</g>
</svg>
