<?xml version="1.0" encoding="utf-8"?>
<!-- Generator: Adobe Illustrator 27.9.0, SVG Export Plug-In . SVG Version: 6.00 Build 0)  -->
<svg version="1.1" id="Capa_1" xmlns="http://www.w3.org/2000/svg" xmlns:xlink="http://www.w3.org/1999/xlink" x="0px" y="0px"
	 viewBox="0 0 320 256" style="enable-background:new 0 0 320 256;" xml:space="preserve">
<style type="text/css">
	.st0{fill:#EBEBEB;}
	.st1{fill:#E0E0E0;}
	.st2{fill:#E9505B;}
	.st3{opacity:0.8;}
	.st4{fill:#FFFFFF;}
	.st5{opacity:0.8;fill:#FFFFFF;}
	.st6{opacity:0.4;}
	.st7{fill:#010202;}
	.st8{fill:#455A64;}
	.st9{fill:#263239;}
	.st10{fill:#F8BC9E;}
	.st11{fill:#EC9A6E;}
	.st12{opacity:0.3;}
</style>
<g>
	<path class="st0" d="M202.5,204.5c1.9-1.1,4.4-1.1,6.4-0.1c2,1,3.4,3.1,3.6,5.3C208.4,209.6,204.4,208.7,202.5,204.5"/>
	<g>
		<path class="st0" d="M207.3,200.3c2.7,0.9,5.9,0.3,8.1-1.5c2.2-1.8,3.5-4.7,3.2-7.6C213.4,192.3,208.6,194.5,207.3,200.3"/>
		<g>
			<path class="st1" d="M189.6,207.2c0,0,0.1,0,0.3-0.1c0.2-0.1,0.4-0.1,0.7-0.3c0.6-0.2,1.6-0.5,2.7-0.9c2.3-0.8,5.4-1.9,8.8-3.4
				c1.7-0.7,3.3-1.5,4.7-2.2c1.4-0.7,2.7-1.4,3.7-2.1c1-0.6,1.8-1.2,2.4-1.6c0.5-0.4,0.8-0.7,0.8-0.7c0,0-0.1,0.1-0.2,0.2
				c-0.1,0.1-0.3,0.3-0.6,0.5c-0.5,0.5-1.3,1-2.3,1.7c-1,0.7-2.3,1.4-3.7,2.1c-1.4,0.7-3,1.5-4.7,2.2c-3.4,1.5-6.6,2.6-8.9,3.4
				c-1.2,0.4-2.1,0.7-2.7,0.9c-0.3,0.1-0.6,0.2-0.8,0.2C189.7,207.2,189.6,207.2,189.6,207.2z"/>
		</g>
	</g>
	<g>
		<path class="st1" d="M207.8,206.8c0,0-0.5-0.3-1.3-0.7c-0.8-0.4-2-1-3.3-1.3c-1.4-0.4-2.6-0.5-3.5-0.5c-0.9,0-1.5,0-1.5,0
			c0,0,0.1,0,0.4-0.1c0.3,0,0.6-0.1,1.1-0.1c0.9,0,2.2,0.1,3.6,0.5c1.4,0.4,2.5,0.9,3.3,1.4c0.4,0.2,0.7,0.4,0.9,0.6
			C207.6,206.7,207.8,206.8,207.8,206.8z"/>
	</g>
</g>
<g>
	<path class="st0" d="M111.9,188.7c-1,2.6-0.6,5.7,1.1,8c1.6,2.3,4.5,3.6,7.2,3.5C119.4,195.1,117.5,190.3,111.9,188.7"/>
	<g>
		<path class="st1" d="M111.1,186.2c0,0,0.2,0.6,0.5,1.4c0.3,0.9,0.8,2.1,1.4,3.3c0.7,1.2,1.4,2.3,2,3c0.6,0.7,1,1.2,0.9,1.2
			c0,0-0.1-0.1-0.3-0.3c-0.2-0.2-0.4-0.5-0.7-0.8c-0.6-0.7-1.4-1.8-2.1-3c-0.7-1.3-1.1-2.5-1.4-3.4c-0.1-0.5-0.2-0.8-0.3-1.1
			C111.1,186.4,111.1,186.2,111.1,186.2z"/>
	</g>
</g>
<g>
	<path class="st0" d="M31.5,87.2c-1.5,4-0.9,8.8,1.7,12.3c2.5,3.5,6.9,5.6,11.2,5.4C43.2,97,40.2,89.6,31.5,87.2"/>
	<g>
		<path class="st1" d="M30.2,83.3c0,0,0.1,0.2,0.2,0.6c0.1,0.4,0.3,1,0.5,1.6c0.4,1.4,1.2,3.2,2.2,5.2c1,1.9,2.2,3.6,3.1,4.7
			c0.4,0.6,0.8,1,1.1,1.3c0.3,0.3,0.4,0.5,0.4,0.5c0,0-0.2-0.1-0.5-0.4c-0.3-0.3-0.7-0.7-1.1-1.3c-0.9-1.1-2.1-2.7-3.2-4.7
			c-1-2-1.8-3.8-2.2-5.2c-0.2-0.7-0.3-1.3-0.4-1.7C30.3,83.6,30.2,83.3,30.2,83.3z"/>
	</g>
</g>
<g>
	<path class="st0" d="M45.1,167.3c-2.2,1.7-3.4,4.6-3.1,7.4c0.3,2.8,2,5.4,4.5,6.7C48.3,176.6,49.1,171.5,45.1,167.3"/>
	<g>
		<path class="st1" d="M45.6,164.7c0,0-0.1,0.6-0.3,1.5c-0.2,0.9-0.4,2.2-0.5,3.6c-0.1,1.4,0,2.7,0.2,3.6c0.1,0.9,0.2,1.5,0.2,1.5
			c0,0-0.1-0.1-0.1-0.4c-0.1-0.3-0.1-0.6-0.2-1.1c-0.2-0.9-0.3-2.2-0.2-3.7c0.1-1.4,0.3-2.7,0.5-3.6c0.1-0.5,0.2-0.8,0.3-1.1
			C45.6,164.9,45.6,164.7,45.6,164.7z"/>
	</g>
</g>
<g>
	<path class="st0" d="M119.7,65.5c2.5,1.2,5.6,1.1,8-0.3c2.4-1.4,4-4.1,4.2-6.9C126.8,58.7,121.8,60.1,119.7,65.5"/>
	<g>
		<path class="st1" d="M117.2,66.1c0,0,0.6-0.1,1.5-0.3c0.9-0.2,2.1-0.5,3.5-1.1c1.3-0.5,2.4-1.2,3.2-1.7c0.8-0.5,1.3-0.8,1.3-0.8
			c0,0-0.1,0.1-0.3,0.3c-0.2,0.2-0.5,0.4-0.9,0.7c-0.8,0.5-1.9,1.2-3.2,1.7c-1.3,0.5-2.6,0.9-3.5,1c-0.5,0.1-0.8,0.1-1.1,0.2
			C117.3,66.1,117.2,66.1,117.2,66.1z"/>
	</g>
</g>
<g>
	<path class="st0" d="M109.3,64.8c3.6-0.8,6.7-3.4,8.1-6.9c1.3-3.4,0.8-7.5-1.3-10.5C111,51.9,107,57.5,109.3,64.8"/>
	<g>
		<path class="st1" d="M107.1,67.5c0,0,0.1-0.2,0.3-0.4c0.2-0.3,0.6-0.6,0.9-1.1c0.8-0.9,1.8-2.3,2.7-4c0.9-1.6,1.6-3.2,1.9-4.4
			c0.2-0.6,0.4-1.1,0.4-1.4c0.1-0.3,0.2-0.5,0.2-0.5c0,0,0,0.2-0.1,0.5c-0.1,0.3-0.2,0.8-0.4,1.4c-0.4,1.2-1,2.8-1.9,4.4
			c-0.9,1.6-1.9,3-2.8,4c-0.4,0.5-0.7,0.8-1,1.1C107.3,67.3,107.1,67.5,107.1,67.5z"/>
	</g>
</g>
<g>
	<path class="st0" d="M179.6,58.2c1,1.3,2.8,2.1,4.4,1.9c1.7-0.1,3.2-1.2,4.1-2.6C185.3,56.3,182.2,55.8,179.6,58.2"/>
	<g>
		<path class="st1" d="M178.1,57.8c0-0.1,1.3,0.4,3,0.5c1.7,0.1,3.1-0.2,3.1-0.1c0,0-0.3,0.1-0.9,0.2c-0.6,0.1-1.3,0.2-2.2,0.1
			c-0.9,0-1.6-0.2-2.2-0.4C178.4,58,178.1,57.8,178.1,57.8z"/>
	</g>
</g>
<g>
	<path class="st0" d="M276.3,70.6c2.7,0.7,5.7,0,7.8-1.8c2.1-1.8,3.2-4.8,2.8-7.5C281.9,62.5,277.3,64.8,276.3,70.6"/>
	<g>
		<path class="st1" d="M273.9,71.6c0,0,0.5-0.2,1.4-0.6c0.9-0.4,2-0.9,3.2-1.7c1.2-0.8,2.2-1.6,2.8-2.2c0.7-0.6,1.1-1.1,1.1-1
			c0,0-0.1,0.1-0.2,0.3c-0.2,0.2-0.4,0.5-0.7,0.8c-0.7,0.7-1.6,1.5-2.8,2.3c-1.2,0.8-2.4,1.3-3.2,1.7c-0.4,0.2-0.8,0.3-1,0.4
			C274,71.5,273.9,71.6,273.9,71.6z"/>
	</g>
</g>
<g>
	<path class="st0" d="M285.8,193.2c4.7-1.1,8.8-4.7,10.5-9.2c1.7-4.5,0.9-9.9-2-13.8C287.7,176.1,282.6,183.6,285.8,193.2"/>
	<g>
		<path class="st1" d="M283,196.7c0,0,0.1-0.2,0.4-0.5c0.3-0.3,0.7-0.8,1.2-1.5c0.5-0.6,1.1-1.4,1.7-2.3c0.6-0.9,1.2-1.9,1.8-3
			c0.6-1.1,1.1-2.2,1.5-3.1c0.4-1,0.7-1.9,1-2.7c0.2-0.8,0.4-1.4,0.5-1.8c0.1-0.4,0.2-0.7,0.2-0.7c0,0,0,0.3-0.1,0.7
			c-0.1,0.4-0.3,1.1-0.5,1.9c-0.2,0.8-0.5,1.7-0.9,2.7c-0.4,1-0.9,2.1-1.5,3.2c-0.6,1.1-1.2,2.1-1.8,3c-0.6,0.9-1.2,1.7-1.7,2.3
			c-0.5,0.6-1,1.1-1.3,1.4C283.2,196.6,283,196.7,283,196.7z"/>
	</g>
</g>
<g>
	<path class="st2" d="M231.2,142.5c-2.5-14.2-14.7-26.6-29.1-27.7c-7.8-0.6-15.7,1.8-23.5,0.9c-6.5-0.8-12.7-4.1-17.1-9
		c-6.4-7.3-8.6-17.7-15.4-24.7c-9.4-9.6-25.8-9.8-37.2-2.7C97.5,86.3,90.5,99,87.4,112.1l-0.1,4c-0.7,13.5,2.9,29.3,10.7,41.4
		c8,12.2,13.2,17.3,27.7,26.1c12.3,7.5,36.4,10.8,50.9,11.1c14.4,0.3,29.2-3.9,40-13.4C227.4,171.6,233.7,156.6,231.2,142.5z"/>
	<g class="st3">
		<path class="st4" d="M231.2,142.5c-2.5-14.2-14.7-26.6-29.1-27.7c-7.8-0.6-15.7,1.8-23.5,0.9c-6.5-0.8-12.7-4.1-17.1-9
			c-6.4-7.3-8.6-17.7-15.4-24.7c-9.4-9.6-25.8-9.8-37.2-2.7C97.5,86.3,90.5,99,87.4,112.1l-0.1,4c-0.7,13.5,2.9,29.3,10.7,41.4
			c8,12.2,13.2,17.3,27.7,26.1c12.3,7.5,36.4,10.8,50.9,11.1c14.4,0.3,29.2-3.9,40-13.4C227.4,171.6,233.7,156.6,231.2,142.5z"/>
	</g>
</g>
<g>
	<ellipse transform="matrix(0.1436 -0.9896 0.9896 0.1436 14.0822 400.475)" class="st2" cx="238.4" cy="192.1" rx="6.9" ry="6.9"/>
	<ellipse transform="matrix(0.1436 -0.9896 0.9896 0.1436 14.0822 400.475)" class="st5" cx="238.4" cy="192.1" rx="6.9" ry="6.9"/>
</g>
<g>
	<g>
		<path class="st2" d="M189.7,138.7c0.1,13.9-2.9,24.4-9.1,31.8c-6.2,7.3-14.6,11-25.4,11.1c-10.8,0.1-19.4-3.4-25.7-10.7
			c-6.4-7.2-9.6-17.7-9.7-31.6l-0.2-24.4c-0.1-13.8,2.9-24.4,9.1-31.8c6.2-7.4,14.7-11.1,25.4-11.2c10.7-0.1,19.3,3.5,25.6,10.7
			c6.4,7.3,9.6,17.8,9.7,31.6L189.7,138.7z M171.7,111.8c-0.1-8.7-1.6-15.2-4.6-19.3c-3-4.2-7.3-6.2-12.9-6.2
			c-5.6,0.1-9.8,2.2-12.7,6.4c-2.9,4.2-4.3,10.7-4.2,19.4l0.3,29.6c0.1,8.8,1.6,15.3,4.6,19.4c3,4.2,7.3,6.3,12.9,6.2
			c5.6-0.1,9.8-2.2,12.7-6.4c2.8-4.2,4.2-10.7,4.1-19.6L171.7,111.8z"/>
	</g>
	<g class="st6">
		<path class="st7" d="M189.7,138.7c0.1,13.9-2.9,24.4-9.1,31.8c-6.2,7.3-14.6,11-25.4,11.1c-10.8,0.1-19.4-3.4-25.7-10.7
			c-6.4-7.2-9.6-17.7-9.7-31.6l-0.2-24.4c-0.1-13.8,2.9-24.4,9.1-31.8c6.2-7.4,14.7-11.1,25.4-11.2c10.7-0.1,19.3,3.5,25.6,10.7
			c6.4,7.3,9.6,17.8,9.7,31.6L189.7,138.7z M171.7,111.8c-0.1-8.7-1.6-15.2-4.6-19.3c-3-4.2-7.3-6.2-12.9-6.2
			c-5.6,0.1-9.8,2.2-12.7,6.4c-2.9,4.2-4.3,10.7-4.2,19.4l0.3,29.6c0.1,8.8,1.6,15.3,4.6,19.4c3,4.2,7.3,6.3,12.9,6.2
			c5.6-0.1,9.8-2.2,12.7-6.4c2.8-4.2,4.2-10.7,4.1-19.6L171.7,111.8z"/>
	</g>
	<g>
		<path class="st2" d="M200,138.6c0.1,13.9-2.9,24.4-9.1,31.8c-6.2,7.3-14.6,11-25.4,11.1c-10.8,0.1-19.4-3.4-25.7-10.7
			c-6.4-7.2-9.6-17.7-9.7-31.6l-0.2-24.4c-0.1-13.8,2.9-24.4,9.1-31.8c6.2-7.4,14.7-11.1,25.4-11.2c10.7-0.1,19.3,3.5,25.6,10.7
			c6.4,7.3,9.6,17.8,9.7,31.6L200,138.6z M181.9,111.7c-0.1-8.7-1.6-15.2-4.6-19.3c-3-4.2-7.3-6.2-12.9-6.2
			c-5.6,0.1-9.8,2.2-12.7,6.4c-2.9,4.2-4.3,10.7-4.2,19.4l0.3,29.6c0.1,8.8,1.6,15.3,4.6,19.4c3,4.2,7.3,6.3,12.9,6.2
			c5.6-0.1,9.8-2.2,12.7-6.4c2.8-4.2,4.2-10.7,4.1-19.6L181.9,111.7z"/>
	</g>
	<g>
		<path class="st2" d="M129.9,116.4c0,0.1-2.4,1-5.3,2.1c-3,1.1-5.4,2-5.4,1.9c0-0.1,2.4-1,5.3-2.1
			C127.5,117.2,129.9,116.3,129.9,116.4z"/>
	</g>
	<g>
		<path class="st2" d="M130.5,126c0,0.1-2.4,1-5.3,2.1c-3,1.1-5.4,2-5.4,1.9c0-0.1,2.4-1,5.3-2.1C128.1,126.8,130.5,125.9,130.5,126
			z"/>
	</g>
	<g>
		<path class="st2" d="M131.1,135.6c0,0.1-2.4,1-5.3,2.1c-3,1.1-5.4,2-5.4,1.9c0-0.1,2.4-1,5.3-2.1
			C128.7,136.4,131.1,135.6,131.1,135.6z"/>
	</g>
	<g>
		<path class="st2" d="M131.7,145.2c0,0.1-2.4,1-5.3,2.1c-3,1.1-5.4,2-5.4,1.9c0-0.1,2.4-1,5.3-2.1
			C129.3,146,131.7,145.2,131.7,145.2z"/>
	</g>
	<g>
		<path class="st2" d="M132.3,154.9c0,0-0.1,0.1-0.4,0.2c-0.2,0.1-0.6,0.2-1,0.4c-0.9,0.3-2.1,0.8-3.4,1.3c-1.3,0.5-2.6,1-3.5,1.3
			c-0.4,0.2-0.8,0.3-1.1,0.4c-0.3,0.1-0.4,0.1-0.4,0.1c0,0,0.1-0.1,0.4-0.2c0.2-0.1,0.6-0.2,1-0.4c0.9-0.3,2.1-0.8,3.4-1.3
			c1.3-0.5,2.6-1,3.5-1.3c0.4-0.2,0.8-0.3,1.1-0.4C132.1,154.9,132.3,154.9,132.3,154.9z"/>
	</g>
	<g>
		<path class="st2" d="M135,163.7c0,0-0.5,0.2-1.2,0.5c-0.8,0.3-1.8,0.7-3,1.2c-1.2,0.4-2.2,0.8-3,1.1c-0.8,0.3-1.3,0.4-1.3,0.4
			c0,0,0.5-0.2,1.2-0.5c0.8-0.3,1.8-0.7,3-1.2c1.2-0.4,2.2-0.8,3-1.1C134.5,163.8,135,163.7,135,163.7z"/>
	</g>
	<g>
		<path class="st2" d="M140.9,171.8c0,0-0.4,0.2-1.1,0.5c-0.7,0.3-1.6,0.6-2.7,1c-1,0.4-2,0.7-2.7,1c-0.7,0.2-1.1,0.4-1.1,0.3
			c0,0,0.4-0.2,1.1-0.5c0.7-0.3,1.6-0.6,2.7-1c1-0.4,2-0.7,2.7-1C140.5,171.9,140.9,171.7,140.9,171.8z"/>
	</g>
	<g>
		<path class="st2" d="M150.7,177.1c0,0-0.4,0.2-1.1,0.5c-0.7,0.3-1.6,0.6-2.7,1c-1,0.4-2,0.7-2.7,1c-0.7,0.2-1.1,0.4-1.1,0.3
			s0.4-0.2,1.1-0.5c0.7-0.3,1.6-0.6,2.7-1c1-0.4,2-0.7,2.7-1C150.3,177.2,150.7,177,150.7,177.1z"/>
	</g>
	<g>
		<path class="st2" d="M180.2,156.5c0,0.1-3,1.5-6.8,3.2c-3.8,1.7-6.9,3-6.9,3c0-0.1,3-1.5,6.8-3.2
			C177.1,157.8,180.2,156.5,180.2,156.5z"/>
	</g>
	<g>
		<path class="st2" d="M182.2,148.3c0,0.1-2.5,1.2-5.6,2.6c-3.1,1.4-5.7,2.5-5.7,2.5c0-0.1,2.5-1.2,5.6-2.6
			C179.6,149.3,182.2,148.2,182.2,148.3z"/>
	</g>
	<g>
		<path class="st2" d="M183.1,139c0,0.1-2.5,1.2-5.6,2.6c-3.1,1.4-5.7,2.5-5.7,2.5c0-0.1,2.5-1.2,5.6-2.6
			C180.6,140,183.1,138.9,183.1,139z"/>
	</g>
	<g>
		<path class="st2" d="M184.1,129.7c0,0.1-2.5,1.2-5.6,2.6c-3.1,1.4-5.7,2.5-5.7,2.5c0-0.1,2.5-1.2,5.6-2.6
			C181.5,130.8,184,129.7,184.1,129.7z"/>
	</g>
	<g>
		<path class="st2" d="M185,120.5c0,0.1-2.5,1.2-5.6,2.6c-3.1,1.4-5.7,2.5-5.7,2.5c0-0.1,2.5-1.2,5.6-2.6
			C182.4,121.5,185,120.4,185,120.5z"/>
	</g>
	<g>
		<path class="st2" d="M183.1,112.2c0,0.1-2.5,1.2-5.6,2.6c-3.1,1.4-5.7,2.5-5.7,2.5c0-0.1,2.5-1.2,5.6-2.6
			C180.6,113.3,183.1,112.2,183.1,112.2z"/>
	</g>
	<g>
		<path class="st2" d="M183.1,103.3c0,0.1-2.5,1.2-5.6,2.6c-3.1,1.4-5.7,2.5-5.7,2.5c0-0.1,2.5-1.2,5.6-2.6
			C180.6,104.4,183.1,103.3,183.1,103.3z"/>
	</g>
	<g>
		<path class="st2" d="M182.2,95c0,0.1-2.5,1.2-5.6,2.6c-3.1,1.4-5.7,2.5-5.7,2.5c0-0.1,2.5-1.2,5.6-2.6
			C179.6,96,182.2,94.9,182.2,95z"/>
	</g>
	<g>
		<path class="st2" d="M174.3,89.1c0,0.1-1.5,0.8-3.4,1.6c-1.9,0.9-3.5,1.5-3.5,1.5c0-0.1,1.5-0.8,3.4-1.6
			C172.7,89.7,174.2,89.1,174.3,89.1z"/>
	</g>
	<g>
		<path class="st2" d="M170,85.6c0,0.1-1.5,0.8-3.4,1.6c-1.9,0.9-3.5,1.5-3.5,1.5c0-0.1,1.5-0.8,3.4-1.6
			C168.4,86.2,170,85.5,170,85.6z"/>
	</g>
	<g>
		<path class="st2" d="M130.4,104.7c0,0.1-2.4,1-5.3,2.1c-3,1.1-5.4,2-5.4,1.9s2.4-1,5.3-2.1C127.9,105.5,130.4,104.6,130.4,104.7z"
			/>
	</g>
	<g>
		<path class="st2" d="M133.3,92.7c0,0.1-2.6,1.1-5.8,2.3c-3.2,1.2-5.8,2.1-5.8,2.1c0-0.1,2.6-1.1,5.8-2.3
			C130.7,93.6,133.3,92.6,133.3,92.7z"/>
	</g>
	<g>
		<path class="st2" d="M141.1,80.8c0,0.1-3.3,1.3-7.3,2.9c-4.1,1.5-7.4,2.7-7.4,2.7c0-0.1,3.3-1.3,7.3-2.9
			C137.8,81.9,141.1,80.7,141.1,80.8z"/>
	</g>
	<g>
		<path class="st4" d="M198.2,156.6c0,0-0.1,0-0.2-0.1c-0.1,0-0.3-0.1-0.5-0.2c-0.2-0.1-0.5-0.1-0.8-0.2c-0.3,0-0.7-0.1-1.1-0.1
			c-1.7-0.1-4.3,0.5-6.8,2.4c-1.3,0.9-2.4,2.1-3.6,3.6c-1.2,1.4-2.3,3-3.6,4.6c-1.3,1.6-2.8,3.2-4.6,4.5c-1.9,1.3-4.1,2.2-6.4,2.6
			c-2.4,0.4-4.7,0.3-6.9-0.2c-2.2-0.5-4.2-1.4-6.1-2.2c-1.9-0.9-3.6-1.7-5.3-2.5c-1.7-0.7-3.3-1.3-4.8-1.6c-1.5-0.3-2.9-0.5-4.1-0.5
			c-1.2,0-2.3,0.2-3.1,0.4c-0.8,0.3-1.5,0.5-1.9,0.7c-0.2,0.1-0.3,0.2-0.5,0.2c-0.1,0.1-0.2,0.1-0.2,0.1c0,0,0,0,0.1-0.1
			c0.1-0.1,0.3-0.2,0.5-0.3c0.4-0.2,1-0.5,1.9-0.8c0.8-0.2,1.9-0.4,3.1-0.5c1.2,0,2.7,0.1,4.2,0.4c1.5,0.4,3.2,0.9,4.8,1.6
			c1.7,0.7,3.4,1.6,5.3,2.5c1.9,0.9,3.9,1.7,6,2.2c2.2,0.5,4.5,0.7,6.8,0.2c2.3-0.4,4.5-1.3,6.3-2.6c1.9-1.2,3.3-2.8,4.6-4.4
			c1.3-1.6,2.4-3.2,3.6-4.6c1.2-1.4,2.4-2.7,3.6-3.6c2.5-1.9,5.1-2.5,6.9-2.3c0.4,0,0.8,0.1,1.1,0.2c0.3,0.1,0.6,0.2,0.8,0.2
			c0.2,0.1,0.4,0.2,0.5,0.2C198.2,156.6,198.2,156.6,198.2,156.6z"/>
	</g>
	<g>
		<path class="st4" d="M200.8,129.8c0,0-0.3,0.1-0.8,0.2c-0.5,0.2-1.2,0.5-1.9,1c-0.8,0.5-1.6,1.3-2.6,2.1c-1,0.8-2.2,1.5-3.5,2.1
			c-2.6,1.3-5.2,1.7-7.1,1.8c-0.5,0-0.9,0-1.3,0c-0.4,0-0.7,0-1,0c-0.2,0-0.4,0-0.6-0.1c-0.1,0-0.2,0-0.2,0c0,0,0.1,0,0.2,0
			c0.2,0,0.4,0,0.6,0c0.3,0,0.6,0,1,0c0.4,0,0.8,0,1.3-0.1c1.9-0.1,4.4-0.6,7-1.9c1.3-0.6,2.4-1.3,3.4-2.1c1-0.8,1.8-1.5,2.6-2
			c0.8-0.5,1.5-0.8,2-1c0.3-0.1,0.5-0.1,0.6-0.1C200.7,129.8,200.8,129.8,200.8,129.8z"/>
	</g>
	<g>
		<path class="st4" d="M148.2,139.1c0,0-0.1,0-0.2,0c-0.1,0-0.4-0.1-0.6-0.1c-0.5-0.2-1.3-0.4-2.2-0.9c-0.9-0.5-1.8-1.2-2.8-2.1
			c-1-0.8-2.1-1.8-3.3-2.6c-1.2-0.8-2.6-1.5-3.8-1.8c-1.3-0.3-2.4-0.4-3.4-0.3c-1,0-1.8,0.2-2.3,0.4c-0.5,0.1-0.8,0.2-0.8,0.2
			c0,0,0.1,0,0.2-0.1c0.1-0.1,0.3-0.1,0.6-0.2c0.5-0.2,1.3-0.4,2.3-0.4c1-0.1,2.2,0,3.5,0.3c1.3,0.3,2.6,0.9,3.9,1.8
			c1.3,0.9,2.3,1.8,3.3,2.7c1,0.8,1.9,1.6,2.8,2.1c0.8,0.5,1.6,0.8,2.1,1C147.9,139,148.2,139.1,148.2,139.1z"/>
	</g>
	<g>
		<path class="st4" d="M148.3,101.1c0,0-0.2,0.1-0.7,0.2c-0.2,0.1-0.5,0.2-0.8,0.2c-0.3,0.1-0.7,0.2-1.1,0.3
			c-0.4,0.1-0.8,0.2-1.3,0.2c-0.5,0.1-1,0.1-1.5,0.2c-1.1,0.1-2.3,0.1-3.5,0c-1.3-0.1-2.4-0.3-3.5-0.6c-0.5-0.1-1-0.3-1.5-0.5
			c-0.5-0.1-0.9-0.3-1.3-0.5c-0.4-0.1-0.7-0.3-1-0.5c-0.3-0.1-0.5-0.3-0.7-0.4c-0.4-0.2-0.6-0.4-0.6-0.4c0,0,0.2,0.1,0.7,0.3
			c0.2,0.1,0.5,0.2,0.8,0.4c0.3,0.1,0.6,0.3,1,0.4c0.4,0.1,0.8,0.3,1.3,0.4c0.5,0.2,1,0.3,1.5,0.4c1,0.3,2.2,0.5,3.5,0.6
			c1.2,0.1,2.4,0.1,3.5,0.1c0.5,0,1.1-0.1,1.5-0.1c0.5-0.1,0.9-0.1,1.3-0.2c0.4-0.1,0.8-0.2,1.1-0.2c0.3-0.1,0.6-0.1,0.8-0.2
			C148,101.1,148.3,101.1,148.3,101.1z"/>
	</g>
	<g>
		<path class="st4" d="M198.5,101c0,0-0.1,0-0.2-0.1c-0.1-0.1-0.3-0.2-0.5-0.3c-0.2-0.1-0.4-0.3-0.7-0.4c-0.3-0.1-0.6-0.3-1-0.5
			c-0.2-0.1-0.4-0.2-0.6-0.3c-0.2-0.1-0.4-0.2-0.7-0.2c-0.5-0.2-1-0.3-1.5-0.4c-1.1-0.2-2.3-0.4-3.6-0.4c-1.3,0-2.5,0.1-3.6,0.4
			c-0.5,0.1-1,0.2-1.5,0.4c-0.2,0.1-0.5,0.1-0.7,0.2c-0.2,0.1-0.4,0.2-0.6,0.2c-0.4,0.1-0.7,0.3-1,0.5c-0.3,0.1-0.6,0.3-0.8,0.4
			c-0.2,0.1-0.3,0.2-0.5,0.3c-0.1,0.1-0.2,0.1-0.2,0.1c0,0,0,0,0.1-0.1c0.1-0.1,0.3-0.2,0.5-0.3c0.2-0.1,0.4-0.3,0.7-0.4
			c0.3-0.2,0.6-0.3,1-0.5c0.2-0.1,0.4-0.2,0.6-0.3c0.2-0.1,0.4-0.2,0.7-0.2c0.5-0.2,1-0.3,1.5-0.4c1.1-0.2,2.3-0.4,3.6-0.4
			c1.3,0,2.5,0.2,3.6,0.4c0.5,0.1,1.1,0.3,1.5,0.4c0.2,0.1,0.5,0.2,0.7,0.2c0.2,0.1,0.4,0.2,0.6,0.3c0.4,0.2,0.7,0.4,1,0.5
			c0.3,0.2,0.5,0.3,0.7,0.4c0.2,0.1,0.3,0.2,0.4,0.3C198.4,100.9,198.5,101,198.5,101z"/>
	</g>
	<g>
		<path class="st4" d="M173.9,73.6c0,0-0.1,0.1-0.3,0.2c-0.2,0.1-0.5,0.3-0.9,0.5c-0.7,0.4-1.8,1-3.2,1.6c-2.7,1.3-6.5,3.2-11,4.3
			c-2.2,0.6-4.4,0.8-6.4,0.9c-2,0-3.8-0.1-5.3-0.5c-1.5-0.3-2.6-0.7-3.4-1c-0.4-0.2-0.7-0.3-0.9-0.4c-0.2-0.1-0.3-0.2-0.3-0.2
			c0,0,0.1,0,0.3,0.1c0.2,0.1,0.5,0.2,0.9,0.4c0.8,0.3,1.9,0.7,3.4,1c1.5,0.3,3.3,0.5,5.2,0.4c2-0.1,4.2-0.4,6.4-0.9
			c4.5-1.1,8.2-2.9,11-4.2c1.3-0.7,2.4-1.2,3.2-1.6c0.4-0.2,0.7-0.3,0.9-0.4C173.8,73.7,173.9,73.6,173.9,73.6z"/>
	</g>
</g>
<g>
	<g>
		<path class="st2" d="M93.1,143.8l13.5,0.6l-0.6,14.3L92.5,158l-1,23.7l-17.7-0.8l1-23.7l-45.7-2l0-10.9l48.7-69.9l18.3,0.8
			L93.1,143.8z M46.8,141.7l28.6,1.2l1.9-43.2l-0.4-0.2l-1.6,3.1L46.8,141.7z"/>
	</g>
	<g class="st6">
		<path class="st7" d="M93.1,143.8l13.5,0.6l-0.6,14.3L92.5,158l-1,23.7l-17.7-0.8l1-23.7l-45.7-2l0-10.9l48.7-69.9l18.3,0.8
			L93.1,143.8z M46.8,141.7l28.6,1.2l1.9-43.2l-0.4-0.2l-1.6,3.1L46.8,141.7z"/>
	</g>
	<g>
		<path class="st2" d="M104.4,144.2l13.5,0.6l-0.6,14.3l-13.5-0.6l-1,23.7L85,181.4l1-23.7l-45.7-2l0-10.9l48.7-69.9l18.3,0.8
			L104.4,144.2z M58.1,142.2l28.6,1.2l1.9-43.2l-0.4-0.2l-1.6,3.1L58.1,142.2z"/>
	</g>
	<g>
		<g>
			<path class="st2" d="M40.6,146.9c0,0-0.1,0.1-0.4,0.2c-0.3,0.1-0.7,0.3-1.2,0.6c-1,0.5-2.5,1.1-4.1,1.8c-1.6,0.7-3.1,1.3-4.2,1.7
				c-0.5,0.2-1,0.4-1.3,0.5c-0.3,0.1-0.5,0.2-0.5,0.1c0,0,0.2-0.1,0.4-0.2c0.3-0.1,0.8-0.3,1.2-0.5c1.1-0.5,2.5-1.1,4.1-1.7
				c1.6-0.7,3-1.3,4.1-1.8c0.5-0.2,0.9-0.4,1.2-0.5C40.4,147,40.6,146.9,40.6,146.9z"/>
		</g>
		<g>
			<path class="st2" d="M47.2,134.9c0,0-0.2,0.1-0.6,0.3c-0.4,0.2-1,0.5-1.7,0.8c-1.4,0.7-3.4,1.5-5.6,2.5c-2.2,0.9-4.2,1.8-5.7,2.3
				c-0.7,0.3-1.3,0.5-1.7,0.7c-0.4,0.1-0.6,0.2-0.7,0.2c0,0,0.2-0.1,0.6-0.3c0.4-0.2,1-0.4,1.7-0.7c1.5-0.6,3.5-1.5,5.7-2.4
				c2.2-0.9,4.2-1.8,5.7-2.4c0.7-0.3,1.3-0.5,1.7-0.7C46.9,135,47.2,134.9,47.2,134.9z"/>
		</g>
		<g>
			<path class="st2" d="M55.2,124.1c0,0-0.2,0.1-0.6,0.3c-0.4,0.2-1,0.5-1.8,0.8c-1.5,0.7-3.6,1.5-5.9,2.5c-2.3,0.9-4.4,1.8-5.9,2.3
				c-0.8,0.3-1.4,0.5-1.8,0.7c-0.4,0.1-0.7,0.2-0.7,0.2c0,0,0.2-0.1,0.7-0.3c0.5-0.2,1.1-0.4,1.8-0.7c1.5-0.6,3.6-1.5,5.9-2.4
				c2.3-0.9,4.4-1.8,5.9-2.4c0.7-0.3,1.3-0.5,1.8-0.7C54.9,124.2,55.1,124.1,55.2,124.1z"/>
		</g>
		<g>
			<path class="st2" d="M87.2,136.6c0,0-0.2,0.1-0.4,0.2c-0.3,0.1-0.7,0.3-1.2,0.6c-1,0.5-2.5,1.1-4.1,1.7c-1.6,0.7-3.1,1.2-4.2,1.6
				c-0.5,0.2-1,0.3-1.3,0.4c-0.3,0.1-0.5,0.1-0.5,0.1c0,0,0.2-0.1,0.4-0.2c0.3-0.1,0.8-0.3,1.3-0.5c1.1-0.4,2.5-1,4.1-1.7
				c1.6-0.7,3-1.2,4.1-1.7c0.5-0.2,0.9-0.4,1.3-0.5C87,136.6,87.2,136.5,87.2,136.6z"/>
		</g>
		<g>
			<path class="st2" d="M85.9,158.7c0,0-0.1,0.1-0.4,0.2c-0.3,0.1-0.7,0.3-1.2,0.6c-1,0.5-2.4,1.1-4,1.7c-1.6,0.7-3,1.2-4,1.6
				c-0.5,0.2-0.9,0.3-1.2,0.4c-0.3,0.1-0.5,0.1-0.5,0.1c0,0,0.2-0.1,0.4-0.2c0.3-0.1,0.7-0.3,1.2-0.5c1.1-0.4,2.5-1,4-1.7
				c1.5-0.7,2.9-1.2,4-1.7c0.5-0.2,0.9-0.4,1.2-0.5C85.7,158.7,85.9,158.6,85.9,158.7z"/>
		</g>
		<g>
			<path class="st2" d="M85.7,166.4c0,0-0.1,0.1-0.4,0.2c-0.3,0.1-0.7,0.3-1.2,0.6c-1,0.5-2.4,1.1-4,1.7c-1.6,0.7-3,1.2-4,1.6
				c-0.5,0.2-0.9,0.3-1.2,0.4c-0.3,0.1-0.5,0.1-0.5,0.1c0,0,0.2-0.1,0.4-0.2c0.3-0.1,0.7-0.3,1.2-0.5c1.1-0.4,2.5-1,4-1.7
				c1.5-0.7,2.9-1.2,4-1.7c0.5-0.2,0.9-0.4,1.2-0.5C85.5,166.5,85.7,166.4,85.7,166.4z"/>
		</g>
		<g>
			<path class="st2" d="M85.5,174.2c0,0-0.1,0.1-0.4,0.2c-0.3,0.1-0.7,0.3-1.2,0.6c-1,0.5-2.4,1.1-4,1.7c-1.6,0.7-3,1.2-4,1.6
				c-0.5,0.2-0.9,0.3-1.2,0.4c-0.3,0.1-0.5,0.1-0.5,0.1c0,0,0.2-0.1,0.4-0.2c0.3-0.1,0.7-0.3,1.2-0.5c1.1-0.4,2.5-1,4-1.7
				c1.5-0.7,2.9-1.2,4-1.7c0.5-0.2,0.9-0.4,1.2-0.5C85.3,174.2,85.5,174.1,85.5,174.2z"/>
		</g>
		<g>
			<path class="st2" d="M87.4,128.4c0,0-0.2,0.1-0.4,0.2c-0.3,0.1-0.7,0.3-1.2,0.6c-1,0.5-2.5,1.1-4.1,1.7c-1.6,0.7-3.1,1.2-4.2,1.6
				c-0.5,0.2-1,0.3-1.3,0.4c-0.3,0.1-0.5,0.1-0.5,0.1c0,0,0.2-0.1,0.4-0.2c0.3-0.1,0.8-0.3,1.3-0.5c1.1-0.4,2.5-1,4.1-1.7
				c1.6-0.7,3-1.2,4.1-1.7c0.5-0.2,0.9-0.4,1.3-0.5C87.2,128.4,87.4,128.4,87.4,128.4z"/>
		</g>
		<g>
			<path class="st2" d="M87.6,120.2c0,0-0.2,0.1-0.4,0.2c-0.3,0.1-0.7,0.3-1.2,0.6c-1,0.5-2.5,1.1-4.1,1.7c-1.6,0.7-3.1,1.2-4.2,1.6
				c-0.5,0.2-1,0.3-1.3,0.4c-0.3,0.1-0.5,0.1-0.5,0.1c0,0,0.2-0.1,0.4-0.2c0.3-0.1,0.8-0.3,1.3-0.5c1.1-0.4,2.5-1,4.1-1.7
				c1.6-0.7,3-1.2,4.1-1.7c0.5-0.2,0.9-0.4,1.3-0.5C87.4,120.2,87.6,120.2,87.6,120.2z"/>
		</g>
		<g>
			<path class="st2" d="M87.8,112c0,0-0.1,0.1-0.4,0.2c-0.3,0.1-0.7,0.3-1.2,0.5c-1,0.4-2.4,1-3.9,1.7c-1.5,0.6-2.9,1.2-4,1.5
				c-0.5,0.2-0.9,0.3-1.2,0.4c-0.3,0.1-0.5,0.1-0.5,0.1c0,0,0.1-0.1,0.4-0.2c0.3-0.1,0.7-0.3,1.2-0.5c1.1-0.4,2.4-1,3.9-1.6
				c1.5-0.6,2.9-1.2,3.9-1.6c0.5-0.2,0.9-0.4,1.2-0.5C87.6,112,87.8,112,87.8,112z"/>
		</g>
		<g>
			<path class="st2" d="M88.7,104.3c0,0.1-0.9,0.4-2,0.9c-1.1,0.4-2.1,0.7-2.1,0.7c0-0.1,0.9-0.4,2-0.9
				C87.8,104.6,88.7,104.3,88.7,104.3z"/>
		</g>
		<g>
			<path class="st2" d="M63.1,113c0,0-0.2,0.1-0.6,0.3c-0.4,0.2-1,0.5-1.8,0.8c-1.5,0.7-3.6,1.5-5.9,2.5c-2.3,0.9-4.4,1.8-5.9,2.3
				c-0.8,0.3-1.4,0.5-1.8,0.7c-0.4,0.1-0.7,0.2-0.7,0.2c0,0,0.2-0.1,0.7-0.3c0.5-0.2,1.1-0.4,1.8-0.7c1.5-0.6,3.6-1.5,5.9-2.4
				c2.3-0.9,4.4-1.8,5.9-2.4c0.7-0.3,1.3-0.5,1.8-0.7C62.9,113.1,63.1,113,63.1,113z"/>
		</g>
		<g>
			<path class="st2" d="M71.1,101.9c0,0-0.2,0.1-0.6,0.3c-0.4,0.2-1,0.5-1.8,0.8c-1.5,0.7-3.6,1.5-5.9,2.5c-2.3,0.9-4.4,1.8-5.9,2.3
				c-0.8,0.3-1.4,0.5-1.8,0.7c-0.4,0.1-0.7,0.2-0.7,0.2c0,0,0.2-0.1,0.7-0.3c0.5-0.2,1.1-0.4,1.8-0.7c1.5-0.6,3.6-1.5,5.9-2.4
				c2.3-0.9,4.4-1.8,5.9-2.4c0.7-0.3,1.3-0.5,1.8-0.7C70.9,101.9,71.1,101.8,71.1,101.9z"/>
		</g>
		<g>
			<path class="st2" d="M78.5,90.7c0,0-0.2,0.1-0.6,0.3c-0.4,0.2-1,0.5-1.8,0.8c-1.5,0.7-3.6,1.5-5.9,2.5c-2.3,0.9-4.4,1.8-5.9,2.3
				c-0.8,0.3-1.4,0.5-1.8,0.7c-0.4,0.1-0.7,0.2-0.7,0.2c0,0,0.2-0.1,0.7-0.3c0.5-0.2,1.1-0.4,1.8-0.7c1.5-0.6,3.6-1.5,5.9-2.4
				c2.3-0.9,4.4-1.8,5.9-2.4c0.7-0.3,1.3-0.5,1.8-0.7C78.2,90.8,78.5,90.7,78.5,90.7z"/>
		</g>
		<g>
			<path class="st2" d="M86.2,80c0,0-0.2,0.1-0.6,0.3c-0.4,0.2-1,0.5-1.8,0.8c-1.5,0.7-3.6,1.5-5.9,2.5c-2.3,0.9-4.4,1.8-5.9,2.3
				c-0.8,0.3-1.4,0.5-1.8,0.7c-0.4,0.1-0.7,0.2-0.7,0.2c0,0,0.2-0.1,0.7-0.3c0.5-0.2,1.1-0.4,1.8-0.7c1.5-0.6,3.6-1.5,5.9-2.4
				c2.3-0.9,4.4-1.8,5.9-2.4c0.7-0.3,1.3-0.5,1.8-0.7C85.9,80.1,86.2,80,86.2,80z"/>
		</g>
		<g>
			<path class="st4" d="M106.5,96.4c0,0-0.1,0.1-0.2,0.3c-0.2,0.2-0.4,0.4-0.7,0.7c-0.7,0.6-1.7,1.4-3.1,2c-1.4,0.7-3.3,1.2-5.4,1.2
				c-1,0-2.1-0.1-3.3-0.4c-1.1-0.3-2.2-0.7-3.3-1.2c-2.2-1.1-4.1-2.3-6-3.2c-1.9-0.9-3.7-1.3-5.3-1.4c-1.6-0.1-2.8,0.3-3.6,0.7
				c-0.4,0.2-0.7,0.4-0.9,0.5c-0.2,0.1-0.3,0.2-0.3,0.2c0,0,0.1-0.1,0.3-0.2c0.2-0.1,0.5-0.3,0.9-0.5c0.8-0.4,2-0.8,3.6-0.7
				c1.6,0,3.5,0.5,5.3,1.3c1.9,0.9,3.8,2.1,6,3.2c1.1,0.5,2.2,1,3.2,1.2c1.1,0.3,2.2,0.4,3.2,0.4c2.1,0,3.9-0.5,5.3-1.2
				c1.4-0.6,2.5-1.4,3.1-1.9c0.3-0.3,0.6-0.5,0.8-0.7C106.4,96.5,106.5,96.4,106.5,96.4z"/>
		</g>
		<g>
			<path class="st4" d="M100.9,76.5c0,0-0.2,0.1-0.5,0.3c-0.3,0.2-0.8,0.4-1.5,0.7c-0.6,0.3-1.4,0.5-2.3,0.8
				c-0.9,0.3-1.8,0.5-2.9,0.7c-1,0.2-2,0.3-2.9,0.3c-0.9,0-1.7,0-2.4,0c-0.7-0.1-1.2-0.1-1.6-0.2c-0.4-0.1-0.6-0.1-0.6-0.1
				c0,0,0.2,0,0.6,0c0.4,0,0.9,0.1,1.6,0.1c0.7,0,1.5,0,2.4,0c0.9,0,1.9-0.1,2.9-0.3c1-0.2,2-0.4,2.8-0.6c0.9-0.2,1.6-0.5,2.3-0.8
				c0.6-0.2,1.1-0.5,1.5-0.6C100.7,76.6,100.9,76.5,100.9,76.5z"/>
		</g>
		<g>
			<path class="st4" d="M72.4,121.2c0,0-0.1-0.1-0.4-0.4c-0.3-0.3-0.6-0.7-1-1.1c-0.8-0.9-2-2.2-3.4-3.5c-0.7-0.6-1.4-1.2-2.1-1.6
				c-0.7-0.4-1.4-0.7-2-0.8c-1.2-0.2-2,0-2,0c0,0,0,0,0.1-0.1c0.1,0,0.2-0.1,0.4-0.1c0.3-0.1,0.9-0.1,1.5,0c0.6,0.1,1.4,0.3,2.1,0.8
				c0.7,0.4,1.5,1,2.2,1.6c1.4,1.3,2.6,2.6,3.3,3.6c0.4,0.5,0.7,0.9,0.9,1.2C72.3,121,72.4,121.2,72.4,121.2z"/>
		</g>
		<g>
			<path class="st4" d="M104.5,133.3c0,0-0.1,0-0.2,0.1c-0.1,0.1-0.3,0.2-0.5,0.3c-0.4,0.3-1.1,0.6-1.9,0.9
				c-1.6,0.6-4.1,1.1-6.8,0.5c-2.7-0.5-4.8-2-6.1-3.2c-0.6-0.6-1.1-1.2-1.4-1.6c-0.2-0.2-0.2-0.4-0.3-0.5c-0.1-0.1-0.1-0.2-0.1-0.2
				c0,0,0.2,0.2,0.5,0.6c0.3,0.4,0.8,0.9,1.4,1.5c1.3,1.2,3.4,2.5,6,3.1c2.6,0.5,5.1,0.1,6.7-0.5c0.8-0.3,1.5-0.6,1.9-0.8
				C104.2,133.5,104.5,133.3,104.5,133.3z"/>
		</g>
		<g>
			<path class="st4" d="M116.2,158.8c0,0,0-0.1-0.1-0.2c-0.1-0.1-0.2-0.3-0.3-0.6c-0.3-0.5-0.7-1.2-1.4-2c-0.2-0.2-0.4-0.4-0.5-0.6
				c-0.1-0.1-0.2-0.2-0.3-0.3c-0.1-0.1-0.2-0.2-0.3-0.3c-0.2-0.2-0.5-0.5-0.7-0.7c-0.3-0.2-0.6-0.5-0.8-0.7
				c-1.2-0.9-2.7-1.9-4.4-2.6c-1.8-0.7-3.8-1.3-6.1-1.4c-2.2-0.1-4.7,0.2-7,1.1c-2.4,0.9-4.6,2.3-7,3.7c-1.2,0.7-2.5,1.3-3.8,1.9
				c-1.3,0.5-2.7,1-4.2,1.1c-1.5,0.2-2.9,0-4.3-0.3c-1.4-0.3-2.7-0.8-4-1.4c-2.5-1.2-4.7-2.7-6.8-4.1c-2.1-1.5-4-2.9-6-4
				c-1.9-1.1-3.9-2-5.7-2.4c-1.9-0.4-3.6-0.5-5.1-0.3c-1.5,0.2-2.8,0.6-3.7,1.1c-1,0.5-1.6,1-2,1.4c-0.2,0.2-0.3,0.3-0.5,0.5
				c-0.1,0.1-0.2,0.2-0.2,0.2s0-0.1,0.1-0.2c0.1-0.1,0.3-0.3,0.4-0.5c0.4-0.4,1-0.9,2-1.4c1-0.5,2.2-0.9,3.7-1.1
				c1.5-0.2,3.3-0.1,5.2,0.3c1.9,0.4,3.8,1.3,5.8,2.4c2,1.1,3.9,2.5,6,4c2.1,1.5,4.3,3,6.8,4.1c1.3,0.6,2.6,1.1,4,1.3
				c1.4,0.3,2.8,0.4,4.3,0.3c1.4-0.1,2.8-0.6,4.1-1.1c1.3-0.5,2.6-1.2,3.8-1.9c2.4-1.3,4.7-2.7,7.1-3.7c0.6-0.2,1.2-0.4,1.8-0.6
				c0.3-0.1,0.6-0.2,0.9-0.2c0.3,0,0.6-0.1,0.9-0.1c1.2-0.2,2.4-0.2,3.5-0.2c2.3,0.1,4.3,0.7,6.1,1.4c1.8,0.8,3.2,1.7,4.4,2.7
				c0.3,0.2,0.6,0.5,0.8,0.7c0.3,0.3,0.5,0.5,0.7,0.7c0.1,0.1,0.2,0.2,0.3,0.3c0.1,0.1,0.2,0.2,0.3,0.4c0.2,0.2,0.4,0.4,0.5,0.7
				c0.6,0.9,1.1,1.6,1.3,2.1c0.1,0.2,0.2,0.4,0.3,0.6C116.2,158.7,116.2,158.8,116.2,158.8z"/>
		</g>
		<g>
			<path class="st4" d="M104,175.6c0,0-0.1,0-0.2,0.1c-0.2,0-0.4,0.1-0.6,0.1c-0.3,0.1-0.6,0.1-0.9,0.1c-0.4,0-0.8,0.1-1.3,0.1
				c-0.2,0-0.5,0-0.7,0c-0.3,0-0.5,0-0.8,0c-0.6,0-1.1-0.1-1.8-0.1c-1.2-0.1-2.6-0.4-4-0.8c-1.4-0.4-2.6-0.9-3.8-1.5
				c-0.5-0.3-1.1-0.6-1.5-0.9c-0.2-0.1-0.5-0.3-0.7-0.4c-0.2-0.1-0.4-0.3-0.6-0.4c-0.4-0.3-0.7-0.5-1-0.8c-0.3-0.2-0.5-0.4-0.7-0.6
				c-0.2-0.2-0.3-0.3-0.4-0.4c-0.1-0.1-0.1-0.1-0.1-0.2c0,0,0.1,0,0.2,0.1c0.1,0.1,0.3,0.2,0.5,0.4c0.2,0.2,0.4,0.4,0.7,0.6
				c0.3,0.2,0.6,0.5,1,0.7c0.2,0.1,0.4,0.3,0.6,0.4c0.2,0.1,0.4,0.3,0.7,0.4c0.5,0.3,1,0.6,1.5,0.8c1.1,0.5,2.4,1,3.7,1.5
				c1.4,0.4,2.7,0.6,3.9,0.8c0.6,0.1,1.2,0.1,1.7,0.1c0.3,0,0.5,0,0.8,0c0.3,0,0.5,0,0.7,0c0.5,0,0.9-0.1,1.3-0.1
				c0.4,0,0.7-0.1,0.9-0.1c0.2,0,0.4-0.1,0.6-0.1C104,175.6,104,175.6,104,175.6z"/>
		</g>
	</g>
</g>
<g>
	<g>
		<path class="st2" d="M267.8,143.9l13.4-1.3l1.4,14.2l-13.4,1.3l2.3,23.6l-17.6,1.7l-2.3-23.6l-45.5,4.5l-1.5-10.8L243,77.5
			l18.2-1.8L267.8,143.9z M221.7,148.4l28.5-2.8l-4.2-43l-0.5-0.1l-1.1,3.3L221.7,148.4z"/>
	</g>
	<g class="st6">
		<path class="st7" d="M267.8,143.9l13.4-1.3l1.4,14.2l-13.4,1.3l2.3,23.6l-17.6,1.7l-2.3-23.6l-45.5,4.5l-1.5-10.8L243,77.5
			l18.2-1.8L267.8,143.9z M221.7,148.4l28.5-2.8l-4.2-43l-0.5-0.1l-1.1,3.3L221.7,148.4z"/>
	</g>
	<g>
		<path class="st2" d="M279.1,142.8l13.4-1.3l1.4,14.2l-13.4,1.3l2.3,23.6l-17.6,1.7l-2.3-23.6l-45.5,4.5l-1.5-10.8l38.4-76.1
			l18.2-1.8L279.1,142.8z M233,147.3l28.5-2.8l-4.2-43l-0.5-0.1l-1.1,3.3L233,147.3z"/>
	</g>
	<g>
		<g>
			<path class="st2" d="M216.3,154.5c0,0-0.1,0.1-0.4,0.3c-0.3,0.2-0.6,0.4-1.1,0.8c-1,0.6-2.3,1.5-3.8,2.4
				c-1.5,0.9-2.9,1.7-3.9,2.2c-0.5,0.3-0.9,0.5-1.2,0.6c-0.3,0.1-0.4,0.2-0.5,0.2c0,0,0.1-0.1,0.4-0.3c0.3-0.2,0.7-0.4,1.2-0.7
				c1-0.6,2.4-1.4,3.8-2.3c1.5-0.9,2.8-1.7,3.8-2.3c0.5-0.3,0.9-0.5,1.2-0.7C216.2,154.5,216.3,154.4,216.3,154.5z"/>
		</g>
		<g>
			<path class="st2" d="M221.1,141.6c0,0-0.2,0.2-0.6,0.4c-0.4,0.2-0.9,0.6-1.6,1c-1.3,0.8-3.2,2-5.2,3.2c-2.1,1.2-3.9,2.3-5.3,3.1
				c-0.7,0.4-1.2,0.7-1.6,0.9c-0.4,0.2-0.6,0.3-0.6,0.3c0,0,0.2-0.1,0.6-0.4c0.4-0.2,0.9-0.6,1.6-1c1.4-0.8,3.2-1.9,5.3-3.2
				c2-1.2,3.9-2.3,5.3-3.2c0.7-0.4,1.2-0.7,1.6-1C220.9,141.7,221.1,141.6,221.1,141.6z"/>
		</g>
		<g>
			<path class="st2" d="M227.5,129.8c0,0-0.2,0.2-0.6,0.4c-0.4,0.2-0.9,0.6-1.6,1c-1.4,0.9-3.3,2-5.5,3.3c-2.2,1.3-4.1,2.4-5.6,3.1
				c-0.7,0.4-1.3,0.7-1.7,0.9c-0.4,0.2-0.6,0.3-0.6,0.3c0,0,0.2-0.1,0.6-0.4c0.4-0.2,1-0.6,1.7-1c1.4-0.8,3.4-2,5.5-3.2
				c2.1-1.2,4.1-2.4,5.5-3.2c0.7-0.4,1.2-0.7,1.7-1C227.3,130,227.5,129.8,227.5,129.8z"/>
		</g>
		<g>
			<path class="st2" d="M261,137.6c0,0-0.1,0.1-0.4,0.3c-0.3,0.2-0.7,0.4-1.1,0.7c-1,0.6-2.3,1.4-3.8,2.3c-1.5,0.9-2.9,1.6-3.9,2.2
				c-0.5,0.3-0.9,0.5-1.2,0.6c-0.3,0.1-0.4,0.2-0.5,0.2c0,0,0.1-0.1,0.4-0.3c0.3-0.2,0.7-0.4,1.2-0.7c1-0.6,2.4-1.4,3.9-2.2
				c1.5-0.9,2.8-1.7,3.8-2.3c0.5-0.3,0.9-0.5,1.2-0.7C260.8,137.7,261,137.6,261,137.6z"/>
		</g>
		<g>
			<path class="st2" d="M262.8,159.7c0,0-0.1,0.1-0.4,0.3c-0.3,0.2-0.6,0.4-1.1,0.7c-0.9,0.6-2.2,1.4-3.7,2.3
				c-1.5,0.9-2.8,1.6-3.8,2.2c-0.5,0.3-0.9,0.5-1.2,0.6c-0.3,0.1-0.4,0.2-0.4,0.2c0,0,0.1-0.1,0.4-0.3c0.3-0.2,0.7-0.4,1.1-0.7
				c1-0.6,2.3-1.4,3.7-2.2c1.4-0.9,2.7-1.6,3.7-2.2c0.4-0.3,0.8-0.5,1.1-0.7C262.6,159.8,262.8,159.7,262.8,159.7z"/>
		</g>
		<g>
			<path class="st2" d="M263.7,167.4c0,0-0.1,0.1-0.4,0.3c-0.3,0.2-0.6,0.4-1.1,0.7c-0.9,0.6-2.2,1.4-3.7,2.3
				c-1.5,0.9-2.8,1.6-3.8,2.2c-0.5,0.3-0.9,0.5-1.2,0.6c-0.3,0.1-0.4,0.2-0.4,0.2s0.1-0.1,0.4-0.3c0.3-0.2,0.7-0.4,1.1-0.7
				c1-0.6,2.3-1.4,3.7-2.2c1.4-0.9,2.7-1.6,3.7-2.2c0.4-0.3,0.8-0.5,1.1-0.7C263.5,167.5,263.7,167.4,263.7,167.4z"/>
		</g>
		<g>
			<path class="st2" d="M264.6,175.1c0,0-0.1,0.1-0.4,0.3c-0.3,0.2-0.6,0.4-1.1,0.7c-0.9,0.6-2.2,1.4-3.7,2.3
				c-1.5,0.9-2.8,1.6-3.8,2.2c-0.5,0.3-0.9,0.5-1.2,0.6c-0.3,0.1-0.4,0.2-0.4,0.2c0,0,0.1-0.1,0.4-0.3c0.3-0.2,0.7-0.4,1.1-0.7
				c1-0.6,2.3-1.4,3.7-2.2c1.4-0.9,2.7-1.6,3.7-2.2c0.4-0.3,0.8-0.5,1.1-0.7C264.4,175.2,264.6,175.1,264.6,175.1z"/>
		</g>
		<g>
			<path class="st2" d="M260,129.5c0,0-0.1,0.1-0.4,0.3c-0.3,0.2-0.7,0.4-1.1,0.7c-1,0.6-2.3,1.4-3.8,2.3c-1.5,0.9-2.9,1.6-3.9,2.2
				c-0.5,0.3-0.9,0.5-1.2,0.6c-0.3,0.1-0.4,0.2-0.5,0.2s0.1-0.1,0.4-0.3c0.3-0.2,0.7-0.4,1.2-0.7c1-0.6,2.4-1.4,3.9-2.2
				c1.5-0.9,2.8-1.7,3.8-2.3c0.5-0.3,0.9-0.5,1.2-0.7C259.9,129.6,260,129.5,260,129.5z"/>
		</g>
		<g>
			<path class="st2" d="M259.1,121.4c0,0-0.1,0.1-0.4,0.3c-0.3,0.2-0.7,0.4-1.1,0.7c-1,0.6-2.3,1.4-3.8,2.3
				c-1.5,0.9-2.9,1.6-3.9,2.2c-0.5,0.3-0.9,0.5-1.2,0.6c-0.3,0.1-0.4,0.2-0.5,0.2c0,0,0.1-0.1,0.4-0.3c0.3-0.2,0.7-0.4,1.2-0.7
				c1-0.6,2.4-1.4,3.9-2.2c1.5-0.9,2.8-1.7,3.8-2.3c0.5-0.3,0.9-0.5,1.2-0.7C258.9,121.4,259.1,121.3,259.1,121.4z"/>
		</g>
		<g>
			<path class="st2" d="M258.1,113.2c0,0-0.1,0.1-0.4,0.3c-0.3,0.2-0.6,0.4-1.1,0.7c-0.9,0.6-2.2,1.4-3.6,2.2
				c-1.4,0.8-2.8,1.6-3.7,2.1c-0.5,0.3-0.9,0.5-1.1,0.6c-0.3,0.1-0.4,0.2-0.4,0.2c0,0,0.1-0.1,0.4-0.3c0.3-0.2,0.7-0.4,1.1-0.6
				c1-0.6,2.3-1.3,3.7-2.1c1.4-0.8,2.7-1.6,3.7-2.1c0.4-0.3,0.8-0.5,1.1-0.6C258,113.3,258.1,113.2,258.1,113.2z"/>
		</g>
		<g>
			<path class="st2" d="M258,105.5c0,0.1-0.8,0.6-1.9,1.1c-1.1,0.6-1.9,1-2,1c0-0.1,0.8-0.6,1.9-1.1
				C257.1,105.9,257.9,105.5,258,105.5z"/>
		</g>
		<g>
			<path class="st2" d="M233.8,117.7c0,0-0.2,0.2-0.6,0.4c-0.4,0.2-0.9,0.6-1.6,1c-1.4,0.9-3.3,2-5.5,3.3c-2.2,1.3-4.1,2.4-5.6,3.1
				c-0.7,0.4-1.3,0.7-1.7,0.9c-0.4,0.2-0.6,0.3-0.6,0.3c0,0,0.2-0.1,0.6-0.4c0.4-0.2,1-0.6,1.7-1c1.4-0.8,3.4-2,5.5-3.2
				c2.1-1.2,4.1-2.4,5.5-3.2c0.7-0.4,1.2-0.7,1.7-1C233.6,117.8,233.8,117.7,233.8,117.7z"/>
		</g>
		<g>
			<path class="st2" d="M240.2,105.5c0,0-0.2,0.2-0.6,0.4c-0.4,0.2-0.9,0.6-1.6,1c-1.4,0.9-3.3,2-5.5,3.3c-2.2,1.3-4.1,2.4-5.6,3.1
				c-0.7,0.4-1.3,0.7-1.7,0.9c-0.4,0.2-0.6,0.3-0.6,0.3c0,0,0.2-0.1,0.6-0.4c0.4-0.2,1-0.6,1.7-1c1.4-0.8,3.4-2,5.5-3.2
				c2.1-1.2,4.1-2.4,5.5-3.2c0.7-0.4,1.2-0.7,1.7-1C240,105.6,240.2,105.5,240.2,105.5z"/>
		</g>
		<g>
			<path class="st2" d="M245.9,93.5c0,0-0.2,0.2-0.6,0.4c-0.4,0.2-0.9,0.6-1.6,1c-1.4,0.9-3.3,2-5.5,3.3c-2.2,1.3-4.1,2.4-5.6,3.1
				c-0.7,0.4-1.3,0.7-1.7,0.9c-0.4,0.2-0.6,0.3-0.6,0.3c0,0,0.2-0.1,0.6-0.4c0.4-0.2,1-0.6,1.7-1c1.4-0.8,3.4-2,5.5-3.2
				c2.1-1.2,4.1-2.4,5.5-3.2c0.7-0.4,1.2-0.7,1.7-1C245.7,93.6,245.9,93.5,245.9,93.5z"/>
		</g>
		<g>
			<path class="st2" d="M252,81.8c0,0-0.2,0.2-0.6,0.4c-0.4,0.2-0.9,0.6-1.6,1c-1.4,0.9-3.3,2-5.5,3.3c-2.2,1.3-4.1,2.4-5.6,3.1
				c-0.7,0.4-1.3,0.7-1.7,0.9c-0.4,0.2-0.6,0.3-0.6,0.3c0,0,0.2-0.1,0.6-0.4c0.4-0.2,1-0.6,1.7-1c1.4-0.8,3.4-2,5.5-3.2
				c2.1-1.2,4.1-2.4,5.5-3.2c0.7-0.4,1.2-0.7,1.7-1C251.8,81.9,252,81.8,252,81.8z"/>
		</g>
		<g>
			<path class="st4" d="M274.5,95.1c0,0-0.1,0.1-0.2,0.3c-0.1,0.2-0.3,0.5-0.6,0.8c-0.6,0.7-1.5,1.6-2.8,2.4c-1.3,0.9-3.1,1.6-5.1,2
				c-1,0.2-2.1,0.2-3.3,0.1c-1.1-0.1-2.3-0.4-3.4-0.8c-2.3-0.7-4.4-1.7-6.4-2.3c-2-0.6-3.9-0.8-5.4-0.6c-1.6,0.2-2.7,0.7-3.5,1.2
				c-0.4,0.2-0.6,0.5-0.8,0.6c-0.2,0.2-0.3,0.2-0.3,0.2c0,0,0.1-0.1,0.2-0.3c0.2-0.2,0.4-0.4,0.8-0.7c0.7-0.5,1.9-1.1,3.5-1.3
				c1.6-0.2,3.5,0,5.5,0.6c2,0.6,4.1,1.5,6.4,2.3c1.1,0.4,2.3,0.6,3.4,0.7c1.1,0.1,2.2,0.1,3.2-0.1c2-0.3,3.8-1.1,5.1-1.9
				c1.3-0.8,2.2-1.7,2.8-2.4c0.3-0.3,0.5-0.6,0.6-0.8C274.4,95.2,274.5,95.1,274.5,95.1z"/>
		</g>
		<g>
			<path class="st4" d="M266.1,76.2c0,0-0.2,0.1-0.5,0.4c-0.3,0.2-0.8,0.5-1.3,0.9c-0.6,0.4-1.3,0.7-2.1,1.1
				c-0.8,0.4-1.7,0.7-2.7,1.1c-1,0.3-2,0.5-2.8,0.7c-0.9,0.2-1.7,0.2-2.4,0.3c-0.7,0-1.2,0.1-1.6,0c-0.4,0-0.6,0-0.6,0
				c0,0,0.2,0,0.6,0c0.4,0,0.9,0,1.6-0.1c0.7-0.1,1.5-0.2,2.4-0.3c0.9-0.2,1.8-0.4,2.8-0.7c1-0.3,1.9-0.7,2.7-1
				c0.8-0.4,1.5-0.7,2.1-1.1c0.6-0.3,1.1-0.6,1.4-0.8C266,76.3,266.1,76.2,266.1,76.2z"/>
		</g>
		<g>
			<path class="st4" d="M244.1,124.5c0,0-0.2-0.1-0.4-0.4c-0.3-0.3-0.7-0.6-1.1-1c-0.9-0.8-2.3-1.9-3.8-3c-0.8-0.5-1.6-1-2.3-1.3
				c-0.8-0.3-1.5-0.5-2.1-0.5c-1.2-0.1-2,0.3-2,0.3c0,0,0,0,0.1-0.1c0.1,0,0.2-0.1,0.4-0.1c0.3-0.1,0.8-0.2,1.5-0.2
				c0.6,0,1.4,0.2,2.2,0.5c0.8,0.3,1.6,0.8,2.4,1.3c1.6,1.1,2.9,2.2,3.8,3.1c0.5,0.4,0.8,0.8,1.1,1
				C244,124.3,244.2,124.5,244.1,124.5z"/>
		</g>
		<g>
			<path class="st4" d="M277.6,132c0,0,0,0.1-0.1,0.1c-0.1,0.1-0.2,0.2-0.4,0.4c-0.4,0.3-1,0.7-1.7,1.2c-1.5,0.9-3.9,1.7-6.7,1.5
				c-2.7-0.2-5-1.3-6.4-2.3c-0.7-0.5-1.2-1-1.6-1.4c-0.2-0.2-0.3-0.3-0.4-0.4c-0.1-0.1-0.1-0.2-0.1-0.2c0,0,0.2,0.2,0.6,0.5
				c0.4,0.3,0.9,0.8,1.6,1.3c1.4,1,3.7,2,6.4,2.2c2.7,0.2,5.1-0.6,6.6-1.4c0.8-0.4,1.4-0.8,1.8-1.1C277.4,132.2,277.6,132,277.6,132
				z"/>
		</g>
		<g>
			<path class="st4" d="M292.8,155.6c0,0-0.1-0.1-0.1-0.2c-0.1-0.1-0.2-0.3-0.4-0.5c-0.3-0.5-0.9-1.1-1.6-1.8
				c-0.2-0.2-0.4-0.4-0.6-0.6c-0.1-0.1-0.2-0.2-0.3-0.3c-0.1-0.1-0.3-0.2-0.4-0.3c-0.3-0.2-0.5-0.4-0.8-0.6
				c-0.3-0.2-0.6-0.4-0.9-0.6c-1.3-0.8-2.9-1.5-4.7-2c-1.8-0.5-4-0.7-6.2-0.5c-2.2,0.2-4.6,0.9-6.8,2.1c-2.2,1.2-4.3,3-6.4,4.6
				c-1.1,0.8-2.2,1.7-3.5,2.4c-1.2,0.7-2.6,1.3-4,1.7c-1.4,0.4-2.9,0.4-4.3,0.4c-1.4-0.1-2.8-0.4-4.1-0.8c-2.7-0.8-5.1-2-7.3-3.1
				c-2.3-1.2-4.4-2.3-6.5-3.1c-2.1-0.8-4.1-1.4-6-1.6c-1.9-0.2-3.6,0-5.1,0.4c-1.5,0.4-2.7,1-3.5,1.6c-0.9,0.6-1.4,1.2-1.8,1.7
				c-0.2,0.2-0.3,0.4-0.4,0.5c-0.1,0.1-0.1,0.2-0.1,0.2s0-0.1,0.1-0.2c0.1-0.1,0.2-0.3,0.4-0.5c0.4-0.4,0.9-1.1,1.8-1.7
				c0.9-0.6,2.1-1.2,3.5-1.6c1.5-0.4,3.2-0.6,5.2-0.4c1.9,0.2,4,0.8,6.1,1.6c2.1,0.8,4.2,2,6.5,3.1c2.3,1.2,4.6,2.3,7.3,3.1
				c1.3,0.4,2.7,0.7,4.1,0.8c1.4,0.1,2.9,0,4.3-0.3c1.4-0.4,2.7-0.9,4-1.7c1.2-0.7,2.4-1.5,3.5-2.4c2.2-1.7,4.3-3.4,6.5-4.6
				c0.6-0.3,1.1-0.6,1.7-0.8c0.3-0.1,0.6-0.2,0.9-0.4c0.3-0.1,0.6-0.2,0.9-0.3c1.2-0.4,2.3-0.5,3.4-0.7c2.3-0.2,4.4,0.1,6.2,0.6
				c1.9,0.5,3.5,1.2,4.8,2c0.3,0.2,0.6,0.4,0.9,0.6c0.3,0.2,0.6,0.4,0.8,0.6c0.1,0.1,0.3,0.2,0.4,0.3c0.1,0.1,0.2,0.2,0.3,0.3
				c0.2,0.2,0.4,0.4,0.6,0.6c0.8,0.8,1.3,1.4,1.6,1.9c0.2,0.2,0.3,0.4,0.4,0.5C292.8,155.5,292.8,155.6,292.8,155.6z"/>
		</g>
		<g>
			<path class="st4" d="M283.1,173.9c0,0-0.1,0-0.2,0.1c-0.2,0.1-0.3,0.1-0.6,0.2c-0.2,0.1-0.6,0.2-0.9,0.3
				c-0.4,0.1-0.8,0.2-1.2,0.3c-0.2,0-0.5,0.1-0.7,0.1c-0.3,0-0.5,0.1-0.8,0.1c-0.5,0.1-1.1,0.1-1.8,0.1c-1.2,0-2.6,0-4-0.2
				c-1.4-0.2-2.8-0.6-3.9-0.9c-0.6-0.2-1.1-0.4-1.6-0.6c-0.3-0.1-0.5-0.2-0.7-0.3c-0.2-0.1-0.4-0.2-0.7-0.3
				c-0.4-0.2-0.8-0.4-1.1-0.6c-0.3-0.2-0.6-0.4-0.8-0.5c-0.2-0.1-0.4-0.3-0.5-0.3c-0.1-0.1-0.2-0.1-0.2-0.1c0,0,0.1,0,0.2,0.1
				c0.1,0.1,0.3,0.2,0.5,0.3c0.2,0.1,0.5,0.3,0.8,0.5c0.3,0.2,0.7,0.4,1.1,0.6c0.2,0.1,0.4,0.2,0.7,0.3c0.2,0.1,0.5,0.2,0.7,0.3
				c0.5,0.2,1.1,0.4,1.6,0.6c1.2,0.4,2.5,0.7,3.9,0.9c1.4,0.2,2.8,0.2,4,0.2c0.6,0,1.2-0.1,1.7-0.1c0.3,0,0.5-0.1,0.8-0.1
				c0.3,0,0.5-0.1,0.7-0.1c0.5-0.1,0.9-0.2,1.2-0.3c0.4-0.1,0.7-0.2,0.9-0.2c0.2-0.1,0.4-0.1,0.6-0.2
				C283.1,173.9,283.1,173.9,283.1,173.9z"/>
		</g>
	</g>
</g>
<g>
	<g>
		<g>
			<path class="st8" d="M199.3,115l-2.8-0.4l-17.5-5.6l-10.2-2.9c-2.4-0.8-5.5-1.1-8.8,0.6c-4.8,2.5-18.1,14.8-18.1,14.8l9.6,9.9
				l-4.5,20c5.1,14.4,14.9,16,14.9,16s6.5,0.6,14.2-2.3c9.2-3.5,18.8-11.7,20-15.2c0.7-2.1,1.3-6.6,1.8-11.6l14.5-5.9l3.9-20.1
				L199.3,115z"/>
			<g>
				<path class="st9" d="M178.1,150.6c0,0,0,0-0.1,0.1c-0.1,0.1-0.2,0.2-0.4,0.3c-0.4,0.3-1,0.6-1.7,0.9c-1.5,0.7-3.9,1.2-6.4,0.6
					c-2.5-0.6-4.5-2-5.6-3.2c-0.6-0.6-1-1.2-1.2-1.6c-0.1-0.2-0.2-0.4-0.3-0.5c-0.1-0.1-0.1-0.2-0.1-0.2c0,0,0.1,0.2,0.4,0.6
					c0.3,0.4,0.7,0.9,1.2,1.5c1.1,1.2,3.1,2.6,5.5,3.1c2.5,0.5,4.8,0.1,6.3-0.5c0.8-0.3,1.4-0.6,1.8-0.9
					C177.9,150.7,178.1,150.6,178.1,150.6z"/>
			</g>
			<g>
				<path class="st9" d="M172.6,109.8C172.6,109.8,172.6,109.8,172.6,109.8c0.1,0.2,0.1,0.3,0.1,0.4c0.1,0.3,0.1,0.6,0.2,1.1
					c0.2,1,0.5,2.4,0.6,4.1c0,0.9,0,1.9-0.2,2.9c-0.2,1-0.5,2.1-1.1,3.1c-0.6,1-1.4,1.9-2.4,2.8c-0.9,0.8-2,1.6-3.1,2.4
					c-2.3,1.7-4.5,3.2-6.4,4.6c-2,1.4-3.7,2.7-5.1,3.7l0,0l0,0c-1.2-1-2.2-1.9-2.8-2.5c-0.3-0.3-0.5-0.6-0.7-0.8
					c-0.1-0.1-0.1-0.2-0.1-0.2c0-0.1,0-0.1,0-0.1c0,0,0.1,0.1,0.2,0.3c0.1,0.2,0.4,0.4,0.7,0.7c0.6,0.6,1.6,1.5,2.8,2.5l-0.1,0
					c1.4-1.1,3.1-2.3,5.1-3.8c2-1.4,4.2-3,6.4-4.7c1.1-0.8,2.1-1.6,3-2.4c0.9-0.8,1.8-1.7,2.4-2.7c0.6-1,1-2,1.1-3
					c0.2-1,0.2-2,0.2-2.8c-0.1-1.7-0.3-3.1-0.5-4.1c-0.1-0.5-0.2-0.8-0.2-1.1c0-0.1,0-0.2-0.1-0.3
					C172.6,109.8,172.6,109.8,172.6,109.8z"/>
			</g>
		</g>
		<g>
			<path class="st9" d="M248.4,118.8c4.1-3.5,5.5-9.8,3.2-14.7c-1.9-0.2-3.8-0.4-5.8-0.6c2.9-1.5,4.7-5,4.2-8.3
				c-3.1,3.3-8.5,4.3-12.6,2.3c-2.7-1.3-4.9-3.8-7.8-4.3c-2.7-0.5-5.3,0.8-7.9,1.7c-2.6,0.9-5.7,1.4-7.8-0.3
				c-1.7-1.3-2.2-3.7-2.1-5.9c0.1-2.2,0.7-4.3,0.9-6.4c0.3-4.2-1.6-8.5-4.7-11.4c-1-3.1-3.3-5.7-6.3-7c-3.6-1.5-8-0.9-11.1,1.4
				c-1.3,1-2.3,2.2-3.7,2.9c-1.6,0.8-3.5,0.8-5.2,1.2c-1.7,0.4-3.6,1.6-3.8,3.4l-0.7,3.7c-0.1,0.3-0.2,0.5-0.4,0.8
				c-1.5,2.6-4.5,4.3-5.2,7.2c-0.4,1.6,0.1,3.4-0.5,5c-0.7,2.1-3,3.3-4,5.2c-1.4,2.7-0.5,7.3,1.8,9.3c2.3,2,7.1,4.1,10,4.7
				c0.8-3.1,1.5-6.4,2.2-9.8c1.2,1.2,2.5,2.3,3.7,3.4c3.3,2.9,6.7,5.8,9,9.5c4.4,7.1,4.4,16.5,9.9,22.7c1.1,1.2,2.4,2.3,3.9,2.8
				c1.6,0.5,3.4,0.2,4.6-0.9c1.4-1.4,1.5-3.7,3-4.8c2-1.6,4.9-0.3,7.1,1.1c1.6,1,3.1,2.1,4.9,2.6c1.8,0.5,3.8,0.5,5.3-0.6
				c1.5-1.1,2.2-3.4,1.1-4.9c-0.4-0.6-1.1-1-1.5-1.6c-0.4-0.6-0.6-1.6,0-2c0.7-0.5,1.6,0,2.3,0.4c3.4,2,7.8,2.4,11.5,1
				c3.7-1.4,6.8-4.5,8.1-8.3C252.3,119.8,250.2,119.6,248.4,118.8z"/>
			<g>
				<path class="st9" d="M244.8,87.2c0,0,0.2,0.1,0.5,0.4c0.3,0.3,0.8,0.8,1.2,1.6c0.2,0.4,0.4,0.8,0.4,1.4c0.1,0.5,0,1.1-0.2,1.7
					c-0.2,0.6-0.6,1.1-1.2,1.5c-0.3,0.2-0.6,0.3-1,0.4c-0.4,0-0.8,0-1.1-0.2c-1.5-0.6-2.2-2.3-3.9-3.1c-1.6-0.8-3.6-0.9-5.5-0.4
					c-2,0.4-3.8,1.5-5.7,2.6c-1.9,1.1-3.9,2.2-6.3,2.6c-1.2,0.2-2.3,0.2-3.5,0c-0.6-0.1-1.1-0.3-1.6-0.6c-0.5-0.3-0.9-0.6-1.4-1
					c-0.8-0.8-1.4-1.8-1.7-2.7c-0.4-1-0.6-2-0.7-3c-0.2-2,0-3.9,0-5.7c0-1.8-0.1-3.5-0.5-4.9c-0.2-0.7-0.5-1.4-0.8-2
					c-0.3-0.6-0.6-1.2-1-1.7c-0.7-1-1.4-1.7-2.1-2.3c-0.6-0.6-1.2-0.9-1.6-1.2c-0.2-0.1-0.3-0.2-0.4-0.3c-0.1-0.1-0.1-0.1-0.1-0.1
					c0,0,0.1,0,0.2,0.1c0.1,0.1,0.3,0.1,0.4,0.2c0.4,0.2,1,0.6,1.6,1.1c0.7,0.5,1.4,1.3,2.1,2.3c0.4,0.5,0.7,1,1,1.7
					c0.3,0.6,0.6,1.3,0.8,2c0.4,1.5,0.5,3.2,0.5,5c0,1.8-0.2,3.7,0,5.7c0.1,1,0.3,2,0.7,3c0.4,1,0.9,1.9,1.7,2.7
					c0.4,0.4,0.8,0.7,1.3,1c0.5,0.3,1,0.4,1.5,0.6c1.1,0.2,2.2,0.2,3.4,0c2.3-0.4,4.3-1.5,6.2-2.6c1.9-1.1,3.8-2.1,5.8-2.6
					c1-0.2,2-0.3,2.9-0.2c0.5,0,1,0.1,1.4,0.2c0.4,0.1,0.9,0.3,1.3,0.5c1.7,0.8,2.4,2.6,3.8,3.1c0.7,0.3,1.5,0.2,2-0.2
					c0.6-0.4,1-0.9,1.2-1.4c0.2-0.5,0.3-1.1,0.2-1.6c-0.1-0.5-0.2-1-0.4-1.3c-0.4-0.8-0.8-1.3-1.1-1.6c-0.2-0.2-0.3-0.3-0.4-0.4
					C244.8,87.3,244.8,87.2,244.8,87.2z"/>
			</g>
			<g>
				<path class="st9" d="M179,110.5c0,0,0-0.1,0-0.2c0-0.1,0-0.3-0.1-0.5c-0.1-0.5-0.4-1.1-1-1.8c-0.6-0.7-1.5-1.3-2.7-1.9
					c-1.2-0.5-2.6-0.8-4.2-1.1c-1.6-0.3-3.4-0.6-5-1.7c-1.6-1.1-2.9-2.9-3.2-5.1c-0.3-2.1,0.4-4.5,2-6.3c1.7-1.7,4-2.6,5.9-4.1
					c0.5-0.4,0.9-0.8,1.3-1.3c0.3-0.5,0.6-1,0.8-1.6c0.3-1.1,0.3-2.3,0.4-3.5c0.1-0.6,0.1-1.2,0.3-1.7c0.2-0.6,0.5-1.1,0.8-1.5
					c0.8-0.9,1.9-1.3,2.9-1.6c1-0.3,2.1-0.5,3-0.8c1-0.3,1.9-0.6,2.6-1.2c0.8-0.5,1.4-1.2,2-1.9c0.6-0.7,1-1.4,1.5-2
					c0.9-1.3,1.6-2.6,2.5-3.6c0.8-1,1.6-1.8,2.3-2.3c0.7-0.5,1.4-0.8,1.9-1c0.5-0.1,0.7-0.2,0.7-0.2c0,0-0.2,0.1-0.7,0.2
					c-0.4,0.2-1.1,0.4-1.8,1c-0.7,0.5-1.5,1.3-2.3,2.3c-0.8,1-1.5,2.3-2.4,3.6c-0.4,0.7-0.9,1.4-1.5,2.1c-0.6,0.7-1.2,1.3-2,1.9
					c-0.8,0.6-1.7,0.9-2.7,1.2c-1,0.3-2,0.5-3,0.8c-1,0.3-2,0.7-2.8,1.6c-0.4,0.4-0.6,0.9-0.8,1.4c-0.2,0.5-0.3,1.1-0.3,1.7
					c-0.1,1.1-0.1,2.4-0.4,3.5c-0.2,0.6-0.5,1.1-0.8,1.7c-0.4,0.5-0.8,0.9-1.3,1.3c-1,0.8-2.1,1.4-3.1,2c-1,0.6-2,1.3-2.8,2.1
					c-1.6,1.7-2.3,4-2,6.1c0.3,2.1,1.5,3.9,3.1,4.9c1.6,1.1,3.4,1.4,4.9,1.7c1.6,0.3,3,0.6,4.2,1.1c1.2,0.5,2.1,1.2,2.7,1.9
					c0.6,0.7,0.9,1.4,1,1.8c0.1,0.2,0.1,0.4,0.1,0.5C179,110.4,179,110.5,179,110.5z"/>
			</g>
			<g>
				<path class="st8" d="M211.1,74.3c0,0-0.1,0-0.3-0.1c-0.2-0.1-0.5-0.2-0.8-0.3c-0.7-0.3-1.5-0.8-2.4-1.6
					c-0.9-0.7-1.5-1.5-1.9-2.1c-0.2-0.3-0.4-0.6-0.4-0.7c-0.1-0.2-0.1-0.3-0.1-0.3c0,0,0.3,0.4,0.7,1c0.4,0.6,1.1,1.3,1.9,2.1
					c0.8,0.7,1.7,1.2,2.3,1.6C210.7,74.1,211.2,74.3,211.1,74.3z"/>
			</g>
			<g>
				<path class="st8" d="M224.5,101.8c0,0-0.3-0.1-0.7-0.2c-0.5-0.1-1.1-0.2-2-0.2c-0.8,0-1.8,0-2.9,0.1c-1.1,0.1-2.3,0.2-3.6,0.2
					c-1.3,0-2.5-0.2-3.6-0.7c-1-0.4-1.8-1.1-2.4-1.7c-0.5-0.7-0.8-1.3-0.9-1.8c-0.1-0.2-0.1-0.4-0.1-0.5c0-0.1,0-0.2,0-0.2
					c0,0,0,0.3,0.2,0.7c0.1,0.4,0.4,1.1,1,1.7c0.5,0.6,1.3,1.2,2.3,1.7c1,0.4,2.2,0.6,3.5,0.6c1.3,0,2.5-0.1,3.6-0.1
					c1.1-0.1,2.1-0.1,2.9,0c0.8,0.1,1.5,0.2,2,0.3c0.2,0.1,0.4,0.1,0.5,0.2C224.5,101.8,224.5,101.8,224.5,101.8z"/>
			</g>
			<g>
				<path class="st8" d="M248.2,120.1c0,0,0,0-0.1,0.1c-0.1,0-0.2,0.1-0.4,0.1c-0.3,0.1-0.8,0.1-1.4-0.1c-0.6-0.2-1.3-0.6-1.9-1.2
					c-0.6-0.6-1.1-1.6-1.6-2.6c-0.4-1-0.8-2.2-1.5-3.3c-0.3-0.6-0.8-1.1-1.3-1.6c-0.5-0.5-1.1-0.9-1.7-1.3c-2.5-1.5-5.8-2.1-9.2-1.9
					c-3.4,0.2-6.6,0.8-9.6,1.1c-3,0.3-5.7-0.1-7.8-0.8c-2.1-0.7-3.6-1.9-4.5-2.8c-0.2-0.2-0.4-0.4-0.5-0.6c-0.2-0.2-0.3-0.4-0.3-0.5
					c-0.1-0.1-0.1-0.2-0.2-0.3c0-0.1-0.1-0.1-0.1-0.1c0,0,0,0,0.1,0.1c0.1,0.1,0.1,0.2,0.2,0.3c0.1,0.1,0.2,0.3,0.4,0.5
					c0.2,0.2,0.3,0.4,0.5,0.6c0.8,0.9,2.3,2,4.5,2.7c2.1,0.7,4.8,1,7.7,0.8c2.9-0.2,6.2-0.9,9.6-1.1c3.4-0.2,6.8,0.4,9.3,2
					c0.6,0.4,1.2,0.8,1.7,1.3c0.5,0.5,1,1,1.3,1.6c0.7,1.1,1.1,2.3,1.5,3.3c0.4,1,0.9,1.9,1.5,2.6c0.6,0.6,1.3,1,1.9,1.2
					c0.6,0.2,1.1,0.2,1.4,0.1C248.1,120.1,248.2,120.1,248.2,120.1z"/>
			</g>
		</g>
		<g>
			<g>
				<g>
					<g>
						<g>
							<g>
								<g>
									<g>
										<g>
											<g>
												<g>
													<g>
														<g>
															<g>
																<g>
																	<path class="st10" d="M184.9,74.3c-1.6,0-2.9,1.1-3.1,2.7l0,0l-3.3,33.9c-0.6,4.8,5.7,15,10.8,15.5l0,0
																		c5.2,0.6,5.7-1.9,6.3-6.4c1.1-7.5,1.5-10.4,1.5-10.3c0,0,6.6-0.2,9.1-8.5c1.2-4.1,1.9-11.1,2.3-16.8
																		c0.3-5.1-2.2-11.8-7.3-11.9L184.9,74.3z"/>
																</g>
															</g>
														</g>
													</g>
												</g>
											</g>
										</g>
										<g>
											<g>
												<g>
													<g>
														<g>
															<g>
																<g>
																	<g>
																		<path class="st9" d="M206.4,88.9c-0.1,0.6-0.6,1-1.2,1c-0.6,0-1-0.6-1-1.1c0.1-0.6,0.6-1,1.2-1
																			C206,87.8,206.4,88.3,206.4,88.9z"/>
																	</g>
																</g>
															</g>
														</g>
													</g>
												</g>
											</g>
											<g>
												<g>
													<g>
														<g>
															<g>
																<g>
																	<g>
																		<g>
																			<path class="st9" d="M206.8,86.7c-0.1,0.2-1-0.4-2.2-0.3c-1.2,0.1-2,0.7-2.1,0.6c-0.1-0.1,0.1-0.3,0.4-0.6
																				c0.4-0.3,1-0.6,1.7-0.7c0.7,0,1.4,0.2,1.7,0.4C206.8,86.4,206.9,86.6,206.8,86.7z"/>
																		</g>
																	</g>
																</g>
															</g>
														</g>
													</g>
												</g>
											</g>
										</g>
										<g>
											<g>
												<g>
													<g>
														<g>
															<g>
																<g>
																	<g>
																		<g>
																			<path class="st9" d="M196,89.5c-0.1,0.1-1-0.5-2.1-0.5c-1.2,0-2.1,0.5-2.2,0.4c-0.1-0.1,0.1-0.3,0.5-0.6
																				c0.4-0.3,1-0.5,1.8-0.5c0.7,0,1.3,0.3,1.7,0.6C196,89.1,196.1,89.4,196,89.5z"/>
																		</g>
																	</g>
																</g>
															</g>
														</g>
													</g>
												</g>
											</g>
										</g>
										<g>
											<g>
												<g>
													<g>
														<g>
															<g>
																<g>
																	<g>
																		<path class="st9" d="M198.2,95.7c0-0.1,0.7-0.1,1.9-0.1c0.3,0,0.6,0,0.7-0.2c0.1-0.2,0-0.5-0.1-0.9
																			c-0.2-0.8-0.4-1.6-0.6-2.4c-0.8-3.4-1.3-6.2-1.2-6.2c0.1,0,0.9,2.7,1.7,6.1c0.2,0.8,0.4,1.6,0.5,2.4
																			c0.1,0.4,0.2,0.8,0,1.2c-0.1,0.2-0.4,0.3-0.5,0.4c-0.2,0-0.4,0-0.5,0C199,95.9,198.2,95.8,198.2,95.7z"/>
																	</g>
																</g>
															</g>
														</g>
													</g>
												</g>
											</g>
										</g>
										<g>
											<g>
												<g>
													<g>
														<g>
															<g>
																<g>
																	<path class="st11" d="M197.2,109.7c0,0-5.8-0.4-11-4.5c0,0,2.1,6.2,10.7,6.5L197.2,109.7z"/>
																</g>
															</g>
														</g>
													</g>
												</g>
											</g>
										</g>
									</g>
								</g>
							</g>
							<g>
								<g>
									<g>
										<g>
											<g>
												<g>
													<g>
														<path class="st9" d="M196.2,87.5c-0.2,0.3-1.3-0.1-2.7-0.3c-1.4-0.2-2.6,0-2.7-0.4c0-0.2,0.2-0.4,0.7-0.6
															c0.5-0.2,1.3-0.3,2.1-0.2c0.8,0.1,1.5,0.4,2,0.7C196.1,87,196.3,87.3,196.2,87.5z"/>
													</g>
												</g>
											</g>
										</g>
									</g>
								</g>
							</g>
							<g>
								<g>
									<g>
										<g>
											<g>
												<g>
													<g>
														<path class="st9" d="M206.7,85.1c-0.2,0.3-1,0-2,0.1c-1,0-1.8,0.3-2,0c-0.1-0.1,0-0.4,0.4-0.7
															c0.3-0.3,0.9-0.5,1.6-0.5c0.7,0,1.3,0.2,1.6,0.5C206.6,84.7,206.8,85,206.7,85.1z"/>
													</g>
												</g>
											</g>
										</g>
									</g>
								</g>
							</g>
						</g>
					</g>
				</g>
			</g>
			<path class="st11" d="M195.4,97.8c0.5-0.4,1.2-0.5,1.8-0.4c0.3,0.1,0.6,0.2,0.9,0.4c0.3,0.3,0.3,0.8,0.3,1.2c0,0.3,0,0.5-0.1,0.8
				c-0.1,0.2-0.3,0.5-0.5,0.6c-0.2,0.1-0.5,0.1-0.8,0c-0.4-0.1-0.9-0.2-1.2-0.4c-0.4-0.3-0.7-0.6-0.7-1.1c0-0.4,0.2-0.9,0.6-1.1"/>
			<g>
				<path class="st9" d="M198.6,100.4c-0.1,0-0.2-0.2-0.5-0.6c-0.3-0.4-0.7-0.8-1.3-1.1c-0.6-0.3-1.2-0.5-1.6-0.5
					c-0.4-0.1-0.7-0.1-0.8-0.2c0-0.1,0.3-0.2,0.8-0.3c0.5-0.1,1.2,0,1.9,0.4c0.7,0.4,1.1,1,1.4,1.4
					C198.6,100.1,198.6,100.4,198.6,100.4z"/>
			</g>
		</g>
		<path class="st9" d="M178.2,108.6c2.8-0.6,5-3,5.9-5.6c1-2.7,0.9-5.6,0.7-8.5c0-0.4-0.1-0.8-0.4-1c-0.4-0.3-1-0.1-1.5,0.2
			c-1.8,1.1-3.5,2.3-5.1,3.6c-1.5,1.2-3,2.6-3.6,4.4C173.4,104.5,175.2,107.9,178.2,108.6"/>
		<g>
			<path class="st10" d="M242.5,107.9l-13.2-21.2l-3.6-7.5c0,0-1.2-1.5-2.4-2.9c-2-2.2-3.9-0.5-3.9-0.5s-0.3-0.8-1.3-0.8
				c-1.2,0-1.8,0.9-1.8,0.9s-0.5-0.6-2-0.7c-0.3,0-0.6,0.1-0.9,0.3c-0.5-0.4-1.4-1.1-2.3-0.7c-0.7,0.2-4.8,3.4-5.8,4.9
				c-0.5,0.8,0.4,1.8,1.7,1.3c0.5-0.2,1.1-0.4,1.5-0.6c0.7-0.4,1-0.8,1-0.8s-1,1.8,0,2.1c0.4,0.1,1.3,0,1.9-0.5
				c0.4-0.3,0.8-0.8,1.3-1.2c0,0,0,0-0.1,0.1c-0.6,0.8,0.9,2.1,1.6,1.6c0.4-0.3,0.7-0.5,1-0.8c1.7,1.2-0.7,2.8-1.6,2.7
				c-1.5-0.1-3.3-0.1-4.5,0c-0.9,0.1-1.6,0.3-2.1,0.7c-0.6,0.6,0,1.8,0.8,1.9c1.4,0.2,3.3,0.5,5.2,1c2.3,0.6,8.2,2.5,8.2,2.5
				l0.6,0.5l8,19.6l-13.7,2.9l-3.1,17.4l24.8-6.7C243.2,120.7,245.8,113.2,242.5,107.9z"/>
			<g>
				<path class="st11" d="M221,89.9c0,0-0.1,0-0.3-0.1c-0.2-0.1-0.5-0.1-0.9-0.3c-0.8-0.2-1.9-0.6-3.3-1c-0.7-0.2-1.4-0.4-2.2-0.7
					c-0.8-0.2-1.7-0.5-2.6-0.7c-0.9-0.2-1.9-0.5-2.9-0.6c-0.5-0.1-1.1,0-1.6-0.3c-0.1-0.1-0.3-0.1-0.4-0.3c0-0.1-0.1-0.1-0.1-0.2
					l0-0.2c0-0.3,0-0.6,0.1-0.9c0.1-0.3,0.3-0.5,0.6-0.7c0.3-0.1,0.5-0.2,0.8-0.3c0.5-0.2,1.1-0.2,1.6-0.2c1,0,2,0.2,3,0.1
					c0.5,0,0.9-0.1,1.4-0.1c0.4-0.1,0.9-0.2,1.3-0.3c0.8-0.2,1.6-0.4,2.3-0.3c0.7,0.1,1.4,0.3,1.9,0.5c0.5,0.2,1,0.5,1.3,0.6
					c0.4,0.2,0.6,0.4,0.8,0.5c0.2,0.1,0.3,0.2,0.3,0.2c0,0-0.1,0-0.3-0.1c-0.2-0.1-0.5-0.3-0.8-0.4c-0.4-0.2-0.8-0.4-1.3-0.6
					c-0.5-0.2-1.2-0.4-1.9-0.4c-0.7-0.1-1.5,0.1-2.3,0.3c-0.4,0.1-0.8,0.2-1.3,0.3c-0.4,0.1-0.9,0.1-1.4,0.1c-1,0-2-0.1-3-0.1
					c-0.5,0-1,0-1.5,0.2c-0.5,0.2-1.1,0.3-1.2,0.8c-0.1,0.2-0.1,0.5,0,0.8l0,0.2c0,0,0,0.1,0.1,0.1c0.1,0.1,0.2,0.2,0.3,0.2
					c0.5,0.2,1,0.2,1.5,0.3c1,0.1,2,0.4,2.9,0.6c0.9,0.2,1.8,0.5,2.6,0.8c0.8,0.3,1.6,0.5,2.2,0.7c1.4,0.4,2.5,0.8,3.2,1
					c0.4,0.1,0.7,0.2,0.9,0.3C220.9,89.9,221,89.9,221,89.9z"/>
			</g>
			<g>
				<path class="st11" d="M210.8,74.9c0,0-0.6,0.4-1.6,1.1c-0.5,0.4-1,0.8-1.6,1.4c-0.6,0.5-1.2,1.2-1.9,1.8c-0.3,0.3-0.7,0.6-0.7,1
					c0,0.2,0,0.4,0.1,0.5c0.1,0.2,0.2,0.3,0.4,0.3c0.4,0.1,0.7,0.1,1.1,0c0.3-0.1,0.6-0.2,0.9-0.3c1.1-0.4,1.6-1,1.6-1
					c0,0-0.1,0.2-0.4,0.4c-0.3,0.2-0.7,0.5-1.2,0.8c-0.3,0.1-0.6,0.2-0.9,0.3c-0.3,0.1-0.7,0.1-1.2,0c-0.2-0.1-0.4-0.2-0.5-0.4
					c-0.1-0.2-0.1-0.5-0.1-0.7c0.1-0.5,0.5-0.8,0.8-1.1c0.7-0.6,1.3-1.2,1.9-1.8c0.6-0.5,1.1-1,1.6-1.3c0.5-0.3,0.9-0.6,1.2-0.8
					C210.7,75,210.8,74.9,210.8,74.9z"/>
			</g>
			<g>
				<path class="st11" d="M215.9,76.6c0,0-0.2,0.2-0.5,0.6c-0.3,0.4-0.8,0.9-1.3,1.5c-0.6,0.6-1.2,1.3-2,2.1
					c-0.4,0.4-0.8,0.8-1.4,1.1c-0.3,0.1-0.6,0.2-0.9,0.2c-0.3,0-0.7-0.1-0.9-0.4c-0.1-0.1-0.2-0.3-0.2-0.5c0-0.2,0-0.4,0.1-0.5
					c0.1-0.3,0.2-0.6,0.4-0.9l0,0l0,0c0.7-0.8,1.4-1.5,2-2.1c0.6-0.6,1.2-1.2,1.7-1.6c0.2-0.2,0.5-0.4,0.7-0.6
					c0.2-0.1,0.5-0.1,0.7-0.1c0.4,0,0.6,0,0.5,0c0,0-0.2,0-0.5,0c-0.2,0-0.4,0-0.6,0.2c-0.2,0.1-0.4,0.3-0.6,0.6
					c-0.5,0.5-1,1-1.6,1.6c-0.6,0.7-1.2,1.4-1.9,2.1l0,0c-0.2,0.2-0.3,0.5-0.4,0.8c0,0.1-0.1,0.3,0,0.4c0,0.1,0.1,0.3,0.2,0.4
					c0.2,0.2,0.5,0.3,0.8,0.3c0.3,0,0.6-0.1,0.8-0.2c0.5-0.3,1-0.6,1.3-1c0.8-0.8,1.4-1.5,2-2.1c0.6-0.6,1-1.1,1.4-1.4
					c0.2-0.1,0.3-0.3,0.4-0.4C215.8,76.6,215.9,76.6,215.9,76.6z"/>
			</g>
			<g>
				<path class="st11" d="M222,78.5c0,0,0,0.1-0.2,0.2c-0.1,0.1-0.4,0.2-0.7,0.2c-0.3,0-0.5-0.2-0.6-0.4c-0.1-0.2-0.1-0.3-0.1-0.3
					c0,0,0.1,0.1,0.2,0.2c0.1,0.1,0.3,0.2,0.5,0.3c0.2,0,0.4,0,0.6-0.1C221.9,78.6,222,78.5,222,78.5z"/>
			</g>
			<g>
				<path class="st11" d="M222.5,80.4c0,0-0.3-0.3-0.6-0.7c-0.3-0.5-0.4-0.9-0.3-0.9c0.1,0,0.3,0.3,0.5,0.8
					C222.4,80,222.6,80.3,222.5,80.4z"/>
			</g>
			<g>
				<path class="st11" d="M223.4,87.6c0,0-0.2-0.3-0.4-0.8c-0.2-0.5-0.3-1.3-0.3-2.2c0-0.9,0.2-1.7,0.4-2.2c0.2-0.5,0.4-0.8,0.4-0.8
					c0.1,0-0.6,1.3-0.6,3C222.9,86.3,223.5,87.6,223.4,87.6z"/>
			</g>
			<g>
				<path class="st11" d="M234.2,115.5c0,0-0.1-0.4-0.3-1.1c-0.1-0.3-0.3-0.7-0.5-1.1c-0.2-0.4-0.5-0.8-0.8-1.2
					c-0.3-0.4-0.7-0.7-1.1-1c-0.4-0.3-0.7-0.5-1-0.6c-0.6-0.3-1-0.4-1-0.4c0,0,0.1,0,0.3,0c0.2,0,0.5,0.1,0.8,0.3
					c0.3,0.1,0.7,0.3,1.1,0.6c0.4,0.3,0.8,0.6,1.1,1c0.4,0.4,0.6,0.8,0.9,1.3c0.2,0.4,0.4,0.8,0.4,1.2c0.1,0.3,0.1,0.6,0.1,0.8
					C234.3,115.4,234.3,115.5,234.2,115.5z"/>
			</g>
		</g>
		<g>
			<path class="st10" d="M188.2,154.2c-1.8-0.4-3.3,0.4-3.3,0.4c-1.8-0.8-4,0.6-4,0.6c-0.6-0.3-4.6,2.2-4.6,2.2l-4.9,2.3l-26-19.3
				l7.4-7.7l-10.3-10.7l-12.1,12.4c-1.5,1.6-2.3,3.6-2.4,5.9c-0.3,4.7,2.4,9.1,6.6,11.3l30.6,15.7c0,0,3.2-0.1,7-1.1
				c2.6-0.7,7.2-2.7,7.2-2.7s0,0.1,0.8,1.7c1.5,2.8,3.6-0.2,3.6-0.2s0.4,1,0.8,1.4c1.8,1.8,3.1-0.6,3.1-0.6s0.6,1,2.2,0.2
				c1.6-0.7-0.2-5.7-0.2-5.7s0.6,1.1,1.6-0.3C192.3,158.7,190,154.6,188.2,154.2z"/>
			<g>
				<path class="st11" d="M184.6,154.9c0,0,0.1-0.1,0.3-0.1c0.2-0.1,0.6-0.1,1,0c0.4,0.1,0.9,0.3,1.3,0.7c0.2,0.2,0.4,0.4,0.6,0.6
					c0.2,0.2,0.4,0.5,0.5,0.8c0.6,1.1,1,2.2,1.2,3c0.1,0.4,0.2,0.7,0.3,0.9c0.1,0.2,0.1,0.4,0.1,0.4c0,0-0.2-0.5-0.4-1.2
					c-0.3-0.8-0.7-1.8-1.2-2.9c-0.1-0.3-0.3-0.5-0.5-0.7c-0.2-0.2-0.4-0.4-0.6-0.6c-0.4-0.3-0.8-0.6-1.2-0.7
					C185.1,154.7,184.6,154.9,184.6,154.9z"/>
			</g>
			<g>
				<path class="st11" d="M187.7,165.8c0,0-0.1-0.2-0.2-0.4c-0.2-0.3-0.3-0.7-0.6-1.2c-0.5-1-1.2-2.5-1.8-4.1
					c-0.3-0.8-0.6-1.6-1.1-2.2c-0.4-0.6-1-1-1.5-1.2c-0.5-0.2-1-0.3-1.3-0.2c-0.3,0-0.5,0.1-0.5,0.1c0,0,0,0,0.1-0.1
					c0.1,0,0.2-0.1,0.4-0.1c0.3-0.1,0.8-0.1,1.4,0.2c0.5,0.2,1.1,0.6,1.6,1.3c0.5,0.6,0.8,1.4,1.1,2.2c0.7,1.6,1.3,3,1.8,4.1
					c0.2,0.5,0.4,1,0.5,1.3C187.6,165.6,187.7,165.8,187.7,165.8z"/>
			</g>
			<g>
				<path class="st11" d="M175.8,159.6c0,0,0.1-0.1,0.4-0.2c0.3-0.2,0.7-0.3,1.2-0.6c0.2-0.1,0.5-0.2,0.8-0.4c0.3-0.1,0.7-0.2,1-0.2
					c0.4,0,0.8,0.2,1.1,0.4c0.3,0.3,0.6,0.6,0.8,1c0.2,0.4,0.4,0.7,0.6,1.1c0.2,0.3,0.3,0.7,0.5,1c0.4,0.6,0.7,1.2,0.9,1.7
					c0.2,0.5,0.4,0.9,0.5,1.2c0.1,0.3,0.1,0.5,0.1,0.5c0,0-0.3-0.6-0.8-1.6c-0.3-0.5-0.6-1-1-1.6c-0.2-0.3-0.4-0.6-0.5-1
					c-0.2-0.4-0.3-0.7-0.6-1.1c-0.2-0.3-0.5-0.7-0.7-0.9c-0.3-0.2-0.6-0.3-1-0.4c-0.3,0-0.7,0-1,0.1c-0.3,0.1-0.6,0.2-0.8,0.3
					c-0.5,0.2-0.9,0.4-1.2,0.5C175.9,159.6,175.8,159.6,175.8,159.6z"/>
			</g>
			<g>
				<path class="st11" d="M176.3,157.5c0,0-0.1,0.1-0.4,0.2c-0.2,0.1-0.6,0.3-1,0.5c-0.9,0.5-2,1.1-3.3,1.7
					c-1.3,0.7-2.5,1.2-3.4,1.7c-0.4,0.2-0.8,0.4-1,0.5c-0.2,0.1-0.4,0.2-0.4,0.2c0,0,0.1-0.1,0.4-0.2c0.2-0.1,0.6-0.3,1-0.5
					c0.9-0.4,2-1.1,3.3-1.7c1.3-0.7,2.5-1.2,3.4-1.7c0.4-0.2,0.8-0.4,1-0.5C176.2,157.5,176.3,157.4,176.3,157.5z"/>
			</g>
			<g>
				<path class="st11" d="M145.8,140.5c0,0.1-1.4-0.3-3.1-0.1c-1.7,0.2-2.9,0.9-3,0.8c0,0,0.3-0.2,0.8-0.4c0.5-0.2,1.3-0.5,2.1-0.6
					c0.9-0.1,1.7,0,2.2,0.1C145.5,140.4,145.8,140.5,145.8,140.5z"/>
			</g>
		</g>
		<g>
			<path class="st9" d="M203.2,70.8c-6.4-0.1-12.9,0.6-19.1,2c-1.5,0.3-3,0.8-4,1.9c-1,1.2-1.2,2.9-1.4,4.4
				c-0.2,1.9-0.3,3.8-0.5,5.7c-0.3,0.5-0.6,0.9-0.9,1.4c-1.5,2-3.4,3.6-4.8,5.7c-1.4,2.1-2.1,4.8-1,7c0.7,1.3,1.9,2.3,2.9,3.5
				c1.6,2,2.1,4.6,3,7c0.9,2.4,2.6,4.8,5.1,5.3c1.2,0.2,2.4,0,3.6,0.2c1.8,0.3,3.3,1.4,4.7,2.6c1.4,1.1,3,2.3,4.8,2.4
				c1.8,0.2,3.9-1,3.9-2.9c-1.3,0.8-3.1,0.7-4.4-0.1c-1.1-0.7-1.7-1.8-2.6-2.7c-2.2-2.2-5.8-2.8-7.4-5.5c-1.2-2.1-0.7-4.8-0.2-7.2
				c0.5-2.1,1-4.3,0.4-6.3c0-0.3,0.1-0.6,0.1-1c0-2.1-0.8-4.4,0.2-6.3c1.3-2.5,5.1-2.8,6.4-5.3c0.8-1.4,0.5-3.3,1.3-4.7
				c0.8-1.3,2.4-1.9,3.9-2.2c1.5-0.3,3.1-0.5,4.4-1.2C202.8,73.9,203.8,72.2,203.2,70.8z"/>
			<g>
				<path class="st9" d="M208.1,114C208.1,114,208,114,208.1,114c-0.1,0.2-0.2,0.3-0.3,0.4c-0.2,0.2-0.5,0.6-0.9,0.9
					c-0.5,0.4-1.1,0.7-1.8,1c-0.8,0.3-1.7,0.4-2.7,0.3c-1-0.1-2.1-0.5-3.1-1.3c-1-0.7-1.8-1.7-2.9-2.5c-0.5-0.4-1.2-0.7-1.8-0.8
					c-0.7-0.1-1.4,0.1-2.1,0.4c-0.7,0.3-1.4,0.6-2.1,0.7c-0.8,0.1-1.6-0.1-2.3-0.4c-0.7-0.3-1.3-0.8-1.9-1.3
					c-0.6-0.5-1.2-0.9-1.7-1.5c-0.5-0.5-1-1.1-1.2-1.8c-0.3-0.7-0.3-1.4-0.1-2.1c0.1-0.7,0.4-1.3,0.6-1.9c0.2-0.6,0.4-1.2,0.6-1.7
					c0.3-1.1,0.6-2.2,0.7-3.2c0.3-2,0.3-3.7,0.3-4.8c0-0.6-0.1-1-0.1-1.3c0-0.1,0-0.3,0-0.3c0-0.1,0-0.1,0-0.1c0,0,0,0,0,0.1
					c0,0.1,0,0.2,0.1,0.3c0,0.3,0.1,0.7,0.1,1.3c0.1,1.1,0.1,2.8-0.2,4.8c-0.1,1-0.4,2.1-0.7,3.3c-0.2,0.6-0.4,1.2-0.6,1.8
					c-0.2,0.6-0.5,1.2-0.6,1.9c-0.1,0.6-0.1,1.3,0.1,2c0.2,0.6,0.7,1.2,1.2,1.7c0.5,0.5,1.1,1,1.7,1.5c0.6,0.5,1.2,0.9,1.9,1.3
					c0.7,0.3,1.4,0.5,2.2,0.4c0.7-0.1,1.4-0.5,2.1-0.7c0.7-0.3,1.4-0.5,2.2-0.4c0.7,0.1,1.4,0.4,1.9,0.8c1.1,0.8,2,1.8,2.9,2.5
					c0.9,0.8,2,1.2,3,1.3c1,0.1,1.9,0,2.7-0.3c0.8-0.3,1.4-0.6,1.8-0.9C207.7,114.5,208,113.9,208.1,114z"/>
			</g>
			<g>
				<path class="st8" d="M167.9,101.2c0,0-0.1-0.1-0.3-0.4c-0.2-0.3-0.4-0.8-0.6-1.5c-0.1-0.7-0.2-1.5,0-2.5c0.2-0.9,0.6-2,1.4-3
					c0.7-1,1.7-1.9,2.9-2.7c1.2-0.9,2.5-1.7,3.8-2.6c1.3-0.9,2.6-2,3.6-3.5c0.5-0.7,0.8-1.5,1.1-2.4c0.3-0.9,0.4-1.8,0.6-2.7
					c0.2-0.9,0.4-1.8,0.8-2.6c0.4-0.8,0.9-1.6,1.6-2.2c0.7-0.6,1.5-1,2.3-1.3c0.8-0.3,1.6-0.4,2.4-0.5c1.6-0.1,3.2,0,4.6,0.1
					c1.4,0.1,2.8,0.2,4,0.1c1.2-0.1,2.3-0.5,3.1-0.9c0.8-0.5,1.5-1,1.9-1.5c0.4-0.5,0.7-1,0.8-1.3c0.1-0.3,0.2-0.5,0.2-0.5
					c0,0,0,0.2-0.1,0.5c-0.1,0.3-0.3,0.8-0.7,1.4c-0.4,0.5-1.1,1.1-1.9,1.6c-0.9,0.5-1.9,0.8-3.1,1c-1.2,0.1-2.6,0.1-4,0
					c-1.4-0.1-3-0.3-4.6-0.1c-0.8,0.1-1.6,0.2-2.4,0.5c-0.8,0.3-1.6,0.7-2.2,1.2c-0.7,0.6-1.2,1.3-1.5,2.1c-0.4,0.8-0.6,1.7-0.8,2.6
					c-0.2,0.9-0.4,1.8-0.6,2.7c-0.3,0.9-0.6,1.7-1.1,2.5c-1,1.5-2.3,2.6-3.6,3.5c-1.3,0.9-2.6,1.7-3.8,2.6c-1.2,0.8-2.2,1.7-2.9,2.7
					c-0.8,1-1.2,2-1.4,2.9c-0.2,0.9-0.2,1.8-0.1,2.4C167.3,100.6,167.9,101.2,167.9,101.2z"/>
			</g>
			<g>
				<path class="st8" d="M169,103.3c0,0-0.5-0.4-1.2-1.2c-0.4-0.4-0.8-1-1.1-1.7c-0.1-0.4-0.2-0.8-0.2-1.3c0-0.5,0.2-0.9,0.5-1.3
					c0.7-0.8,1.7-1.2,2.9-1.5c0.6-0.1,1.2-0.2,1.8-0.4c0.6-0.1,1.2-0.3,1.7-0.7c0.5-0.4,0.9-0.9,1.2-1.5c0.3-0.6,0.5-1.3,0.8-1.9
					c0.2-0.7,0.5-1.4,0.8-2c0.3-0.7,0.9-1.3,1.5-1.7c0.7-0.4,1.4-0.6,2.1-0.8c0.7-0.2,1.4-0.3,2.1-0.6c1.3-0.4,2.4-1.3,3.2-2.4
					c0.8-1,1.4-2.1,2-3.1c0.6-1,1.2-1.9,1.8-2.7c0.6-0.8,1.4-1.3,2.1-1.7c0.7-0.4,1.4-0.5,1.9-0.6c0.6,0,1,0,1.3,0.1
					c0.3,0.1,0.4,0.1,0.4,0.1c0,0-0.1,0-0.4-0.1c-0.3-0.1-0.7-0.1-1.3-0.1c-0.5,0.1-1.2,0.2-1.9,0.6c-0.7,0.4-1.4,0.9-2,1.7
					c-0.6,0.7-1.2,1.7-1.8,2.7c-0.6,1-1.2,2.1-2,3.1c-0.4,0.5-0.9,1-1.4,1.4c-0.5,0.4-1.2,0.8-1.9,1c-0.7,0.2-1.4,0.4-2.1,0.6
					c-0.7,0.2-1.4,0.4-2,0.8c-0.6,0.4-1.1,1-1.4,1.6c-0.3,0.6-0.6,1.3-0.8,2c-0.2,0.7-0.5,1.3-0.8,1.9c-0.3,0.6-0.8,1.2-1.3,1.5
					c-0.6,0.4-1.2,0.6-1.8,0.7c-0.6,0.1-1.2,0.2-1.8,0.3c-1.1,0.2-2.2,0.6-2.8,1.4c-0.3,0.4-0.5,0.8-0.5,1.2c0,0.4,0,0.8,0.2,1.2
					c0.3,0.7,0.7,1.3,1,1.7c0.4,0.4,0.7,0.7,0.9,0.9C168.8,103.1,168.9,103.1,169,103.3C169,103.3,169,103.3,169,103.3z"/>
			</g>
		</g>
	</g>
	<g>
		<path class="st11" d="M218.6,77.3c0,0-0.1,0.1-0.2,0.3c-0.1,0.2-0.4,0.5-0.6,0.8c-0.5,0.7-1.3,1.5-2.3,2.5c-0.5,0.4-0.9,1-1.5,1.1
			c-0.3,0.1-0.6,0.1-0.8,0c-0.3-0.1-0.4-0.3-0.5-0.5c-0.2-0.4-0.2-0.8-0.2-1c0-0.2,0.1-0.4,0.1-0.4c0,0,0,0.1,0,0.4
			c0,0.2,0,0.6,0.2,0.9c0.1,0.2,0.3,0.3,0.5,0.4c0.2,0.1,0.5,0.1,0.7,0c0.5-0.2,0.9-0.7,1.4-1.1c0.9-0.9,1.7-1.8,2.3-2.4
			C218.2,77.7,218.5,77.3,218.6,77.3z"/>
	</g>
	<g>
		<path class="st11" d="M221.6,77.3c0,0-0.1,0.1-0.2,0.3s-0.4,0.5-0.7,0.8c-0.3,0.3-0.7,0.7-1.1,1.2c-0.2,0.2-0.4,0.4-0.6,0.7
			c-0.2,0.2-0.5,0.5-0.8,0.7c-0.3,0.2-0.6,0.4-1,0.4c-0.3,0-0.7-0.1-0.9-0.4c-0.1-0.1-0.2-0.3-0.1-0.5c0-0.2,0.1-0.3,0.1-0.4
			c0.1-0.2,0.3-0.4,0.4-0.6c0.3-0.4,0.5-0.7,0.6-0.9c0.2-0.2,0.2-0.3,0.3-0.3c0,0-0.1,0.1-0.2,0.3c-0.1,0.2-0.3,0.5-0.6,0.9
			c-0.1,0.2-0.3,0.4-0.4,0.6c-0.1,0.2-0.2,0.5,0,0.7c0.2,0.2,0.4,0.3,0.7,0.3c0.3,0,0.6-0.2,0.9-0.4c0.3-0.2,0.5-0.4,0.7-0.7
			c0.2-0.2,0.4-0.5,0.7-0.7c0.4-0.4,0.8-0.8,1.1-1.1c0.3-0.3,0.6-0.6,0.8-0.8S221.6,77.3,221.6,77.3z"/>
	</g>
</g>
<g>
	<path class="st2" d="M119.8,175c1.7,1.4,2.6,3.7,2.4,5.9c-0.2,2.2-1.6,4.2-3.6,5.2C117.2,182.4,116.6,178.3,119.8,175"/>
	<g>
		<path class="st2" d="M125.4,177.9c0.2,2.9,1.8,5.6,4.3,7c2.5,1.4,5.7,1.5,8.2,0.3C135.2,180.8,131.3,177,125.4,177.9"/>
		<g>
			<path class="st9" d="M112.6,163.9c0,0,0.1,0.1,0.2,0.2c0.1,0.2,0.3,0.4,0.5,0.6c0.4,0.5,1.1,1.3,1.8,2.2c1.6,1.9,3.8,4.4,6.4,7
				c1.3,1.3,2.6,2.5,3.8,3.6c1.2,1.1,2.3,2,3.3,2.7c1,0.7,1.8,1.3,2.4,1.6c0.6,0.3,0.9,0.5,0.9,0.5c0,0-0.1,0-0.3-0.1
				c-0.2-0.1-0.4-0.2-0.7-0.3c-0.6-0.3-1.4-0.9-2.4-1.6c-1-0.7-2.1-1.6-3.3-2.7c-1.2-1.1-2.5-2.3-3.8-3.6c-2.6-2.6-4.8-5.2-6.4-7.1
				c-0.8-0.9-1.4-1.7-1.8-2.3c-0.2-0.3-0.4-0.5-0.5-0.6C112.7,164,112.6,163.9,112.6,163.9z"/>
		</g>
	</g>
	<g>
		<path class="st9" d="M119.5,180.7c0,0,0.1-0.6,0.2-1.5c0.1-0.9,0.2-2.2,0-3.6c-0.1-1.4-0.5-2.6-0.8-3.5c-0.3-0.9-0.5-1.4-0.5-1.4
			c0,0,0.1,0.1,0.2,0.3c0.1,0.2,0.3,0.6,0.4,1c0.3,0.9,0.7,2.1,0.8,3.5c0.1,1.4,0.1,2.7-0.1,3.6c-0.1,0.5-0.2,0.8-0.2,1.1
			C119.6,180.6,119.5,180.7,119.5,180.7z"/>
	</g>
</g>
<g>
	<g>
		<path class="st2" d="M279.4,129.2c-0.8-3.1-0.1-6.5,2-9c2.1-2.4,5.4-3.7,8.5-3.4c0.6,3-0.4,6.2-2,8.8
			C286,128.8,282.3,130.1,279.4,129.2"/>
		<g>
			<path class="st9" d="M267.5,141.2c0,0,0.1-0.1,0.2-0.2c0.1-0.2,0.3-0.3,0.5-0.6c0.5-0.5,1.1-1.2,2-2.1c1.7-1.8,4-4.2,6.7-6.8
				c2.6-2.7,5-5,6.8-6.8c0.9-0.8,1.6-1.5,2.1-2c0.2-0.2,0.4-0.4,0.6-0.5c0.1-0.1,0.2-0.2,0.2-0.2c0,0-0.1,0.1-0.2,0.2
				c-0.1,0.1-0.3,0.3-0.5,0.6c-0.5,0.5-1.2,1.2-2,2.1c-1.7,1.8-4.1,4.2-6.7,6.8c-2.6,2.6-5,5-6.7,6.8c-0.8,0.9-1.5,1.6-2,2.1
				c-0.2,0.2-0.4,0.4-0.5,0.6C267.6,141.1,267.5,141.2,267.5,141.2z"/>
		</g>
		<g class="st12">
			<path class="st7" d="M279.4,129.2c-0.8-3.1-0.1-6.5,2-9c2.1-2.4,5.4-3.7,8.5-3.4c0.6,3-0.4,6.2-2,8.8
				C286,128.8,282.3,130.1,279.4,129.2"/>
		</g>
	</g>
	<g>
		<path class="st2" d="M273.9,130.4c-1.7-0.9-3-2.7-3.2-4.6c-0.2-1.9,0.5-4,2-5.3c1.6,1,2.6,2.7,3.2,4.5
			C276.4,127.2,275.5,129.5,273.9,130.4"/>
		<g class="st12">
			<path class="st7" d="M273.9,130.4c-1.7-0.9-3-2.7-3.2-4.6c-0.2-1.9,0.5-4,2-5.3c1.6,1,2.6,2.7,3.2,4.5
				C276.4,127.2,275.5,129.5,273.9,130.4"/>
		</g>
		<g>
			<path class="st9" d="M274.5,133.9c0,0-0.1-0.1-0.1-0.4c-0.1-0.2-0.1-0.6-0.2-1c-0.2-0.9-0.3-2.1-0.5-3.4
				c-0.2-1.3-0.3-2.6-0.3-3.4c-0.1-0.9-0.1-1.4-0.1-1.4c0,0,0.1,0.5,0.2,1.4c0.1,0.9,0.2,2.1,0.4,3.4c0.2,1.3,0.3,2.6,0.4,3.4
				C274.4,133.3,274.5,133.9,274.5,133.9z"/>
		</g>
	</g>
</g>
<g>
	<path class="st2" d="M198.5,177.1c1.2-2.9,4-5.1,7.1-5.7c3.1-0.6,6.4,0.5,8.6,2.8C209.6,177.8,204.3,180.2,198.5,177.1"/>
	<g class="st12">
		<path class="st7" d="M198.5,177.1c1.2-2.9,4-5.1,7.1-5.7c3.1-0.6,6.4,0.5,8.6,2.8C209.6,177.8,204.3,180.2,198.5,177.1"/>
	</g>
	<g>
		<path class="st9" d="M195.9,178.5c0,0,0.1-0.1,0.4-0.3c0.2-0.2,0.6-0.4,1.1-0.7c0.9-0.5,2.2-1.2,3.8-1.7c1.5-0.5,3-0.8,4-0.9
			c0.5-0.1,1-0.1,1.2-0.1c0.3,0,0.5,0,0.5,0c0,0-0.6,0.1-1.7,0.2c-1,0.1-2.5,0.4-4,0.9c-1.5,0.5-2.8,1.1-3.8,1.6
			C196.5,178.2,196,178.5,195.9,178.5z"/>
	</g>
</g>
<g>
	<path class="st2" d="M92.5,124.6c2.2-1,4.9-0.9,7,0.4c2.1,1.3,3.4,3.6,3.5,6.1C98.5,130.8,94.2,129.4,92.5,124.6"/>
	<g class="st12">
		<path class="st7" d="M92.5,124.6c2.2-1,4.9-0.9,7,0.4c2.1,1.3,3.4,3.6,3.5,6.1C98.5,130.8,94.2,129.4,92.5,124.6"/>
	</g>
	<g>
		<path class="st9" d="M90.2,124.1c0,0,0.1,0,0.4,0c0.2,0,0.6,0.1,1,0.2c0.8,0.2,1.9,0.5,3,1c1.1,0.5,2.1,1.1,2.8,1.6
			c0.3,0.2,0.6,0.4,0.8,0.6c0.2,0.2,0.3,0.2,0.3,0.3c0,0-0.4-0.3-1.1-0.7c-0.7-0.4-1.6-1-2.8-1.5c-1.1-0.5-2.2-0.8-3-1
			C90.7,124.2,90.2,124.2,90.2,124.1z"/>
	</g>
</g>
<g>
	<path class="st2" d="M236.6,172.1c-0.3-2.2,0.6-4.4,2.3-5.8c1.7-1.4,4-1.9,6.1-1.3C243.5,168.7,241.2,172,236.6,172.1"/>
	<g>
		<path class="st9" d="M235.6,173.9c0,0,0.1-0.4,0.5-1.1c0.4-0.6,0.9-1.5,1.7-2.3c0.7-0.8,1.5-1.5,2.1-1.9c0.6-0.4,1-0.6,1-0.6
			c0,0-0.4,0.3-0.9,0.7c-0.6,0.5-1.3,1.1-2.1,1.9c-0.7,0.8-1.3,1.6-1.7,2.3C235.8,173.5,235.6,173.9,235.6,173.9z"/>
	</g>
</g>
<g>
	<path class="st2" d="M268.3,151.2c-0.7-2.1-0.2-4.5,1.2-6.1c1.4-1.7,3.6-2.6,5.8-2.4C274.4,146.6,272.7,150.3,268.3,151.2"/>
	<g class="st12">
		<path class="st7" d="M268.3,151.2c-0.7-2.1-0.2-4.5,1.2-6.1c1.4-1.7,3.6-2.6,5.8-2.4C274.4,146.6,272.7,150.3,268.3,151.2"/>
	</g>
	<g>
		<path class="st9" d="M267.6,153.1c0,0,0.1-0.5,0.3-1.1c0.2-0.7,0.6-1.6,1.2-2.6c0.6-1,1.2-1.7,1.7-2.3c0.5-0.5,0.9-0.8,0.9-0.8
			c0,0-0.3,0.3-0.8,0.9c-0.5,0.5-1.1,1.3-1.7,2.3c-0.6,0.9-1,1.9-1.2,2.5C267.8,152.7,267.6,153.2,267.6,153.1z"/>
	</g>
</g>
<g>
	<path class="st2" d="M29.6,122.5c0.5-2.1,2.1-4,4.1-4.7c2-0.8,4.4-0.4,6.2,0.8C37.2,121.5,33.9,123.8,29.6,122.5"/>
	<g>
		<path class="st9" d="M28,123.7c0,0,0.3-0.4,0.8-0.8c0.5-0.5,1.4-1.1,2.3-1.6c1-0.5,1.9-0.9,2.6-1.1c0.7-0.2,1.1-0.3,1.2-0.2
			c0,0-0.4,0.1-1.1,0.4c-0.7,0.2-1.6,0.6-2.6,1.1c-1,0.5-1.8,1.1-2.3,1.6C28.4,123.5,28.1,123.8,28,123.7z"/>
	</g>
</g>
<g>
	<g>
		<g>
			<g>
				<path class="st4" d="M213.5,70l3.2-5.8c-1.5-2.3-2.3-5.1-2.4-8.1c-0.1-8.6,6.8-15.6,15.4-15.7c8.6-0.1,15.6,6.8,15.7,15.4
					c0.1,8.6-6.8,15.6-15.4,15.7c-3.6,0-6.9-1.1-9.5-3.2l0,0L213.5,70z"/>
				<g>
					<path class="st9" d="M213.5,70c0.4-0.1,2.6-0.6,7-1.8l0,0.1l0,0l-0.2-0.3l0.3,0.2c0.9,0.7,2,1.3,3.2,1.9c1.2,0.5,2.7,1,4.2,1.1
						c0.8,0.1,1.6,0.1,2.4,0.1c0.4,0,0.8,0,1.3-0.1c0.4-0.1,0.9-0.1,1.3-0.2c1.7-0.4,3.5-1,5.1-2.1c1.6-1,3.2-2.5,4.4-4.2
						c1.2-1.7,2.1-3.7,2.5-5.9c0.4-2.2,0.3-4.5-0.3-6.8c-0.6-2.3-1.7-4.5-3.3-6.3l-0.6-0.7c-0.2-0.2-0.5-0.4-0.7-0.6
						c-0.2-0.2-0.4-0.4-0.7-0.6l-0.7-0.5c-0.2-0.2-0.5-0.3-0.8-0.5l-0.8-0.5c-0.3-0.1-0.5-0.3-0.8-0.4c-0.3-0.1-0.5-0.3-0.8-0.4
						c-2.2-0.9-4.6-1.2-6.9-1c-2.3,0.2-4.4,0.9-6.3,1.9c-1.9,1.1-3.4,2.5-4.6,4c-1.2,1.6-2.1,3.3-2.6,5c-0.5,1.7-0.7,3.4-0.6,5
						c0.1,3.2,1.2,5.8,2.3,7.6l0,0l0,0C214.7,67.8,213.7,69.6,213.5,70c0.2-0.3,1.2-2.1,3.2-5.9l0,0.1c-1.2-1.8-2.3-4.5-2.4-7.7
						c0-1.6,0.1-3.3,0.6-5.1c0.5-1.7,1.4-3.5,2.6-5.1c1.2-1.6,2.8-3,4.7-4.1c1.9-1.1,4.1-1.8,6.4-1.9c2.3-0.2,4.7,0.1,7,1
						c0.3,0.1,0.6,0.2,0.8,0.4c0.3,0.1,0.6,0.3,0.8,0.4l0.8,0.5c0.3,0.2,0.5,0.3,0.8,0.5l0.8,0.5c0.3,0.2,0.5,0.4,0.7,0.6
						c0.2,0.2,0.5,0.4,0.7,0.6l0.6,0.7c1.7,1.8,2.8,4.1,3.4,6.4c0.6,2.3,0.7,4.7,0.2,6.9c-0.4,2.2-1.3,4.3-2.6,6
						c-1.2,1.7-2.8,3.2-4.4,4.2c-1.7,1.1-3.5,1.7-5.2,2.1c-0.4,0.1-0.9,0.1-1.3,0.2c-0.4,0-0.9,0.1-1.3,0.1c-0.8,0-1.7,0-2.5-0.1
						c-1.6-0.2-3-0.6-4.3-1.2c-1.3-0.6-2.3-1.2-3.2-1.9l0.1-0.1l0,0l0,0.1l-0.1,0C216.1,69.3,213.9,69.9,213.5,70z"/>
				</g>
			</g>
		</g>
	</g>
	<g>
		<g>
			<path class="st2" d="M225.6,53.2l2,0c0,0,0-1.7,1.7-1.7c0.9,0,1.4,0.6,1.6,1c0.2,0.5,0.2,1.1-0.1,1.6c-0.3,0.6-1.1,1.1-2.4,0.9
				l0,4.5l2,0l0-2.7c0,0,2.8-0.8,2.8-3.8c0-3-2.7-3.6-3.8-3.6C228.5,49.4,225.5,49.7,225.6,53.2z"/>
			
				<rect x="228.5" y="60.5" transform="matrix(1 -9.598890e-03 9.598890e-03 1 -0.5788 2.2054)" class="st2" width="2" height="1.9"/>
		</g>
	</g>
</g>
</svg>
