<?xml version="1.0" encoding="utf-8"?>
<!-- Generator: Adobe Illustrator 27.9.0, SVG Export Plug-In . SVG Version: 6.00 Build 0)  -->
<svg version="1.1" id="Capa_1" xmlns="http://www.w3.org/2000/svg" xmlns:xlink="http://www.w3.org/1999/xlink" x="0px" y="0px"
	 viewBox="0 0 967 725" style="enable-background:new 0 0 967 725;" xml:space="preserve">
<style type="text/css">
	.st0{fill:#1B4789;}
	.st1{fill:#4C6FB5;}
	.st2{fill:#4C6EB3;}
	.st3{fill:#18253F;}
	.st4{fill:#EA5C63;}
	.st5{fill:#B63945;}
	.st6{opacity:0.5;fill:#FFFFFF;}
	.st7{fill:#FFFFFF;}
	.st8{fill:none;stroke:#1B4789;stroke-width:1.5068;stroke-linecap:round;stroke-miterlimit:10;}
	.st9{fill:none;stroke:#1B4789;stroke-width:1.5068;stroke-linecap:round;stroke-miterlimit:10;stroke-dasharray:8.6993,8.6993;}
	.st10{fill:none;stroke:#1B4789;stroke-width:1.4921;stroke-linecap:round;stroke-miterlimit:10;}
	.st11{fill:none;stroke:#1B4789;stroke-width:1.4921;stroke-linecap:round;stroke-miterlimit:10;stroke-dasharray:8.6141,8.6141;}
	.st12{fill:#FDC92A;stroke:#FFFFFF;stroke-width:2.6598;stroke-miterlimit:10;}
	.st13{fill:#E84B58;}
	.st14{fill:#FAD1C4;}
	.st15{fill:#F7B8B5;}
	.st16{fill:#FDD912;}
	.st17{fill:#F6B0AF;}
	.st18{fill:#2E4874;}
	.st19{fill:none;stroke:#2E4874;stroke-width:0.3506;stroke-miterlimit:10;}
	.st20{opacity:0.3;fill:#2E4874;}
	.st21{opacity:0.3;}
	.st22{opacity:0.3;fill:#FFFFFF;}
	.st23{fill:#6A6FB2;}
	.st24{fill:#FDC92A;}
	.st25{fill:#F5A53F;}
	.st26{fill:#164076;}
	.st27{opacity:0.2;fill:url(#SVGID_1_);}
	.st28{fill:url(#SVGID_00000152264154677457693980000001589245469400175771_);}
	.st29{clip-path:url(#SVGID_00000028285949862210640590000016877000044775808702_);}
	.st30{opacity:0.4;fill:#F5A53F;}
	.st31{fill:#AABFE4;}
	.st32{fill:#FFF6E0;}
	.st33{fill:#C7384A;}
	.st34{fill:#EC6689;}
	.st35{fill:#F7B34E;}
	.st36{fill:#ED9720;}
	.st37{fill:#FDD258;}
	.st38{fill:#DBDCEF;}
	.st39{fill:#E2DCEF;}
	.st40{fill:#F0F4F9;}
	.st41{font-family:'Montserrat-Bold';}
	.st42{font-size:22.9081px;}
</style>
<g>
	<g>
		<path class="st0" d="M239.7,193.9c1.6-5,298.2-11.1,300.2-8.3c2,2.8-5.3,200.6-8,202.7c-2.7,2.1-288.2,1.4-292.2-2.8
			C235.7,381.3,237.7,200.2,239.7,193.9z"/>
		<path class="st1" d="M521.8,225.7c-0.1,3-0.1,6.1-0.2,9.4c-0.4,16.2-1.1,36.2-1.9,55.9c-0.3,7.6-0.6,15.1-0.9,22.3
			c-0.5,10.5-1,20.5-1.4,29.2c-0.1,1-0.1,2-0.2,2.9c-0.9,16.7-1.8,28-2.4,28.5c-0.6,0.5-19.2,0.8-46.2,0.9c-3.1,0-6.3,0-9.7,0
			c-1,0-2,0-3.1,0c-5.8,0-11.9,0-18.2,0c-5,0-10.2,0-15.4,0c-1.1,0-2.3,0-3.4,0h-0.5c-4.6,0-9.2,0-13.9,0c-8.3,0-16.8-0.1-25.2-0.1
			c-1.3,0-2.6,0-3.9,0c-4.4,0-8.8-0.1-13.1-0.1c-8.8-0.1-17.5-0.2-25.8-0.3c-3.1,0-6.2-0.1-9.2-0.1c-4.4-0.1-8.6-0.1-12.7-0.2
			c-32.4-0.5-55.8-1.4-56.9-2.4c-0.5-0.5-0.9-3.7-1.1-9c-0.4-6.7-0.6-16.7-0.8-28.4c0-2.9-0.1-5.9-0.1-9c-0.1-15-0.1-31.9,0.1-48.2
			c0.1-5.5,0.1-11,0.2-16.2c0.3-24.1,0.8-44.4,1.4-51.2c0.1-1.2,0.2-2,0.3-2.3c0.4-1.3,25.1-2.7,59.2-4c4.2-0.2,8.5-0.3,12.9-0.4
			c3.8-0.1,7.7-0.3,11.7-0.4c8.7-0.3,17.8-0.5,27-0.8h0c19.7-0.5,40-1,59.1-1.3h0c3.5-0.1,7-0.1,10.3-0.2c5.2-0.1,10.2-0.2,15.2-0.2
			c0.3,0,0.5,0,0.8,0c2.2,0,4.4-0.1,6.5-0.1c1.8,0,3.6-0.1,5.3-0.1c32.4-0.4,55.6-0.4,56.1,0.3C522.2,200.7,522.2,210.7,521.8,225.7
			z"/>
		<g>
			<path class="st2" d="M486.7,358.6c-0.9,0.1-1.9,0.4-2.5,1c-0.7,0.6-1,1.7-0.5,2.5c0.4,0.7,1.2,1,2,1.3c0.9,0.3,1.9,0.5,2.9,0.4
				s2-0.4,2.6-1.1c0.7-0.7,1-1.8,0.7-2.7C491.1,358.2,488.2,358.5,486.7,358.6z"/>
			<path class="st2" d="M494.9,356.7c0.4-0.2,0.6-0.6,0.6-1c0-0.6-0.3-1.1-0.7-1.4c-0.4-0.3-1-0.5-1.6-0.5c-0.3,0-0.7,0.1-0.9,0.3
				c-0.6,0.4-0.6,1.6-0.1,2.2C492.7,356.7,494.2,357,494.9,356.7z"/>
			<path class="st2" d="M499.2,362.8c0.3,0,0.6,0,0.9-0.2c0.3-0.2,0.4-0.7,0.3-1.1c-0.1-0.4-0.5-0.7-0.8-0.8
				c-0.4-0.2-0.8-0.2-1.2-0.2c-0.4,0-0.8,0-1.1,0.2C495.7,361.7,498.5,362.8,499.2,362.8z"/>
			<path class="st2" d="M294.4,222.8c0.4,0.3,1,0.4,1.5,0.5c0.7,0.1,1.4,0.1,2,0.2c0.4,0,0.8,0,1.2-0.1c2.4-1,0-4.3-1.7-4.6
				C295.5,218.4,292.3,221,294.4,222.8z"/>
			<path class="st2" d="M286.6,225.9c0,0.4,0.2,0.7,0.5,0.9c0.3,0.2,0.6,0.3,1,0.4c0.5,0.2,1.1,0.3,1.6,0.3c0.6,0,1.1-0.2,1.5-0.7
				c0.4-0.4,0.5-1.1,0.1-1.6c-0.2-0.3-0.5-0.4-0.8-0.5c-0.8-0.3-1.6-0.3-2.4,0C287.6,224.9,286.6,225.2,286.6,225.9z"/>
			<path class="st2" d="M295.5,227.3c0.2,0,0.4,0.1,0.5,0c0.2-0.1,0.2-0.3,0.3-0.5c0.1-0.3,0.1-0.6-0.1-0.9
				c-0.2-0.4-0.7-0.7-1.2-0.7c-0.5,0-1.1,0.5-0.9,1C294.2,226.9,294.9,227.2,295.5,227.3z"/>
			<path class="st2" d="M300.5,343.8c-0.1,0.7-0.1,1.4,0.2,2c0.3,0.6,0.9,1.1,1.5,1.2c0.7,0.1,1.4-0.1,1.9-0.5
				c0.5-0.4,0.9-1,1.2-1.7c0.3-0.7,0.4-1.4,0.3-2.2c-0.1-0.7-0.5-1.4-1.2-1.7C302.7,340,300.8,342.3,300.5,343.8z"/>
			<path class="st2" d="M292.5,349c0.4,0.8,1,1.4,1.8,1.6c0.5,0.2,1,0.2,1.4,0c0.6-0.3,0.7-1.1,0.6-1.8c-0.1-0.9-0.5-1.8-1.1-2.5
				c-0.4-0.4-0.9-0.8-1.4-0.9C291.9,345.4,292,348,292.5,349z"/>
			<path class="st2" d="M299.8,354.2c0.2,0.1,0.5,0.3,0.8,0.2c0.3-0.1,0.5-0.4,0.6-0.7c0.2-0.7,0.1-1.4-0.3-2
				c-0.4-0.6-1.2-1.1-2-1.1c-0.4,0-0.7,0.1-0.9,0.4c-0.3,0.5,0,1.4,0.2,1.8C298.5,353.4,299.2,353.9,299.8,354.2z"/>
			<path class="st2" d="M488.4,235c0.7,0.4,1.6,0.3,2.3-0.1c0.1,0,0.1-0.1,0.2-0.1c1.6-1.3,0.6-3.3-1.3-2.4
				C488.8,232.7,486.9,234.3,488.4,235z"/>
			<path class="st2" d="M483.9,241.5c1.1,0.3,2.5,0,3-1.1c0.3-0.7,0.2-1.6-0.2-2.2c-0.4-0.8-1.2-1.4-2-1.7c-0.9-0.2-1.9-0.1-2.5,0.5
				C480.2,238.7,482,240.9,483.9,241.5z"/>
			<path class="st2" d="M490.8,239.8c0.4,0.3,0.8,0.4,1.2,0.3c0.3-0.1,0.5-0.4,0.6-0.6c0.3-0.7,0-1.6-0.6-2
				c-0.6-0.4-1.8-0.3-2.1,0.4C489.5,238.4,490.3,239.4,490.8,239.8z"/>
		</g>
		<path class="st2" d="M224.8,384.6c-4.5,1-1.2,13.6,0.8,13.7c5.2,0.2,315.7,2.5,317.5,1.5c1.8-0.9,2.7-10.9,0.9-12.1
			C542.2,386.5,229.9,383.4,224.8,384.6z"/>
	</g>
	<g>
		<g>
			<path class="st3" d="M230.9,358.1l-8,9.4c0.6,2.1,5.4,2.6,5.4,2.6l5-11L230.9,358.1z"/>
			<path class="st3" d="M270.6,297l8-9.4c-0.6-2.1-5.4-2.6-5.4-2.6l-5,11L270.6,297z"/>
			<path class="st3" d="M252,372.2c-8.8,0-17.7-2.4-25.6-7.1l2.3-3.9c10.4,6.2,22.7,8.1,33.7,5.2c9.5-2.5,17.2-8.3,22-16.8
				c6.2-10.9,8.1-23.5,5-34.6c-2.6-9.2-8.3-16.5-16.5-21.1l2.2-3.9c9.3,5.2,15.8,13.4,18.7,23.8c3.4,12.3,1.4,26.1-5.4,38
				c-5.5,9.5-14,16.1-24.8,18.9C259.8,371.7,255.9,372.2,252,372.2z"/>
		</g>
		<path class="st3" d="M254.4,369.9H245c0.1,2.9-3.4,7.6-3.4,7.6h16.1C257.7,377.5,254.5,372.1,254.4,369.9z"/>
		<path class="st3" d="M223.3,385.6h52.9c0,0-1.3-6-3.6-7.7c-2.3-1.6-42-1.9-45-0.5C224.5,378.9,223.3,385.6,223.3,385.6z"/>
		<g>
			<path class="st4" d="M284.1,343.7c0,0,0,0.1-0.1,0.1c-1.9,3.8-4.5,7.2-7.7,10.1c0,0,0,0-0.1,0.1c0,0,0,0,0,0c0,0,0,0-0.1,0.1
				c-4.3,3.9-9.7,6.8-15.5,8.5c-0.1,0-0.2,0.1-0.3,0.1c-3.1,0.9-6.3,1.4-9.6,1.5c-2.1,0.1-4.1,0-6-0.3c-0.1,0-0.1,0-0.2,0
				c-4.9-0.7-9.4-2.4-13.4-4.9c0,0-0.1-0.1-0.1-0.1c-1.5-1-2.9-2-4.3-3.2c-1.8-1.5-3.4-3.3-4.8-5.1c0-0.1-0.1-0.1-0.1-0.2
				c-2.4-3.2-4.4-6.8-5.7-10.7c0-0.1-0.1-0.2-0.1-0.3c-1.2-3.7-1.9-7.7-1.9-11.8c0-3,0.3-5.8,1-8.5c0-0.1,0-0.1,0-0.2
				c1.3-5,3.6-9.6,6.8-13.5c0,0,0.1-0.1,0.1-0.1c3.5-4.3,8.1-7.8,13.3-10.3c0.1,0,0.2-0.1,0.2-0.1c1.3-0.6,2.7-1.2,4.1-1.6
				c3.5-1.2,7.2-2,11-2.2c2.5-0.2,5-0.1,7.4,0.3c0.2,0,0.4,0.1,0.6,0.1c1.3,0.2,2.6,0.5,3.8,0.9c0.1,0,0.2,0.1,0.2,0.1
				c2,0.6,3.9,1.5,5.7,2.5c0.7,0.4,1.4,0.8,2,1.3c0,0,0.1,0.1,0.1,0.1c2.7,1.8,5.2,4.1,7.3,6.6c0.1,0.1,0.1,0.1,0.1,0.2
				c1.3,1.5,2.4,3.2,3.5,4.9c0.1,0.2,0.2,0.4,0.3,0.6c2.2,3.9,3.9,8.3,4.8,12.9c0,0.1,0,0.2,0,0.2c0.4,1.9,0.6,3.8,0.7,5.8
				C287.6,333.5,286.4,338.9,284.1,343.7z"/>
			<g>
				<path class="st5" d="M260,322c-0.9,2.1-3.6,2.5-5.6,3.5c-3.5,1.9-4.9,6.9-2.8,10.4c1,1.7,2.6,2.9,3.8,4.4c1.1,1.6,1.6,4,0.3,5.4
					c-0.8,0.8-2,1.1-3.2,1.1c-3.9,0-8.9-3.9-8.1-8.2c0.3-1.5,1-2.8,1.4-4.2c0.4-1.4,0.2-3.2-1-4c-1.3-0.9-3.1-0.3-4.6,0.4
					c-1.5,0.6-3.4,2-5,1.9c-1.3,0-3.3-0.6-4.1-1.7c-1-1.3-0.6-3.3,0.3-4.6c1-1.3,2.5-2.2,3.8-3.2c1.3-1,2.6-2.3,2.8-4
					c0.4-2.9-2.6-5.3-5.6-5.7c-1.8-0.2-4.1,0.3-4.6,2.1c-0.3,1,0,2,0,3.1c0.1,3-2.2,5.4-4,7.7c-1.8,2.3-3.3,5.7-1.7,8.1
					c1.3,1.9,3.8,2.3,6.1,2.2c3.8-0.1,8.6-0.6,11.2,2.8c0.5,0.7,0.9,1.6,0.6,2.4c-0.4,1-1.6,1.3-2.6,1.3c-1.4,0-2.9-0.5-4.3-0.2
					c-1.4,0.2-2.9,1.5-2.5,2.9c0.4,1.9,3.3,2.1,4,3.9c0.5,1.4-0.5,2.8-1.7,3.7c-1.7,1.3-3.8,2.1-6,2.3c-7.8-6.8-12.6-17-12.6-28.1
					c0-16.3,10.7-29.3,25.5-34.3c0.7,0.6,1.5,1.2,2.4,1.6c2.9,1.4,6.3,0.9,9.3,1.6c1.1,0.2,2.3,0.7,2.8,1.8c0.7,1.4-0.4,3.2-1.8,3.9
					c-1.4,0.7-3,0.8-4.6,1.1c-1.4,0.3-2.8,0.8-3.6,1.9c-0.8,1.1-0.7,3,0.5,3.7c1.6,0.9,4.3-0.4,5,1.3c0.6,1.4-1.4,2.8-1.3,4.3
					c0.1,0.9,0.8,1.5,1.7,1.8c0.8,0.3,1.7,0.2,2.6,0.2c1.8-0.1,3.8,0.1,5.3,1C259.7,318.3,260.7,320.3,260,322z"/>
				<path class="st5" d="M276.3,354C276.3,354,276.3,354,276.3,354c-1.7,0-3.5,0.1-5.2,0.1c-1.2,0-2.4,0-3.6-0.3
					c-1.2-0.4-2.2-1.2-2.6-2.3c-1-3,3.1-5.9,2.3-8.9c-0.5-1.8-2.7-3-2.6-4.9c0.1-0.9,0.7-1.8,1.6-2.2c0.8-0.5,1.8-0.7,2.7-0.9
					c3.4-0.7,6.8-1.3,10.2-2c1.5-0.3,3.3-1,3.4-2.5c0.1-1.4-1.7-2.3-3.1-2.1c-2.8,0.3-5.2,3-8,2.6c-2.1-0.3-3.6-2.6-3.2-4.6
					c0.5-2,2.5-3.8,1.7-5.7c-0.8-1.9-3.7-1.8-4.9-3.5c-0.9-1.4-0.3-3.4,1-4.4c1.3-1.1,3-1.4,4.6-1.8c1.6-0.3,3.3-0.7,4.6-1.8
					c1.3-1.1,1.9-3.1,0.9-4.5c-1.4-1.9-4.5-0.9-6.7-1.8c-1.9-0.8-3-3.3-2.3-5.3c0.3-0.9,0.8-1.6,1.5-2.2c11,6.2,18.1,18.9,18.9,32.6
					C287.9,338.2,283.5,347.4,276.3,354z"/>
			</g>
			<path class="st6" d="M258.4,298.1c2.7,4.7-2.6,12.9-11.9,18.3c-9.3,5.4-19,5.9-21.8,1.1c-2.7-4.7,2.6-12.9,11.9-18.3
				S255.7,293.4,258.4,298.1z"/>
		</g>
		<path class="st6" d="M276.7,313.1c3.4,2.8,6.7,5.7,9.9,8.7c0-0.1,0-0.2,0-0.2c-3.1-3-6.4-5.9-9.8-8.6c0.6-2.8,0.9-5.6,1.2-8.4
			c1.4,1.3,2.7,2.6,3.9,4.1c-0.1-0.2-0.2-0.4-0.3-0.6c-1.1-1.3-2.3-2.5-3.5-3.6c0-0.4,0.1-0.9,0.1-1.3c0-0.1-0.1-0.1-0.1-0.2
			c0,0.4-0.1,0.9-0.1,1.3c-2.6-2.5-5.4-4.7-8.4-6.8c0.4-0.4,0.7-0.8,1.1-1.2c0,0-0.1-0.1-0.1-0.1c-0.4,0.4-0.8,0.8-1.1,1.2
			c-2.5-1.7-5.1-3.3-7.8-4.6c0.4-0.1,0.8-0.2,1.2-0.4c-0.1,0-0.2-0.1-0.2-0.1c-0.4,0.1-0.8,0.2-1.1,0.3c-0.9-0.4-1.8-0.9-2.7-1.3
			c-0.2,0-0.4-0.1-0.6-0.1c1,0.5,2,0.9,3.1,1.4c-3.9,1.3-7.7,3.1-11.3,5.5c-4.7-1.4-9.4-2.5-14.2-3.4c-0.1,0-0.2,0.1-0.2,0.1
			c4.8,0.9,9.6,1.9,14.3,3.4c-1.1,0.8-2.3,1.6-3.4,2.4c-4.1,3.2-7.8,7.1-11,11.4c-4.4-2.4-8.8-4.7-13.2-6.9c0,0-0.1,0.1-0.1,0.1
			c4.5,2.2,8.9,4.5,13.2,6.9c-1.2,1.7-2.4,3.4-3.4,5.2c-2,3.5-3.8,7.3-5.2,11.3c-4-3.1-7.8-6.4-11.3-9.9c0,0.1,0,0.1,0,0.2
			c3.6,3.5,7.4,6.8,11.3,9.9c-1.8,5.1-3.2,10.5-4.1,16.3c-2.2-1.8-4.4-3.8-6.4-5.9c0,0.1,0.1,0.2,0.1,0.3c2,2,4.1,3.9,6.3,5.7
			c-0.2,1.6-0.5,3.3-0.6,5c0,0.1,0.1,0.1,0.1,0.2c0.2-1.7,0.4-3.4,0.6-5c3.4,2.8,7,5.3,10.9,7.5c-0.8,2-1.7,3.9-2.4,5.9
			c-0.1,0.3-0.2,0.6-0.4,0.9l0.1,0.1c0.1-0.3,0.2-0.6,0.4-0.9c0.8-2,1.6-3.9,2.4-5.9c0.7,0.4,1.4,0.8,2.1,1.2
			c4.3,2.3,8.8,4.2,13.4,5.6c-1.5,1.4-3,2.7-4.5,4c0.1,0,0.1,0,0.2,0c1.6-1.3,3.1-2.6,4.5-3.9c3.7,1.2,7.4,2.1,11.1,2.7
			c0.1,0,0.2-0.1,0.3-0.1c-3.9-0.6-7.6-1.5-11.3-2.7c3.9-3.6,7.4-7.4,10.6-11.4c5.3,2.2,10.8,4.1,16.3,5.6c0,0,0,0,0.1-0.1
			c0,0,0,0,0,0c0,0,0,0,0.1-0.1c-5.5-1.5-11-3.4-16.3-5.6c2.6-3.3,5-6.8,7.1-10.4c0.9-1.5,1.7-3,2.5-4.6c4.9,3.4,9.7,6.9,14.4,10.4
			c0,0,0-0.1,0.1-0.1c-4.7-3.6-9.5-7.1-14.4-10.4C273,326.7,275.3,319.9,276.7,313.1z M269.3,297.6c3,2.1,5.8,4.3,8.4,6.8
			c-0.2,2.8-0.6,5.6-1.1,8.4c-4.1-3.2-8.4-6.2-12.9-8.7C265.5,301.9,267.4,299.7,269.3,297.6z M261.3,292.9c2.7,1.4,5.4,2.9,7.9,4.7
			c-1.9,2.1-3.8,4.3-5.6,6.5c-2.4-1.3-4.8-2.5-7.3-3.5c-2-0.8-4.1-1.6-6.2-2.2C253.6,296,257.4,294.1,261.3,292.9z M249.9,298.4
			c2.1,0.7,4.2,1.4,6.3,2.2c2.5,1,4.9,2.2,7.3,3.5c-4.5,5.4-8.7,11.1-12.7,16.9c-5.1-3.1-10.2-6-15.4-8.8
			C239.5,306.7,244.5,302,249.9,298.4z M231.9,317.6c1.1-1.8,2.2-3.6,3.4-5.2c5.2,2.8,10.3,5.8,15.4,8.8c-0.8,1.2-1.5,2.3-2.3,3.5
			c-2.9,4.5-5.5,9.1-8,13.8c-4.8-2.9-9.4-6.1-13.8-9.5C228.2,324.9,229.9,321.1,231.9,317.6z M233.5,352.9
			c-3.8-2.2-7.5-4.7-10.9-7.5c0.9-5.8,2.2-11.2,4.1-16.3c4.4,3.4,9,6.6,13.7,9.5C237.9,343.2,235.6,348,233.5,352.9z M249.2,359.8
			c-5.4-1.7-10.6-4-15.6-6.8c2.1-4.9,4.4-9.6,6.9-14.3c0.8,0.5,1.7,1,2.5,1.5c5.4,3.1,11,5.9,16.8,8.3
			C256.6,352.4,253.1,356.2,249.2,359.8z M267,337.9c-2.1,3.6-4.5,7-7.1,10.4c-6.7-2.8-13.1-6-19.3-9.8c3.1-5.9,6.6-11.7,10.3-17.2
			c6.3,3.8,12.5,7.8,18.6,12C268.7,334.8,267.9,336.4,267,337.9z M269.5,333.2c-6.1-4.2-12.3-8.2-18.6-12
			c3.9-5.9,8.1-11.5,12.6-16.9c4.6,2.5,8.9,5.5,13,8.8C275.2,319.9,272.9,326.6,269.5,333.2z"/>
	</g>
	<g>
		<g>
			<g>
				<g>
					<polygon class="st0" points="455.2,309.8 452.9,309.7 447.1,309.6 441.4,309.5 400.6,308.5 397.6,308.5 394.6,308.4 378.5,308 
						375.5,308 372.5,307.9 366.7,307.8 341.1,307.2 335.5,307.1 324.8,306.8 321.9,306.8 319.9,306.7 317.9,306.7 317.9,306.7 
						317.9,217.2 451.6,217.2 451.7,219.3 451.7,219.7 451.9,224.2 452,227.7 452.1,231.3 452.8,249.4 453.1,255.5 453.7,271.5 
						453.9,277.6 454.8,299.1 454.9,302.8 455.1,306.5 					"/>
					<g>
						<path class="st7" d="M451.7,219.3l-0.1-2.1h-7.1l-43.9,28.5l-3,2l-3,2l-8,5.2l-2.6-1.7l-5.5-3.6l-1.3-0.8l-1.7-1.1l-3-2
							l-13.1-8.5l-30.6-19.9h-10.8v0.2l2,1.3l36.2,23.5l11.1,7.2l4.7,3l1.3,0.9l3.3,2.2l3.8,2.5l6.3,4.1l10.1-6.6l9.3-6l44.6-29
							l1-0.6L451.7,219.3z M368.5,258.5l7.5,4.8c0.6-0.8,1.3-1.6,1.9-2.4l-7.3-4.7C369.9,257,369.2,257.8,368.5,258.5z M364.7,252.4
							l-4.6-3l-6.1-4l-34.1-22.2v3.6l32.4,21.1l2.2,1.4l4.7,3l4.6,3h5.5L364.7,252.4z M403.4,277.6l-3.8-2.5l-0.8-0.5l-4.2-2.7
							l-8-5.2l-8.1,5.3l-4,2.6l-4.7,3l-10.7,6.9l-34.3,22.3l10.7,0.2l11.8-7.7l25.2-16.4l3-2l3-2l8.1-5.3l8,5.2l0.7,0.5l2.3,1.5l3,2
							l40.8,26.5l5.7,0.1l5.7,0.1L403.4,277.6z M454.9,302.8l-0.2-3.7l-33.2-21.5l-9.3-6l-5.7-3.7l-5.4-3.5l13.7-8.9l4.7-3l4.6-3
							c0,0,0,0,0,0h0l27.9-18.1l-0.1-3.5l-0.1-3.5l-11.2,7.3l-27.6,17.9l-4.7,3l-4.6,3l-13.7,8.9l11.1,7.2l1.1,0.7l3.5,2.3l4.6,3
							l44.6,29L454.9,302.8z M377.9,261l-7.3-4.7l-1.2-0.8l-4.7-3l-4.6-3l-6.1-4l-34.1-22.2l-2-1.3v7.2l2,1.3l29.1,18.9l1.6,1.1l3,2
							l4.6,3l8.2,5.3l5.5,3.6l-11.1,7.2l-4.7,3l-4.7,3l-2,1.3l-29.7,19.3l-2,1.3v7.2h0l2-1.3l10-6.5l32.7-21.3l4-2.6l0.6-0.4l4.7-3
							l11.1-7.2L377.9,261z"/>
						<g>
							<polygon class="st4" points="455.2,309.8 452.9,309.7 447.1,309.6 400.6,279.3 397.6,277.4 397.5,277.3 394.6,275.4 
								386.6,270.2 378.5,275.5 375.5,277.5 372.5,279.4 353.2,292 330.1,307 324.8,306.8 321.9,306.8 319.9,306.7 317.9,306.7 
								317.9,306.7 317.9,303.1 319.9,301.8 340.2,288.6 357.2,277.6 366.5,271.5 372.6,267.5 377.5,264.3 376,263.3 368.5,258.5 
								363.8,255.5 359.2,252.4 354.6,249.4 352.3,248 319.9,226.9 317.9,225.6 317.9,217.2 323.2,217.2 357.7,239.7 372.5,249.3 
								375.2,251 375.5,251.2 378.5,253.2 382.2,255.6 386.6,258.4 394.6,253.3 397.6,251.3 400.6,249.3 450,217.2 451.6,217.2 
								451.7,219.3 451.7,219.7 451.9,224.2 452,227.7 432.6,240.4 418.6,249.4 414,252.4 409.4,255.5 395.7,264.3 404.5,270.1 
								406.7,271.5 416,277.6 454.9,302.8 455.1,306.5 							"/>
						</g>
					</g>
					<path class="st7" d="M317.9,271.5v6h54.6v30.3l3,0.1l3,0.1v-36.5H317.9z M452.8,249.4h-52.2v-32.2h-6v38.2h58.5L452.8,249.4z
						 M372.5,217.2v32.2h-54.6v6h60.6v-38.2H372.5z M453.7,271.5h-59.1v36.9l3,0.1l3,0.1v-31h53.3L453.7,271.5z"/>
					<g>
						<polygon class="st4" points="453.8,274.5 397.6,274.5 397.6,308.5 394.6,308.4 378.5,308 375.5,308 375.5,274.5 317.9,274.5 
							317.9,252.4 375.5,252.4 375.5,217.2 397.6,217.2 397.6,252.4 452.9,252.4 453.1,255.5 453.7,271.5 						"/>
					</g>
				</g>
			</g>
		</g>
	</g>
</g>
<g>
	<g>
		<g>
			<path class="st8" d="M469.6,202.8c0.3-1.4,0.6-2.8,1-4.2"/>
			<path class="st9" d="M473.2,190.3c5.6-15.2,15.3-29,27.8-39.2c15.9-13,36.4-20.4,56.9-20.6c22.3-0.2,46.2,9.6,56.5,29.4
				c8.3,16,6.1,36.9-5.4,50.8c-4.1,4.9-9.4,9.1-15.7,10.4c-6.2,1.4-13.4-0.5-17.2-5.6c-5.6-7.5-1.3-19.6,7.2-23.6
				c8.5-4,19.2-1,26,5.4c6.8,6.5,10.3,15.8,12,25c3.5,19.8-0.8,40.8-11.8,57.7c-9.4,14.4-23.6,25.6-39.7,31.5"/>
			<path class="st8" d="M565.6,312.9c-1.4,0.4-2.8,0.8-4.2,1.1"/>
		</g>
	</g>
	<g>
		<g>
			<path class="st10" d="M495.1,430.3c-1.3-0.6-2.6-1.1-3.9-1.7"/>
			<path class="st11" d="M483,425.9c-15.4-4.4-32.1-4.7-47.6-0.6c-19.7,5.1-37.5,17.2-49.7,33.6c-13.2,17.8-19.2,42.6-9.4,62.4
				c7.9,16,26,26.4,43.8,25.3c6.3-0.4,12.7-2.3,17.5-6.4c4.7-4.2,7.4-11,5.5-17.1c-2.8-8.9-14.9-12.5-23.1-8
				c-8.2,4.5-12,14.7-10.8,24c1.2,9.2,6.6,17.5,13,24.2c13.8,14.3,33.1,23.2,53,24.2c17,0.9,34.2-4,48.4-13.4"/>
			<path class="st10" d="M527.2,571.4c1.1-0.9,2.3-1.7,3.3-2.7"/>
		</g>
	</g>
	<g>
		<path class="st12" d="M519.1,216.1l-9-15.1c6-4.6,10.8-11,13.4-18.8c6.9-20.5-4.2-42.8-24.7-49.6c-0.6-0.2-1.1-0.4-1.7-0.5
			c-0.1,0-0.3-0.1-0.4-0.1c-0.6-0.2-1.1-0.3-1.7-0.4c0,0,0,0,0,0c-0.6-0.1-1.1-0.2-1.7-0.3c-0.1,0-0.3-0.1-0.4-0.1
			c-0.6-0.1-1.1-0.2-1.7-0.3c0,0-0.1,0-0.1,0c-0.5-0.1-1.1-0.1-1.6-0.2c-0.1,0-0.3,0-0.4,0c-0.6,0-1.1-0.1-1.7-0.1c0,0-0.1,0-0.1,0
			c-0.5,0-1.1,0-1.6,0c-0.1,0-0.3,0-0.4,0c-0.6,0-1.1,0-1.7,0.1c-0.1,0-0.1,0-0.2,0c-0.5,0-1,0.1-1.5,0.2c-0.1,0-0.3,0-0.4,0.1
			c-0.6,0.1-1.1,0.2-1.7,0.3c-0.1,0-0.1,0-0.2,0c-0.3,0.1-0.7,0.1-1,0.2l0,0c-13.2,2.8-24.6,12.2-29.2,26
			c-6.9,20.5,4.2,42.8,24.7,49.6l41.4,13.9C518.2,221.8,520.7,218.7,519.1,216.1z"/>
		<g>
			<path class="st7" d="M499.9,163.7c1,0,1.8-0.8,1.8-1.8c0-1-0.8-1.8-1.8-1.8h-26.5c-1,0-1.8,0.8-1.8,1.8c0,1,0.8,1.8,1.8,1.8
				H499.9z"/>
			<path class="st7" d="M494.3,178.2c1,0,1.8-0.8,1.8-1.8c0-1-0.8-1.8-1.8-1.8h-17.4c-1,0-1.8,0.8-1.8,1.8c0,1,0.8,1.8,1.8,1.8
				H494.3z"/>
		</g>
	</g>
</g>
<g>
	<g>
		<path class="st7" d="M778.6,241.9c-7.8-3.8-15.5,3.4-15.5,3.4c2.1-8.2-4.4-18.9-17.9-17.7c-4.4,0.4-7.3,2.6-9.2,5.5
			c-2.4-6.9-13.1-14.7-24-11.4c-15.2,4.6-11.7,23.3-11.7,23.3c-19.1-19.5-33.4,9.6-21.6,13.1c15,4.4,30.5,7.3,47.3,7.7
			c26.8-0.5,54.3-7.8,54.3-7.8C785.8,257.6,786.4,245.7,778.6,241.9z"/>
		<path class="st7" d="M259.4,150.1c3.5-0.2,3.9-7.7-1.1-10.1c-5-2.4-9.8,2.1-9.8,2.1c1.3-5.2-2.8-11.9-11.3-11.2
			c-2.8,0.2-4.6,1.7-5.8,3.5c0-0.1-0.1-0.3-0.2-0.4c-2.1,4.3-1.1,9.4-1.1,9.4c-12.5-11.1-20.6,6.3-16,10.8c3.5,0.5,7.2,0.7,10.9,0.8
			C241.9,154.7,259.4,150.1,259.4,150.1z"/>
	</g>
	<g>
		<path class="st4" d="M768.4,332l0.9,2.2c0.3,0.8,1,1.5,1.8,1.8l2.2,0.9l-2.2,0.9c-0.8,0.3-1.5,1-1.8,1.8l-0.9,2.2l-0.9-2.2
			c-0.3-0.8-1-1.5-1.8-1.8l-2.2-0.9l2.2-0.9c0.8-0.3,1.5-1,1.8-1.8L768.4,332z"/>
		<g>
			<g>
				<polygon class="st13" points="745.7,119.3 738,119.3 743.5,113.8 741.8,112.2 736.4,117.7 736.4,109.9 734.1,109.9 734.1,117.7 
					728.6,112.2 727,113.8 732.4,119.3 724.7,119.3 724.7,121.6 732.4,121.6 727,127.1 728.6,128.7 734.1,123.2 734.1,131 
					736.4,131 736.4,123.2 741.8,128.7 743.5,127.1 738,121.6 745.7,121.6 				"/>
				<polygon class="st2" points="212.8,262.2 206.3,262.2 210.9,257.6 209.5,256.3 204.9,260.9 204.9,254.4 203,254.4 203,260.9 
					198.4,256.3 197,257.6 201.6,262.2 195.1,262.2 195.1,264.2 201.6,264.2 197,268.8 198.4,270.1 203,265.5 203,272 204.9,272 
					204.9,265.5 209.5,270.1 210.9,268.8 206.3,264.2 212.8,264.2 				"/>
				<polygon class="st13" points="401.5,146.8 395.5,146.8 399.7,142.6 398.5,141.3 394.3,145.5 394.3,139.6 392.5,139.6 
					392.5,145.5 388.4,141.3 387.1,142.6 391.3,146.8 385.4,146.8 385.4,148.5 391.3,148.5 387.1,152.7 388.4,154 392.5,149.8 
					392.5,155.7 394.3,155.7 394.3,149.8 398.5,154 399.7,152.7 395.5,148.5 401.5,148.5 				"/>
				<path class="st2" d="M333.8,98.3l1.5,3.8c0.6,1.4,1.7,2.5,3.1,3.1l3.8,1.5l-3.8,1.5c-1.4,0.6-2.5,1.7-3.1,3.1l-1.5,3.8l-1.5-3.8
					c-0.6-1.4-1.7-2.5-3.1-3.1l-3.8-1.5l3.8-1.5c1.4-0.6,2.5-1.7,3.1-3.1L333.8,98.3z"/>
				<path class="st13" d="M194.6,190.8l1,2.6c0.4,0.9,1.1,1.7,2.1,2.1l2.6,1l-2.6,1c-0.9,0.4-1.7,1.1-2.1,2.1l-1,2.6l-1-2.6
					c-0.4-0.9-1.1-1.7-2.1-2.1l-2.6-1l2.6-1c0.9-0.4,1.7-1.1,2.1-2.1L194.6,190.8z"/>
				<path class="st0" d="M662.8,135.7l1,2.4c0.4,0.9,1.1,1.6,2,2l2.4,1l-2.4,1c-0.9,0.4-1.6,1.1-2,2l-1,2.4l-1-2.4
					c-0.4-0.9-1.1-1.6-2-2l-2.4-1l2.4-1c0.9-0.4,1.6-1.1,2-2L662.8,135.7z"/>
				<circle class="st13" cx="295.6" cy="159.1" r="3.5"/>
				<path class="st0" d="M736.2,368.9c-0.1,1.2-1.1,2.1-2.3,2c-1.2-0.1-2.1-1.1-2-2.3c0.1-1.2,1.1-2.1,2.3-2
					C735.4,366.7,736.3,367.7,736.2,368.9z"/>
				<path class="st13" d="M749.7,186.8c0,1.5-1.2,2.8-2.8,2.8s-2.8-1.2-2.8-2.8c0-1.5,1.2-2.8,2.8-2.8S749.7,185.3,749.7,186.8z"/>
				<path class="st13" d="M495.4,93.1l1,2.6c0.4,0.9,1.1,1.7,2.1,2.1l2.6,1l-2.6,1c-0.9,0.4-1.7,1.1-2.1,2.1l-1,2.6l-1-2.6
					c-0.4-0.9-1.1-1.7-2.1-2.1l-2.6-1l2.6-1c0.9-0.4,1.7-1.1,2.1-2.1L495.4,93.1z"/>
			</g>
		</g>
	</g>
</g>
<g>
	<g>
		<g>
			<g>
				<path class="st3" d="M493.9,258c-0.1,13,7.8,26.3,23.8,25.9l11.4,18.5l7.3-40.7c0.3-2.7-4.6-9.3-7-10.7
					c-6.6-3.8-10.2-7-17.6-5.5C511.7,245.5,494.1,241.2,493.9,258z"/>
				<g>
					<path class="st3" d="M500.1,253.5c2-4.9,1.1-10.9-2.1-15.1c-1.2-1.6-2.9-3-4.8-3.4c-2.7-0.6-5.5,0.7-7.6,2.6
						c-2.3,2-4,4.7-4.6,7.7c-0.6,3,0.2,6.2,2.2,8.5c1,1.2,2.3,2,3.7,2.7c2.1,1,4.4,1.7,6.7,1.4c2.3-0.3,4.5-1.8,5.3-4L500.1,253.5z"
						/>
				</g>
				<path class="st4" d="M529.5,280.9c0-2.8,2.3-5.1,5.1-5.1c2.8,0,5.1,2.3,5.1,5.1c0,2.8-2.3,5.1-5.1,5.1
					C531.8,286.1,529.5,283.8,529.5,280.9z"/>
				<path class="st14" d="M513.3,271.2c-0.2,0.3-3.5,0.2-3.9,0.2c-1.5,0-5.1-0.3-5.6,3.7c-0.5,4,3.3,6.3,5.7,6.4
					c0.7,0,2.2,0.2,2.7,0.7c1.4,1.5-0.1,13.3,1,17.4c2.4,9.1-2.7,4.8-2.7,4.8s32.7,34.8,23.7,0c0,0-1.9-21.7-1.8-21.8
					c1.9-1.9,9.1-2.7,4.6-18.1c-4.2-14.3-14.7-13.3-17.4-12.8C517.3,252.2,524.6,257,513.3,271.2z"/>
				<path class="st3" d="M533.2,253.7c1.3,4.5-12.5,7.8-16.9-0.5c0,0-0.5-8.6,6.1-9.2C525.9,243.6,530.7,244.6,533.2,253.7z"/>
				<g>
					<path class="st15" d="M505.6,276.3c0,0,2.4-5.1,5.4,1.7"/>
					<path class="st7" d="M535.3,272.5l-6.5,3.3c0,0,3.2,2.3,4.9,1.1C535.4,275.5,535.3,272.5,535.3,272.5z"/>
					<path class="st16" d="M522.6,266.6c-0.6,0.8-0.2-2,0.7-2.6c0.9-0.6,2.1-0.5,2.7,0.3C526,264.3,524,264.7,522.6,266.6z"/>
					<path class="st16" d="M533.6,260.5c0.9,0.3-1-1.7-2.2-1.6c-1.1,0.1-2,0.9-1.9,1.9C529.5,260.8,531.3,259.9,533.6,260.5z"/>
					<path class="st3" d="M522.6,266.6c-0.6,0.8-0.2-2,0.7-2.6c0.9-0.6,2.1-0.5,2.7,0.3C526,264.3,524,264.7,522.6,266.6z"/>
					<path class="st3" d="M533.6,260.5c0.9,0.3-1-1.7-2.2-1.6c-1.1,0.1-2,0.9-1.9,1.9C529.5,260.8,531.3,259.9,533.6,260.5z"/>
					<path class="st3" d="M525.6,269.4c0.3,0.8,0.9,1.3,1.3,1.1c0.4-0.2,0.4-0.9,0.1-1.7c-0.3-0.8-0.9-1.3-1.3-1.1
						C525.4,267.9,525.3,268.7,525.6,269.4z"/>
					<path class="st3" d="M531.7,266.6c0.3,0.7,0.8,1.2,1.2,1.1c0.4-0.1,0.4-0.9,0.1-1.6c-0.3-0.7-0.8-1.2-1.2-1.1
						C531.4,265.1,531.4,265.8,531.7,266.6z"/>
					<path class="st15" d="M532.4,282.7c0,0-6.8,1.3-10.3,1.1C518.7,283.5,533.2,293.1,532.4,282.7z"/>
					<path class="st3" d="M529.3,265.7c0.6,1,1.3,1.9,2.2,2.6c0.8,0.7,1.9,1.1,2.6,1.8c0.9,0.9,0.2,2.3-1.1,2.3
						c-0.3,0-0.5-0.4-0.3-0.6c0.3-0.3,0.8-0.6,0.3-1.2c-0.1-0.1-0.5-0.3-0.6-0.4c-0.5-0.3-1-0.7-1.5-1.1c-1-0.9-1.6-1.9-2.2-3.1
						C528.6,265.6,529.1,265.3,529.3,265.7z"/>
				</g>
				<path class="st4" d="M507,283c0-2.8,2.3-5.1,5.1-5.1c2.8,0,5.1,2.3,5.1,5.1c0,2.8-2.3,5.1-5.1,5.1
					C509.3,288.1,507,285.8,507,283z"/>
			</g>
			<g>
				<path class="st17" d="M528.7,597.7l2.5,17.6c0,0,4,11.7,7.7,7.2c3.7-4.5,7.3-6.9,7.3-6.9l1.2-18.3L528.7,597.7z"/>
				<path class="st15" d="M538.3,598.4l1.4,29c0,0-11.7,1.8-7.3-6.1l-3.3-21.7L538.3,598.4z"/>
				<path class="st18" d="M547.4,615.5l14.7,12c0.8,0.6,0.2,1.5-0.9,1.5c0,0-31.9-0.2-31.9-0.6c-0.3-2.9,1.1-13,1.6-15.6
					c0.1-0.4,3.4,12.5,4,11.3c0.8-1.6,10-7.8,10.6-8.4C546,615.1,546.9,615.1,547.4,615.5z"/>
			</g>
			<g>
				<path class="st17" d="M468,597.7l-6.7,17.6c0,0-4,11.7-7.7,7.2c-3.7-4.5-7.3-6.9-7.3-6.9l3-18.3L468,597.7z"/>
				<path class="st15" d="M458.4,598.4l-5.6,29c0,0,11.7,1.8,7.3-6.1l7.5-21.7L458.4,598.4z"/>
				<path class="st18" d="M445.1,615.5l-14.7,12c-0.8,0.6-0.2,1.5,0.9,1.5c0,0,31.9-0.2,31.9-0.6c0.3-2.9,0-15.3-0.3-15.3
					c-1.2,0-2.7,11.8-5.2,10.9c-1.7-0.6-10-7.8-10.6-8.4C446.5,615.1,445.6,615.1,445.1,615.5z"/>
			</g>
			<g>
				<path class="st4" d="M498.7,365c-6.8,12-10.3,20.7-14.2,35.9C480,418.5,442.1,576,440,608.1c5.6,1.3,28.7,3.3,32.3,3.1
					c11.2-32,42.2-146.4,47-166.6c0.7-3.1,5.5-2.4,5.1,0.7c-2.7,23-3.5,123.9-4.5,163.3c2.9,1.5,30.9,0.4,34.3,0
					c3.7-39.5,15-195.8-14.3-244.2C526.4,362.5,512.3,364.6,498.7,365z"/>
				<path class="st19" d="M535.2,364.9c0,0,13.8,34.1,13.8,75.8c0,41.7-2.6,150-2.6,150"/>
				<line class="st19" x1="457.6" y1="587.8" x2="505.7" y2="366.2"/>
				<path class="st20" d="M540.3,365.4l-59.4,49.1c0,0,8.6-31.8,18.4-50.2L540.3,365.4z"/>
			</g>
			<line class="st19" x1="519.8" y1="590.7" x2="555.1" y2="591.2"/>
			<line class="st19" x1="443" y1="588.1" x2="479.8" y2="588.1"/>
			<g>
				<path class="st14" d="M594.9,332c0,0-36.1,50-44.5,44.1c0,0-9.7-6.8-4.8-34.8c0-2.7,0-4.6-0.1-5c0,0-2.1-27.6-6.6-33.3
					c-0.5-0.6-2-1.8-1.8-1.8c13.9-3.5,19.2,31.4,23,47.5c0.2,0.7,26.6-25.1,26.6-25.1s13.8-18.3,14.8-17.3c1.4,1.5-4,9.7-4,9.7
					s0.3,0.9,1.4,1.4c1.1,0.5,1.6,1.2,2,2.6c0.3,1.4,1.7,2.2,2,3C603.1,323.7,597.9,329.8,594.9,332z"/>
				<path class="st14" d="M587.1,323.4c0,0,2.8-7.9,4-7.7c1.2,0.2,6.3,2.4,6.2,4.4c-0.1,2-4.5,0.3-4.5,0.3s0.8,4.4-1.4,5
					C589.1,326,587.1,323.4,587.1,323.4z"/>
				<g>
					<path class="st15" d="M594,320.1c0,0-0.1,2,1.5,2.3c0,0,0.3,2.1,2.4,1.6c0,0-0.6,0.9,0.7,1.2
						C598.7,325.2,593.2,331.2,594,320.1z"/>
					<g>
						<path class="st18" d="M593,316.2c1.6,0.7,3.3,1.3,4.8,2.2c0.3,0.2,0.5,0.4,0.6,0.8c0.1,0.4,0,0.9-0.3,1.1
							c-1.3,1.1-2.9,0.8-4.3,0.9c-0.1,0,0,0.4,0,0.7l0.2,1.7l0,0l-0.3-1.7c0-0.3-0.2-0.6,0-0.9c0.3-0.2,0.6-0.1,0.9-0.1
							c1.1,0,2.4-0.1,3.3-0.9c0.2-0.2,0.3-0.5,0.2-0.8c-0.3-0.8-1.3-1.1-2-1.5C596.1,317.8,592.9,316.3,593,316.2L593,316.2z"/>
					</g>
					<g>
						<path class="st18" d="M597.6,315.7c-0.3,0.9-1,1.5-1.8,1.8C596.3,316.9,597.1,316.1,597.6,315.7L597.6,315.7z"/>
					</g>
					<g>
						<path class="st18" d="M600,318.6c-0.7,1.3-4.5,5.4-5.9,3.5c0,0,0,0,0,0c1,1,2.3-0.4,3.2-0.9
							C598.3,320.4,599.2,319.4,600,318.6L600,318.6z"/>
					</g>
					<g>
						<path class="st18" d="M595.5,322.4c0.9,3.1,2.8,1.3,4.2-0.2c0.5-0.5,1-1.1,1.6-1.4c-0.4,0.6-0.9,1.1-1.4,1.6
							c-0.9,0.9-2.1,2.5-3.5,1.9C595.8,323.9,595.5,323,595.5,322.4L595.5,322.4z"/>
					</g>
					<g>
						<path class="st18" d="M597.9,323.7c0.1,0.6,0.4,1.2,0.8,1.6c0.1,0.1,0.2,0.1,0.4,0.1c0.7-0.1,1.7-0.2,2.3-0.6
							c0.1,0.1-0.4,0.4-0.5,0.4c-0.8,0.3-1.8,0.7-2.5,0.2C598.1,325,597.8,324.2,597.9,323.7L597.9,323.7z"/>
					</g>
				</g>
			</g>
			<path class="st18" d="M533.8,300.5c0,0,12.3-0.7,15.9,6.6c3.6,7.3,11.5,40,11.5,40l6.7-6l8.6,15.6c0,0-16.1,24.5-25.1,21.7
				C542.3,375.6,533.7,310.5,533.8,300.5z"/>
			<path class="st20" d="M562.7,354.5c2.2,3.9,4.4,7.8,6.6,11.7c-5.4,6.5-12.8,13.8-18,12.2c-8.1-2.5-16-55.7-17.4-73.4
				C543.3,321.6,553.5,337.7,562.7,354.5z"/>
			<g>
				<path class="st18" d="M533.9,300.9c-0.4,0.9,15.8,30.1,15.3,39.4c-0.5,9.3-6.6,23.6-6.1,25c0,0-27.8,0.2-45,0.4
					c-12.3-10.8-6.8-52-2.6-63.6c0,0,13.6-6.2,17-6.5C512.5,295.6,538.5,337.9,533.9,300.9z"/>
			</g>
			<g class="st21">
				<path class="st18" d="M494.8,308.6c0,0,3.1-2.7,6.7-5.7c0.3,0.4,0.5,0.9,0.8,1.3c-1.7,2.3-1.1,4.9-0.2,8.5
					c4.9,19.4,7.2,30.7,15.4,53.2c-10,0.2-7.4-0.4-19.5-0.3C485.8,354.9,490.6,320.1,494.8,308.6z"/>
			</g>
			<g>
				<g>
					<polygon class="st7" points="501,426.2 464.7,408.4 488.4,359.4 524.7,377.2 					"/>
					<polygon class="st22" points="501,426.2 464.7,408.4 488.4,359.4 524.7,377.2 					"/>
					<g>
						<path class="st13" d="M516.7,374.8l-20.4-10l1.5-3c0.1-0.3,0.5-0.4,0.8-0.3l19.3,9.4c0.3,0.1,0.4,0.5,0.3,0.8L516.7,374.8z"/>
						<path class="st13" d="M510.4,361.7c-1.7-0.8-3.7-0.2-4.5,1.4c-0.8,1.6,0,3.5,1.7,4.4c1.7,0.8,3.7,0.2,4.5-1.4
							C512.9,364.5,512.1,362.5,510.4,361.7z M508.4,365.9c-0.8-0.4-1.2-1.3-0.8-2.1c0.4-0.7,1.3-1,2.1-0.6c0.8,0.4,1.2,1.3,0.8,2.1
							C510.1,366,509.2,366.3,508.4,365.9z"/>
					</g>
				</g>
				<g>
					<path class="st14" d="M453,347.8c4.9,8.5,13.2,19.4,19.6,27.5c0,0,0,0,0.1,0.1c0.3,0.4,1.4,2,1.4,2c2.9,3.9,6.4,8.5,9.6,12.6
						c1.6,2.1,3.2,4,4.5,5.7c0,0,0.1,0.1,0.1,0.1c2.7,3.4,4.7,5.6,5,5.4c0.7-0.5-1.7-4.5-3.2-6.6c1.2,1.5,2.5,3.3,3.7,4.7
						c1.3,1.5,2.3,2.6,2.7,2.4c0.7-0.4-1.3-4.2-3.1-7c-0.2-0.3-0.4-0.6-0.6-0.9c0.2,0.2,0.4,0.5,0.6,0.7c2.1,2.7,5.9,8,6.5,7.5
						c0.9-0.6-3.1-7.6-3.8-8.7c0.7,1,4.7,7,5.5,6c0.3-0.4-1.1-2.8-2.5-5.1c-1.4-2.3-2.8-4.5-2.7-4.9c0.1-0.6,1.3,0.8,2.2,1.6
						c0.5,0.4,0.8,0.6,1,0.3c0.1-0.3-0.8-2-2.1-4.3c-3.6-6.1-10.3-16.7-10.6-17.1c0,0,0,0,0,0c-4.3-7.7-9.4-18.8-12.4-24.8
						c3.2-3.1,39.2-41.5,39.2-41.5s-11.4-9.5-28.8,4.4c-15.9,12.8-26.2,22.3-31.4,29C450.4,340.8,450.5,343.5,453,347.8z"/>
				</g>
				<path class="st18" d="M474.4,345c0.7,1.5,5.6,9.9,6.5,11.9c-5.3,3.2-15.2,9.8-20.5,13.1c-3-4.2-7.1-18.3-9.2-22
					c-2.5-4.3-0.8-7.2,2.2-11.1c5.2-6.7,15.5-16.2,31.4-29c17.3-13.9,28.8-4.4,28.8-4.4S528.9,313.4,474.4,345z"/>
			</g>
			<g>
				<g class="st21">
					<g>
						<path class="st23" d="M542.2,324.3c-6.8,4.3-13.4,9.6-18.3,16c-2.2,2.9-4,6.3-4.2,10c-0.1,2.7,0.8,6.1,3.5,7.2
							c3.2,1.2,6.1-1.6,7-4.5c1.1-3.5,0.6-7.6-0.2-11.1c-1.8-7.6-6.2-14.4-11.2-20.4c-6.2-7.5-13.2-14.3-20.9-20.3
							c-0.4-0.3-0.9,0.2-0.5,0.5c6,4.7,11.5,9.8,16.7,15.4c4.9,5.3,9.5,11.1,12.6,17.6c1.6,3.3,2.7,6.8,3.1,10.4
							c0.4,3.4,0.7,8.2-2.2,10.6c-1.5,1.3-3.7,1.6-5.2,0.2c-1.3-1.1-1.8-2.9-1.9-4.6c-0.2-3.6,1.4-7.1,3.5-10c2.4-3.3,5.4-6.3,8.5-9
							c3.2-2.8,6.6-5.3,10.2-7.6C543.1,324.7,542.7,324,542.2,324.3L542.2,324.3z"/>
					</g>
				</g>
				<g class="st21">
					<g>
						<path class="st23" d="M488.5,306.5c-0.8,15.7-10.8,29.9-25.4,35.8c-4,1.6-8.2,2.6-12.4,2.9c-0.5,0-0.5,0.8,0,0.8
							c15.9-1.2,29.9-11.4,35.8-26.3c1.7-4.2,2.6-8.7,2.8-13.3C489.3,306,488.6,306,488.5,306.5L488.5,306.5z"/>
					</g>
				</g>
				<g class="st21">
					<g>
						<path class="st23" d="M462.6,327.6c3.8,10.9,2.3,23.3-3.9,33.1c-0.3,0.4,0.4,0.8,0.7,0.4c6.4-9.9,7.9-22.6,4-33.7
							C463.2,326.9,462.5,327.1,462.6,327.6L462.6,327.6z"/>
					</g>
				</g>
				<g class="st21">
					<g>
						<path class="st23" d="M545,303.9c-0.9,3.5-0.2,7.5,0.4,11c0.8,4.7,1.9,9.3,3.2,13.8c1.1,4.1,2.6,8,3.9,12
							c1.4,4.2,2.8,8.5,4.9,12.5c2.6,4.8,6.2,8.8,10.2,12.4c0.4,0.3,0.9-0.2,0.5-0.5c-3.6-3.3-7-6.9-9.4-11.1
							c-2.2-3.7-3.6-7.8-4.9-11.9c-2.8-8.3-5.5-16.5-7.2-25.2c-0.5-2.5-0.9-4.9-1.1-7.4c-0.1-1.8-0.2-3.7,0.2-5.5
							C545.9,303.6,545.2,303.4,545,303.9L545,303.9z"/>
					</g>
				</g>
				<g class="st21">
					<g>
						<path class="st23" d="M573.5,356.1c-4.6-2.6-10.2-1.4-14.3,1.5c-4.7,3.3-7.6,8.7-10.2,13.7c-0.2,0.4,0.4,0.8,0.7,0.4
							c2.4-4.6,5-9.5,9.1-12.8c3.9-3.2,9.7-4.7,14.3-2.1C573.5,357.1,573.9,356.4,573.5,356.1L573.5,356.1z"/>
					</g>
				</g>
			</g>
		</g>
	</g>
</g>
<g>
	<g>
		<g>
			<path class="st24" d="M642,292.4l-2.9-0.2l0.2-3.7c0.1-0.8-0.6-1.6-1.4-1.6c-0.8-0.1-1.6,0.6-1.6,1.4L636,292l-2.9-0.2
				c-0.7,0-1.3,0.5-1.3,1.2c0,0.7,0.5,1.3,1.2,1.3l2.9,0.2l-0.7,10.6c-0.1,0.8,0.6,1.6,1.4,1.6c0.8,0.1,1.6-0.6,1.6-1.4l0.7-10.6
				l2.9,0.2c0.7,0,1.3-0.5,1.3-1.2C643.2,293.1,642.6,292.5,642,292.4z"/>
			<path class="st24" d="M741.9,294.3l-2.9-0.2l0.2-3.7c0.1-0.8-0.6-1.6-1.4-1.6c-0.8-0.1-1.6,0.6-1.6,1.4l-0.2,3.7l-2.9-0.2
				c-0.7,0-1.3,0.5-1.3,1.2c0,0.7,0.5,1.3,1.2,1.3l2.9,0.2l-0.7,10.6c-0.1,0.8,0.6,1.6,1.4,1.6c0.8,0.1,1.6-0.6,1.6-1.4l0.7-10.6
				l2.9,0.2c0.7,0,1.3-0.5,1.3-1.2C743.1,294.9,742.6,294.3,741.9,294.3z"/>
			<path class="st24" d="M729.7,259.8l-2.9-0.2l0.2-3.7c0.1-0.8-0.6-1.6-1.4-1.6c-0.8-0.1-1.6,0.6-1.6,1.4l-0.2,3.7l-2.9-0.2
				c-0.7,0-1.3,0.5-1.3,1.2c0,0.7,0.5,1.3,1.2,1.3l2.9,0.2l-0.7,10.6c-0.1,0.8,0.6,1.6,1.4,1.6c0.8,0.1,1.6-0.6,1.6-1.4l0.7-10.6
				l2.9,0.2c0.7,0,1.3-0.5,1.3-1.2C730.9,260.4,730.4,259.8,729.7,259.8z"/>
			<path class="st24" d="M657,256.3l-2.9-0.2l0.2-3.7c0.1-0.8-0.6-1.6-1.4-1.6c-0.8-0.1-1.6,0.6-1.6,1.4l-0.2,3.7l-2.9-0.2
				c-0.7,0-1.3,0.5-1.3,1.2c0,0.7,0.5,1.3,1.2,1.3l2.9,0.2l-0.7,10.6c-0.1,0.8,0.6,1.6,1.4,1.6c0.8,0.1,1.6-0.6,1.6-1.4l0.7-10.6
				l2.9,0.2c0.7,0,1.3-0.5,1.3-1.2C658.2,256.9,657.7,256.3,657,256.3z"/>
			<path class="st0" d="M663.6,243.4c0,0,21.5-65.7,26.3-62.7c5.1,3.3,24.1,63.7,24.1,63.7l-21.6,5.1L663.6,243.4z"/>
			<path class="st25" d="M663.1,255.4c0.6-1.2,0.5-12.1,0.5-12.1s30.7-3.3,50.4,1l-0.1,12.5c0,0-13.6,8.5-15.2,8.3
				C697,265,663.1,255.4,663.1,255.4z"/>
			<path class="st26" d="M671.8,269.8c0,0.9-0.8,1.5-1.6,1.5l-1.9-0.1c-0.9,0-1.6-0.8-1.5-1.6l0.8-20.8c0-0.9,0.8-1.5,1.6-1.5
				l1.9,0.1c0.9,0,1.6,0.8,1.5,1.6L671.8,269.8z"/>
			<path class="st26" d="M684,270.1c0,0.9-0.8,1.6-1.6,1.5l-1.9-0.1c-0.9,0-1.6-0.8-1.5-1.6l0.8-20.8c0-0.9,0.8-1.5,1.6-1.5l1.9,0.1
				c0.9,0,1.6,0.8,1.5,1.6L684,270.1z"/>
			<path class="st26" d="M696.6,270.3c0,0.9-0.8,1.6-1.6,1.5l-1.9-0.1c-0.9,0-1.6-0.8-1.5-1.6l0.8-20.8c0-0.9,0.8-1.5,1.6-1.5
				l1.9,0.1c0.9,0,1.6,0.8,1.5,1.6L696.6,270.3z"/>
			<path class="st26" d="M709.1,270.9c0,0.9-0.8,1.5-1.6,1.5l-1.9-0.1c-0.9,0-1.6-0.8-1.5-1.6l0.8-20.8c0-0.9,0.8-1.5,1.6-1.5
				l1.9,0.1c0.9,0,1.6,0.8,1.5,1.6L709.1,270.9z"/>
			<path class="st0" d="M713.9,256.9c0,0-29.9-6.9-50.7-1.4l-12.8,13.2l1.1,13.1l72.6,1.8l2-10.2L713.9,256.9z"/>
			<path class="st24" d="M659.6,298.9l-8.7-4.7l0.5-12.5c0,0,31.3-4.9,72.6,1.8l-0.4,10.8l-22.9,9.2L659.6,298.9z"/>
			<path class="st26" d="M663.7,308.1c0,0.9-0.8,1.7-1.7,1.6l-2,0c-0.9,0-1.7-0.8-1.7-1.7l0.2-21.9c0-0.9,0.8-1.7,1.7-1.6l2,0
				c0.9,0,1.7,0.8,1.7,1.7L663.7,308.1z"/>
			<path class="st26" d="M676.6,308.1c0,0.9-0.8,1.7-1.7,1.6l-2,0c-0.9,0-1.7-0.8-1.7-1.7l0.2-21.9c0-0.9,0.8-1.7,1.7-1.6l2,0
				c0.9,0,1.7,0.8,1.7,1.7L676.6,308.1z"/>
			<path class="st26" d="M689.9,307.9c0,0.9-0.8,1.7-1.7,1.6l-2,0c-0.9,0-1.7-0.8-1.7-1.7l0.2-21.9c0-0.9,0.8-1.7,1.7-1.6l2,0
				c0.9,0,1.7,0.8,1.7,1.7L689.9,307.9z"/>
			<path class="st26" d="M703,308.2c0,0.9-0.8,1.7-1.7,1.6l-2,0c-0.9,0-1.7-0.8-1.7-1.7l0.2-21.9c0-0.9,0.8-1.7,1.7-1.6l2,0
				c0.9,0,1.7,0.8,1.7,1.7L703,308.2z"/>
			<path class="st26" d="M715.3,308.8c0,0.9-0.8,1.7-1.7,1.6l-2,0c-0.9,0-1.7-0.8-1.7-1.7l0.2-21.9c0-0.9,0.8-1.7,1.7-1.6l1.9,0
				c0.9,0,1.7,0.8,1.7,1.7L715.3,308.8z"/>
			<path class="st25" d="M634.9,305.3c0,0,13.8-10.6,16-11.2c2.2-0.6,18.2-4.7,72.8,0.1l14.6,12.9l-37.4,15.1L634.9,305.3z"/>
			<polygon class="st24" points="644.8,607.1 640.2,391.1 731,391.9 718.1,608.5 			"/>
			<polygon class="st25" points="640.2,391.1 633.6,374.1 737.7,376.9 731,391.9 			"/>
			<path class="st24" d="M633.6,374.1c0,0-4.8-44,1.3-68.8c0,0,40.4-7.6,103.3,1.8c0,0,6.3,41.6-0.5,69.7L633.6,374.1z"/>
			<path class="st24" d="M640.5,369.3c0,0-4.1-39.3,1.5-61.4c0,0,35.8-6.7,91.4,2c0,0,5.4,37.2-0.8,62.2L640.5,369.3z"/>
			
				<linearGradient id="SVGID_1_" gradientUnits="userSpaceOnUse" x1="662.9465" y1="388.1797" x2="763.3297" y2="388.1797" gradientTransform="matrix(0.9863 0.165 -0.165 0.9863 48.0186 -160.8339)">
				<stop  offset="0" style="stop-color:#F7A935"/>
				<stop  offset="1" style="stop-color:#EA5B2C"/>
			</linearGradient>
			<path class="st27" d="M733.4,309.9c-55.6-8.7-91.4-2-91.4-2c-5.5,22.1-1.5,61.4-1.5,61.4l92.1,2.8
				C738.8,347.1,733.4,309.9,733.4,309.9z M728.8,369.4l-84.4-2.6c0,0-3.7-36,1.4-56.3c0,0,32.8-6.1,83.8,1.8
				C729.6,312.4,734.5,346.5,728.8,369.4z"/>
			
				<radialGradient id="SVGID_00000171704723615119073770000014042211176767103872_" cx="710.8959" cy="377.798" r="53.5019" gradientTransform="matrix(0.9873 0.1588 -0.1588 0.9873 43.2039 -146.7771)" gradientUnits="userSpaceOnUse">
				<stop  offset="0.3731" style="stop-color:#FEFEFE"/>
				<stop  offset="0.4919" style="stop-color:#FAFAFB"/>
				<stop  offset="0.637" style="stop-color:#EDEFF1"/>
				<stop  offset="0.7958" style="stop-color:#D7DCE1"/>
				<stop  offset="0.9632" style="stop-color:#B9C3CC"/>
				<stop  offset="1" style="stop-color:#B1BDC6"/>
			</radialGradient>
			<path style="fill:url(#SVGID_00000171704723615119073770000014042211176767103872_);" d="M717.1,340.6
				c-1.3,17.1-16.8,29.8-34.6,28.4c-17.8-1.4-31.2-16.4-29.8-33.4c1.3-17.1,16.8-29.8,34.6-28.4
				C705.1,308.5,718.5,323.5,717.1,340.6z"/>
			<path class="st26" d="M714.2,340.3c1.2-15.5-10.9-29.1-27.1-30.4c-16.2-1.3-30.3,10.3-31.5,25.8c-1.2,15.5,10.9,29.1,27.1,30.4
				C698.9,367.4,713,355.8,714.2,340.3z M682.9,364.2c-15.1-1.2-26.4-13.9-25.3-28.3c1.1-14.5,14.3-25.2,29.3-24
				c15.1,1.2,26.4,13.9,25.3,28.3C711.1,354.6,698,365.4,682.9,364.2z"/>
			<path class="st26" d="M709.2,339.9c1-12.9-9.1-24.2-22.5-25.2c-13.4-1.1-25.1,8.5-26.1,21.4c-1,12.9,9.1,24.2,22.5,25.2
				C696.5,362.4,708.2,352.8,709.2,339.9z M683.1,360.8c-13.1-1-22.9-12-22-24.6c1-12.6,12.4-21.9,25.5-20.9c13.1,1,22.9,12,22,24.6
				C707.6,352.4,696.2,361.8,683.1,360.8z"/>
			<path class="st24" d="M691.6,175.4l-0.1-17c0-0.8-0.7-1.5-1.5-1.5c-0.8,0-1.5,0.7-1.5,1.5l0.1,17c-2,0.6-3.5,2.5-3.5,4.7
				c0,2.8,2.3,5,5,5c2.8,0,5-2.2,5-5C695.1,177.9,693.6,176,691.6,175.4z"/>
			<g>
				<defs>
					<polygon id="SVGID_00000000921437296938934130000017332230910902274184_" points="640.2,391.1 633.6,374.1 737.7,376.9 
						731,391.9 					"/>
				</defs>
				<clipPath id="SVGID_00000090274773497589675850000015816518381241052594_">
					<use xlink:href="#SVGID_00000000921437296938934130000017332230910902274184_"  style="overflow:visible;"/>
				</clipPath>
				<g style="clip-path:url(#SVGID_00000090274773497589675850000015816518381241052594_);">
					<g>
						<path class="st0" d="M653.4,406.2c0,0.9-0.7,1.7-1.7,1.7l-1.8,0.1c-1,0-1.8-0.7-1.8-1.6l-0.9-24.9c0-0.9,0.7-1.7,1.7-1.7
							l1.8-0.1c1,0,1.8,0.7,1.8,1.6L653.4,406.2z"/>
						<path class="st0" d="M665.9,406.2c0,0.9-0.8,1.7-1.8,1.7l-1.8,0c-1,0-1.8-0.7-1.8-1.7l0-24.9c0-0.9,0.8-1.7,1.8-1.7l1.8,0
							c1,0,1.8,0.7,1.8,1.7L665.9,406.2z"/>
						<path class="st0" d="M679.5,406.3c0,0.9-0.8,1.6-1.8,1.6l-1.8,0c-1,0-1.8-0.8-1.7-1.7l0.5-24.9c0-0.9,0.8-1.6,1.8-1.6l1.8,0
							c1,0,1.8,0.8,1.7,1.7L679.5,406.3z"/>
						<path class="st0" d="M693.9,406.6c-0.1,0.9-0.9,1.6-1.9,1.6l-1.8-0.1c-1-0.1-1.7-0.8-1.7-1.8l1.4-24.9c0-0.9,0.9-1.6,1.9-1.6
							l1.8,0.1c1,0.1,1.7,0.8,1.7,1.8L693.9,406.6z"/>
						<path class="st0" d="M707.8,407.1c-0.1,0.9-0.9,1.6-1.9,1.6l-1.8-0.1c-1-0.1-1.7-0.8-1.7-1.8l1.4-24.9
							c0.1-0.9,0.9-1.6,1.9-1.6l1.8,0.1c1,0.1,1.7,0.8,1.7,1.8L707.8,407.1z"/>
						<path class="st0" d="M721.3,408.7c-0.1,0.9-0.9,1.6-1.9,1.5l-1.8-0.2c-1-0.1-1.7-0.9-1.6-1.8l2.4-24.8
							c0.1-0.9,0.9-1.6,1.9-1.5l1.8,0.2c1,0.1,1.7,0.9,1.6,1.8L721.3,408.7z"/>
					</g>
				</g>
			</g>
			<g>
				<path class="st30" d="M655.8,500.3c0,0.9-0.7,1.7-1.6,1.7l-2.5,0.1c-0.9,0-1.7-0.7-1.7-1.6l-1.3-41.5c0-0.9,0.7-1.7,1.6-1.7
					l2.5-0.1c0.9,0,1.7,0.7,1.7,1.6L655.8,500.3z"/>
				<path class="st30" d="M667.4,500c0,0.9-0.7,1.7-1.6,1.7l-2.5,0.1c-0.9,0-1.7-0.7-1.7-1.7l-1-42.2c0-0.9,0.7-1.7,1.6-1.7l2.5-0.1
					c0.9,0,1.7,0.7,1.7,1.7L667.4,500z"/>
				<path class="st30" d="M706.6,502.6c-0.1,0.9,0.6,1.7,1.5,1.8l2.5,0.3c0.9,0.1,1.7-0.6,1.8-1.5l4.2-41.3c0.1-0.9-0.6-1.7-1.5-1.8
					l-2.5-0.3c-0.9-0.1-1.7,0.6-1.8,1.5L706.6,502.6z"/>
				<path class="st30" d="M695.3,501c-0.1,0.9,0.6,1.7,1.5,1.8l2.5,0.2c0.9,0.1,1.7-0.6,1.8-1.5l3.4-41.4c0.1-0.9-0.6-1.7-1.5-1.8
					l-2.5-0.2c-0.9-0.1-1.7,0.6-1.8,1.5L695.3,501z"/>
				<path class="st30" d="M684.1,500.3c-0.1,0.9,0.7,1.7,1.6,1.8l2.5,0.1c0.9,0.1,1.7-0.6,1.8-1.6l2.4-41.7c0.1-0.9-0.7-1.7-1.6-1.8
					l-2.5-0.2c-0.9-0.1-1.7,0.6-1.8,1.6L684.1,500.3z"/>
				<path class="st30" d="M672.6,499.3c0,0.9,0.7,1.7,1.6,1.7l2.5,0.1c0.9,0,1.7-0.7,1.7-1.6l1.5-41.5c0-0.9-0.7-1.7-1.6-1.7
					l-2.5-0.1c-0.9,0-1.7,0.7-1.7,1.6L672.6,499.3z"/>
			</g>
			<g>
				<path class="st30" d="M655.6,446c0,1-0.8,1.8-1.8,1.9l-2.7,0.1c-1,0-1.9-0.8-1.9-1.8l-1.4-45.5c0-1,0.8-1.8,1.8-1.9l2.7-0.1
					c1,0,1.9,0.8,1.9,1.8L655.6,446z"/>
				<path class="st30" d="M668.3,445.7c0,1-0.8,1.9-1.8,1.9l-2.7,0.1c-1,0-1.9-0.8-1.9-1.8l-1-46.2c0-1,0.8-1.9,1.8-1.9l2.7-0.1
					c1,0,1.9,0.8,1.9,1.8L668.3,445.7z"/>
				<path class="st30" d="M711.3,448.6c-0.1,1,0.6,1.9,1.6,2l2.7,0.3c1,0.1,1.9-0.6,2-1.6l4.6-45.2c0.1-1-0.6-1.9-1.6-2l-2.7-0.3
					c-1-0.1-1.9,0.6-2,1.6L711.3,448.6z"/>
				<path class="st30" d="M698.9,446.8c-0.1,1,0.7,1.9,1.7,2l2.7,0.2c1,0.1,1.9-0.7,2-1.7L709,402c0.1-1-0.7-1.9-1.7-2l-2.7-0.2
					c-1-0.1-1.9,0.7-2,1.7L698.9,446.8z"/>
				<path class="st30" d="M686.7,446.1c-0.1,1,0.7,1.9,1.7,1.9l2.7,0.2c1,0.1,1.9-0.7,1.9-1.7l2.6-45.7c0.1-1-0.7-1.9-1.7-1.9
					l-2.7-0.2c-1-0.1-1.9,0.7-1.9,1.7L686.7,446.1z"/>
				<path class="st30" d="M674,444.9c0,1,0.8,1.8,1.8,1.9l2.7,0.1c1,0,1.9-0.7,1.9-1.7l1.6-45.5c0-1-0.8-1.8-1.8-1.9l-2.7-0.1
					c-1,0-1.9,0.7-1.9,1.8L674,444.9z"/>
			</g>
			<g>
				<g>
					<g>
						<path class="st26" d="M684.6,318.2c0,0.3-0.3,0.6-0.6,0.6l0,0c-0.3,0-0.6-0.3-0.6-0.6l-0.2-7.2c0-0.3,0.3-0.6,0.6-0.6l0,0
							c0.3,0,0.6,0.3,0.6,0.6L684.6,318.2z"/>
						<path class="st26" d="M685.6,364.5c0,0.3-0.3,0.6-0.6,0.6l0,0c-0.3,0-0.6-0.3-0.6-0.6l-0.2-7.2c0-0.3,0.3-0.6,0.6-0.6l0,0
							c0.3,0,0.6,0.3,0.6,0.6L685.6,364.5z"/>
					</g>
					<g>
						<path class="st26" d="M704.3,338.1c-0.3,0-0.6-0.3-0.6-0.6l0,0c0-0.3,0.3-0.6,0.6-0.6l7.3-0.1c0.3,0,0.6,0.3,0.6,0.6l0,0
							c0,0.3-0.3,0.6-0.6,0.6L704.3,338.1z"/>
						<path class="st26" d="M657.2,338.8c-0.3,0-0.6-0.3-0.6-0.6l0,0c0-0.3,0.3-0.6,0.6-0.6l7.3-0.1c0.3,0,0.6,0.3,0.6,0.6l0,0
							c0,0.3-0.3,0.6-0.6,0.6L657.2,338.8z"/>
					</g>
				</g>
				<g>
					<g>
						<path class="st26" d="M698.6,324.1c-0.2,0.2-0.6,0.2-0.9,0l0,0c-0.2-0.2-0.3-0.6,0-0.9l5.1-5.2c0.2-0.2,0.6-0.2,0.9,0l0,0
							c0.3,0.2,0.3,0.6,0,0.9L698.6,324.1z"/>
						<path class="st26" d="M666,357.4c-0.2,0.2-0.6,0.2-0.9,0l0,0c-0.2-0.2-0.3-0.6,0-0.9l5.1-5.2c0.2-0.2,0.6-0.2,0.9,0l0,0
							c0.2,0.2,0.3,0.6,0,0.9L666,357.4z"/>
					</g>
					<g>
						<path class="st26" d="M698.3,351.8c-0.2-0.2-0.3-0.6,0-0.9l0,0c0.2-0.2,0.6-0.2,0.9,0l5.3,5c0.3,0.2,0.3,0.6,0,0.9l0,0
							c-0.2,0.2-0.6,0.2-0.9,0L698.3,351.8z"/>
						<path class="st26" d="M664.3,319.6c-0.2-0.2-0.3-0.6,0-0.9l0,0c0.2-0.2,0.6-0.2,0.9,0l5.3,5c0.2,0.2,0.3,0.6,0,0.9l0,0
							c-0.2,0.2-0.6,0.2-0.9,0L664.3,319.6z"/>
					</g>
				</g>
			</g>
			<g>
				<path class="st30" d="M656.7,612.1c0,0.9-0.6,1.7-1.4,1.7l-2.2,0.1c-0.8,0-1.5-0.7-1.5-1.6l-1.1-41.5c0-0.9,0.6-1.7,1.4-1.7
					l2.2-0.1c0.8,0,1.5,0.7,1.5,1.6L656.7,612.1z"/>
				<path class="st30" d="M667,611.8c0,0.9-0.6,1.7-1.4,1.7l-2.2,0.1c-0.8,0-1.5-0.7-1.5-1.7l-0.8-42.2c0-0.9,0.6-1.7,1.4-1.7
					l2.2-0.1c0.8,0,1.5,0.7,1.5,1.7L667,611.8z"/>
				<path class="st30" d="M701.8,614.4c-0.1,0.9,0.5,1.7,1.3,1.8l2.2,0.3c0.8,0.1,1.5-0.6,1.6-1.5l3.8-41.3c0.1-0.9-0.5-1.7-1.3-1.8
					l-2.2-0.3c-0.8-0.1-1.5,0.6-1.6,1.5L701.8,614.4z"/>
				<path class="st30" d="M691.8,612.8c-0.1,0.9,0.5,1.7,1.4,1.8l2.2,0.2c0.8,0.1,1.5-0.6,1.6-1.5l3-41.4c0.1-0.9-0.5-1.7-1.4-1.8
					l-2.2-0.2c-0.8-0.1-1.5,0.6-1.6,1.5L691.8,612.8z"/>
				<path class="st30" d="M681.8,612.1c0,0.9,0.6,1.7,1.4,1.8l2.2,0.1c0.8,0.1,1.5-0.6,1.6-1.6l2.1-41.7c0-0.9-0.6-1.7-1.4-1.8
					l-2.2-0.2c-0.8-0.1-1.5,0.6-1.6,1.6L681.8,612.1z"/>
				<path class="st30" d="M671.6,611.1c0,0.9,0.6,1.7,1.4,1.7l2.2,0.1c0.8,0,1.5-0.7,1.5-1.6l1.3-41.5c0-0.9-0.6-1.7-1.4-1.7
					l-2.2-0.1c-0.8,0-1.5,0.7-1.5,1.6L671.6,611.1z"/>
			</g>
			<g>
				<path class="st30" d="M656.6,557.8c0,1-0.7,1.8-1.6,1.9l-2.4,0.1c-0.9,0-1.6-0.8-1.7-1.8l-1.3-45.5c0-1,0.7-1.8,1.6-1.9l2.4-0.1
					c0.9,0,1.6,0.8,1.7,1.8L656.6,557.8z"/>
				<path class="st30" d="M667.8,557.5c0,1-0.7,1.9-1.6,1.9l-2.4,0.1c-0.9,0-1.6-0.8-1.7-1.8l-0.9-46.2c0-1,0.7-1.9,1.6-1.9l2.4-0.1
					c0.9,0,1.6,0.8,1.7,1.8L667.8,557.5z"/>
				<path class="st30" d="M705.9,560.4c-0.1,1,0.6,1.9,1.4,2l2.4,0.3c0.9,0.1,1.7-0.6,1.8-1.6l4.1-45.2c0.1-1-0.6-1.9-1.4-2
					l-2.4-0.3c-0.9-0.1-1.7,0.6-1.8,1.6L705.9,560.4z"/>
				<path class="st30" d="M695,558.6c-0.1,1,0.6,1.9,1.5,2l2.4,0.2c0.9,0.1,1.7-0.7,1.7-1.7l3.3-45.3c0.1-1-0.6-1.9-1.5-2l-2.4-0.2
					c-0.9-0.1-1.7,0.7-1.7,1.7L695,558.6z"/>
				<path class="st30" d="M684.1,557.9c-0.1,1,0.6,1.9,1.5,1.9l2.4,0.2c0.9,0.1,1.7-0.7,1.7-1.7l2.3-45.7c0.1-1-0.6-1.9-1.5-1.9
					l-2.4-0.2c-0.9-0.1-1.7,0.7-1.7,1.7L684.1,557.9z"/>
				<path class="st30" d="M672.9,556.8c0,1,0.7,1.8,1.6,1.9l2.4,0.1c0.9,0,1.6-0.7,1.7-1.7l1.4-45.5c0-1-0.7-1.8-1.6-1.9l-2.4-0.1
					c-0.9,0-1.6,0.7-1.7,1.8L672.9,556.8z"/>
			</g>
		</g>
		<path class="st26" d="M631.6,620.3c0,0,5.6-13.7,9.9-15.3c2.6-0.9,78.5-0.3,83.6,1.3c5.1,1.6,9.4,15.2,9.4,15.2L631.6,620.3z"/>
		<path class="st25" d="M618.9,629c0,0,7.1-11.6,10.4-13.7c3.3-2.1,105.4-0.1,109.9,2.2c4.5,2.3,5.6,7,7.8,13.4L618.9,629z"/>
		<g>
			<path class="st26" d="M688.4,328.4l-4-7.9l-3.6,8.1l2.9-0.1l0.3,12.3c0,0.5,0.4,0.8,0.9,0.8c0.5,0,0.8-0.4,0.8-0.9l-0.3-12.3
				L688.4,328.4z"/>
			<path class="st26" d="M675,340l-6.9,5.4l8.6,1.9l-0.6-2.9l8.3-1.8c0.4-0.1,0.7-0.5,0.6-1c-0.1-0.4-0.5-0.7-1-0.6l-8.3,1.8
				L675,340z"/>
			<path class="st26" d="M687,341.1c0,1.1-0.8,2-1.9,2c-1.1,0-2-0.8-2-1.9c0-1.1,0.8-2,1.9-2C686.1,339.1,687,340,687,341.1z"/>
		</g>
	</g>
	<g>
		<g>
			<g>
				<g>
					<rect x="193" y="593.4" class="st1" width="194.6" height="35.7"/>
					<polygon class="st0" points="387.6,593.4 193,593.4 215.1,580.3 403.1,580.3 					"/>
					<g>
						<polygon class="st31" points="387.6,593.4 387.6,629.1 403.1,616.3 403.1,612.6 391,622.5 391,594.7 403.1,584.5 403.1,580.3 
													"/>
						<polygon class="st32" points="391,622.5 403.1,612.6 403.1,584.5 391,594.7 						"/>
					</g>
					<rect x="222.7" y="600.8" class="st31" width="142" height="23.8"/>
				</g>
			</g>
			<g>
				<g>
					<rect x="205.4" y="547.2" class="st13" width="159.8" height="41.7"/>
					<polygon class="st33" points="365.3,547.2 205.4,547.2 223.6,531.9 378.1,531.9 					"/>
					<g>
						<polygon class="st34" points="365.3,547.2 365.3,588.9 378.1,574 378.1,569.6 368.1,581.2 368.1,548.7 378.1,536.9 
							378.1,531.9 						"/>
						<polygon class="st32" points="368.1,581.2 378.1,569.6 378.1,536.9 368.1,548.7 						"/>
					</g>
				</g>
				<g>
					<g>
						<rect x="216.7" y="548.4" class="st35" width="6.6" height="40.5"/>
						<rect x="228.8" y="548.4" class="st35" width="3.6" height="40.5"/>
					</g>
					<g>
						<rect x="344.3" y="548.4" class="st35" width="6.6" height="40.5"/>
						<rect x="335.1" y="548.4" class="st35" width="3.6" height="40.5"/>
					</g>
				</g>
				<g>
					<g>
						<path class="st7" d="M243.6,574.1l-3.9-12.1h1.7l1.9,5.9c0.5,1.6,1,3.1,1.3,4.5h0c0.3-1.4,0.8-2.9,1.4-4.5l2-6h1.7l-4.3,12.1
							H243.6z"/>
						<path class="st7" d="M258.2,569.7c0,3.2-2.2,4.6-4.3,4.6c-2.3,0-4.2-1.7-4.2-4.5c0-2.9,1.9-4.6,4.3-4.6
							C256.5,565.3,258.2,567.1,258.2,569.7z M251.3,569.8c0,1.9,1.1,3.3,2.6,3.3c1.5,0,2.6-1.4,2.6-3.4c0-1.5-0.7-3.3-2.6-3.3
							C252.1,566.4,251.3,568.2,251.3,569.8z"/>
						<path class="st7" d="M266.4,573.8c-0.4,0.2-1.3,0.5-2.5,0.5c-2.6,0-4.3-1.8-4.3-4.4c0-2.7,1.8-4.6,4.7-4.6
							c0.9,0,1.8,0.2,2.2,0.4l-0.4,1.2c-0.4-0.2-1-0.4-1.8-0.4c-2,0-3.1,1.5-3.1,3.3c0,2,1.3,3.2,3,3.2c0.9,0,1.5-0.2,1.9-0.4
							L266.4,573.8z"/>
						<path class="st7" d="M273,574.1l-0.1-1.1h-0.1c-0.5,0.7-1.4,1.3-2.7,1.3c-1.8,0-2.7-1.2-2.7-2.5c0-2.1,1.9-3.2,5.2-3.2v-0.2
							c0-0.7-0.2-2-2-2c-0.8,0-1.6,0.3-2.3,0.6l-0.4-1c0.7-0.5,1.8-0.8,2.8-0.8c2.7,0,3.3,1.8,3.3,3.5v3.2c0,0.8,0,1.5,0.1,2.1H273z
							 M272.8,569.7c-1.7,0-3.7,0.3-3.7,2c0,1,0.7,1.5,1.5,1.5c1.1,0,1.8-0.7,2.1-1.5c0.1-0.2,0.1-0.3,0.1-0.5V569.7z"/>
						<path class="st7" d="M276.8,574.1c0-0.6,0.1-1.5,0.1-2.2v-10.5h1.6v5.4h0c0.6-1,1.6-1.6,3-1.6c2.2,0,3.7,1.8,3.7,4.4
							c0,3.1-2,4.6-3.9,4.6c-1.3,0-2.3-0.5-2.9-1.6h-0.1l-0.1,1.4H276.8z M278.4,570.7c0,0.2,0,0.4,0.1,0.6c0.3,1.1,1.2,1.8,2.4,1.8
							c1.6,0,2.6-1.3,2.6-3.3c0-1.7-0.9-3.2-2.6-3.2c-1.1,0-2.1,0.7-2.4,1.9c0,0.2-0.1,0.4-0.1,0.6V570.7z"/>
						<path class="st7" d="M294.3,571.8c0,0.9,0,1.7,0.1,2.4H293l-0.1-1.4h0c-0.4,0.7-1.3,1.6-2.9,1.6c-1.4,0-3-0.8-3-3.8v-5.1h1.6
							v4.8c0,1.6,0.5,2.8,1.9,2.8c1.1,0,1.8-0.7,2.1-1.4c0.1-0.2,0.1-0.5,0.1-0.8v-5.3h1.6V571.8z"/>
						<path class="st7" d="M296.9,561.4h1.6v12.7h-1.6V561.4z"/>
						<path class="st7" d="M305.9,574.1l-0.1-1.1h-0.1c-0.5,0.7-1.4,1.3-2.7,1.3c-1.8,0-2.7-1.2-2.7-2.5c0-2.1,1.9-3.2,5.2-3.2v-0.2
							c0-0.7-0.2-2-2-2c-0.8,0-1.6,0.3-2.3,0.6l-0.4-1c0.7-0.5,1.8-0.8,2.8-0.8c2.7,0,3.3,1.8,3.3,3.5v3.2c0,0.8,0,1.5,0.1,2.1
							H305.9z M305.7,569.7c-1.7,0-3.7,0.3-3.7,2c0,1,0.7,1.5,1.5,1.5c1.1,0,1.8-0.7,2.1-1.5c0.1-0.2,0.1-0.3,0.1-0.5V569.7z"/>
						<path class="st7" d="M309.8,568.2c0-1,0-1.9-0.1-2.7h1.4l0.1,1.7h0.1c0.4-1.2,1.3-1.9,2.4-1.9c0.2,0,0.3,0,0.4,0.1v1.5
							c-0.2,0-0.3-0.1-0.5-0.1c-1.1,0-1.9,0.8-2.1,2c0,0.2-0.1,0.5-0.1,0.7v4.6h-1.6V568.2z"/>
						<path class="st7" d="M316.7,565.5l1.9,5.1c0.2,0.6,0.4,1.3,0.6,1.8h0c0.2-0.5,0.3-1.2,0.6-1.8l1.7-5.1h1.7l-2.4,6.2
							c-1.1,3-1.9,4.5-3,5.4c-0.8,0.7-1.5,0.9-1.9,1l-0.4-1.3c0.4-0.1,0.9-0.4,1.4-0.8c0.4-0.3,1-0.9,1.3-1.8
							c0.1-0.2,0.1-0.3,0.1-0.4c0-0.1,0-0.2-0.1-0.4l-3.2-8H316.7z"/>
					</g>
				</g>
			</g>
			<g>
				<g>
					<rect x="217.8" y="507.8" class="st35" width="136.9" height="35.7"/>
					<polygon class="st36" points="354.7,507.8 217.8,507.8 233.4,494.7 365.7,494.7 					"/>
					<g>
						<polygon class="st37" points="354.7,507.8 354.7,543.5 365.7,530.7 365.7,527 357.2,536.9 357.2,509.1 365.7,498.9 
							365.7,494.7 						"/>
						<polygon class="st32" points="357.2,536.9 365.7,527 365.7,498.9 357.2,509.1 						"/>
					</g>
					<rect x="238.7" y="515.2" class="st13" width="99.9" height="23.8"/>
					<g>
						<path class="st7" d="M252.3,522.2c0.9-0.1,2-0.2,3.1-0.2c2.1,0,3.6,0.5,4.6,1.4c1,0.9,1.6,2.2,1.6,4.1c0,1.8-0.6,3.4-1.6,4.4
							c-1.1,1.1-2.8,1.6-5,1.6c-1,0-1.9-0.1-2.7-0.1V522.2z M253.8,532.2c0.4,0.1,0.9,0.1,1.5,0.1c3.1,0,4.8-1.7,4.8-4.8
							c0-2.7-1.5-4.4-4.6-4.4c-0.8,0-1.3,0.1-1.7,0.2V532.2z"/>
						<path class="st7" d="M265.1,523c0,0.5-0.4,0.9-0.9,0.9c-0.5,0-0.9-0.4-0.9-0.9c0-0.5,0.4-0.9,0.9-0.9
							C264.8,522,265.1,522.4,265.1,523z M263.5,533.4v-8.1h1.5v8.1H263.5z"/>
						<path class="st7" d="M273.2,533.1c-0.4,0.2-1.2,0.5-2.3,0.5c-2.5,0-4.1-1.7-4.1-4.2c0-2.5,1.7-4.3,4.4-4.3
							c0.9,0,1.6,0.2,2.1,0.4l-0.3,1.1c-0.4-0.2-0.9-0.4-1.7-0.4c-1.9,0-2.9,1.4-2.9,3.1c0,1.9,1.2,3,2.8,3c0.8,0,1.4-0.2,1.8-0.4
							L273.2,533.1z"/>
						<path class="st7" d="M276.9,522.9v2.3h2.1v1.1h-2.1v4.4c0,1,0.3,1.6,1.1,1.6c0.4,0,0.7-0.1,0.9-0.1l0.1,1.1
							c-0.3,0.1-0.7,0.2-1.3,0.2c-0.7,0-1.2-0.2-1.6-0.6c-0.4-0.4-0.6-1.2-0.6-2.1v-4.4h-1.3v-1.1h1.3v-2L276.9,522.9z"/>
						<path class="st7" d="M282.4,523c0,0.5-0.4,0.9-0.9,0.9c-0.5,0-0.9-0.4-0.9-0.9c0-0.5,0.4-0.9,0.9-0.9
							C282,522,282.4,522.4,282.4,523z M280.7,533.4v-8.1h1.5v8.1H280.7z"/>
						<path class="st7" d="M292,529.3c0,3-2.1,4.3-4.1,4.3c-2.2,0-3.9-1.6-3.9-4.2c0-2.7,1.8-4.3,4-4.3
							C290.4,525.1,292,526.8,292,529.3z M285.6,529.3c0,1.8,1,3.1,2.5,3.1c1.4,0,2.5-1.3,2.5-3.2c0-1.4-0.7-3.1-2.4-3.1
							C286.3,526.2,285.6,527.8,285.6,529.3z"/>
						<path class="st7" d="M293.9,527.5c0-0.8,0-1.5-0.1-2.2h1.3l0.1,1.3h0c0.4-0.8,1.3-1.5,2.7-1.5c1.1,0,2.9,0.7,2.9,3.5v4.9h-1.5
							v-4.7c0-1.3-0.5-2.4-1.9-2.4c-1,0-1.7,0.7-2,1.5c-0.1,0.2-0.1,0.4-0.1,0.7v4.9h-1.5V527.5z"/>
						<path class="st7" d="M307.7,533.4l-0.1-1h-0.1c-0.5,0.6-1.3,1.2-2.5,1.2c-1.6,0-2.5-1.2-2.5-2.3c0-2,1.7-3,4.9-3V528
							c0-0.7-0.2-1.9-1.8-1.9c-0.8,0-1.5,0.2-2.1,0.6l-0.3-1c0.7-0.4,1.6-0.7,2.7-0.7c2.5,0,3.1,1.7,3.1,3.3v3c0,0.7,0,1.4,0.1,2
							H307.7z M307.5,529.2c-1.6,0-3.4,0.3-3.4,1.8c0,1,0.6,1.4,1.4,1.4c1.1,0,1.7-0.7,2-1.4c0.1-0.2,0.1-0.3,0.1-0.5V529.2z"/>
						<path class="st7" d="M311.3,527.8c0-1,0-1.8-0.1-2.5h1.3l0.1,1.6h0.1c0.4-1.1,1.3-1.8,2.3-1.8c0.2,0,0.3,0,0.4,0.1v1.4
							c-0.2,0-0.3,0-0.5,0c-1,0-1.8,0.8-2,1.9c0,0.2-0.1,0.4-0.1,0.7v4.3h-1.5V527.8z"/>
						<path class="st7" d="M317.8,525.3l1.8,4.8c0.2,0.5,0.4,1.2,0.5,1.7h0c0.2-0.5,0.3-1.1,0.5-1.7l1.6-4.8h1.6l-2.2,5.8
							c-1.1,2.8-1.8,4.2-2.8,5.1c-0.7,0.6-1.4,0.9-1.8,1l-0.4-1.2c0.4-0.1,0.9-0.4,1.3-0.7c0.4-0.3,0.9-0.9,1.2-1.6
							c0.1-0.2,0.1-0.3,0.1-0.4c0-0.1,0-0.2-0.1-0.4l-3-7.5H317.8z"/>
					</g>
				</g>
			</g>
		</g>
		<g>
			<path class="st38" d="M351.6,496.9l-54.3,0.1l0,3.3l57.3-0.1l0,0C354.6,498.4,353.3,496.9,351.6,496.9z"/>
			<path class="st39" d="M231.1,500.6l76.3-0.2l-14.7-51.2c-0.8-2.6-3-4.4-5.5-4.4l-69,0.2c-1.5,0-2.6,1.6-2.2,3.2L231.1,500.6z"/>
			<path class="st40" d="M227.7,500.6l76.3-0.2l-14.7-51.2c-0.8-2.6-3-4.4-5.5-4.4l-69,0.2c-1.5,0-2.6,1.6-2.2,3.2L227.7,500.6z"/>
			<path class="st39" d="M250.2,470.4c0.5,2.4,3.1,4.3,5.9,4.3c2.8,0,4.7-1.9,4.3-4.3c-0.5-2.4-3.1-4.3-5.9-4.3
				C251.6,466,249.7,468,250.2,470.4z"/>
		</g>
	</g>
	<rect x="182.9" y="628.7" class="st3" width="589.5" height="3.2"/>
</g>
<g>
	<g>
		<g>
			<text transform="matrix(1 0 0 1 311.2377 339.8951)" class="st7 st41 st42">E N G L I S H</text>
		</g>
	</g>
	<g>
		<g>
			<path class="st7" d="M334.3,358h2v1h-2V358z"/>
			<path class="st7" d="M344.8,353.1h1.2v6.5h3.8v1.2h-5V353.1z"/>
			<path class="st7" d="M354.9,353.1h5.1v1.2h-3.9v2.1h3.5v1.2h-3.5v2.1h4v1.2h-5.3V353.1z"/>
			<path class="st7" d="M364.4,360.8l3.4-8h0.1l3.4,8h-1.4l-2.4-6.1l0.9-0.6l-2.8,6.7H364.4z M366.6,358h2.6l0.4,1h-3.4L366.6,358z"
				/>
			<path class="st7" d="M378.2,353.1c0.4,0,0.8,0.1,1.2,0.2c0.3,0.1,0.6,0.3,0.9,0.5c0.3,0.2,0.4,0.5,0.6,0.8s0.2,0.7,0.2,1.1
				c0,0.3,0,0.6-0.1,0.9c-0.1,0.3-0.2,0.6-0.5,0.8c-0.2,0.2-0.5,0.4-0.8,0.6c-0.3,0.1-0.8,0.2-1.2,0.2h-1.1v2.7H376v-7.7H378.2z
				 M378.4,357c0.3,0,0.5,0,0.7-0.1c0.2-0.1,0.3-0.2,0.4-0.3s0.2-0.3,0.2-0.4s0.1-0.3,0.1-0.4c0-0.1,0-0.3-0.1-0.4
				c0-0.2-0.1-0.3-0.2-0.4c-0.1-0.1-0.2-0.3-0.4-0.3s-0.4-0.1-0.7-0.1h-1.1v2.6H378.4z M379.7,357.7l2,3.1h-1.4l-2-3.1L379.7,357.7z
				"/>
			<path class="st7" d="M393.3,361.1l-5.9-5.7l0.4,0.1l0,5.3h-1.3v-8h0.1l5.8,5.7l-0.3-0.1l0-5.4h1.2L393.3,361.1L393.3,361.1z"/>
			<path class="st7" d="M398.8,353.1h1.2v7.7h-1.2V353.1z"/>
			<path class="st7" d="M412.4,361.1l-5.9-5.7l0.4,0.1l0,5.3h-1.3v-8h0.1l5.8,5.7l-0.3-0.1l0-5.4h1.2L412.4,361.1L412.4,361.1z"/>
			<path class="st7" d="M424.1,360.1c-0.1,0.1-0.3,0.2-0.5,0.3c-0.2,0.1-0.4,0.2-0.6,0.3s-0.5,0.1-0.7,0.2s-0.5,0.1-0.7,0.1
				c-0.6,0-1.2-0.1-1.7-0.3c-0.5-0.2-0.9-0.5-1.3-0.8c-0.4-0.3-0.6-0.7-0.8-1.2c-0.2-0.5-0.3-1-0.3-1.5c0-0.7,0.1-1.3,0.3-1.8
				c0.2-0.5,0.5-0.9,0.9-1.3s0.8-0.6,1.3-0.8c0.5-0.2,1-0.3,1.5-0.3c0.5,0,0.9,0.1,1.3,0.2c0.4,0.1,0.7,0.2,1,0.4l-0.4,1.1
				c-0.1-0.1-0.3-0.2-0.5-0.2c-0.2-0.1-0.4-0.1-0.6-0.2c-0.2,0-0.4-0.1-0.6-0.1c-0.4,0-0.8,0.1-1.2,0.2c-0.4,0.1-0.7,0.3-0.9,0.5
				c-0.2,0.2-0.4,0.5-0.6,0.9c-0.1,0.3-0.2,0.7-0.2,1.2c0,0.4,0.1,0.8,0.2,1.1c0.1,0.3,0.3,0.6,0.6,0.8c0.2,0.2,0.5,0.4,0.9,0.5
				c0.3,0.1,0.7,0.2,1.1,0.2c0.2,0,0.5,0,0.7-0.1s0.4-0.1,0.6-0.2v-1.3h-1.5V357h2.7V360.1z"/>
			<path class="st7" d="M432.2,358h2v1h-2V358z"/>
		</g>
	</g>
</g>
</svg>
