<?xml version="1.0" encoding="utf-8"?>
<!-- Generator: Adobe Illustrator 27.9.0, SVG Export Plug-In . SVG Version: 6.00 Build 0)  -->
<svg version="1.1" id="Capa_1" xmlns="http://www.w3.org/2000/svg" xmlns:xlink="http://www.w3.org/1999/xlink" x="0px" y="0px"
	 viewBox="0 0 967 725" style="enable-background:new 0 0 967 725;" xml:space="preserve">
<style type="text/css">
	.st0{fill:#EBEBEB;}
	.st1{fill:#E0E0E0;}
	.st2{fill:#E9505B;}
	.st3{opacity:0.8;}
	.st4{fill:#FFFFFF;}
	.st5{opacity:0.8;fill:#FFFFFF;}
	.st6{opacity:0.4;}
	.st7{fill:#010202;}
	.st8{fill:#455A64;}
	.st9{fill:#263239;}
	.st10{fill:#F8BC9E;}
	.st11{fill:#EC9A6E;}
	.st12{opacity:0.3;}
</style>
<g>
	<path class="st0" d="M598.2,567.2c5.1-2.8,11.6-3,16.7-0.3c5.2,2.7,8.8,8.1,9.4,13.8C613.7,580.8,603.2,578.3,598.2,567.2"/>
	<g>
		<path class="st0" d="M610.7,556.2c7.2,2.3,15.4,0.9,21.3-3.8c5.9-4.7,9.2-12.4,8.5-19.9C626.9,535.1,614.2,540.9,610.7,556.2"/>
		<g>
			<path class="st1" d="M564.2,574.3c0,0,0.2-0.1,0.7-0.3c0.5-0.2,1.1-0.4,1.9-0.7c1.7-0.6,4.2-1.4,7.2-2.4c6-2.1,14.3-5.1,23.3-9
				c4.5-2,8.7-3.9,12.4-5.9c3.7-1.9,7.1-3.8,9.8-5.4c2.7-1.7,4.8-3.1,6.2-4.3c1.4-1.1,2.1-1.8,2.1-1.8c0,0-0.2,0.2-0.5,0.5
				c-0.3,0.3-0.8,0.8-1.5,1.4c-1.3,1.2-3.5,2.7-6.1,4.4c-2.7,1.7-6,3.6-9.8,5.6c-3.8,1.9-8,3.9-12.4,5.9c-8.9,3.9-17.3,6.9-23.3,8.9
				c-3,1-5.5,1.7-7.2,2.2c-0.8,0.2-1.5,0.4-2,0.6C564.4,574.3,564.2,574.3,564.2,574.3z"/>
		</g>
	</g>
	<g>
		<path class="st1" d="M612,573.4c-0.1,0.1-1.3-0.8-3.4-1.9c-2.1-1.2-5.2-2.5-8.8-3.5c-3.6-1-6.9-1.3-9.3-1.4
			c-2.4-0.1-3.9,0-3.9-0.1c0,0,0.4-0.1,1-0.2c0.7-0.1,1.7-0.1,2.9-0.1c2.4,0,5.8,0.3,9.5,1.3c3.6,1,6.7,2.5,8.8,3.7
			c1.1,0.6,1.9,1.2,2.4,1.6C611.7,573.1,612,573.4,612,573.4z"/>
	</g>
</g>
<g>
	<path class="st0" d="M359.9,525.8c-2.6,6.9-1.5,15,2.9,20.9s11.7,9.5,19.1,9.1C379.8,542.5,374.6,529.9,359.9,525.8"/>
	<g>
		<path class="st1" d="M357.8,519.3c0.1,0,0.5,1.5,1.2,3.8c0.8,2.3,2,5.5,3.8,8.8c1.8,3.3,3.7,6.1,5.2,8c1.5,1.9,2.5,3,2.5,3.1
			c0,0-0.3-0.2-0.8-0.7c-0.5-0.5-1.2-1.2-2-2.2c-1.6-1.9-3.6-4.6-5.4-8c-1.8-3.3-3-6.5-3.6-8.9c-0.3-1.2-0.6-2.2-0.7-2.8
			C357.8,519.7,357.8,519.3,357.8,519.3z"/>
	</g>
</g>
<g>
	<path class="st0" d="M148.4,258.8c-4,10.6-2.3,23.2,4.4,32.4c6.7,9.2,18.2,14.6,29.5,14.1C179.2,284.7,171.3,265.1,148.4,258.8"/>
	<g>
		<path class="st1" d="M145.2,248.7c0,0,0.2,0.6,0.5,1.6c0.3,1,0.7,2.5,1.3,4.3c1.2,3.6,3.1,8.5,5.8,13.6c2.7,5.1,5.8,9.4,8.1,12.4
			c1.2,1.5,2.2,2.7,2.9,3.5c0.7,0.8,1.1,1.3,1,1.3c0,0-0.5-0.4-1.2-1.1c-0.8-0.8-1.8-1.9-3-3.4c-2.5-2.9-5.6-7.2-8.3-12.3
			c-2.7-5.1-4.6-10.1-5.7-13.8c-0.5-1.8-0.9-3.3-1.1-4.4C145.2,249.3,145.1,248.7,145.2,248.7z"/>
	</g>
</g>
<g>
	<path class="st0" d="M184.2,469.4c-5.7,4.6-8.9,12.2-8.2,19.5c0.7,7.3,5.3,14.1,11.8,17.5C192.8,493.9,194.8,480.4,184.2,469.4"/>
	<g>
		<path class="st1" d="M185.7,462.7c0.1,0-0.4,1.5-0.9,3.9c-0.5,2.4-1.1,5.7-1.2,9.5c-0.2,3.7,0.1,7.1,0.4,9.5
			c0.3,2.4,0.6,3.9,0.5,3.9c0,0-0.2-0.4-0.3-1c-0.2-0.7-0.4-1.6-0.6-2.9c-0.4-2.4-0.7-5.8-0.6-9.6c0.2-3.8,0.8-7.1,1.4-9.5
			c0.3-1.2,0.6-2.1,0.8-2.8C185.5,463.1,185.7,462.7,185.7,462.7z"/>
	</g>
</g>
<g>
	<path class="st0" d="M380.5,201.9c6.6,3.3,14.8,3,21.1-0.7c6.3-3.7,10.6-10.7,11-18C399.2,183.8,386.1,187.6,380.5,201.9"/>
	<g>
		<path class="st1" d="M373.8,203.3c0-0.1,1.5-0.3,3.9-0.8c2.4-0.5,5.7-1.4,9.1-2.8c3.4-1.4,6.4-3.1,8.5-4.4
			c2.1-1.3,3.3-2.2,3.3-2.1c0,0-0.3,0.3-0.8,0.7c-0.5,0.4-1.3,1-2.3,1.7c-2,1.4-5,3.1-8.5,4.6c-3.5,1.4-6.8,2.3-9.2,2.7
			c-1.2,0.2-2.2,0.4-2.9,0.4C374.2,203.3,373.8,203.3,373.8,203.3z"/>
	</g>
</g>
<g>
	<path class="st0" d="M353.1,199.9c9.5-2,17.7-9.1,21.2-18.1c3.5-9,2.1-19.7-3.5-27.6C357.5,166,347.1,180.7,353.1,199.9"/>
	<g>
		<path class="st1" d="M347.3,206.9c0,0,0.3-0.4,0.9-1.1c0.6-0.7,1.5-1.7,2.5-2.9c2-2.5,4.7-6.1,7.1-10.4c2.4-4.3,4.1-8.4,5.1-11.5
			c0.5-1.5,0.9-2.8,1.2-3.6c0.3-0.9,0.4-1.3,0.5-1.3c0,0-0.1,0.5-0.3,1.4c-0.2,0.9-0.5,2.2-1,3.7c-1,3.1-2.6,7.3-5,11.6
			c-2.4,4.3-5.1,7.9-7.3,10.4c-1.1,1.2-2,2.2-2.6,2.8C347.7,206.6,347.4,206.9,347.3,206.9z"/>
	</g>
</g>
<g>
	<path class="st0" d="M538,182.5c2.7,3.5,7.2,5.5,11.6,5.1c4.4-0.4,8.5-3.1,10.7-6.9C552.8,177.5,544.7,176.2,538,182.5"/>
	<g>
		<path class="st1" d="M534,181.5c0-0.2,3.5,1,8,1.3c4.5,0.3,8.1-0.5,8.1-0.4c0,0.1-0.9,0.4-2.3,0.6c-1.5,0.3-3.5,0.4-5.8,0.3
			c-2.3-0.1-4.3-0.5-5.7-1C534.8,182,534,181.6,534,181.5z"/>
	</g>
</g>
<g>
	<path class="st0" d="M792.2,215.1c7.1,1.9,15.1,0.1,20.6-4.7c5.5-4.8,8.4-12.5,7.3-19.8C807.1,193.8,794.9,200,792.2,215.1"/>
	<g>
		<path class="st1" d="M785.9,217.7c0-0.1,1.4-0.6,3.7-1.6c2.2-1,5.3-2.5,8.4-4.5c3.1-2.1,5.7-4.2,7.5-5.9c1.8-1.7,2.8-2.8,2.9-2.7
			c0,0-0.2,0.3-0.6,0.9c-0.4,0.5-1.1,1.3-2,2.2c-1.7,1.8-4.3,4-7.4,6.1c-3.2,2.1-6.2,3.5-8.5,4.4c-1.1,0.4-2.1,0.8-2.8,1
			C786.3,217.7,785.9,217.8,785.9,217.7z"/>
	</g>
</g>
<g>
	<path class="st0" d="M817.3,537.6c12.4-2.9,23.1-12.3,27.6-24.3c4.4-12,2.4-26.1-5.1-36.4C822.3,492.7,808.9,512.3,817.3,537.6"/>
	<g>
		<path class="st1" d="M809.8,546.9c0,0,0.4-0.5,1.2-1.4c0.8-0.9,1.9-2.2,3.2-3.9c1.3-1.7,2.8-3.7,4.4-6c1.6-2.3,3.2-5,4.7-7.8
			c1.5-2.9,2.8-5.7,3.9-8.3c1.1-2.6,1.9-5,2.6-7c0.7-2,1.1-3.7,1.4-4.8c0.3-1.2,0.5-1.8,0.5-1.8c0,0-0.1,0.7-0.3,1.8
			c-0.2,1.2-0.7,2.8-1.3,4.9c-0.6,2.1-1.4,4.5-2.5,7.1c-1.1,2.6-2.4,5.5-3.9,8.3c-1.6,2.9-3.2,5.5-4.8,7.9c-1.6,2.3-3.2,4.4-4.5,6
			c-1.4,1.6-2.5,2.9-3.4,3.8C810.3,546.5,809.8,546.9,809.8,546.9z"/>
	</g>
</g>
<g>
	<path class="st2" d="M673.6,404.2c-6.7-37.3-38.7-69.9-76.5-72.9c-20.6-1.7-41.3,4.8-61.8,2.3c-17.2-2.1-33.5-10.7-45-23.7
		c-16.9-19.3-22.7-46.7-40.6-65c-24.7-25.3-67.8-25.7-97.9-7.1c-30,18.6-48.2,52.1-56.5,86.5l-0.3,10.4c-1.8,35.6,7.6,77,28.2,108.8
		c20.9,32.2,34.7,45.4,72.9,68.6c32.4,19.6,95.9,28.3,133.7,29.2c37.9,0.9,76.8-10.4,105.3-35.4
		C663.7,480.9,680.3,441.5,673.6,404.2z"/>
	<g class="st3">
		<path class="st4" d="M673.6,404.2c-6.7-37.3-38.7-69.9-76.5-72.9c-20.6-1.7-41.3,4.8-61.8,2.3c-17.2-2.1-33.5-10.7-45-23.7
			c-16.9-19.3-22.7-46.7-40.6-65c-24.7-25.3-67.8-25.7-97.9-7.1c-30,18.6-48.2,52.1-56.5,86.5l-0.3,10.4
			c-1.8,35.6,7.6,77,28.2,108.8c20.9,32.2,34.7,45.4,72.9,68.6c32.4,19.6,95.9,28.3,133.7,29.2c37.9,0.9,76.8-10.4,105.3-35.4
			C663.7,480.9,680.3,441.5,673.6,404.2z"/>
	</g>
</g>
<g>
	
		<ellipse transform="matrix(0.1436 -0.9896 0.9896 0.1436 64.0365 1143.3862)" class="st2" cx="692.7" cy="534.7" rx="18.3" ry="18.3"/>
	
		<ellipse transform="matrix(0.1436 -0.9896 0.9896 0.1436 64.0365 1143.3862)" class="st5" cx="692.7" cy="534.7" rx="18.3" ry="18.3"/>
</g>
<g>
	<g>
		<path class="st2" d="M564.6,394.3c0.3,36.4-7.6,64.3-23.8,83.6c-16.2,19.3-38.5,29-66.7,29.3c-28.4,0.3-50.9-9.1-67.6-28
			c-16.7-19-25.3-46.7-25.6-83.1l-0.6-64.1c-0.3-36.3,7.6-64.2,23.8-83.6c16.2-19.4,38.5-29.2,66.9-29.5
			c28.2-0.3,50.7,9.1,67.4,28.2s25.3,46.8,25.6,83.1L564.6,394.3z M517.1,323.5c-0.2-22.9-4.2-39.9-12-50.8
			c-7.8-10.9-19.1-16.4-33.8-16.2c-14.8,0.1-25.9,5.8-33.4,16.9c-7.5,11.1-11.2,28.1-11,51.1l0.7,77.9c0.2,23.1,4.3,40.1,12.1,51.1
			c7.9,11,19.2,16.4,33.9,16.3c14.8-0.1,25.9-5.8,33.3-16.9c7.5-11.1,11.1-28.2,10.9-51.4L517.1,323.5z"/>
	</g>
	<g class="st6">
		<path class="st7" d="M564.6,394.3c0.3,36.4-7.6,64.3-23.8,83.6c-16.2,19.3-38.5,29-66.7,29.3c-28.4,0.3-50.9-9.1-67.6-28
			c-16.7-19-25.3-46.7-25.6-83.1l-0.6-64.1c-0.3-36.3,7.6-64.2,23.8-83.6c16.2-19.4,38.5-29.2,66.9-29.5
			c28.2-0.3,50.7,9.1,67.4,28.2s25.3,46.8,25.6,83.1L564.6,394.3z M517.1,323.5c-0.2-22.9-4.2-39.9-12-50.8
			c-7.8-10.9-19.1-16.4-33.8-16.2c-14.8,0.1-25.9,5.8-33.4,16.9c-7.5,11.1-11.2,28.1-11,51.1l0.7,77.9c0.2,23.1,4.3,40.1,12.1,51.1
			c7.9,11,19.2,16.4,33.9,16.3c14.8-0.1,25.9-5.8,33.3-16.9c7.5-11.1,11.1-28.2,10.9-51.4L517.1,323.5z"/>
	</g>
	<g>
		<path class="st2" d="M591.5,394c0.3,36.4-7.6,64.3-23.8,83.6c-16.2,19.3-38.5,29-66.7,29.3c-28.4,0.3-50.9-9.1-67.6-28
			c-16.7-19-25.3-46.7-25.6-83.1l-0.6-64.1c-0.3-36.3,7.6-64.2,23.8-83.6c16.2-19.4,38.5-29.2,66.9-29.5
			c28.2-0.3,50.7,9.1,67.4,28.2c16.7,19.1,25.3,46.8,25.6,83.1L591.5,394z M544.1,323.2c-0.2-22.9-4.2-39.9-12-50.8
			c-7.8-10.9-19.1-16.4-33.8-16.2c-14.8,0.1-25.9,5.8-33.4,16.9c-7.5,11.1-11.2,28.1-11,51.1l0.7,77.9c0.2,23.1,4.3,40.1,12.1,51.1
			c7.9,11,19.2,16.4,33.9,16.3c14.8-0.1,25.9-5.8,33.3-16.9c7.5-11.1,11.1-28.2,10.9-51.4L544.1,323.2z"/>
	</g>
	<g>
		<path class="st2" d="M407.3,335.5c0.1,0.1-6.2,2.6-14,5.5c-7.8,2.9-14.1,5.2-14.2,5c-0.1-0.1,6.2-2.6,14-5.5
			C400.9,337.6,407.3,335.4,407.3,335.5z"/>
	</g>
	<g>
		<path class="st2" d="M408.9,360.8c0.1,0.1-6.2,2.6-14,5.5c-7.8,2.9-14.1,5.2-14.2,5c-0.1-0.1,6.2-2.6,14-5.5
			C402.5,362.9,408.8,360.7,408.9,360.8z"/>
	</g>
	<g>
		<path class="st2" d="M410.4,386.1c0.1,0.1-6.2,2.6-14,5.5c-7.8,2.9-14.1,5.2-14.2,5c-0.1-0.1,6.2-2.6,14-5.5
			C404,388.3,410.4,386,410.4,386.1z"/>
	</g>
	<g>
		<path class="st2" d="M412,411.5c0.1,0.1-6.2,2.6-14,5.5c-7.8,2.9-14.1,5.2-14.2,5c-0.1-0.1,6.2-2.6,14-5.5
			C405.6,413.6,411.9,411.3,412,411.5z"/>
	</g>
	<g>
		<path class="st2" d="M413.5,436.8c0,0-0.3,0.2-1,0.5c-0.6,0.3-1.6,0.7-2.7,1.1c-2.3,0.9-5.5,2.1-9,3.5c-3.5,1.3-6.8,2.5-9.1,3.3
			c-1.2,0.4-2.1,0.7-2.8,0.9c-0.7,0.2-1,0.3-1,0.3c0,0,0.3-0.2,1-0.5c0.6-0.3,1.6-0.7,2.7-1.1c2.3-0.9,5.5-2.1,9-3.5
			c3.5-1.3,6.7-2.5,9.1-3.3c1.2-0.4,2.1-0.7,2.8-0.9C413.1,436.9,413.5,436.8,413.5,436.8z"/>
	</g>
	<g>
		<path class="st2" d="M420.8,460c0,0.1-1.2,0.6-3.2,1.4c-2,0.8-4.8,1.9-7.9,3c-3.1,1.2-5.9,2.2-7.9,2.9c-2,0.7-3.3,1.1-3.3,1
			c0-0.1,1.2-0.6,3.2-1.4c2-0.8,4.8-1.9,7.9-3c3.1-1.2,5.9-2.2,7.9-2.9C419.5,460.3,420.7,459.9,420.8,460z"/>
	</g>
	<g>
		<path class="st2" d="M436.2,481.2c0,0.1-1.1,0.6-2.8,1.3c-1.8,0.7-4.3,1.7-7,2.7c-2.7,1-5.2,1.9-7.1,2.6c-1.8,0.6-3,1-3,0.9
			c0-0.1,1.1-0.6,2.8-1.3c1.8-0.7,4.3-1.7,7-2.7c2.7-1,5.2-1.9,7.1-2.6C435.1,481.5,436.2,481.1,436.2,481.2z"/>
	</g>
	<g>
		<path class="st2" d="M462,495.1c0,0.1-1.1,0.6-2.8,1.3s-4.3,1.7-7,2.7c-2.7,1-5.2,1.9-7.1,2.6c-1.8,0.6-3,1-3,0.9s1.1-0.6,2.8-1.3
			c1.8-0.7,4.3-1.7,7-2.7c2.7-1,5.2-1.9,7.1-2.6C460.8,495.4,461.9,495.1,462,495.1z"/>
	</g>
	<g>
		<path class="st2" d="M539.5,441.1c0.1,0.1-8,3.9-17.9,8.4c-10,4.5-18.1,8-18.2,7.9c-0.1-0.1,8-3.9,17.9-8.4
			C531.4,444.5,539.5,441,539.5,441.1z"/>
	</g>
	<g>
		<path class="st2" d="M544.8,419.4c0.1,0.1-6.6,3.3-14.8,7c-8.2,3.7-15,6.6-15,6.5c-0.1-0.1,6.6-3.3,14.8-7
			C538,422.2,544.8,419.3,544.8,419.4z"/>
	</g>
	<g>
		<path class="st2" d="M547.2,395c0.1,0.1-6.6,3.3-14.8,7c-8.2,3.7-15,6.6-15,6.5c-0.1-0.1,6.6-3.3,14.8-7
			C540.4,397.8,547.2,394.9,547.2,395z"/>
	</g>
	<g>
		<path class="st2" d="M549.7,370.7c0.1,0.1-6.6,3.3-14.8,7c-8.2,3.7-15,6.6-15,6.5c-0.1-0.1,6.6-3.3,14.8-7
			C542.9,373.4,549.6,370.5,549.7,370.7z"/>
	</g>
	<g>
		<path class="st2" d="M552.1,346.3c0.1,0.1-6.6,3.3-14.8,7c-8.2,3.7-15,6.6-15,6.5c-0.1-0.1,6.6-3.3,14.8-7
			C545.3,349,552,346.2,552.1,346.3z"/>
	</g>
	<g>
		<path class="st2" d="M547.2,324.6c0.1,0.1-6.6,3.3-14.8,7c-8.2,3.7-15,6.6-15,6.5c-0.1-0.1,6.6-3.3,14.8-7
			C540.4,327.3,547.2,324.4,547.2,324.6z"/>
	</g>
	<g>
		<path class="st2" d="M547.2,301.2c0.1,0.1-6.6,3.3-14.8,7c-8.2,3.7-15,6.6-15,6.5c-0.1-0.1,6.6-3.3,14.8-7
			C540.4,304,547.2,301.1,547.2,301.2z"/>
	</g>
	<g>
		<path class="st2" d="M544.8,279.2c0.1,0.1-6.6,3.3-14.8,7c-8.2,3.7-15,6.6-15,6.5c-0.1-0.1,6.6-3.3,14.8-7
			C538,282,544.8,279.1,544.8,279.2z"/>
	</g>
	<g>
		<path class="st2" d="M523.9,263.9c0.1,0.1-4,2.1-9,4.3c-5,2.3-9.1,4-9.2,3.8c-0.1-0.1,4-2.1,9-4.3
			C519.7,265.5,523.9,263.8,523.9,263.9z"/>
	</g>
	<g>
		<path class="st2" d="M512.7,254.5c0.1,0.1-4,2.1-9,4.3c-5,2.3-9.1,4-9.2,3.8c-0.1-0.1,4-2.1,9-4.3
			C508.6,256.1,512.7,254.4,512.7,254.5z"/>
	</g>
	<g>
		<path class="st2" d="M408.5,304.8c0.1,0.1-6.2,2.6-14,5.5c-7.8,2.9-14.1,5.2-14.2,5c-0.1-0.1,6.2-2.6,14-5.5
			C402.1,306.9,408.5,304.7,408.5,304.8z"/>
	</g>
	<g>
		<path class="st2" d="M416.3,273.2c0.1,0.1-6.7,2.8-15.2,6c-8.4,3.2-15.3,5.6-15.3,5.5c-0.1-0.1,6.7-2.8,15.2-6
			C409.4,275.5,416.2,273.1,416.3,273.2z"/>
	</g>
	<g>
		<path class="st2" d="M436.6,242c0.1,0.1-8.5,3.5-19.2,7.5c-10.7,4-19.4,7.1-19.4,7c-0.1-0.1,8.5-3.5,19.2-7.5
			C427.9,245,436.6,241.8,436.6,242z"/>
	</g>
	<g>
		<path class="st4" d="M586.9,441.5c0,0-0.2,0-0.4-0.2c-0.3-0.1-0.7-0.3-1.3-0.5c-0.6-0.2-1.3-0.4-2.1-0.6c-0.9-0.1-1.9-0.4-3-0.4
			c-4.5-0.3-11.3,1.4-17.8,6.3c-3.3,2.4-6.4,5.6-9.5,9.3c-3,3.7-6,7.9-9.4,12.2c-3.4,4.2-7.3,8.5-12.2,11.8
			c-4.9,3.3-10.7,5.7-16.9,6.8c-6.2,1.1-12.4,0.8-18.2-0.6c-5.8-1.4-11-3.7-15.9-5.9c-4.9-2.3-9.5-4.6-13.9-6.5
			c-4.4-1.9-8.6-3.3-12.6-4.3c-4-0.9-7.7-1.3-10.9-1.3c-3.2,0-6,0.5-8.2,1.1c-2.2,0.7-3.8,1.4-4.9,1.9c-0.5,0.3-0.9,0.5-1.2,0.6
			c-0.3,0.1-0.4,0.2-0.4,0.2c0,0,0.1-0.1,0.4-0.3c0.3-0.2,0.7-0.4,1.2-0.7c1.1-0.6,2.7-1.3,4.9-2c2.2-0.6,5-1.2,8.3-1.2
			c3.3-0.1,7,0.3,11,1.2c4,0.9,8.3,2.3,12.7,4.3c4.4,1.9,9,4.2,13.9,6.5c4.9,2.2,10.1,4.5,15.8,5.8c5.7,1.4,11.9,1.7,18,0.6
			c6.1-1.1,11.8-3.5,16.7-6.7c4.9-3.3,8.7-7.5,12.1-11.7c3.4-4.2,6.4-8.4,9.4-12.1c3.1-3.7,6.2-7,9.6-9.4c6.6-4.9,13.5-6.5,18.1-6.2
			c1.2,0,2.2,0.3,3,0.4c0.8,0.3,1.6,0.4,2.1,0.7c0.5,0.2,1,0.4,1.3,0.5C586.8,441.4,587,441.4,586.9,441.5z"/>
	</g>
	<g>
		<path class="st4" d="M593.6,370.8c0,0.1-0.8,0.2-2.1,0.6c-1.3,0.4-3.1,1.3-5.1,2.7c-2,1.4-4.2,3.4-6.8,5.4c-2.6,2-5.7,4-9.1,5.6
			c-6.9,3.3-13.7,4.6-18.7,4.8c-1.2,0.1-2.4,0.1-3.3,0.1c-1,0-1.8-0.1-2.5-0.1c-0.6-0.1-1.2-0.1-1.6-0.2c-0.4,0-0.6-0.1-0.5-0.1
			c0,0,0.2,0,0.6,0c0.4,0,1,0,1.6,0.1c0.7,0,1.6,0,2.5,0c1-0.1,2.1,0,3.3-0.2c4.9-0.3,11.7-1.7,18.5-4.9c3.4-1.6,6.4-3.5,9-5.5
			c2.6-2,4.8-3.9,6.9-5.3c2.1-1.4,3.9-2.2,5.3-2.6c0.7-0.2,1.2-0.3,1.6-0.3C593.4,370.8,593.6,370.8,593.6,370.8z"/>
	</g>
	<g>
		<path class="st4" d="M455.4,395.3c0,0-0.2,0-0.6-0.1c-0.4-0.1-0.9-0.2-1.6-0.4c-1.4-0.4-3.4-1.2-5.7-2.5c-2.3-1.3-4.8-3.2-7.4-5.4
			c-2.7-2.2-5.5-4.7-8.7-7c-3.3-2.2-6.7-3.8-10-4.6c-3.3-0.8-6.4-1-9-0.9c-2.6,0.1-4.7,0.6-6.1,0.9c-1.4,0.4-2.2,0.6-2.2,0.6
			c0,0,0.2-0.1,0.5-0.2c0.4-0.1,0.9-0.4,1.6-0.5c1.4-0.4,3.5-0.9,6.1-1.1c2.6-0.2,5.8-0.1,9.2,0.8c3.4,0.8,6.9,2.4,10.2,4.6
			c3.3,2.3,6.1,4.8,8.8,7c2.6,2.2,5.1,4.1,7.3,5.5c2.2,1.4,4.2,2.1,5.5,2.6C454.6,395.1,455.4,395.3,455.4,395.3z"/>
	</g>
	<g>
		<path class="st4" d="M455.6,295.3c0,0-0.6,0.3-1.8,0.6c-0.6,0.2-1.3,0.4-2.1,0.6c-0.8,0.2-1.8,0.5-2.8,0.7
			c-1.1,0.2-2.2,0.5-3.5,0.6c-1.3,0.2-2.6,0.3-4,0.4c-2.9,0.2-6,0.2-9.3-0.1c-3.3-0.3-6.4-0.9-9.2-1.6c-1.4-0.4-2.7-0.7-3.9-1.2
			c-1.2-0.4-2.3-0.8-3.3-1.3c-1-0.4-1.9-0.8-2.7-1.2c-0.8-0.4-1.4-0.7-2-1c-1.1-0.6-1.6-0.9-1.6-1c0,0,0.6,0.2,1.7,0.8
			c0.5,0.3,1.2,0.6,2,0.9c0.8,0.3,1.7,0.8,2.7,1.1c1,0.4,2.1,0.8,3.3,1.2c1.2,0.4,2.5,0.7,3.9,1.1c2.8,0.7,5.8,1.2,9.1,1.6
			c3.3,0.3,6.4,0.3,9.2,0.2c1.4-0.1,2.8-0.2,4-0.4c1.3-0.1,2.4-0.3,3.5-0.5c1.1-0.2,2-0.4,2.8-0.6c0.8-0.2,1.5-0.4,2.1-0.5
			C454.9,295.4,455.6,295.3,455.6,295.3z"/>
	</g>
	<g>
		<path class="st4" d="M587.6,295c0,0-0.2-0.1-0.5-0.2c-0.3-0.2-0.7-0.4-1.2-0.7c-0.5-0.3-1.2-0.7-2-1.1c-0.8-0.4-1.6-0.9-2.7-1.3
			c-0.5-0.2-1-0.4-1.6-0.7c-0.6-0.2-1.2-0.4-1.8-0.6c-1.2-0.4-2.6-0.8-4-1.1c-2.8-0.6-6-1-9.3-1.1c-3.3,0-6.5,0.4-9.4,0.9
			c-1.4,0.3-2.8,0.6-4,1c-0.6,0.2-1.2,0.4-1.8,0.6c-0.6,0.2-1.1,0.4-1.6,0.6c-1,0.4-1.9,0.8-2.7,1.2c-0.8,0.4-1.5,0.7-2,1
			c-0.5,0.3-0.9,0.5-1.2,0.7c-0.3,0.2-0.4,0.2-0.5,0.2c0,0,0.1-0.1,0.4-0.3c0.3-0.2,0.7-0.5,1.2-0.8c0.5-0.3,1.2-0.7,2-1.1
			c0.8-0.4,1.7-0.9,2.7-1.3c0.5-0.2,1-0.4,1.6-0.7c0.6-0.2,1.2-0.4,1.8-0.6c1.2-0.5,2.6-0.8,4-1.1c2.9-0.6,6.1-1,9.5-1
			c3.4,0.1,6.6,0.5,9.5,1.2c1.4,0.4,2.8,0.7,4,1.2c0.6,0.2,1.2,0.4,1.8,0.6c0.6,0.2,1.1,0.5,1.6,0.7c1,0.4,1.9,0.9,2.7,1.3
			c0.8,0.4,1.4,0.8,1.9,1.2c0.5,0.3,0.9,0.6,1.2,0.8C587.5,294.9,587.6,295,587.6,295z"/>
	</g>
	<g>
		<path class="st4" d="M522.9,223.2c0,0-0.3,0.2-0.8,0.5c-0.6,0.3-1.3,0.7-2.2,1.2c-2,1-4.8,2.5-8.3,4.3
			c-7.1,3.5-17.1,8.3-28.8,11.3c-5.9,1.5-11.7,2.2-16.9,2.3c-5.3,0.1-10-0.4-13.9-1.2c-3.9-0.8-7-1.9-9-2.7c-1-0.4-1.8-0.8-2.3-1.1
			c-0.5-0.3-0.8-0.4-0.8-0.4c0,0,0.3,0.1,0.8,0.3c0.5,0.2,1.3,0.6,2.4,1c2.1,0.8,5.1,1.8,9,2.6c3.9,0.8,8.6,1.2,13.8,1.1
			c5.2-0.1,10.9-0.9,16.8-2.4c11.7-3,21.7-7.7,28.8-11.1c3.5-1.7,6.4-3.1,8.4-4.2c1-0.5,1.7-0.8,2.3-1.1
			C522.6,223.3,522.9,223.2,522.9,223.2z"/>
	</g>
</g>
<g>
	<g>
		<path class="st2" d="M310.5,407.5l35.4,1.5l-1.6,37.5l-35.4-1.5l-2.7,62.3l-46.5-2l2.7-62.3l-120.2-5.2l0.1-28.6l128-183.9
			l48.1,2.1L310.5,407.5z M188.8,402.2l75.2,3.3l5-113.6l-1.1-0.4l-4.2,8.1L188.8,402.2z"/>
	</g>
	<g class="st6">
		<path class="st7" d="M310.5,407.5l35.4,1.5l-1.6,37.5l-35.4-1.5l-2.7,62.3l-46.5-2l2.7-62.3l-120.2-5.2l0.1-28.6l128-183.9
			l48.1,2.1L310.5,407.5z M188.8,402.2l75.2,3.3l5-113.6l-1.1-0.4l-4.2,8.1L188.8,402.2z"/>
	</g>
	<g>
		<path class="st2" d="M340.1,408.8l35.4,1.5l-1.6,37.5l-35.4-1.5l-2.7,62.3l-46.5-2l2.7-62.3l-120.2-5.2l0.1-28.6l128-183.9
			l48.1,2.1L340.1,408.8z M218.4,403.5l75.2,3.3l5-113.6l-1.1-0.4l-4.2,8.1L218.4,403.5z"/>
	</g>
	<g>
		<g>
			<path class="st2" d="M172.4,415.9c0,0-0.4,0.3-1.1,0.6c-0.8,0.4-1.9,0.9-3.2,1.6c-2.7,1.3-6.5,3-10.8,4.8
				c-4.2,1.8-8.1,3.3-10.9,4.4c-1.4,0.5-2.6,1-3.4,1.2c-0.8,0.3-1.2,0.4-1.3,0.4c0,0,0.4-0.2,1.2-0.6c0.9-0.4,2-0.8,3.3-1.4
				c2.9-1.2,6.7-2.8,10.9-4.5c4.2-1.8,7.9-3.4,10.8-4.6c1.3-0.6,2.4-1,3.3-1.4C172,416.1,172.4,415.9,172.4,415.9z"/>
		</g>
		<g>
			<path class="st2" d="M189.7,384.2c0,0-0.6,0.3-1.6,0.8c-1,0.5-2.6,1.2-4.4,2.1c-3.8,1.7-9,4-14.8,6.5c-5.8,2.5-11.1,4.6-15,6.1
				c-1.9,0.8-3.5,1.3-4.6,1.7c-1.1,0.4-1.7,0.6-1.7,0.6c0,0,0.6-0.3,1.6-0.8c1.2-0.5,2.7-1.1,4.5-1.9c3.9-1.6,9.1-3.8,14.9-6.3
				c5.8-2.5,11-4.7,14.9-6.3c1.8-0.8,3.4-1.4,4.5-1.9C189,384.4,189.6,384.2,189.7,384.2z"/>
		</g>
		<g>
			<path class="st2" d="M210.7,356c0,0-0.6,0.3-1.7,0.8c-1.1,0.5-2.7,1.2-4.6,2.1c-3.9,1.7-9.4,4-15.5,6.5
				c-6.1,2.5-11.6,4.6-15.6,6.1c-2,0.8-3.6,1.3-4.8,1.7c-1.1,0.4-1.8,0.6-1.8,0.6c0,0,0.6-0.3,1.7-0.8c1.2-0.5,2.8-1.1,4.7-1.9
				c4.1-1.6,9.5-3.8,15.6-6.3c6-2.5,11.5-4.7,15.5-6.3c1.9-0.8,3.5-1.4,4.7-1.9C210,356.2,210.7,355.9,210.7,356z"/>
		</g>
		<g>
			<path class="st2" d="M294.9,388.6c0,0-0.4,0.3-1.1,0.6c-0.8,0.4-1.9,0.9-3.2,1.5c-2.7,1.2-6.5,2.9-10.8,4.6
				c-4.2,1.7-8.1,3.2-10.9,4.2c-1.4,0.5-2.6,0.9-3.4,1.2c-0.8,0.3-1.2,0.4-1.3,0.4c0,0,0.4-0.2,1.2-0.6c0.9-0.4,2-0.8,3.3-1.3
				c2.9-1.2,6.7-2.7,10.9-4.3c4.2-1.7,8-3.3,10.8-4.4c1.3-0.5,2.4-1,3.3-1.3C294.4,388.7,294.9,388.6,294.9,388.6z"/>
		</g>
		<g>
			<path class="st2" d="M291.5,446.8c0,0-0.4,0.3-1.1,0.6c-0.7,0.4-1.8,0.9-3.1,1.5c-2.6,1.2-6.3,2.9-10.5,4.6
				c-4.1,1.7-7.9,3.2-10.6,4.2c-1.4,0.5-2.5,0.9-3.3,1.2c-0.8,0.3-1.2,0.4-1.2,0.4c0,0,0.4-0.2,1.1-0.6c0.9-0.4,1.9-0.8,3.2-1.3
				c2.8-1.2,6.5-2.7,10.5-4.4c4-1.7,7.7-3.3,10.5-4.4c1.3-0.5,2.3-1,3.2-1.3C291,446.9,291.5,446.7,291.5,446.8z"/>
		</g>
		<g>
			<path class="st2" d="M291,467.1c0,0-0.4,0.3-1.1,0.6c-0.7,0.4-1.8,0.9-3.1,1.5c-2.6,1.2-6.3,2.9-10.5,4.6
				c-4.1,1.7-7.9,3.2-10.6,4.2c-1.4,0.5-2.5,0.9-3.3,1.2c-0.8,0.3-1.2,0.4-1.2,0.4s0.4-0.2,1.1-0.6c0.9-0.4,1.9-0.8,3.2-1.3
				c2.8-1.2,6.5-2.7,10.5-4.4c4-1.7,7.7-3.3,10.5-4.4c1.3-0.5,2.3-1,3.2-1.3C290.5,467.2,291,467.1,291,467.1z"/>
		</g>
		<g>
			<path class="st2" d="M290.5,487.5c0,0-0.4,0.3-1.1,0.6c-0.7,0.4-1.8,0.9-3.1,1.5c-2.6,1.2-6.3,2.9-10.5,4.6
				c-4.1,1.7-7.9,3.2-10.6,4.2c-1.4,0.5-2.5,0.9-3.3,1.2c-0.8,0.3-1.2,0.4-1.2,0.4c0,0,0.4-0.2,1.1-0.6c0.9-0.4,1.9-0.8,3.2-1.3
				c2.8-1.2,6.5-2.7,10.5-4.4c4-1.7,7.7-3.3,10.5-4.4c1.3-0.5,2.3-1,3.2-1.3C290.1,487.6,290.5,487.5,290.5,487.5z"/>
		</g>
		<g>
			<path class="st2" d="M295.5,367.1c0,0-0.4,0.3-1.1,0.6c-0.8,0.4-1.9,0.9-3.2,1.5c-2.7,1.2-6.5,2.9-10.8,4.6
				c-4.2,1.7-8.1,3.2-10.9,4.2c-1.4,0.5-2.6,0.9-3.4,1.2c-0.8,0.3-1.2,0.4-1.3,0.4c0,0,0.4-0.2,1.2-0.6c0.9-0.4,2-0.8,3.3-1.3
				c2.9-1.2,6.7-2.7,10.9-4.3c4.2-1.7,8-3.3,10.8-4.4c1.3-0.5,2.4-1,3.3-1.3C295,367.2,295.4,367.1,295.5,367.1z"/>
		</g>
		<g>
			<path class="st2" d="M296,345.6c0,0-0.4,0.3-1.1,0.6c-0.8,0.4-1.9,0.9-3.2,1.5c-2.7,1.2-6.5,2.9-10.8,4.6
				c-4.2,1.7-8.1,3.2-10.9,4.2c-1.4,0.5-2.6,0.9-3.4,1.2c-0.8,0.3-1.2,0.4-1.3,0.4c0,0,0.4-0.2,1.2-0.6c0.9-0.4,2-0.8,3.3-1.3
				c2.9-1.2,6.7-2.7,10.9-4.3c4.2-1.7,8-3.3,10.8-4.4c1.3-0.5,2.4-1,3.3-1.3C295.5,345.7,296,345.5,296,345.6z"/>
		</g>
		<g>
			<path class="st2" d="M296.6,324c0,0-0.4,0.2-1.1,0.6c-0.7,0.4-1.8,0.8-3.1,1.4c-2.6,1.2-6.2,2.8-10.3,4.4c-4,1.6-7.7,3-10.4,4
				c-1.3,0.5-2.4,0.9-3.2,1.1c-0.8,0.2-1.2,0.4-1.2,0.3c0,0,0.4-0.2,1.1-0.5c0.8-0.3,1.9-0.8,3.1-1.3c2.8-1.1,6.4-2.5,10.4-4.1
				c4-1.6,7.6-3.1,10.3-4.2c1.2-0.5,2.3-0.9,3.1-1.3C296.1,324.1,296.5,324,296.6,324z"/>
		</g>
		<g>
			<path class="st2" d="M299,303.9c0.1,0.1-2.3,1.2-5.3,2.3c-3,1.1-5.4,1.9-5.5,1.7c-0.1-0.1,2.3-1.2,5.3-2.3
				C296.5,304.6,298.9,303.8,299,303.9z"/>
		</g>
		<g>
			<path class="st2" d="M231.7,326.7c0,0-0.6,0.3-1.7,0.8c-1.1,0.5-2.7,1.2-4.6,2.1c-3.9,1.7-9.4,4-15.5,6.5
				c-6.1,2.5-11.6,4.6-15.6,6.1c-2,0.8-3.6,1.3-4.8,1.7c-1.1,0.4-1.8,0.6-1.8,0.6c0,0,0.6-0.3,1.7-0.8c1.2-0.5,2.8-1.1,4.7-1.9
				c4.1-1.6,9.5-3.8,15.6-6.3c6-2.5,11.5-4.7,15.5-6.3c1.9-0.8,3.5-1.4,4.7-1.9C231,326.9,231.7,326.7,231.7,326.7z"/>
		</g>
		<g>
			<path class="st2" d="M252.7,297.4c0,0-0.6,0.3-1.7,0.8c-1.1,0.5-2.7,1.2-4.6,2.1c-3.9,1.7-9.4,4-15.5,6.5
				c-6.1,2.5-11.6,4.6-15.6,6.1c-2,0.8-3.6,1.3-4.8,1.7c-1.1,0.4-1.8,0.6-1.8,0.6c0,0,0.6-0.3,1.7-0.8c1.2-0.5,2.8-1.1,4.7-1.9
				c4.1-1.6,9.5-3.8,15.6-6.3c6-2.5,11.5-4.7,15.5-6.3c1.9-0.8,3.5-1.4,4.7-1.9C252,297.6,252.6,297.4,252.7,297.4z"/>
		</g>
		<g>
			<path class="st2" d="M272.1,268.1c0,0-0.6,0.3-1.7,0.8c-1.1,0.5-2.7,1.2-4.6,2.1c-3.9,1.7-9.4,4-15.5,6.5
				c-6.1,2.5-11.6,4.6-15.6,6.1c-2,0.8-3.6,1.3-4.8,1.7c-1.1,0.4-1.8,0.6-1.8,0.6c0,0,0.6-0.3,1.7-0.8c1.2-0.5,2.8-1.1,4.7-1.9
				c4.1-1.6,9.5-3.8,15.6-6.3c6-2.5,11.5-4.7,15.5-6.3c1.9-0.8,3.5-1.4,4.7-1.9C271.4,268.3,272,268.1,272.1,268.1z"/>
		</g>
		<g>
			<path class="st2" d="M292.2,239.9c0,0-0.6,0.3-1.7,0.8c-1.1,0.5-2.7,1.2-4.6,2.1c-3.9,1.7-9.4,4-15.5,6.5
				c-6.1,2.5-11.6,4.6-15.6,6.1c-2,0.8-3.6,1.3-4.8,1.7c-1.1,0.4-1.8,0.6-1.8,0.6c0,0,0.6-0.3,1.7-0.8c1.2-0.5,2.8-1.1,4.7-1.9
				c4.1-1.6,9.5-3.8,15.6-6.3c6-2.5,11.5-4.7,15.5-6.3c1.9-0.8,3.5-1.4,4.7-1.9C291.6,240.1,292.2,239.9,292.2,239.9z"/>
		</g>
		<g>
			<path class="st4" d="M345.8,283c0,0-0.2,0.3-0.6,0.7c-0.4,0.4-1,1.1-1.9,1.9c-1.7,1.5-4.4,3.6-8.2,5.3c-3.8,1.7-8.6,3.1-14.1,3.2
				c-2.7,0.1-5.6-0.2-8.6-1c-2.9-0.7-5.8-1.9-8.7-3.2c-5.7-2.8-10.7-6-15.7-8.3c-4.9-2.3-9.8-3.5-13.9-3.6c-4.1-0.1-7.4,0.8-9.5,1.8
				c-1,0.5-1.8,1-2.3,1.3c-0.5,0.3-0.8,0.5-0.8,0.5c0,0,0.2-0.2,0.7-0.6c0.5-0.4,1.2-0.9,2.3-1.4c2.1-1.1,5.4-2.1,9.6-2
				c4.2,0.1,9.1,1.2,14.1,3.5c5,2.3,10.1,5.5,15.7,8.3c2.8,1.3,5.7,2.5,8.5,3.2c2.9,0.7,5.7,1,8.4,1c5.4-0.1,10.2-1.4,14-3.1
				c3.8-1.7,6.5-3.6,8.2-5.1c0.9-0.7,1.5-1.3,2-1.8C345.6,283.2,345.8,283,345.8,283z"/>
		</g>
		<g>
			<path class="st4" d="M331.1,230.6c0,0-0.5,0.3-1.3,0.8c-0.9,0.5-2.2,1.1-3.8,1.8c-1.6,0.7-3.7,1.4-5.9,2.1
				c-2.3,0.7-4.8,1.3-7.5,1.7c-2.7,0.4-5.3,0.7-7.7,0.8c-2.4,0.1-4.5,0-6.3-0.1c-1.8-0.1-3.2-0.3-4.2-0.5c-1-0.2-1.5-0.3-1.5-0.3
				c0,0,0.6,0,1.6,0.1c1,0.1,2.4,0.2,4.2,0.3c1.8,0.1,3.9,0.1,6.2,0c2.3-0.1,4.9-0.4,7.6-0.8c2.7-0.4,5.2-1,7.5-1.7
				c2.3-0.7,4.3-1.3,5.9-2c1.7-0.6,3-1.2,3.9-1.6C330.6,230.8,331.1,230.6,331.1,230.6z"/>
		</g>
		<g>
			<path class="st4" d="M256,348.2c0,0-0.4-0.4-1-1.1c-0.7-0.8-1.5-1.8-2.5-3c-2.1-2.5-5.2-5.9-8.9-9.3c-1.8-1.7-3.7-3.2-5.6-4.3
				c-1.9-1.1-3.7-1.7-5.3-2.1c-3.2-0.6-5.2,0.1-5.2,0c0,0,0.1-0.1,0.3-0.1c0.2-0.1,0.6-0.2,1-0.2c0.9-0.2,2.3-0.2,3.9,0
				c1.6,0.3,3.6,0.9,5.5,2c1.9,1.1,3.8,2.6,5.7,4.3c3.7,3.4,6.7,6.9,8.8,9.4c1,1.3,1.8,2.3,2.4,3.1C255.7,347.7,256,348.1,256,348.2
				z"/>
		</g>
		<g>
			<path class="st4" d="M340.4,380.1c0,0-0.1,0.1-0.4,0.3c-0.3,0.2-0.7,0.5-1.3,0.8c-1.1,0.7-2.8,1.5-5,2.4
				c-4.3,1.7-10.9,2.8-17.9,1.4c-7-1.4-12.6-5.1-15.9-8.3c-1.7-1.6-2.9-3.1-3.6-4.1c-0.4-0.5-0.6-1-0.8-1.2
				c-0.2-0.3-0.3-0.4-0.3-0.5c0,0,0.5,0.6,1.3,1.6c0.8,1,2,2.4,3.7,4c3.3,3.1,8.9,6.7,15.8,8.1c6.9,1.4,13.4,0.3,17.7-1.2
				c2.2-0.8,3.9-1.6,5-2.2C339.7,380.5,340.3,380.1,340.4,380.1z"/>
		</g>
		<g>
			<path class="st4" d="M371.2,447.1c0,0-0.1-0.2-0.3-0.5c-0.2-0.3-0.5-0.8-0.8-1.5c-0.7-1.3-1.9-3.1-3.6-5.4
				c-0.5-0.5-0.9-1.1-1.4-1.7c-0.3-0.3-0.5-0.6-0.8-0.9c-0.3-0.3-0.6-0.6-0.9-0.9c-0.6-0.6-1.2-1.2-1.9-1.9
				c-0.7-0.6-1.5-1.2-2.2-1.8c-3.1-2.5-7-5-11.6-6.9c-4.6-1.9-10-3.4-15.9-3.7c-5.9-0.3-12.3,0.6-18.4,3c-6.2,2.4-12.2,6.1-18.5,9.7
				c-3.2,1.8-6.4,3.5-9.9,4.9c-3.5,1.4-7.2,2.5-11.1,2.9c-3.9,0.4-7.7,0.1-11.4-0.7c-3.7-0.8-7.2-2.1-10.5-3.6
				c-6.6-3-12.5-7-17.9-10.9c-5.4-3.9-10.6-7.6-15.7-10.6c-5.1-3-10.2-5.3-15.1-6.4c-4.9-1.2-9.5-1.4-13.4-0.9
				c-4,0.4-7.3,1.6-9.8,2.8c-2.5,1.2-4.2,2.7-5.3,3.6c-0.5,0.5-0.9,0.9-1.2,1.2c-0.3,0.3-0.4,0.4-0.4,0.4s0.1-0.2,0.4-0.4
				c0.3-0.3,0.7-0.7,1.2-1.2c1.1-1,2.8-2.5,5.3-3.8c2.5-1.3,5.8-2.5,9.8-2.9c4-0.5,8.6-0.3,13.6,0.8c4.9,1.2,10.1,3.4,15.2,6.4
				c5.1,3,10.3,6.7,15.7,10.6c5.4,3.8,11.2,7.8,17.8,10.8c3.3,1.5,6.8,2.8,10.4,3.5c3.6,0.8,7.4,1.1,11.2,0.7
				c3.8-0.4,7.5-1.5,10.9-2.9c3.5-1.4,6.7-3.1,9.9-4.9c6.3-3.5,12.3-7.2,18.6-9.7c1.6-0.6,3.1-1.2,4.7-1.5c0.8-0.2,1.6-0.4,2.4-0.6
				c0.8-0.1,1.6-0.3,2.4-0.4c3.1-0.5,6.2-0.5,9.2-0.4c6,0.3,11.4,1.8,16,3.8c4.7,2,8.5,4.5,11.7,7c0.8,0.6,1.5,1.3,2.2,1.9
				c0.7,0.7,1.3,1.3,1.9,1.9c0.3,0.3,0.6,0.6,0.9,0.9c0.3,0.3,0.5,0.6,0.8,0.9c0.5,0.6,1,1.2,1.4,1.7c1.7,2.3,2.9,4.1,3.5,5.4
				c0.3,0.6,0.6,1.1,0.8,1.5C371.1,447,371.2,447.1,371.2,447.1z"/>
		</g>
		<g>
			<path class="st4" d="M339.2,491.3c0,0-0.2,0.1-0.5,0.1c-0.4,0.1-0.9,0.2-1.6,0.3c-0.7,0.1-1.5,0.3-2.5,0.4
				c-1,0.1-2.1,0.3-3.3,0.3c-0.6,0-1.3,0.1-1.9,0.1c-0.7,0-1.4,0-2.1,0c-1.5,0-3-0.1-4.6-0.3c-3.3-0.4-6.8-1-10.4-2
				c-3.6-1.1-7-2.5-9.9-3.9c-1.4-0.8-2.8-1.5-4.1-2.3c-0.6-0.4-1.2-0.7-1.8-1.1c-0.6-0.4-1.1-0.8-1.6-1.1c-1-0.7-1.9-1.4-2.7-2
				c-0.8-0.6-1.4-1.2-1.9-1.6c-0.5-0.4-0.8-0.8-1.2-1.1c-0.3-0.3-0.4-0.4-0.4-0.4c0,0,0.2,0.1,0.5,0.3c0.3,0.3,0.7,0.6,1.2,1
				c0.5,0.5,1.2,1,2,1.6c0.8,0.6,1.6,1.3,2.7,1.9c0.5,0.3,1,0.7,1.6,1.1c0.6,0.4,1.2,0.7,1.8,1.1c1.2,0.8,2.6,1.5,4,2.2
				c2.9,1.4,6.2,2.8,9.8,3.8c3.6,1,7.1,1.7,10.3,2.1c1.6,0.1,3.2,0.3,4.6,0.3c0.7,0,1.4,0.1,2.1,0c0.7,0,1.3,0,1.9,0
				c1.2,0,2.3-0.1,3.3-0.2c1-0.1,1.8-0.2,2.5-0.3c0.6-0.1,1.2-0.1,1.6-0.2C339,491.3,339.2,491.3,339.2,491.3z"/>
		</g>
	</g>
</g>
<g>
	<g>
		<path class="st2" d="M770,408l35.2-3.4l3.7,37.3l-35.2,3.4l6.1,62.1l-46.4,4.5l-6.1-62.1l-119.7,11.7l-3.9-28.3l100.9-200.1
			l47.9-4.7L770,408z M648.8,419.8l74.9-7.3l-11.1-113.2l-1.2-0.3l-3,8.6L648.8,419.8z"/>
	</g>
	<g class="st6">
		<path class="st7" d="M770,408l35.2-3.4l3.7,37.3l-35.2,3.4l6.1,62.1l-46.4,4.5l-6.1-62.1l-119.7,11.7l-3.9-28.3l100.9-200.1
			l47.9-4.7L770,408z M648.8,419.8l74.9-7.3l-11.1-113.2l-1.2-0.3l-3,8.6L648.8,419.8z"/>
	</g>
	<g>
		<path class="st2" d="M799.5,405.1l35.2-3.4l3.7,37.3l-35.2,3.4l6.1,62.1l-46.4,4.5l-6.1-62.1l-119.7,11.7l-3.9-28.3l100.9-200.1
			l47.9-4.7L799.5,405.1z M678.2,417l74.9-7.3l-11.1-113.2l-1.2-0.3l-3,8.6L678.2,417z"/>
	</g>
	<g>
		<g>
			<path class="st2" d="M634.5,435.7c0,0-0.4,0.3-1,0.8c-0.7,0.5-1.7,1.2-3,2c-2.5,1.7-6,3.9-10,6.2c-3.9,2.4-7.6,4.4-10.2,5.9
				c-1.3,0.7-2.4,1.3-3.1,1.7c-0.8,0.4-1.2,0.6-1.2,0.5c0,0,0.4-0.3,1.1-0.7c0.8-0.5,1.8-1.1,3.1-1.8c2.7-1.6,6.2-3.7,10.1-6
				c3.9-2.4,7.4-4.5,10.1-6.1c1.2-0.7,2.2-1.3,3.1-1.8C634.1,435.9,634.5,435.7,634.5,435.7z"/>
		</g>
		<g>
			<path class="st2" d="M647.1,401.9c0,0-0.5,0.4-1.5,1.1c-1,0.6-2.4,1.6-4.1,2.7c-3.5,2.2-8.4,5.2-13.8,8.5
				c-5.4,3.3-10.4,6.1-14,8.2c-1.8,1-3.3,1.8-4.3,2.4c-1,0.5-1.6,0.8-1.6,0.8c0,0,0.5-0.4,1.5-1c1.1-0.6,2.5-1.5,4.2-2.5
				c3.6-2.2,8.5-5.1,13.9-8.3c5.4-3.2,10.2-6.2,13.9-8.4c1.7-1,3.1-1.9,4.2-2.5C646.5,402.2,647.1,401.9,647.1,401.9z"/>
		</g>
		<g>
			<path class="st2" d="M663.9,371c0,0-0.5,0.4-1.5,1.1c-1,0.7-2.5,1.6-4.3,2.7c-3.7,2.3-8.8,5.3-14.4,8.6
				c-5.7,3.3-10.8,6.2-14.6,8.3c-1.9,1-3.4,1.8-4.5,2.4c-1.1,0.5-1.7,0.8-1.7,0.8c0,0,0.5-0.4,1.6-1c1.1-0.6,2.6-1.5,4.4-2.5
				c3.8-2.2,8.9-5.1,14.5-8.4c5.6-3.3,10.7-6.2,14.5-8.5c1.8-1,3.3-1.9,4.4-2.6C663.3,371.3,663.9,370.9,663.9,371z"/>
		</g>
		<g>
			<path class="st2" d="M751.9,391.4c0,0-0.4,0.3-1.1,0.8c-0.7,0.5-1.7,1.1-3,1.9c-2.5,1.6-6.1,3.8-10,6.1c-4,2.3-7.6,4.3-10.2,5.7
				c-1.3,0.7-2.4,1.3-3.2,1.6c-0.8,0.4-1.2,0.6-1.2,0.5c0,0,0.4-0.3,1.1-0.7c0.8-0.5,1.9-1.1,3.1-1.8c2.7-1.6,6.2-3.6,10.2-5.8
				c3.9-2.3,7.4-4.3,10.1-5.9c1.2-0.7,2.2-1.3,3.1-1.8C751.5,391.6,751.9,391.4,751.9,391.4z"/>
		</g>
		<g>
			<path class="st2" d="M756.7,449.5c0,0-0.3,0.3-1,0.8c-0.7,0.5-1.7,1.1-2.9,1.9c-2.4,1.6-5.9,3.7-9.7,6c-3.8,2.3-7.4,4.3-9.9,5.7
				c-1.3,0.7-2.3,1.2-3.1,1.6c-0.7,0.4-1.1,0.6-1.2,0.5c0,0,0.4-0.3,1.1-0.7c0.8-0.5,1.8-1.1,3-1.8c2.6-1.5,6-3.6,9.8-5.8
				c3.8-2.3,7.2-4.3,9.8-5.9c1.2-0.7,2.2-1.3,3-1.8C756.3,449.7,756.7,449.4,756.7,449.5z"/>
		</g>
		<g>
			<path class="st2" d="M759.1,469.7c0,0-0.3,0.3-1,0.8c-0.7,0.5-1.7,1.1-2.9,1.9c-2.4,1.6-5.9,3.7-9.7,6c-3.8,2.3-7.4,4.3-9.9,5.7
				c-1.3,0.7-2.3,1.2-3.1,1.6c-0.7,0.4-1.1,0.6-1.2,0.5c0,0,0.4-0.3,1.1-0.7c0.8-0.5,1.8-1.1,3-1.8c2.6-1.5,6-3.6,9.8-5.8
				c3.8-2.3,7.2-4.3,9.8-5.9c1.2-0.7,2.2-1.3,3-1.8C758.7,469.9,759.1,469.7,759.1,469.7z"/>
		</g>
		<g>
			<path class="st2" d="M761.5,490c0,0-0.3,0.3-1,0.8c-0.7,0.5-1.7,1.1-2.9,1.9c-2.4,1.6-5.9,3.7-9.7,6c-3.8,2.3-7.4,4.3-9.9,5.7
				c-1.3,0.7-2.3,1.2-3.1,1.6c-0.7,0.4-1.1,0.6-1.2,0.5c0,0,0.4-0.3,1.1-0.7c0.8-0.5,1.8-1.1,3-1.8c2.6-1.5,6-3.6,9.8-5.8
				c3.8-2.3,7.2-4.3,9.8-5.9c1.2-0.7,2.2-1.3,3-1.8C761.1,490.1,761.5,489.9,761.5,490z"/>
		</g>
		<g>
			<path class="st2" d="M749.4,370c0,0-0.4,0.3-1.1,0.8c-0.7,0.5-1.7,1.1-3,1.9c-2.5,1.6-6.1,3.8-10,6.1c-4,2.3-7.6,4.3-10.2,5.7
				c-1.3,0.7-2.4,1.3-3.2,1.6c-0.8,0.4-1.2,0.6-1.2,0.5c0,0,0.4-0.3,1.1-0.7c0.8-0.5,1.9-1.1,3.1-1.8c2.7-1.6,6.2-3.6,10.2-5.8
				c3.9-2.3,7.4-4.3,10.1-5.9c1.2-0.7,2.2-1.3,3.1-1.8C749,370.2,749.4,370,749.4,370z"/>
		</g>
		<g>
			<path class="st2" d="M747,348.7c0,0-0.4,0.3-1.1,0.8c-0.7,0.5-1.7,1.1-3,1.9c-2.5,1.6-6.1,3.8-10,6.1c-4,2.3-7.6,4.3-10.2,5.7
				c-1.3,0.7-2.4,1.3-3.2,1.6c-0.8,0.4-1.2,0.6-1.2,0.5c0,0,0.4-0.3,1.1-0.7c0.8-0.5,1.9-1.1,3.1-1.8c2.7-1.6,6.2-3.6,10.2-5.8
				c3.9-2.3,7.4-4.3,10.1-5.9c1.2-0.7,2.2-1.3,3.1-1.8C746.5,348.8,746.9,348.6,747,348.7z"/>
		</g>
		<g>
			<path class="st2" d="M744.5,327.3c0,0-0.3,0.3-1,0.7c-0.7,0.4-1.6,1.1-2.8,1.8c-2.4,1.5-5.8,3.6-9.5,5.8
				c-3.8,2.2-7.2,4.1-9.8,5.4c-1.3,0.7-2.3,1.2-3,1.5c-0.7,0.4-1.1,0.5-1.1,0.5c0,0,0.4-0.3,1-0.7c0.8-0.5,1.8-1,2.9-1.7
				c2.6-1.5,6-3.4,9.7-5.6c3.7-2.2,7.1-4.1,9.6-5.6c1.2-0.7,2.1-1.2,2.9-1.7C744.1,327.4,744.5,327.2,744.5,327.3z"/>
		</g>
		<g>
			<path class="st2" d="M744.1,307c0.1,0.1-2.1,1.5-4.9,3c-2.8,1.5-5.1,2.6-5.2,2.5c-0.1-0.1,2.1-1.5,4.9-3
				C741.7,308,744,306.9,744.1,307z"/>
		</g>
		<g>
			<path class="st2" d="M680.6,339c0,0-0.5,0.4-1.5,1.1c-1,0.7-2.5,1.6-4.3,2.7c-3.7,2.3-8.8,5.3-14.4,8.6
				c-5.7,3.3-10.8,6.2-14.6,8.3c-1.9,1-3.4,1.8-4.5,2.4c-1.1,0.5-1.7,0.8-1.7,0.8c0,0,0.5-0.4,1.6-1c1.1-0.6,2.6-1.5,4.4-2.5
				c3.8-2.2,8.9-5.1,14.5-8.4c5.6-3.3,10.7-6.2,14.5-8.5c1.8-1,3.3-1.9,4.4-2.6C680,339.3,680.6,339,680.6,339z"/>
		</g>
		<g>
			<path class="st2" d="M697.3,307.1c0,0-0.5,0.4-1.5,1.1c-1,0.7-2.5,1.6-4.3,2.7c-3.7,2.3-8.8,5.3-14.4,8.6
				c-5.7,3.3-10.8,6.2-14.6,8.3c-1.9,1-3.4,1.8-4.5,2.4c-1.1,0.5-1.7,0.8-1.7,0.8c0,0,0.5-0.4,1.6-1c1.1-0.6,2.6-1.5,4.4-2.5
				c3.8-2.2,8.9-5.1,14.5-8.4c5.6-3.3,10.7-6.2,14.5-8.5c1.8-1,3.3-1.9,4.4-2.6C696.7,307.3,697.2,307,697.3,307.1z"/>
		</g>
		<g>
			<path class="st2" d="M712.4,275.3c0,0-0.5,0.4-1.5,1.1c-1,0.7-2.5,1.6-4.3,2.7c-3.7,2.3-8.8,5.3-14.4,8.6
				c-5.7,3.3-10.8,6.2-14.6,8.3c-1.9,1-3.4,1.8-4.5,2.4c-1.1,0.5-1.7,0.8-1.7,0.8c0,0,0.5-0.4,1.6-1c1.1-0.6,2.6-1.5,4.4-2.5
				c3.8-2.2,8.9-5.1,14.5-8.4c5.6-3.3,10.7-6.2,14.5-8.5c1.8-1,3.3-1.9,4.4-2.6C711.8,275.6,712.3,275.3,712.4,275.3z"/>
		</g>
		<g>
			<path class="st2" d="M728.4,244.6c0,0-0.5,0.4-1.5,1.1c-1,0.7-2.5,1.6-4.3,2.7c-3.7,2.3-8.8,5.3-14.4,8.6
				c-5.7,3.3-10.8,6.2-14.6,8.3c-1.9,1-3.4,1.8-4.5,2.4c-1.1,0.5-1.7,0.8-1.7,0.8c0,0,0.5-0.4,1.6-1c1.1-0.6,2.6-1.5,4.4-2.5
				c3.8-2.2,8.9-5.1,14.5-8.4c5.6-3.3,10.7-6.2,14.5-8.5c1.8-1,3.3-1.9,4.4-2.6C727.8,244.9,728.4,244.6,728.4,244.6z"/>
		</g>
		<g>
			<path class="st4" d="M787.5,279.7c0,0-0.2,0.3-0.5,0.8c-0.3,0.5-0.9,1.2-1.6,2.1c-1.5,1.8-3.9,4.2-7.4,6.4
				c-3.5,2.2-8.1,4.3-13.5,5.2c-2.7,0.4-5.6,0.6-8.6,0.3c-3-0.3-6-1-9-2c-6-1.9-11.5-4.5-16.7-6c-5.2-1.6-10.2-2.1-14.2-1.6
				c-4.1,0.4-7.2,1.8-9.1,3.1c-0.9,0.7-1.7,1.2-2.1,1.6c-0.4,0.4-0.7,0.6-0.7,0.6c0,0,0.2-0.2,0.6-0.7c0.4-0.5,1.1-1,2-1.7
				c1.9-1.3,5-2.8,9.2-3.3c4.1-0.5,9.2-0.1,14.4,1.5c5.3,1.5,10.8,4.1,16.7,6c3,0.9,6,1.7,8.9,2c2.9,0.3,5.8,0.2,8.5-0.2
				c5.4-0.9,9.9-2.8,13.4-5c3.5-2.2,5.9-4.5,7.4-6.2c0.8-0.8,1.3-1.6,1.7-2C787.3,279.9,787.5,279.7,787.5,279.7z"/>
		</g>
		<g>
			<path class="st4" d="M765.5,230c0,0-0.4,0.4-1.2,1c-0.8,0.6-2,1.4-3.5,2.3c-1.5,0.9-3.4,1.9-5.6,2.9c-2.2,1-4.6,1.9-7.2,2.8
				c-2.6,0.8-5.2,1.4-7.5,1.8c-2.3,0.4-4.5,0.7-6.2,0.8c-1.8,0.1-3.2,0.1-4.2,0.1c-1,0-1.6-0.1-1.6-0.1c0,0,0.6-0.1,1.5-0.1
				c1,0,2.4-0.1,4.2-0.3c1.8-0.2,3.9-0.4,6.2-0.9c2.3-0.5,4.8-1.1,7.4-1.9c2.6-0.8,5-1.8,7.1-2.7c2.1-1,4-1.9,5.6-2.8
				c1.5-0.9,2.8-1.6,3.6-2.2C765,230.2,765.5,229.9,765.5,230z"/>
		</g>
		<g>
			<path class="st4" d="M707.7,356.9c0,0-0.4-0.3-1.1-0.9c-0.8-0.7-1.7-1.6-2.9-2.6c-2.5-2.2-6-5.1-10.1-7.9
				c-2.1-1.4-4.1-2.6-6.1-3.4c-2-0.8-3.9-1.2-5.5-1.3c-3.3-0.2-5.2,0.8-5.2,0.7c0,0,0.1-0.1,0.3-0.2c0.2-0.1,0.6-0.2,1-0.4
				c0.9-0.3,2.2-0.6,3.9-0.5c1.7,0,3.7,0.4,5.7,1.2c2.1,0.8,4.2,2,6.2,3.5c4.1,2.9,7.6,5.8,10,8.1c1.2,1.1,2.2,2.1,2.8,2.7
				C707.4,356.5,707.7,356.8,707.7,356.9z"/>
		</g>
		<g>
			<path class="st4" d="M795.7,376.7c0,0-0.1,0.1-0.4,0.4c-0.3,0.2-0.6,0.6-1.1,1c-1,0.8-2.5,1.9-4.6,3c-4,2.2-10.4,4.4-17.5,3.9
				c-7.2-0.4-13.2-3.3-16.9-6c-1.9-1.4-3.3-2.6-4.2-3.6c-0.5-0.5-0.8-0.9-1-1.1c-0.2-0.3-0.3-0.4-0.3-0.4c0,0,0.5,0.5,1.5,1.4
				c0.9,0.9,2.4,2.1,4.3,3.4c3.7,2.6,9.7,5.4,16.7,5.8c7,0.4,13.3-1.6,17.3-3.7c2-1.1,3.6-2.1,4.6-2.9
				C795.2,377.1,795.7,376.6,795.7,376.7z"/>
		</g>
		<g>
			<path class="st4" d="M835.7,438.6c0,0-0.1-0.1-0.4-0.4c-0.2-0.3-0.6-0.8-1-1.3c-0.9-1.2-2.3-2.8-4.3-4.8c-0.5-0.5-1.1-1-1.7-1.5
				c-0.3-0.3-0.6-0.5-0.9-0.8c-0.3-0.2-0.7-0.5-1-0.7c-0.7-0.5-1.4-1-2.2-1.6c-0.8-0.5-1.6-1-2.5-1.5c-3.4-2-7.6-3.9-12.5-5.2
				c-4.9-1.3-10.4-1.9-16.3-1.4c-5.9,0.5-12,2.3-17.8,5.5c-5.8,3.3-11.2,7.8-16.9,12.2c-2.9,2.2-5.9,4.4-9.1,6.3
				c-3.2,1.9-6.8,3.5-10.5,4.4c-3.8,1-7.6,1.2-11.4,0.9c-3.8-0.3-7.4-1.1-10.9-2.1c-7-2.1-13.3-5.2-19.2-8.3c-5.9-3.1-11.5-6-17-8.3
				c-5.5-2.2-10.8-3.8-15.8-4.3c-5-0.5-9.6,0-13.4,1c-3.9,1-7,2.6-9.3,4.2c-2.3,1.6-3.8,3.3-4.8,4.4c-0.4,0.6-0.8,1-1,1.3
				c-0.2,0.3-0.4,0.5-0.4,0.5s0.1-0.2,0.3-0.5c0.2-0.3,0.6-0.8,1-1.4c1-1.1,2.4-2.8,4.7-4.5c2.3-1.6,5.4-3.3,9.3-4.3
				c3.9-1.1,8.5-1.5,13.6-1.1c5.1,0.5,10.4,2,16,4.2c5.5,2.2,11.1,5.2,17.1,8.2c5.9,3,12.2,6.1,19.2,8.2c3.5,1,7.1,1.8,10.8,2
				c3.7,0.2,7.5,0.1,11.2-0.9c3.7-0.9,7.2-2.5,10.4-4.4c3.2-1.9,6.2-4,9.1-6.2c5.8-4.4,11.2-8.9,17-12.2c1.5-0.8,2.9-1.6,4.5-2.2
				c0.8-0.3,1.5-0.7,2.2-0.9c0.8-0.2,1.5-0.5,2.3-0.7c3-1,6.1-1.4,9.1-1.7c5.9-0.5,11.5,0.2,16.4,1.5c4.9,1.3,9.1,3.3,12.5,5.3
				c0.9,0.5,1.7,1,2.5,1.5c0.7,0.6,1.5,1.1,2.2,1.6c0.3,0.3,0.7,0.5,1,0.8c0.3,0.3,0.6,0.5,0.9,0.8c0.6,0.5,1.1,1,1.7,1.5
				c2,2,3.4,3.7,4.3,4.9c0.4,0.6,0.8,1,1,1.4C835.6,438.5,835.7,438.6,835.7,438.6z"/>
		</g>
		<g>
			<path class="st4" d="M810.2,486.9c0,0-0.2,0.1-0.5,0.2c-0.4,0.1-0.9,0.3-1.5,0.5c-0.7,0.2-1.5,0.5-2.4,0.7c-1,0.2-2,0.6-3.3,0.8
				c-0.6,0.1-1.2,0.2-1.9,0.4c-0.7,0.1-1.4,0.2-2.1,0.3c-1.4,0.2-3,0.3-4.6,0.4c-3.3,0.1-6.9,0-10.6-0.5c-3.7-0.6-7.2-1.4-10.4-2.5
				c-1.5-0.6-3-1.1-4.3-1.7c-0.7-0.3-1.3-0.6-1.9-0.9c-0.6-0.3-1.2-0.6-1.7-0.9c-1.1-0.5-2.1-1.1-2.9-1.6c-0.9-0.5-1.6-1-2.1-1.4
				c-0.5-0.4-1-0.7-1.3-0.9c-0.3-0.2-0.4-0.3-0.4-0.4s0.2,0.1,0.5,0.3c0.4,0.2,0.8,0.5,1.4,0.8c0.6,0.4,1.3,0.8,2.2,1.3
				c0.9,0.5,1.8,1,2.9,1.6c0.6,0.3,1.1,0.5,1.7,0.8c0.6,0.3,1.3,0.5,1.9,0.8c1.3,0.6,2.8,1.1,4.3,1.6c3.1,1,6.6,1.9,10.3,2.4
				c3.7,0.5,7.3,0.7,10.5,0.6c1.6-0.1,3.2-0.1,4.6-0.3c0.7-0.1,1.4-0.1,2.1-0.2c0.7-0.1,1.3-0.2,1.9-0.3c1.2-0.2,2.3-0.5,3.2-0.7
				c1-0.2,1.8-0.4,2.4-0.6c0.6-0.2,1.1-0.3,1.5-0.4C810,486.9,810.2,486.9,810.2,486.9z"/>
		</g>
	</g>
</g>
<g>
	<g>
		<g>
			<path class="st8" d="M589.9,331.9l-7.4-1.2L536.6,316l-26.8-7.8c-6.3-2.2-14.4-2.9-23.2,1.6c-12.7,6.5-47.7,39-47.7,39l25.2,26
				l-11.9,52.6c13.3,37.8,39.3,42.1,39.3,42.1s17.1,1.5,37.2-6.2c24.1-9.2,49.5-30.8,52.7-40.1c1.9-5.6,3.5-17.3,4.7-30.5l38.2-15.6
				l10.4-52.9L589.9,331.9z"/>
			<g>
				<path class="st9" d="M534,425.5c0,0-0.1,0.1-0.4,0.3c-0.3,0.2-0.6,0.5-1.1,0.8c-1,0.7-2.6,1.6-4.6,2.5c-4,1.7-10.3,3-17,1.6
					c-6.7-1.5-11.8-5.3-14.7-8.5c-1.5-1.6-2.5-3.1-3.1-4.2c-0.3-0.5-0.5-1-0.7-1.2c-0.1-0.3-0.2-0.4-0.2-0.5c0,0,0.4,0.6,1.1,1.6
					c0.7,1,1.7,2.4,3.3,4c3,3.1,8.1,6.8,14.6,8.2c6.5,1.4,12.7,0.2,16.7-1.4c2-0.8,3.6-1.6,4.6-2.3C533.5,425.9,534,425.5,534,425.5
					z"/>
			</g>
			<g>
				<path class="st9" d="M519.5,318.1c0,0,0,0.1,0.1,0.3c0.1,0.2,0.1,0.4,0.2,0.7c0.2,0.7,0.4,1.6,0.6,2.9c0.5,2.5,1.3,6.2,1.5,10.8
					c0.1,2.3,0.1,4.9-0.4,7.6c-0.5,2.7-1.4,5.5-3,8.2c-1.6,2.6-3.8,5.1-6.3,7.3c-2.5,2.2-5.2,4.3-8,6.4c-6,4.5-11.8,8.5-17,12.2
					c-5.2,3.7-9.8,7-13.4,9.8l-0.1,0.1l-0.1-0.1c-3.3-2.6-5.8-4.9-7.3-6.6c-0.8-0.8-1.4-1.5-1.7-2c-0.2-0.2-0.3-0.4-0.4-0.6
					c-0.1-0.1-0.1-0.2-0.1-0.2c0,0,0.2,0.3,0.6,0.7c0.4,0.5,1,1.1,1.8,2c1.6,1.6,4.1,3.9,7.4,6.5l-0.2,0c3.6-2.8,8.2-6.2,13.4-9.9
					c5.2-3.7,11-7.8,16.9-12.2c2.8-2.1,5.5-4.2,8-6.4c2.5-2.2,4.6-4.6,6.2-7.1c1.6-2.6,2.5-5.3,3-8c0.5-2.6,0.6-5.2,0.5-7.5
					c-0.2-4.6-0.9-8.3-1.3-10.8c-0.2-1.2-0.4-2.2-0.5-2.9c-0.1-0.3-0.1-0.6-0.1-0.8C519.5,318.2,519.5,318.1,519.5,318.1z"/>
			</g>
		</g>
		<g>
			<path class="st9" d="M718.8,342c10.7-9.2,14.4-25.8,8.5-38.7c-5-0.5-10.1-1-15.1-1.6c7.7-4,12.3-13.2,11-21.8
				c-8.2,8.8-22.3,11.4-33,6.1c-7.1-3.5-12.8-10-20.6-11.4c-7-1.2-14,2.1-20.7,4.5c-6.7,2.4-14.9,3.7-20.5-0.8
				c-4.4-3.5-5.8-9.8-5.5-15.4c0.3-5.7,1.9-11.2,2.3-16.9c0.7-11.1-4.1-22.3-12.3-29.9c-2.5-8.1-8.7-15-16.5-18.3
				c-9.5-4-21-2.5-29.1,3.8c-3.3,2.6-6.1,5.9-9.9,7.7c-4.2,2.1-9.2,2.1-13.8,3.2c-4.6,1.1-9.4,4.2-9.9,8.9l-1.8,9.6
				c-0.3,0.7-0.6,1.4-1,2c-3.9,6.8-11.9,11.3-13.6,19c-1,4.3,0.2,9-1.2,13.1c-1.9,5.5-7.8,8.6-10.6,13.7c-3.8,7-1.2,19.3,4.8,24.5
				c6.1,5.2,18.6,10.7,26.4,12.3c2.1-8.1,4-16.8,5.8-25.7c3.2,3.1,6.5,6,9.8,8.9c8.7,7.6,17.6,15.2,23.6,25
				c11.5,18.6,11.7,43.4,26.1,59.8c2.8,3.2,6.3,6.1,10.4,7.3c4.1,1.2,9,0.6,12-2.4c3.6-3.6,4-9.6,8-12.8c5.3-4.2,13-0.8,18.6,2.8
				c4.1,2.6,8.2,5.4,12.9,6.8c4.7,1.4,10.1,1.3,14-1.5c4-2.8,5.7-8.9,2.8-12.8c-1.1-1.6-2.8-2.7-4-4.3c-1.1-1.6-1.5-4.1,0.1-5.3
				c1.7-1.3,4.1,0,6,1c9,5.3,20.5,6.3,30.3,2.7c9.8-3.7,17.9-11.9,21.2-21.9C729.1,344.6,723.7,343.9,718.8,342z"/>
			<g>
				<path class="st9" d="M709.4,258.9c0,0,0.5,0.4,1.4,1.2c0.8,0.8,2.1,2.1,3.1,4.1c0.5,1,1,2.2,1.2,3.6c0.2,1.4,0.1,2.9-0.5,4.4
					c-0.6,1.5-1.7,3-3.3,3.9c-0.8,0.5-1.7,0.9-2.7,1c-1,0.1-2,0-3-0.4c-3.9-1.6-5.9-6.1-10.1-8.2c-4.1-2.2-9.4-2.3-14.5-1.2
					c-5.1,1.2-10,3.9-15,6.7c-5,2.8-10.3,5.8-16.5,6.9c-3,0.6-6.1,0.6-9.1-0.1c-1.5-0.3-2.9-0.9-4.2-1.6c-1.3-0.7-2.5-1.6-3.6-2.6
					c-2.1-2.1-3.6-4.6-4.6-7.2c-1-2.6-1.6-5.3-1.9-8c-0.6-5.3-0.1-10.4-0.1-15.1c0.1-4.7-0.2-9.1-1.3-12.9c-0.5-1.9-1.2-3.7-2-5.3
					c-0.8-1.6-1.7-3.1-2.6-4.4c-1.8-2.6-3.7-4.6-5.4-6c-1.7-1.5-3.2-2.4-4.1-3.1c-0.5-0.3-0.9-0.5-1.2-0.7c-0.3-0.2-0.4-0.2-0.4-0.2
					c0,0,0.1,0.1,0.4,0.2c0.3,0.2,0.7,0.4,1.2,0.6c1,0.6,2.5,1.5,4.2,3c1.7,1.4,3.7,3.4,5.5,6c0.9,1.3,1.8,2.8,2.6,4.4
					c0.8,1.6,1.5,3.4,2.1,5.3c1.1,3.9,1.4,8.3,1.4,13c0,4.7-0.5,9.8,0.1,15c0.3,2.6,0.9,5.3,1.9,7.8c1,2.6,2.4,5,4.4,7
					c1,1,2.2,1.9,3.4,2.5c1.3,0.7,2.6,1.2,4.1,1.5c2.9,0.6,5.9,0.6,8.9,0.1c6-1,11.3-4,16.3-6.8c5-2.8,9.9-5.6,15.2-6.8
					c2.6-0.6,5.2-0.9,7.8-0.7c1.3,0.1,2.5,0.3,3.7,0.6c1.2,0.4,2.3,0.7,3.4,1.3c4.4,2.2,6.4,6.7,10.1,8.2c1.8,0.8,3.8,0.5,5.3-0.5
					c1.5-0.9,2.6-2.3,3.2-3.8c0.6-1.4,0.7-2.9,0.5-4.3c-0.2-1.3-0.6-2.5-1.1-3.5c-1-2-2.2-3.3-3-4.1c-0.4-0.4-0.7-0.7-1-0.9
					C709.5,259,709.4,258.9,709.4,258.9z"/>
			</g>
			<g>
				<path class="st9" d="M536.4,320c0,0,0-0.2-0.1-0.5c0-0.3-0.1-0.8-0.3-1.4c-0.3-1.2-1-2.9-2.6-4.7c-1.6-1.8-3.9-3.5-7-4.9
					c-3.1-1.4-6.9-2.1-11-2.9c-4.1-0.8-8.9-1.7-13.1-4.5c-4.2-2.8-7.5-7.6-8.4-13.3c-0.9-5.6,1-12,5.3-16.5
					c4.4-4.5,10.6-6.7,15.6-10.7c1.2-1,2.4-2.1,3.3-3.4c0.9-1.3,1.6-2.7,2-4.2c0.8-3,0.8-6.1,1.1-9.2c0.1-1.5,0.4-3.1,0.8-4.5
					c0.5-1.5,1.2-2.8,2.2-4c2.1-2.3,4.9-3.4,7.6-4.2c2.7-0.8,5.4-1.3,8-2c2.5-0.7,5-1.7,7-3.1c2-1.4,3.7-3.1,5.2-4.9
					c1.5-1.8,2.8-3.6,3.9-5.4c2.3-3.5,4.3-6.8,6.5-9.5c2.1-2.7,4.2-4.7,6.2-6.1c1.9-1.4,3.7-2.1,4.9-2.5c1.2-0.4,1.9-0.5,1.9-0.5
					c0,0-0.6,0.2-1.8,0.6c-1.2,0.4-2.9,1.2-4.8,2.6c-1.9,1.4-4,3.4-6.1,6.1c-2.1,2.6-4.1,5.9-6.4,9.5c-1.2,1.8-2.4,3.6-3.9,5.4
					c-1.5,1.8-3.2,3.5-5.3,5c-2.1,1.5-4.5,2.5-7.1,3.2c-2.6,0.7-5.3,1.2-8,2c-2.7,0.8-5.4,1.9-7.3,4.1c-0.9,1.1-1.7,2.4-2.1,3.8
					c-0.5,1.4-0.7,2.9-0.8,4.4c-0.3,3-0.2,6.2-1.1,9.3c-0.4,1.6-1.2,3-2.1,4.4c-1,1.3-2.2,2.5-3.4,3.5c-2.6,2-5.4,3.6-8.1,5.2
					c-2.7,1.6-5.3,3.3-7.5,5.4c-4.2,4.4-6,10.5-5.2,16c0.8,5.5,4.1,10.2,8.1,13c4.1,2.8,8.8,3.7,13,4.5c4.2,0.8,8,1.5,11.1,3
					c3.1,1.4,5.5,3.2,7.1,5c1.6,1.8,2.3,3.6,2.5,4.8c0.2,0.6,0.2,1.1,0.2,1.4C536.4,319.8,536.4,320,536.4,320z"/>
			</g>
			<g>
				<path class="st8" d="M620.9,225c0,0-0.3,0-0.8-0.2c-0.5-0.2-1.2-0.5-2.1-0.9c-1.8-0.8-4.1-2.2-6.3-4.1c-2.2-1.9-3.9-4-5-5.6
					c-0.5-0.8-0.9-1.5-1.2-2c-0.2-0.5-0.4-0.8-0.3-0.8c0.1,0,0.7,1,1.8,2.5c1.1,1.5,2.8,3.5,5,5.4c2.2,1.9,4.4,3.3,6.1,4.2
					C619.8,224.5,620.9,224.9,620.9,225z"/>
			</g>
			<g>
				<path class="st8" d="M656.1,297.2c0,0-0.7-0.2-1.9-0.4c-1.2-0.3-2.9-0.5-5.1-0.6c-2.2-0.1-4.8,0-7.7,0.2
					c-2.9,0.2-6.1,0.5-9.5,0.4c-3.4-0.1-6.6-0.6-9.3-1.8c-2.7-1.2-4.9-2.9-6.3-4.6c-1.4-1.7-2.1-3.4-2.4-4.6
					c-0.1-0.6-0.2-1.1-0.2-1.4c0-0.3,0-0.5,0-0.5c0.1,0,0.1,0.7,0.4,1.8c0.3,1.2,1.1,2.8,2.5,4.4c1.4,1.6,3.5,3.3,6.2,4.4
					c2.7,1.1,5.8,1.6,9.2,1.7c3.3,0.1,6.5-0.2,9.4-0.4c2.9-0.2,5.5-0.2,7.7-0.1c2.2,0.1,4,0.5,5.2,0.8c0.6,0.2,1.1,0.3,1.4,0.4
					C655.9,297.1,656.1,297.2,656.1,297.2z"/>
			</g>
			<g>
				<path class="st8" d="M718.4,345.3c0,0-0.1,0.1-0.3,0.1c-0.2,0.1-0.5,0.2-0.9,0.3c-0.8,0.2-2.2,0.3-3.8-0.2
					c-1.6-0.5-3.4-1.5-5.1-3.2c-1.7-1.7-2.9-4.1-4.1-6.8c-1.2-2.7-2.1-5.8-4-8.7c-0.9-1.5-2.1-2.8-3.4-4.1c-1.4-1.2-2.8-2.4-4.5-3.4
					c-6.6-4-15.4-5.6-24.3-5.1c-9,0.5-17.4,2.2-25.2,2.8c-7.8,0.7-14.9-0.2-20.5-2.1c-5.6-1.9-9.6-4.9-11.8-7.4
					c-0.6-0.6-1-1.2-1.4-1.7c-0.4-0.5-0.7-0.9-0.9-1.3c-0.2-0.4-0.4-0.6-0.5-0.8c-0.1-0.2-0.2-0.3-0.2-0.3s0.1,0.1,0.2,0.3
					c0.1,0.2,0.3,0.5,0.6,0.8c0.2,0.4,0.5,0.8,1,1.3c0.4,0.5,0.8,1.1,1.4,1.6c2.2,2.4,6.2,5.3,11.7,7.2c5.6,1.9,12.6,2.7,20.4,2
					c7.8-0.6,16.2-2.3,25.2-2.8c9-0.5,17.8,1.1,24.6,5.2c1.7,1,3.2,2.2,4.6,3.5c1.3,1.3,2.5,2.7,3.4,4.2c1.9,3,2.9,6.1,4,8.8
					c1.1,2.7,2.3,5.1,3.9,6.8c1.6,1.7,3.4,2.7,4.9,3.2c1.6,0.5,2.9,0.4,3.7,0.3C718,345.5,718.4,345.3,718.4,345.3z"/>
			</g>
		</g>
		<g>
			<g>
				<g>
					<g>
						<g>
							<g>
								<g>
									<g>
										<g>
											<g>
												<g>
													<g>
														<g>
															<g>
																<g>
																	<path class="st10" d="M552,225c-4.1-0.1-7.6,2.9-8.1,7l0,0l-8.6,89.1c-1.5,12.5,14.9,39.4,28.3,40.9l0,0
																		c13.6,1.5,14.9-5.1,16.6-16.9c2.9-19.8,3.9-27.3,3.9-27.2c0,0,17.5-0.6,23.9-22.4c3.2-10.9,5.1-29.1,6.1-44.1
																		c0.9-13.5-5.8-31.1-19.3-31.4L552,225z"/>
																</g>
															</g>
														</g>
													</g>
												</g>
											</g>
										</g>
										<g>
											<g>
												<g>
													<g>
														<g>
															<g>
																<g>
																	<g>
																		<path class="st9" d="M608.4,263.2c-0.1,1.5-1.5,2.6-3.1,2.5c-1.6-0.1-2.8-1.4-2.6-3c0.1-1.5,1.6-2.6,3.1-2.5
																			C607.4,260.4,608.5,261.7,608.4,263.2z"/>
																	</g>
																</g>
															</g>
														</g>
													</g>
												</g>
											</g>
											<g>
												<g>
													<g>
														<g>
															<g>
																<g>
																	<g>
																		<g>
																			<path class="st9" d="M609.6,257.4c-0.3,0.4-2.6-1.1-5.7-0.8c-3.1,0.2-5.3,1.9-5.6,1.6c-0.2-0.2,0.1-0.9,1.1-1.6
																				c0.9-0.8,2.5-1.6,4.5-1.7c1.9-0.1,3.6,0.5,4.6,1.1C609.4,256.6,609.8,257.3,609.6,257.4z"/>
																		</g>
																	</g>
																</g>
															</g>
														</g>
													</g>
												</g>
											</g>
										</g>
										<g>
											<g>
												<g>
													<g>
														<g>
															<g>
																<g>
																	<g>
																		<g>
																			<path class="st9" d="M581.2,264.8c-0.4,0.4-2.5-1.3-5.6-1.4c-3.1-0.1-5.4,1.4-5.7,1c-0.2-0.2,0.2-0.8,1.2-1.5
																				c1-0.7,2.7-1.3,4.6-1.3c1.9,0.1,3.5,0.8,4.5,1.6C581,264,581.3,264.6,581.2,264.8z"/>
																		</g>
																	</g>
																</g>
															</g>
														</g>
													</g>
												</g>
											</g>
										</g>
										<g>
											<g>
												<g>
													<g>
														<g>
															<g>
																<g>
																	<g>
																		<path class="st9" d="M586.9,281.2c0-0.2,2-0.3,5.1-0.2c0.8,0,1.6,0,1.8-0.6c0.3-0.5,0-1.4-0.2-2.4
																			c-0.5-2-1-4.1-1.5-6.3c-2.1-8.9-3.5-16.3-3.2-16.3c0.4-0.1,2.4,7.1,4.5,16c0.5,2.2,1,4.3,1.4,6.3
																			c0.2,0.9,0.6,2,0,3.1c-0.3,0.6-0.9,0.9-1.4,1c-0.5,0.1-1,0-1.4,0C588.9,281.6,586.9,281.4,586.9,281.2z"/>
																	</g>
																</g>
															</g>
														</g>
													</g>
												</g>
											</g>
										</g>
										<g>
											<g>
												<g>
													<g>
														<g>
															<g>
																<g>
																	<path class="st11" d="M584.3,317.9c0,0-15.1-1-28.8-11.9c0,0,5.5,16.3,28.1,17.2L584.3,317.9z"/>
																</g>
															</g>
														</g>
													</g>
												</g>
											</g>
										</g>
									</g>
								</g>
							</g>
							<g>
								<g>
									<g>
										<g>
											<g>
												<g>
													<g>
														<path class="st9" d="M581.6,259.5c-0.5,0.8-3.4-0.3-7.1-0.7c-3.6-0.5-6.7-0.1-7-1c-0.1-0.4,0.6-1.1,1.9-1.6
															c1.3-0.5,3.3-0.9,5.5-0.6c2.2,0.3,4.1,1.1,5.2,1.9C581.3,258.3,581.8,259.1,581.6,259.5z"/>
													</g>
												</g>
											</g>
										</g>
									</g>
								</g>
							</g>
							<g>
								<g>
									<g>
										<g>
											<g>
												<g>
													<g>
														<path class="st9" d="M609.1,253.3c-0.5,0.7-2.7,0.1-5.3,0.2c-2.6,0-4.7,0.7-5.3,0c-0.2-0.3,0.1-1.1,1-1.8
															c0.9-0.7,2.4-1.3,4.2-1.4c1.8,0,3.3,0.5,4.3,1.2C609,252.2,609.4,252.9,609.1,253.3z"/>
													</g>
												</g>
											</g>
										</g>
									</g>
								</g>
							</g>
						</g>
					</g>
				</g>
			</g>
			<path class="st11" d="M579.5,286.8c1.4-0.9,3.2-1.3,4.8-1c0.9,0.2,1.7,0.5,2.3,1.2c0.7,0.9,0.8,2.1,0.8,3.2c0,0.7-0.1,1.4-0.3,2
				c-0.2,0.6-0.7,1.2-1.3,1.5c-0.6,0.3-1.4,0.2-2.1,0.1c-1.2-0.2-2.3-0.5-3.3-1.2c-1-0.7-1.7-1.7-1.8-2.9c-0.1-1.2,0.5-2.4,1.6-2.8"
				/>
			<g>
				<path class="st9" d="M587.8,293.6c-0.2,0.1-0.6-0.6-1.4-1.5c-0.7-0.9-1.9-2.1-3.4-3c-1.5-0.9-3.1-1.2-4.3-1.4
					c-1.2-0.2-2-0.2-2-0.4c0-0.2,0.7-0.6,2-0.8c1.3-0.1,3.3,0.1,5.1,1.1c1.8,1,3,2.6,3.6,3.8C588,292.7,588,293.5,587.8,293.6z"/>
			</g>
		</g>
		<path class="st9" d="M534.2,315c7.3-1.5,13-7.8,15.5-14.8c2.5-7.1,2.4-14.8,1.7-22.2c-0.1-1-0.2-2-1-2.6c-1.1-0.9-2.7-0.2-3.9,0.6
			c-4.6,2.8-9.1,6-13.3,9.4c-3.9,3.2-7.8,6.8-9.3,11.6c-2.3,7.4,2.6,16.2,10.1,18.2"/>
		<g>
			<path class="st10" d="M703.2,313.3l-34.7-55.7l-9.6-19.6c0,0-3.1-4.1-6.2-7.5c-5.2-5.7-10.4-1.3-10.4-1.3s-0.7-2.2-3.5-2.1
				c-3.3,0-4.8,2.4-4.8,2.4s-1.4-1.6-5.4-1.8c-0.9-0.1-1.7,0.3-2.5,0.8c-1.3-1.1-3.7-2.8-5.9-1.9c-1.8,0.6-12.6,8.8-15.2,13
				c-1.3,2,1.1,4.7,4.4,3.4c1.4-0.5,2.9-1,3.9-1.6c1.8-1,2.7-2.1,2.7-2.1s-2.7,4.8,0,5.6c1.1,0.3,3.5,0.1,5.1-1.2
				c1-0.9,2.2-2,3.4-3.1c0,0.1-0.1,0.1-0.1,0.2c-1.5,2.2,2.4,5.5,4.3,4.2c0.9-0.7,1.8-1.3,2.5-2c4.4,3.2-1.7,7.3-4.3,7.1
				c-4-0.3-8.7-0.3-11.9,0c-2.2,0.2-4.2,0.7-5.5,2c-1.5,1.5,0.1,4.7,2.1,5c3.8,0.6,8.6,1.4,13.7,2.7c5.9,1.5,21.4,6.6,21.4,6.6
				l1.5,1.2l21.1,51.4l-36.1,7.6l-8.1,45.8l65.2-17.7C705.2,346.8,712.1,327.3,703.2,313.3z"/>
			<g>
				<path class="st11" d="M646.9,266.1c0,0-0.3-0.1-0.8-0.2c-0.6-0.2-1.4-0.4-2.3-0.7c-2.1-0.6-5-1.5-8.6-2.6
					c-1.8-0.5-3.8-1.1-5.9-1.8c-2.1-0.7-4.4-1.3-6.8-1.9c-2.4-0.6-5-1.2-7.6-1.6c-1.3-0.2-2.8-0.1-4.1-0.7c-0.3-0.2-0.7-0.4-0.9-0.7
					c-0.1-0.2-0.2-0.3-0.3-0.6l-0.1-0.6c-0.1-0.7-0.1-1.5,0.1-2.2c0.2-0.8,0.8-1.4,1.5-1.7c0.7-0.4,1.4-0.6,2-0.8
					c1.4-0.4,2.8-0.5,4.2-0.5c2.7,0,5.3,0.4,7.8,0.3c1.2,0,2.4-0.1,3.6-0.4c1.2-0.2,2.3-0.5,3.3-0.8c2.1-0.6,4.2-1,6.2-0.8
					c1.9,0.2,3.6,0.7,5,1.3c1.4,0.6,2.5,1.2,3.5,1.7c0.9,0.5,1.6,0.9,2.1,1.2c0.5,0.3,0.7,0.5,0.7,0.5c0,0-0.3-0.1-0.8-0.4
					c-0.5-0.3-1.2-0.7-2.1-1.2c-0.9-0.5-2.1-1.1-3.5-1.6c-1.4-0.5-3-1-4.9-1.2c-1.9-0.2-3.9,0.3-6,0.8c-1.1,0.3-2.2,0.6-3.4,0.8
					c-1.2,0.2-2.4,0.3-3.7,0.4c-2.5,0.1-5.2-0.3-7.8-0.3c-1.3,0-2.7,0.1-4,0.5c-1.3,0.4-2.8,0.9-3.2,2.2c-0.2,0.6-0.2,1.3-0.1,2
					l0.1,0.5c0,0.1,0.1,0.2,0.2,0.4c0.2,0.2,0.5,0.4,0.8,0.6c1.2,0.6,2.6,0.5,4,0.7c2.7,0.4,5.3,1,7.7,1.6c2.4,0.6,4.7,1.3,6.8,2
					c2.1,0.7,4.1,1.3,5.9,1.9c3.6,1.1,6.5,2.1,8.5,2.7c1,0.3,1.7,0.6,2.3,0.8C646.6,265.9,646.9,266,646.9,266.1z"/>
			</g>
			<g>
				<path class="st11" d="M620.1,226.6c0.1,0.1-1.6,1.1-4.1,3c-1.2,0.9-2.7,2.1-4.2,3.6c-1.5,1.4-3,3.1-4.9,4.7
					c-0.9,0.8-1.7,1.6-2,2.6c-0.1,0.5-0.1,1,0.2,1.4c0.2,0.4,0.6,0.7,1.1,0.8c0.9,0.3,1.9,0.2,2.8,0.1c0.9-0.2,1.7-0.4,2.4-0.7
					c2.9-1.2,4.2-2.7,4.3-2.6c0,0-0.3,0.4-1,1c-0.7,0.6-1.7,1.3-3.2,2c-0.7,0.3-1.6,0.6-2.5,0.8c-0.9,0.2-2,0.3-3,0
					c-0.5-0.2-1.1-0.5-1.4-1.1c-0.3-0.5-0.4-1.2-0.3-1.8c0.2-1.3,1.2-2.2,2.1-2.9c1.8-1.6,3.4-3.2,4.9-4.7c1.5-1.4,3-2.6,4.3-3.5
					c1.3-0.9,2.4-1.6,3.1-2C619.7,226.8,620.1,226.5,620.1,226.6z"/>
			</g>
			<g>
				<path class="st11" d="M633.4,231c0,0-0.4,0.5-1.2,1.5c-0.9,1-2.1,2.3-3.5,3.8c-1.5,1.6-3.3,3.5-5.2,5.6c-1,1.1-2.2,2.1-3.7,2.8
					c-0.7,0.3-1.5,0.6-2.4,0.6c-0.9,0-1.8-0.3-2.4-1c-0.3-0.4-0.5-0.9-0.6-1.3c0-0.5,0-0.9,0.1-1.4c0.2-0.9,0.6-1.6,1.1-2.3l0,0l0,0
					c1.9-2,3.6-3.8,5.2-5.6c1.6-1.7,3.1-3.1,4.4-4.2c0.6-0.6,1.2-1.1,1.8-1.5c0.6-0.3,1.2-0.3,1.7-0.4c0.9-0.1,1.5,0,1.4,0.1
					c0,0-0.5-0.1-1.4,0.1c-0.4,0.1-1.1,0.1-1.6,0.4c-0.6,0.3-1.1,0.9-1.7,1.5c-1.2,1.2-2.7,2.6-4.2,4.3c-1.5,1.7-3.3,3.6-5.1,5.6
					l0,0c-0.4,0.6-0.8,1.4-1,2.1c-0.1,0.4-0.2,0.8-0.1,1.2c0.1,0.4,0.2,0.7,0.4,1c0.5,0.5,1.3,0.8,2,0.8c0.8,0,1.5-0.2,2.2-0.5
					c1.4-0.7,2.6-1.6,3.5-2.7c2-2.1,3.8-4,5.3-5.6c1.5-1.5,2.7-2.8,3.6-3.7c0.4-0.4,0.7-0.7,1-1C633.2,231,633.3,230.9,633.4,231z"
					/>
			</g>
			<g>
				<path class="st11" d="M649.6,236.1c0.1,0,0,0.3-0.4,0.6c-0.4,0.3-1,0.6-1.8,0.4c-0.7-0.1-1.3-0.6-1.5-1
					c-0.2-0.4-0.3-0.7-0.2-0.7c0.1,0,0.2,0.2,0.5,0.5c0.3,0.3,0.7,0.6,1.3,0.7c0.6,0.1,1.1-0.1,1.5-0.2
					C649.3,236.2,649.5,236,649.6,236.1z"/>
			</g>
			<g>
				<path class="st11" d="M650.8,240.9c-0.1,0.1-0.9-0.7-1.6-1.9c-0.7-1.2-1-2.3-0.9-2.3c0.1-0.1,0.7,0.9,1.4,2
					C650.4,239.9,651,240.8,650.8,240.9z"/>
			</g>
			<g>
				<path class="st11" d="M653.2,259.8c-0.1,0-0.5-0.8-1-2.2c-0.5-1.4-0.9-3.5-0.9-5.8c0-2.3,0.5-4.4,1-5.8c0.5-1.4,1-2.2,1.1-2.2
					c0.2,0.1-1.5,3.4-1.5,7.9C651.8,256.4,653.3,259.8,653.2,259.8z"/>
			</g>
			<g>
				<path class="st11" d="M681.7,333.2c-0.1,0-0.2-1.1-0.8-2.8c-0.3-0.9-0.7-1.9-1.3-2.9c-0.6-1-1.3-2.1-2.2-3.2
					c-0.9-1-1.9-1.9-2.9-2.6c-1-0.7-1.9-1.2-2.7-1.6c-1.6-0.8-2.7-1-2.7-1.1c0,0,0.3,0,0.8,0.1c0.5,0.1,1.2,0.3,2.1,0.7
					c0.9,0.3,1.8,0.9,2.9,1.6c1,0.7,2,1.6,3,2.7c0.9,1.1,1.7,2.2,2.2,3.3c0.6,1.1,0.9,2.1,1.2,3c0.2,0.9,0.4,1.6,0.4,2.2
					C681.7,332.9,681.7,333.2,681.7,333.2z"/>
			</g>
		</g>
		<g>
			<path class="st10" d="M560.6,435.1c-4.6-1-8.8,1.1-8.8,1.1c-4.7-2.1-10.5,1.5-10.5,1.5c-1.7-0.8-12,5.9-12,5.9l-12.8,6
				l-68.3-50.7l19.4-20.1l-27.1-28.2l-31.8,32.7c-4,4.1-6,9.6-6.3,15.4c-0.8,12.4,6.3,24,17.4,29.7l80.5,41.3c0,0,8.5-0.3,18.3-2.8
				c6.9-1.8,18.8-7.1,18.8-7.1s0,0.4,2.1,4.5c3.8,7.4,9.4-0.6,9.4-0.6s1.1,2.6,2.2,3.6c4.8,4.7,8.2-1.6,8.2-1.6s1.5,2.5,5.8,0.6
				c4.3-1.9-0.6-14.9-0.6-14.9s1.4,2.8,4.3-0.8C571.4,447,565.3,436,560.6,435.1z"/>
			<g>
				<path class="st11" d="M551,436.8c0,0,0.3-0.2,0.9-0.3c0.6-0.2,1.5-0.2,2.6,0.1c1.1,0.3,2.3,0.9,3.4,1.7c0.6,0.4,1.1,0.9,1.7,1.5
					c0.5,0.6,1,1.3,1.3,2.1c1.5,3,2.5,5.8,3.1,7.8c0.3,1,0.5,1.9,0.7,2.5c0.1,0.6,0.2,0.9,0.1,0.9c-0.1,0-0.5-1.3-1.2-3.3
					c-0.7-2-1.8-4.8-3.2-7.7c-0.4-0.7-0.8-1.4-1.2-2c-0.5-0.5-1.1-1-1.6-1.5c-1.1-0.9-2.2-1.5-3.2-1.8
					C552.3,436.3,551,437,551,436.8z"/>
			</g>
			<g>
				<path class="st11" d="M559.2,465.5c0,0-0.2-0.4-0.6-1.2c-0.4-0.9-0.9-2-1.5-3.2c-1.3-2.7-3.1-6.5-4.9-10.8
					c-0.9-2.1-1.6-4.2-2.8-5.8c-1.1-1.6-2.6-2.7-3.9-3.3c-1.3-0.6-2.6-0.7-3.4-0.6c-0.8,0.1-1.2,0.3-1.3,0.3c0,0,0.1-0.1,0.3-0.2
					c0.2-0.1,0.5-0.2,0.9-0.3c0.8-0.2,2.2-0.1,3.6,0.5c1.4,0.6,3,1.7,4.2,3.3c1.2,1.7,2,3.7,2.9,5.9c1.7,4.2,3.5,8,4.7,10.8
					c0.6,1.4,1,2.5,1.3,3.3C559.1,465.1,559.2,465.5,559.2,465.5z"/>
			</g>
			<g>
				<path class="st11" d="M527.8,449.2c0,0,0.4-0.2,1.1-0.6c0.8-0.4,1.8-0.9,3.1-1.5c0.7-0.3,1.3-0.6,2.1-1c0.8-0.3,1.8-0.5,2.7-0.4
					c1,0.1,2,0.4,2.9,1.1c0.9,0.7,1.5,1.6,2.1,2.5c0.6,0.9,1,1.9,1.5,2.8c0.5,0.9,0.9,1.8,1.4,2.6c0.9,1.6,1.8,3.1,2.4,4.4
					c0.7,1.3,1.1,2.4,1.4,3.1c0.3,0.8,0.4,1.2,0.3,1.2c-0.1,0-0.7-1.6-2-4.1c-0.7-1.3-1.6-2.7-2.5-4.3c-0.5-0.8-1-1.7-1.4-2.6
					c-0.5-0.9-0.9-1.9-1.5-2.8c-0.6-0.9-1.2-1.8-2-2.4c-0.8-0.6-1.7-0.9-2.6-1c-0.9-0.1-1.8,0-2.5,0.3c-0.8,0.3-1.5,0.6-2.1,0.9
					c-1.2,0.5-2.3,1-3.1,1.3C528.3,449.1,527.9,449.3,527.8,449.2z"/>
			</g>
			<g>
				<path class="st11" d="M529.3,443.6c0,0-0.3,0.2-0.9,0.6c-0.6,0.3-1.5,0.8-2.6,1.4c-2.2,1.2-5.3,2.8-8.8,4.5
					c-3.4,1.7-6.6,3.3-8.9,4.4c-1.1,0.5-2.1,1-2.7,1.3c-0.6,0.3-1,0.4-1,0.4c0,0,0.3-0.2,0.9-0.6c0.6-0.3,1.5-0.8,2.6-1.4
					c2.2-1.2,5.3-2.8,8.8-4.5c3.4-1.7,6.6-3.3,8.9-4.4c1.1-0.5,2.1-1,2.7-1.3C528.9,443.7,529.3,443.6,529.3,443.6z"/>
			</g>
			<g>
				<path class="st11" d="M449.2,399c0,0.2-3.6-0.8-8.1-0.3c-4.5,0.5-7.7,2.3-7.8,2.1c0-0.1,0.7-0.6,2.1-1.2
					c1.4-0.6,3.3-1.2,5.6-1.5c2.3-0.3,4.3-0.1,5.8,0.2C448.3,398.6,449.2,398.9,449.2,399z"/>
			</g>
		</g>
		<g>
			<path class="st9" d="M600,215.7c-16.9-0.2-33.8,1.6-50.3,5.3c-3.8,0.9-7.9,2-10.4,4.9c-2.7,3.1-3.2,7.6-3.6,11.7
				c-0.4,5-0.9,10.1-1.3,15.1c-0.7,1.3-1.5,2.5-2.4,3.6c-4,5.2-9,9.5-12.7,15c-3.6,5.5-5.6,12.7-2.7,18.5c1.8,3.5,5.1,6,7.5,9.2
				c4.1,5.3,5.4,12.2,7.8,18.5c2.4,6.3,6.7,12.7,13.3,13.9c3.1,0.6,6.4-0.1,9.6,0.4c4.7,0.7,8.7,3.8,12.5,6.7
				c3.8,2.9,7.8,6,12.6,6.4c4.8,0.5,10.2-2.7,10.3-7.5c-3.5,2-8.1,1.9-11.5-0.3c-2.8-1.8-4.6-4.8-6.9-7.1
				c-5.8-5.7-15.3-7.5-19.3-14.5c-3.2-5.6-1.9-12.6-0.5-18.8c1.3-5.4,2.5-11.3,1-16.6c0.1-0.8,0.2-1.7,0.2-2.5
				c0-5.6-2.2-11.5,0.4-16.5c3.4-6.5,13.3-7.3,16.8-13.8c2-3.8,1.3-8.6,3.5-12.3c2.1-3.4,6.2-5,10.1-5.9c3.9-0.9,8.1-1.3,11.6-3.3
				C599,223.8,601.5,219.4,600,215.7z"/>
			<g>
				<path class="st9" d="M612.8,329.2c0,0,0,0.1-0.2,0.3c-0.1,0.2-0.3,0.4-0.5,0.7c-0.5,0.6-1.3,1.5-2.4,2.5
					c-1.2,0.9-2.8,1.9-4.8,2.6c-2,0.7-4.5,1.1-7.2,0.8c-2.7-0.2-5.6-1.3-8.1-3.3c-2.5-1.9-4.8-4.5-7.6-6.6c-1.4-1-3.1-1.8-4.8-2
					c-1.8-0.3-3.6,0.3-5.4,1c-1.8,0.7-3.6,1.6-5.6,1.9c-2,0.4-4.2-0.1-6-1.1c-1.9-0.9-3.5-2.2-5.1-3.4c-1.6-1.2-3.1-2.5-4.5-3.9
					c-1.4-1.4-2.5-3-3.2-4.8c-0.7-1.8-0.7-3.7-0.4-5.5c0.4-1.8,1-3.4,1.6-5c0.6-1.6,1.1-3.1,1.6-4.6c0.9-3,1.5-5.9,2-8.5
					c0.8-5.3,0.8-9.6,0.7-12.6c-0.1-1.5-0.2-2.7-0.2-3.4c0-0.4-0.1-0.7-0.1-0.9c0-0.2,0-0.3,0-0.3c0,0,0,0.1,0.1,0.3
					c0,0.2,0.1,0.5,0.1,0.9c0.1,0.8,0.2,1.9,0.3,3.4c0.2,3,0.3,7.4-0.5,12.7c-0.4,2.7-1,5.5-1.9,8.6c-0.5,1.5-1,3.1-1.6,4.6
					c-0.6,1.6-1.2,3.2-1.6,4.9c-0.3,1.7-0.3,3.5,0.4,5.2c0.6,1.7,1.7,3.2,3.1,4.6c1.3,1.4,2.8,2.6,4.4,3.8c1.6,1.2,3.2,2.4,5,3.3
					c1.8,0.9,3.8,1.4,5.7,1c1.9-0.3,3.7-1.2,5.5-1.9c1.8-0.7,3.7-1.3,5.7-1c1.9,0.2,3.6,1.1,5.1,2.1c2.9,2.1,5.1,4.7,7.6,6.6
					c2.4,2,5.2,3,7.9,3.3c2.6,0.3,5.1-0.1,7.1-0.7c2-0.7,3.6-1.6,4.8-2.5C611.9,330.7,612.7,329.2,612.8,329.2z"/>
			</g>
			<g>
				<path class="st8" d="M507.1,295.6c0,0-0.3-0.4-0.8-1.2c-0.5-0.8-1.1-2.1-1.5-3.9c-0.4-1.8-0.4-4,0.1-6.5
					c0.6-2.5,1.7-5.3,3.7-7.8c1.9-2.6,4.6-5,7.6-7.2c3-2.3,6.5-4.4,9.9-6.8c3.4-2.5,6.9-5.3,9.4-9.1c1.3-1.9,2.2-4.1,2.9-6.3
					c0.7-2.3,1.1-4.6,1.7-7c0.5-2.4,1.2-4.8,2.1-7c1-2.2,2.4-4.2,4.2-5.7c1.8-1.5,3.9-2.6,6-3.3c2.1-0.7,4.3-1.1,6.4-1.3
					c4.3-0.4,8.3,0.1,12.1,0.4c3.8,0.3,7.3,0.5,10.4,0.1c3.2-0.3,5.9-1.3,8.2-2.4c2.2-1.2,3.9-2.6,5-4c1.1-1.4,1.7-2.7,2-3.5
					c0.3-0.9,0.4-1.4,0.4-1.4c0,0-0.1,0.5-0.3,1.4c-0.3,0.9-0.9,2.2-2,3.6c-1.1,1.4-2.8,2.9-5,4.2c-2.3,1.2-5.1,2.2-8.3,2.6
					c-3.2,0.4-6.8,0.2-10.5-0.1c-3.8-0.3-7.8-0.7-12-0.3c-2.1,0.2-4.2,0.6-6.3,1.3c-2.1,0.7-4.1,1.7-5.8,3.2c-1.7,1.5-3.1,3.4-4,5.6
					c-1,2.2-1.6,4.5-2.1,6.9c-0.5,2.4-1,4.8-1.7,7.1c-0.7,2.3-1.6,4.5-2.9,6.5c-2.6,3.9-6.1,6.8-9.6,9.3c-3.5,2.5-6.9,4.5-9.9,6.8
					c-3,2.2-5.7,4.6-7.6,7.1c-2,2.5-3.1,5.2-3.7,7.7c-0.6,2.5-0.5,4.7-0.2,6.4C505.6,294.1,507.2,295.5,507.1,295.6z"/>
			</g>
			<g>
				<path class="st8" d="M510.2,301.1c0,0-1.3-0.9-3.3-3.1c-0.9-1.1-2.1-2.5-2.8-4.5c-0.4-1-0.6-2.1-0.5-3.3
					c0.1-1.2,0.6-2.4,1.4-3.5c1.7-2.1,4.5-3.2,7.5-3.9c1.5-0.3,3.1-0.6,4.6-0.9c1.6-0.4,3.1-0.9,4.5-1.9c1.4-1,2.5-2.3,3.3-3.9
					c0.8-1.6,1.4-3.3,2-5c0.6-1.8,1.2-3.6,2.2-5.3c0.9-1.7,2.2-3.3,4-4.4c1.7-1.1,3.6-1.7,5.5-2.2c1.9-0.5,3.7-0.9,5.5-1.5
					c3.5-1.1,6.3-3.5,8.4-6.2c2.1-2.7,3.7-5.5,5.2-8.2c1.5-2.6,3-5.1,4.8-7c1.7-2,3.6-3.5,5.4-4.4c1.8-1,3.6-1.4,5.1-1.5
					c1.5-0.1,2.6,0.1,3.3,0.3c0.7,0.2,1.1,0.4,1.1,0.4c0,0-0.4-0.1-1.1-0.3c-0.7-0.2-1.9-0.3-3.3-0.2c-1.4,0.2-3.1,0.6-4.9,1.6
					c-1.8,1-3.6,2.4-5.3,4.4c-1.7,2-3.1,4.4-4.7,7c-1.5,2.6-3.1,5.5-5.2,8.2c-1.1,1.4-2.3,2.7-3.7,3.8c-1.4,1.1-3.1,2-4.9,2.6
					c-1.8,0.6-3.7,1-5.5,1.5c-1.8,0.5-3.7,1.1-5.4,2.1c-1.6,1-2.9,2.5-3.8,4.2c-0.9,1.7-1.5,3.5-2.1,5.2c-0.6,1.8-1.2,3.5-2.1,5.1
					c-0.8,1.6-2,3-3.5,4.1c-1.5,1-3.1,1.5-4.7,1.9c-1.6,0.4-3.2,0.6-4.6,0.9c-2.9,0.6-5.7,1.7-7.3,3.7c-0.8,1-1.3,2.1-1.4,3.3
					c-0.1,1.1,0.1,2.2,0.4,3.2c0.7,1.9,1.8,3.3,2.7,4.4c0.9,1.1,1.7,1.9,2.3,2.4c0.3,0.2,0.5,0.4,0.6,0.6
					C510.1,301.1,510.2,301.1,510.2,301.1z"/>
			</g>
		</g>
	</g>
	<g>
		<path class="st11" d="M640.4,232.8c0,0-0.2,0.3-0.5,0.8c-0.4,0.5-0.9,1.2-1.7,2.1c-1.4,1.7-3.5,4.1-5.9,6.5
			c-1.2,1.2-2.3,2.5-3.9,3c-0.8,0.2-1.6,0.2-2.2,0c-0.7-0.3-1.2-0.8-1.4-1.3c-0.6-1.1-0.5-2.1-0.4-2.7c0.1-0.6,0.2-1,0.3-1
			c0,0,0,0.4,0,1c0,0.6,0,1.6,0.5,2.5c0.3,0.5,0.7,0.9,1.3,1.1c0.6,0.2,1.3,0.2,1.9,0c1.3-0.4,2.4-1.7,3.7-2.9
			c2.4-2.4,4.5-4.7,6-6.4C639.4,233.8,640.4,232.7,640.4,232.8z"/>
	</g>
	<g>
		<path class="st11" d="M648.5,232.8c0,0-0.2,0.3-0.6,0.8c-0.4,0.5-1.1,1.2-1.9,2.1c-0.8,0.9-1.8,1.9-2.8,3.1
			c-0.5,0.6-1.1,1.2-1.7,1.8c-0.6,0.6-1.2,1.3-2,1.8c-0.8,0.5-1.6,1-2.6,1c-0.9,0.1-1.9-0.3-2.4-1c-0.3-0.4-0.4-0.8-0.4-1.2
			c0-0.4,0.2-0.8,0.4-1.1c0.4-0.6,0.8-1.1,1.1-1.6c0.7-1,1.3-1.7,1.7-2.3c0.4-0.5,0.7-0.8,0.7-0.8c0,0-0.2,0.3-0.5,0.9
			c-0.4,0.6-0.9,1.4-1.6,2.4c-0.3,0.5-0.7,1-1.1,1.6c-0.3,0.6-0.4,1.3,0,1.8c0.4,0.6,1.2,0.9,2,0.8c0.8-0.1,1.6-0.4,2.3-0.9
			c0.7-0.5,1.3-1.1,1.9-1.8c0.6-0.6,1.2-1.2,1.7-1.8c1.1-1.1,2.1-2.1,2.9-3c0.8-0.8,1.5-1.5,2-2C648.2,233,648.5,232.8,648.5,232.8z
			"/>
	</g>
</g>
<g>
	<path class="st2" d="M380.8,489.8c4.5,3.7,6.9,9.7,6.3,15.5c-0.6,5.8-4.3,11.1-9.5,13.8C373.7,509.1,372.2,498.4,380.8,489.8"/>
	<g>
		<path class="st2" d="M395.5,497.4c0.4,7.5,4.8,14.7,11.3,18.5c6.5,3.8,14.9,4.1,21.7,0.7C421.1,504.9,411,495.1,395.5,497.4"/>
		<g>
			<path class="st9" d="M361.8,460.6c0,0,0.2,0.2,0.5,0.5c0.3,0.4,0.8,0.9,1.3,1.6c1.1,1.4,2.8,3.4,4.8,5.8
				c4.1,4.9,10,11.5,16.8,18.4c3.4,3.4,6.8,6.6,10,9.4c3.2,2.8,6.1,5.2,8.6,7.1c2.6,1.9,4.7,3.4,6.2,4.2c1.5,0.9,2.4,1.3,2.4,1.3
				c0,0-0.2-0.1-0.7-0.3c-0.4-0.2-1.1-0.4-1.9-0.9c-1.6-0.8-3.8-2.3-6.4-4.1c-2.6-1.9-5.5-4.3-8.7-7.1c-3.2-2.8-6.6-6-10-9.4
				c-6.9-6.9-12.7-13.6-16.7-18.5c-2-2.5-3.6-4.5-4.7-5.9c-0.5-0.7-0.9-1.2-1.2-1.6C361.9,460.8,361.8,460.6,361.8,460.6z"/>
		</g>
	</g>
	<g>
		<path class="st9" d="M380,504.8c-0.1,0,0.3-1.5,0.6-3.9c0.3-2.4,0.5-5.8,0.1-9.4c-0.4-3.7-1.3-6.9-2-9.2c-0.8-2.3-1.4-3.7-1.4-3.7
			c0,0,0.2,0.3,0.5,0.9c0.3,0.6,0.7,1.5,1.2,2.6c0.9,2.3,1.8,5.6,2.2,9.3c0.4,3.7,0.1,7.1-0.3,9.5c-0.2,1.2-0.4,2.2-0.6,2.8
			C380.1,504.5,380,504.8,380,504.8z"/>
	</g>
</g>
<g>
	<g>
		<path class="st2" d="M800.3,369.4c-2.2-8.1-0.1-17.2,5.3-23.6s14.1-9.8,22.4-9c1.5,8-1,16.2-5.2,23.2
			C817.8,368.2,807.9,371.7,800.3,369.4"/>
		<g>
			<path class="st9" d="M769.1,400.7c0,0,0.1-0.2,0.4-0.6c0.4-0.4,0.8-0.9,1.4-1.6c1.2-1.3,3-3.2,5.2-5.6c4.4-4.7,10.6-11,17.5-18
				c6.9-7,13.2-13.3,17.8-17.8c2.3-2.2,4.1-4,5.4-5.3c0.6-0.6,1.1-1.1,1.5-1.4c0.3-0.3,0.5-0.5,0.5-0.5c0,0-0.1,0.2-0.5,0.6
				c-0.4,0.4-0.8,0.9-1.4,1.5c-1.3,1.3-3.1,3.2-5.3,5.5c-4.6,4.6-10.8,10.9-17.6,17.9c-6.9,7-13.1,13.3-17.6,17.9
				c-2.2,2.3-4,4.1-5.3,5.4c-0.6,0.6-1.1,1.1-1.4,1.5C769.3,400.5,769.1,400.7,769.1,400.7z"/>
		</g>
		<g class="st12">
			<path class="st7" d="M800.3,369.4c-2.2-8.1-0.1-17.2,5.3-23.6s14.1-9.8,22.4-9c1.5,8-1,16.2-5.2,23.2
				C817.8,368.2,807.9,371.7,800.3,369.4"/>
		</g>
	</g>
	<g>
		<path class="st2" d="M785.9,372.5c-4.6-2.4-7.9-7-8.5-12.1c-0.6-5.1,1.4-10.5,5.2-13.9c4.2,2.6,6.9,7.2,8.4,12
			C792.6,364.1,790.1,370,785.9,372.5"/>
		<g class="st12">
			<path class="st7" d="M785.9,372.5c-4.6-2.4-7.9-7-8.5-12.1c-0.6-5.1,1.4-10.5,5.2-13.9c4.2,2.6,6.9,7.2,8.4,12
				C792.6,364.1,790.1,370,785.9,372.5"/>
		</g>
		<g>
			<path class="st9" d="M787.5,381.5c0,0-0.2-0.3-0.3-1c-0.2-0.6-0.4-1.6-0.6-2.7c-0.4-2.3-0.9-5.5-1.3-9c-0.4-3.5-0.7-6.7-0.9-9.1
				c-0.2-2.3-0.2-3.8-0.2-3.8c0.1,0,0.3,1.4,0.5,3.7c0.3,2.5,0.7,5.6,1.1,9c0.4,3.5,0.8,6.7,1.2,9
				C787.3,380.1,787.6,381.5,787.5,381.5z"/>
		</g>
	</g>
</g>
<g>
	<path class="st2" d="M587.7,495.2c3.2-7.6,10.4-13.4,18.6-14.9c8.1-1.5,16.9,1.4,22.6,7.4C616.9,497,602.9,503.3,587.7,495.2"/>
	<g class="st12">
		<path class="st7" d="M587.7,495.2c3.2-7.6,10.4-13.4,18.6-14.9c8.1-1.5,16.9,1.4,22.6,7.4C616.9,497,602.9,503.3,587.7,495.2"/>
	</g>
	<g>
		<path class="st9" d="M580.9,498.9c0,0,0.3-0.3,1-0.7c0.6-0.5,1.6-1.1,2.8-1.8c2.4-1.4,5.9-3.1,9.9-4.4c4-1.3,7.8-2,10.6-2.3
			c1.4-0.2,2.5-0.2,3.3-0.2c0.8,0,1.2,0,1.2,0c0,0.1-1.7,0.2-4.4,0.6c-2.7,0.4-6.5,1.1-10.5,2.5c-4,1.3-7.4,2.9-9.9,4.3
			C582.4,498,581,499,580.9,498.9z"/>
	</g>
</g>
<g>
	<path class="st2" d="M308.8,357.3c5.8-2.7,12.9-2.3,18.3,1.1c5.4,3.4,9,9.5,9.2,15.9C324.6,373.4,313.3,369.8,308.8,357.3"/>
	<g class="st12">
		<path class="st7" d="M308.8,357.3c5.8-2.7,12.9-2.3,18.3,1.1c5.4,3.4,9,9.5,9.2,15.9C324.6,373.4,313.3,369.8,308.8,357.3"/>
	</g>
	<g>
		<path class="st9" d="M303,355.9c0,0,0.3,0,0.9,0c0.6,0.1,1.5,0.2,2.5,0.4c2.1,0.4,5,1.2,8,2.6c3,1.3,5.5,2.9,7.3,4.2
			c0.9,0.6,1.5,1.2,2,1.6c0.4,0.4,0.7,0.6,0.7,0.7c-0.1,0.1-1.1-0.7-2.9-1.9c-1.8-1.2-4.3-2.7-7.3-4c-3-1.3-5.8-2.2-7.8-2.7
			C304.2,356.2,302.9,356,303,355.9z"/>
	</g>
</g>
<g>
	<path class="st2" d="M687.9,482.2c-0.7-5.7,1.7-11.6,6-15.3c4.4-3.7,10.6-5,16.1-3.4C706.1,473.2,699.9,481.9,687.9,482.2"/>
	<g>
		<path class="st9" d="M685.2,486.8c-0.1,0,0.4-1.1,1.3-2.8c0.9-1.7,2.4-3.9,4.4-6.1c2-2.2,4-3.9,5.6-5c1.6-1.1,2.6-1.7,2.6-1.6
			c0,0.1-0.9,0.7-2.4,1.9c-1.5,1.2-3.5,2.9-5.4,5.1c-1.9,2.2-3.4,4.3-4.5,5.9C685.8,485.8,685.2,486.8,685.2,486.8z"/>
	</g>
</g>
<g>
	<path class="st2" d="M771.2,427.2c-1.7-5.4-0.6-11.7,3-16.2c3.6-4.4,9.5-6.9,15.2-6.3C787.3,415,782.8,424.7,771.2,427.2"/>
	<g class="st12">
		<path class="st7" d="M771.2,427.2c-1.7-5.4-0.6-11.7,3-16.2c3.6-4.4,9.5-6.9,15.2-6.3C787.3,415,782.8,424.7,771.2,427.2"/>
	</g>
	<g>
		<path class="st9" d="M769.3,432.2c-0.1,0,0.2-1.2,0.8-3c0.6-1.8,1.7-4.3,3.2-6.8c1.5-2.5,3.2-4.6,4.5-6c1.3-1.4,2.3-2.1,2.3-2.1
			c0.1,0.1-0.8,0.9-2,2.3c-1.2,1.4-2.8,3.5-4.3,6c-1.5,2.5-2.6,4.9-3.3,6.7C769.8,431.1,769.4,432.3,769.3,432.2z"/>
	</g>
</g>
<g>
	<path class="st2" d="M143.5,351.6c1.2-5.6,5.4-10.4,10.8-12.4c5.3-2,11.7-1.2,16.3,2.2C163.6,349.1,154.9,355.2,143.5,351.6"/>
	<g>
		<path class="st9" d="M139.4,354.9c0,0,0.7-0.9,2.2-2.2c1.4-1.3,3.6-2.9,6.2-4.3c2.6-1.4,5.1-2.4,6.9-2.9c1.8-0.5,3-0.7,3-0.6
			c0,0.1-1.1,0.4-2.9,1c-1.8,0.6-4.2,1.6-6.8,3c-2.5,1.4-4.7,2.9-6.2,4.1C140.3,354.2,139.5,355,139.4,354.9z"/>
	</g>
</g>
<g>
	<g>
		<g>
			<g>
				<path class="st4" d="M627.2,213.5l8.5-15.3c-3.9-6.2-6.2-13.5-6.2-21.3c-0.2-22.5,17.9-41,40.4-41.2c22.5-0.2,41,17.9,41.2,40.4
					c0.2,22.5-17.9,41-40.4,41.2c-9.4,0.1-18.1-3-25-8.3l0,0L627.2,213.5z"/>
				<g>
					<path class="st9" d="M627.2,213.5c1-0.2,6.7-1.7,18.4-4.7l-0.1,0.2l0,0l-0.6-0.8l0.8,0.6c2.3,1.8,5.1,3.5,8.4,4.9
						c3.3,1.4,7,2.5,11.1,3c2.1,0.2,4.2,0.4,6.4,0.2c1.1-0.1,2.2-0.1,3.3-0.2c1.1-0.2,2.3-0.4,3.4-0.6c4.6-1,9.2-2.8,13.5-5.5
						c4.3-2.7,8.3-6.4,11.5-11c3.2-4.5,5.6-9.9,6.6-15.6c1.1-5.8,0.9-12-0.7-17.9c-1.6-5.9-4.5-11.7-8.8-16.5l-1.7-1.8
						c-0.5-0.6-1.2-1.1-1.8-1.7c-0.6-0.5-1.2-1.1-1.8-1.6l-1.9-1.4c-0.6-0.5-1.3-0.9-2-1.3l-2.1-1.2c-0.7-0.3-1.4-0.7-2.1-1
						c-0.7-0.3-1.4-0.7-2.2-0.9c-5.9-2.3-12.1-3.1-18.1-2.6c-6,0.5-11.7,2.2-16.5,5c-4.9,2.8-9,6.5-12.2,10.6
						c-3.2,4.1-5.4,8.6-6.8,13.1c-1.4,4.5-1.7,9-1.7,13.2c0.3,8.4,3.1,15.2,6.1,20.1l0,0.1l0,0.1
						C630.4,207.9,627.7,212.7,627.2,213.5c0.4-0.8,3-5.6,8.4-15.4l0,0.1c-3.1-4.8-6-11.7-6.3-20.2c-0.1-4.2,0.3-8.7,1.6-13.3
						c1.4-4.6,3.6-9.1,6.8-13.3c3.2-4.2,7.4-7.9,12.3-10.7c4.9-2.8,10.7-4.6,16.7-5.1c6-0.5,12.4,0.3,18.3,2.6
						c0.8,0.2,1.5,0.6,2.2,1c0.7,0.3,1.5,0.7,2.2,1l2.1,1.2c0.7,0.4,1.4,0.8,2,1.3l2,1.4c0.7,0.5,1.2,1.1,1.9,1.6
						c0.6,0.6,1.3,1.1,1.8,1.7l1.7,1.8c4.4,4.8,7.3,10.7,8.9,16.7c1.6,6,1.7,12.3,0.7,18.2c-1.1,5.9-3.5,11.3-6.7,15.8
						c-3.2,4.6-7.3,8.3-11.6,11.1c-4.4,2.8-9.1,4.6-13.7,5.5c-1.2,0.2-2.3,0.4-3.4,0.6c-1.1,0.1-2.3,0.1-3.4,0.2
						c-2.2,0.1-4.4,0-6.5-0.3c-4.2-0.5-7.9-1.7-11.2-3.1c-3.3-1.4-6.1-3.2-8.4-5l0.2-0.2l0,0l0.1,0.2l-0.2,0
						C634,211.9,628.2,213.2,627.2,213.5z"/>
				</g>
			</g>
		</g>
	</g>
	<g>
		<g>
			<path class="st2" d="M659,169.5l5.3-0.1c0,0,0-4.5,4.6-4.6c2.4-0.1,3.7,1.5,4.2,2.7c0.6,1.4,0.4,3-0.3,4.3
				c-0.9,1.5-2.8,2.9-6.4,2.3l0.1,12l5.2-0.1l-0.1-7c0,0,7.3-2,7.3-10.1c-0.1-7.8-7-9.5-10-9.5C666.5,159.5,658.8,160.1,659,169.5z"
				/>
			
				<rect x="666.4" y="188.5" transform="matrix(1 -9.598890e-03 9.598890e-03 1 -1.8025 6.4312)" class="st2" width="5.3" height="5"/>
		</g>
	</g>
</g>
</svg>
